<svg id="Layer_1" data-name="Layer 1" xmlns="http://www.w3.org/2000/svg" viewBox="0 0 100 100"><defs><style>.cls-1{fill:#e9e9e9;}.cls-2{fill:#6d6d6d;}.cls-3{fill:#3f3f3f;}.cls-4{fill:#555;}.cls-5{fill:#464646;}.cls-6{fill:#545454;}.cls-7{fill:#2e2e2e;}.cls-8{fill:#606060;}.cls-9{fill:#676767;}.cls-10{fill:#3c3c3c;}.cls-11{fill:#363636;}.cls-12{fill:#404040;}.cls-13{fill:#595959;}</style></defs><title>Artboard 3</title><path class="cls-1" d="M41.29,25.18a0,0,0,0,1,0,0S41.29,25.15,41.29,25.18Z"/><path class="cls-2" d="M19.24,30.94l.52-.48c.14,0,.22-.07.2-.23h0a.66.66,0,0,0,.72-.43h0a.46.46,0,0,0,.53-.31h0c.1,0,.19,0,.21-.12h0a1.69,1.69,0,0,0,1.25-.72h0c.29,0,.55-.07.64-.4h0c.09,0,.18,0,.21-.12h0c.24,0,.48,0,.52-.31h0c.23-.06.52,0,.62-.33v0h0c.5-.13,1-.21,1.26-.77q3.64-2.13,7.3-4.25c.39-.23.81-.43,1.21-.64.08,0,.16,0,.18-.12h0a1.44,1.44,0,0,0,1.13-.64h0A2,2,0,0,0,37,20.32h0c.34,0,.66-.09.82-.44h0a.23.23,0,0,0,.33-.2h0c.1,0,.19,0,.22-.12v0l.12-.11h0c.27,0,.51,0,.62-.33h0a2.64,2.64,0,0,0,1.45-.83h0c.28-.07.63,0,.72-.42h0c.18.06.28,0,.32-.2h0a.73.73,0,0,0,.73-.42h0c.1,0,.19,0,.21-.12h0c.22,0,.4,0,.43-.29h0c.09,0,.18,0,.21-.11h0c.24,0,.47,0,.53-.31h0c.22,0,.43,0,.52-.25,1.06-.71,2.18-1.32,3.27-2a4.37,4.37,0,0,1,1.28-.42,4.82,4.82,0,0,1,2.36-.14,10.36,10.36,0,0,1,1.79.82c0,.11.12.12.22.11h0a1.32,1.32,0,0,0,1,.61h0a.71.71,0,0,0,.73.42h0a.44.44,0,0,0,.52.31h0c0,.24.22.25.41.22h0c0,.12.12.13.21.12h0c0,.07.05.11.11.11h0a.69.69,0,0,0,.73.41h0c0,.12.11.13.21.12h0c0,.23.23.24.42.22h0l.12.11v0c0,.13.11.14.21.12h0c.05.23.22.24.41.23h0l.12.11v0A.74.74,0,0,0,59,18h0c.05.23.22.25.41.23h0l.12.11v0c0,.13.11.13.21.11h0c.05.23.23.24.42.22h0l.12.11h0a.45.45,0,0,0,.53.3h0c0,.13.11.14.21.12h0a.73.73,0,0,0,.74.42h0a.39.39,0,0,0,.41.22h0l.12.11h0c0,.12.12.12.22.1h0a.23.23,0,0,0,.33.2h0c0,.25.22.25.41.22h0c0,.24.23.24.42.23h0c.12.36.42.4.73.42h0c.05.31.28.32.52.31h0c0,.26.2.27.37.33l.44.2c.17.28.37.5.75.39h0c0,.24.22.25.41.22h0a.11.11,0,0,0,.12.1h0c.08.32.38.26.61.33h0a.12.12,0,0,0,.12.1h0c.05.39.4.23.6.33h0l.12.11h0a.43.43,0,0,0,.54.3h0c0,.12.12.13.22.11h0a.45.45,0,0,0,.56.33h0l.17.11a7.28,7.28,0,0,0,1.37.76,8.16,8.16,0,0,1,1.77,1.1c0,.1.13.11.23.09h0c.06.23.23.24.42.23h0c0,.24.16.23.33.21h0a.23.23,0,0,0,.32.2h0c0,.12.11.13.21.11h0c.05.24.22.25.41.23h0l.12.11v0c0,.13.12.13.22.12h0a.23.23,0,0,0,.33.2h0c0,.13.11.14.22.11h0a.73.73,0,0,0,.73.42h0c0,.24.23.25.42.23h0l.12.11v0a.44.44,0,0,0,.53.3h0c0,.12.1.13.2.13h0a.49.49,0,0,0,.54.29h0c0,.12.11.13.21.11h0a.39.39,0,0,0,.52.31h0c0,.12.12.13.22.11h0c0,.24.22.25.41.23h0l.11.11v0c0,.24.22.25.41.23h0c0,.28.19.33.43.32l.09.08.12.12.09.08.11.13h0l.11.11h0l.11.11h0c0,.23,0,.41.31.42h0c0,.19,0,.37.23.41h0c0,.1,0,.18.11.21h0c0,.11,0,.19.11.22h0c0,.24,0,.49.08.73a4,4,0,0,0-.46.23L76.78,36c-2,1.18-4.09,2.31-6.09,3.54a3.7,3.7,0,0,1-1.31.67,25,25,0,0,0-2.88-4l-.11-.15h0L66.28,36h0l-.11-.12h0l-.11-.11h0L66,35.64l-.08-.09-.11-.12h0l-.13-.11-.08-.08-.13-.13-1.63-1.4a.17.17,0,0,0-.21-.15h0c0-.28-.18-.34-.42-.31h0l-.12-.11h0a.12.12,0,0,0-.12-.11h0c0-.16-.18-.18-.31-.22v0a.61.61,0,0,0-.72-.44h0l-.12-.11v0c-.05-.24-.23-.24-.41-.23h0L61.31,32v0a1.08,1.08,0,0,0-.94-.51h0c0-.17-.19-.12-.31-.12h0a.92.92,0,0,0-.84-.42h0c-.06-.16-.2-.12-.32-.12h0a1.8,1.8,0,0,0-1.3-.53A26.93,26.93,0,0,0,52,29.28c-.07-.24-.27-.16-.43-.16-.58,0-1.15,0-1.73,0a3.7,3.7,0,0,1-.55.09,16.31,16.31,0,0,0-3.93.65c-.45.11-1,.13-1.31.57-.23.06-.46.09-.68.17-1,.35-1.88,1.1-2.94,1.41-.27.06-.52.14-.61.44h0l-.12.11h0c-.1,0-.18,0-.22.11h0c-.1,0-.19,0-.2.13v0a.11.11,0,0,0-.11.11h0c-.32,0-.56.07-.6.43l0,0a.1.1,0,0,0-.11.11h0c-.17,0-.23,0-.23.2l-.1.09c-.09,0-.18,0-.2.12v0l-.11.14-.09.07-.12.11h0c-.09,0-.18,0-.21.12h0l-.11.11h0c-.15,0-.22.07-.21.22h0l-.11.11h0l-.12.12-.08.09c-.24,0-.45,0-.4.34v0a.1.1,0,0,0-.11.11h0c-.07,0-.1,0-.1.11h0c-.07,0-.1,0-.11.11h0c-.07,0-.11,0-.11.11h0a.12.12,0,0,0-.12.11h0c-.13,0-.13.1-.13.2h0c-.24,0-.35.08-.31.32h0l-.11.12h0c-.16,0-.21.07-.22.2-.91,1.21-1.76,2.44-2.55,3.73-.39.15-.43.49-.44.84h0c-.12,0-.13.11-.11.21h0c-.12,0-.13.11-.11.21h0a.91.91,0,0,0-.33.83h0c-.21.07-.24.24-.2.43h0A4.63,4.63,0,0,0,30.74,45l0,0-.08,0,.07.06c-.17.54-.13,1.12-.35,1.65-.15,0-.18.11-.2.24a26.65,26.65,0,0,0,0,6.12c0,.14.06.23.2.25a11.84,11.84,0,0,1,.32,1.55,1.43,1.43,0,0,0,.33,1.24h0A5.14,5.14,0,0,0,32,58.56h0l.1.14v0c0,.11,0,.22.12.26h0c0,.19,0,.37.21.41h0c0,.1,0,.19.11.21h0c0,.1,0,.19.11.21h0l.1.12h0a1,1,0,0,0,.54.93h0c0,.1,0,.19.12.2h0l.07.31-7,4.11-6.84,4a5,5,0,0,1-1.13-1.56c.17-.13,0-.25,0-.36A5,5,0,0,1,18,65.82V34.18a5.58,5.58,0,0,1,.74-2.35c.1-.14.21-.28.15-.47h0A.4.4,0,0,0,19.24,30.94Z"/><path class="cls-3" d="M19.55,69.45l6.84-4,7-4.11.15-.06a.07.07,0,0,1,0,.05c-.1.23,0,.3.22.35L35,63.33c0,.21.1.34.34.3h0a.12.12,0,0,0,.12.12h0l.11.12h0l.11.12h0c0,.24,0,.56.45.47v0c0,.08,0,.12.11.1h0c0,.08,0,.12.11.11h0c0,.09,0,.12.11.11h0c-.06.12,0,.14.12.15a23.38,23.38,0,0,0,4.37,3.29.19.19,0,0,0,.22.12h0a3,3,0,0,0,1.77.83h0c.13.39.49.27.77.33l2.11.71c.11.19.28.1.43.12h.05l0,0a1.26,1.26,0,0,0,.82.2h.11a5.28,5.28,0,0,0,2.39.32.15.15,0,0,1,.09,0,.2.2,0,0,0,.2.09H52c.66-.07,1.33-.1,2-.22a9.16,9.16,0,0,0,2.57-.6,3.49,3.49,0,0,0,1.24-.41l.41-.23c.21.13.9-.15,1.11-.45h0A2.49,2.49,0,0,0,61,68.16h0c.18,0,.34.07.33-.19h0c.14,0,.27,0,.33-.13l.23-.19A21.71,21.71,0,0,0,66,64.29c.16-.2.43-.33.6-.55.47-.61.92-1.23,1.38-1.85a4.9,4.9,0,0,0,1.35.9c1.9,1.14,3.79,2.27,5.66,3.44,1.24.77,2.52,1.45,3.74,2.25a4,4,0,0,0,1.83.88,13.94,13.94,0,0,1-1.33,1A23.35,23.35,0,0,0,77,71.55a10.85,10.85,0,0,1-1.49.89c-.89.51-1.73,1.12-2.65,1.56s-1.54.92-2.35,1.3-1.28.86-2,1.19c-1.1.53-2.09,1.25-3.18,1.79a3.73,3.73,0,0,0-1.17.68c-.1,0-.25,0-.22.16h0c-.24-.07-.41,0-.45.26h0c-.09,0-.19,0-.21.11h0c-.25,0-.48,0-.53.31h0a.58.58,0,0,0-.63.32c-1.27.81-2.58,1.54-3.88,2.27-.11,0-.22,0-.24.14h0c-.29,0-.59,0-.65.38h0c-.19,0-.38,0-.41.23h0c-.13,0-.21,0-.23.15-.29,0-.41.27-.63.39a9.3,9.3,0,0,0-1.53.81c-.56.45-1.25.6-1.8,1.08a2.84,2.84,0,0,1-2.08.64,7,7,0,0,1-2.37-.2c-.24-.07-.45-.28-.72-.18h0c0-.14-.14-.14-.24-.13-1.38-.65-2.62-1.55-4-2.27-1-.52-1.89-1.1-2.85-1.63S38.51,80.57,37.45,80l-2.88-1.67c-1.06-.6-2.09-1.23-3.16-1.81-1.29-.72-2.58-1.44-3.83-2.24-.85-.55-1.78-1-2.67-1.5s-1.49-.88-2.22-1.33a1.37,1.37,0,0,0-.44-.21c-.07-.31-.26-.4-.56-.34l0,0,0,0c0-.16-.09-.15-.2-.12h0c-.07-.33-.33-.34-.6-.35h0l-.16-.11A3.65,3.65,0,0,1,19.55,69.45Z"/><path class="cls-4" d="M80.52,69.36a4,4,0,0,1-1.83-.88c-1.22-.8-2.5-1.48-3.74-2.25-1.87-1.17-3.76-2.3-5.66-3.44a4.9,4.9,0,0,1-1.35-.9,8.79,8.79,0,0,0-2.1-1.36c-.91-.59-1.85-1.15-2.79-1.7s-2-1.1-2.9-1.74c-.17-.12-.4-.35-.67-.15-.09-.23-.3,0-.45-.15a31.89,31.89,0,0,0-3.64-2.3c-1.25-.78-2.56-1.46-3.8-2.25a3.13,3.13,0,0,1-1.11-.79c.09-.21.3-.28.47-.38l8.88-5.21c.32-.19.7-.3.9-.65a.24.24,0,0,0,.23-.06l4.27-2.5,4.15-2.47a3.7,3.7,0,0,0,1.31-.67c2-1.23,4.06-2.36,6.09-3.54l4.56-2.71A4,4,0,0,1,81.8,33l.1.22c0,.63.12,1.26.12,1.9q0,15.09,0,30.18c0,.2-.07.41.08.59A5.24,5.24,0,0,1,80.52,69.36ZM64.23,47.84h0a4.06,4.06,0,0,0,0,2.16l.1.06c0,.16.16.16.28.16a8.61,8.61,0,0,0,.88,0c.4,0,.51.13.48.51s0,.86,0,1.29c0,.69,0,.67-.7.7-.35,0-.75-.17-1.06.16l0,0a6.14,6.14,0,0,0-.1,2s.09.09.14.14l0,0h0c.4.24.83.09,1.25.11s.41.09.42.41a2.53,2.53,0,0,0,.09,1.25h0c0,.2.15.23.31.21h1.66c.13,0,.18-.07.21-.17v0c.25,0,.19-.25.19-.41V55.18c.69,0,1.38,0,2.07,0,.31,0,.41.09.42.41s-.14.85.11,1.25v0c0,.13.07.22.23.22H73.1c.15,0,.21-.08.22-.22v0c.24-.38.09-.8.1-1.19s.1-.48.47-.48a2.11,2.11,0,0,0,1.19-.1l0-.1c.15,0,.16-.15.16-.28V53.19c0-.13,0-.25-.16-.28l0-.09c-.39-.28-.83-.1-1.24-.12s-.43-.11-.41-.42,0-.62,0-.93c0-1.14,0-1.13,1.12-1.15.19,0,.43.11.54-.16l0,0c.08,0,.17-.07.17-.16,0-.61,0-1.23,0-1.84,0-.13-.11-.16-.21-.17h0c-.37-.25-.77-.11-1.15-.1s-.52-.14-.52-.53.15-.79-.11-1.15l0,0A3.53,3.53,0,0,0,71.15,46l-.08.09c-.18.12-.12.31-.12.47,0,1.19,0,1.19-1.18,1.18-.41,0-.93.18-1.19-.08s-.07-.81-.11-1.23c0-.18.06-.4-.23-.43h0a4.6,4.6,0,0,0-2.12,0s0,0,0,.08v.15a2,2,0,0,0,0,1.34v.2a5.28,5.28,0,0,0-.56,0C65.1,47.78,64.64,47.59,64.23,47.84Z"/><path class="cls-5" d="M82.1,65.92c-.15-.18-.08-.39-.08-.59q0-15.09,0-30.18c0-.64-.14-1.27-.12-1.9H82a4,4,0,0,1,.11,1V65.56C82.12,65.68,82.11,65.8,82.1,65.92Z"/><path class="cls-6" d="M18,34.18V65.82H17.9c0-.15,0-.3,0-.46V34.64c0-.15,0-.3,0-.46Z"/><path class="cls-7" d="M47.66,85.81c.27-.1.48.11.72.18a7,7,0,0,0,2.37.2.41.41,0,0,1-.33.2A5,5,0,0,1,47.66,85.81Z"/><path class="cls-8" d="M18,34.18H17.9a4.27,4.27,0,0,1,1-2.82c.06.19,0,.33-.15.47A5.58,5.58,0,0,0,18,34.18Z"/><path class="cls-8" d="M17.9,65.82H18a5,5,0,0,0,.39,1.71c0,.11.19.23,0,.36A4,4,0,0,1,17.9,65.82Z"/><path class="cls-8" d="M40.53,18.33a2.64,2.64,0,0,1-1.45.83A5.35,5.35,0,0,1,40.53,18.33Z"/><path class="cls-8" d="M37,20.32a2,2,0,0,1-1.36.81A5.83,5.83,0,0,1,37,20.32Z"/><path class="cls-8" d="M25.86,26.77c-.24.56-.76.64-1.26.77A5.6,5.6,0,0,1,25.86,26.77Z"/><path class="cls-8" d="M22.64,28.67a1.69,1.69,0,0,1-1.25.72A4.11,4.11,0,0,1,22.64,28.67Z"/><path class="cls-8" d="M35.67,21.12a1.44,1.44,0,0,1-1.13.64A3.71,3.71,0,0,1,35.67,21.12Z"/><path class="cls-8" d="M54.12,15.23a1.32,1.32,0,0,1-1-.61A2.84,2.84,0,0,1,54.12,15.23Z"/><path class="cls-8" d="M82,33.25H81.9L81.8,33c0-.24,0-.49-.08-.73A1.27,1.27,0,0,1,82,33.25Z"/><path class="cls-9" d="M66.32,22.26c-.38.11-.58-.11-.75-.39A1.22,1.22,0,0,1,66.32,22.26Z"/><path class="cls-8" d="M20.68,29.81a.66.66,0,0,1-.72.43A1.28,1.28,0,0,1,20.68,29.81Z"/><path class="cls-8" d="M41.24,17.91c-.09.4-.44.35-.72.42A1.47,1.47,0,0,1,41.24,17.91Z"/><path class="cls-8" d="M37.84,19.88c-.16.35-.48.41-.82.44A2.18,2.18,0,0,1,37.84,19.88Z"/><path class="cls-8" d="M54.84,15.65a.71.71,0,0,1-.73-.42A1.29,1.29,0,0,1,54.84,15.65Z"/><path class="cls-8" d="M64.24,21c-.31,0-.61-.06-.73-.42A2.78,2.78,0,0,1,64.24,21Z"/><path class="cls-8" d="M56.81,16.78a.69.69,0,0,1-.73-.41A1.34,1.34,0,0,1,56.81,16.78Z"/><path class="cls-8" d="M61.67,19.58a.73.73,0,0,1-.74-.42A1.53,1.53,0,0,1,61.67,19.58Z"/><path class="cls-8" d="M42.29,17.3a.73.73,0,0,1-.73.42A1.54,1.54,0,0,1,42.29,17.3Z"/><path class="cls-8" d="M59,18a.74.74,0,0,1-.73-.42A1.54,1.54,0,0,1,59,18Z"/><path class="cls-8" d="M76.35,28.06a.73.73,0,0,1-.73-.42A1.54,1.54,0,0,1,76.35,28.06Z"/><path class="cls-7" d="M57.41,82.9c.06-.41.36-.38.65-.38A2,2,0,0,1,57.41,82.9Z"/><path class="cls-8" d="M23.27,28.27c-.09.33-.35.39-.64.4A1.54,1.54,0,0,1,23.27,28.27Z"/><path class="cls-7" d="M62.17,80.11a.58.58,0,0,1,.63-.32A1.19,1.19,0,0,1,62.17,80.11Z"/><path class="cls-7" d="M21.69,70.85c.3-.06.49,0,.56.34A1.41,1.41,0,0,1,21.69,70.85Z"/><path class="cls-8" d="M68.81,23.71a.43.43,0,0,1-.54-.3A.75.75,0,0,1,68.81,23.71Z"/><path class="cls-9" d="M68.17,23.31c-.2-.1-.55.06-.6-.33A1.36,1.36,0,0,1,68.17,23.31Z"/><path class="cls-8" d="M39.09,19.16c-.11.29-.35.34-.62.33A1.11,1.11,0,0,1,39.09,19.16Z"/><path class="cls-7" d="M20.89,70.38c.27,0,.53,0,.6.35Z"/><path class="cls-8" d="M55.36,16a.44.44,0,0,1-.52-.31A.79.79,0,0,1,55.36,16Z"/><path class="cls-8" d="M44.16,16.24c-.09.25-.3.26-.52.25A.78.78,0,0,1,44.16,16.24Z"/><path class="cls-8" d="M43.65,16.49c-.06.31-.29.31-.53.31A1.18,1.18,0,0,1,43.65,16.49Z"/><path class="cls-7" d="M62.79,79.8c.05-.32.28-.33.53-.31A1.76,1.76,0,0,1,62.79,79.8Z"/><path class="cls-8" d="M77.39,28.66a.44.44,0,0,1-.53-.3A.74.74,0,0,1,77.39,28.66Z"/><path class="cls-8" d="M24.61,27.53c-.1.32-.39.27-.62.33A1.29,1.29,0,0,1,24.61,27.53Z"/><path class="cls-8" d="M78.11,29.08a.49.49,0,0,1-.54-.29A.69.69,0,0,1,78.11,29.08Z"/><path class="cls-8" d="M24,27.86c0,.32-.28.32-.52.31C23.58,28,23.81,28,24,27.86Z"/><path class="cls-8" d="M21.2,29.5a.46.46,0,0,1-.53.31A.81.81,0,0,1,21.2,29.5Z"/><path class="cls-9" d="M67.45,22.9c-.23-.07-.53,0-.61-.33A1.22,1.22,0,0,1,67.45,22.9Z"/><path class="cls-8" d="M60.74,19.05a.45.45,0,0,1-.53-.3A.74.74,0,0,1,60.74,19.05Z"/><path class="cls-8" d="M69.56,24.14a.45.45,0,0,1-.56-.33A.92.92,0,0,1,69.56,24.14Z"/><path class="cls-8" d="M64.76,21.35c-.24,0-.47,0-.52-.31A1.21,1.21,0,0,1,64.76,21.35Z"/><path class="cls-8" d="M78.83,29.5a.39.39,0,0,1-.52-.31A.75.75,0,0,1,78.83,29.5Z"/><path class="cls-8" d="M65.13,21.67c-.17-.06-.38-.07-.37-.33C64.93,21.4,65.1,21.45,65.13,21.67Z"/><path class="cls-8" d="M19.24,30.94a.4.4,0,0,1-.33.43A.5.5,0,0,1,19.24,30.94Z"/><path class="cls-8" d="M81.3,31.49c-.28,0-.33-.19-.31-.42A1,1,0,0,1,81.3,31.49Z"/><path class="cls-8" d="M42.92,16.9c0,.26-.21.32-.43.29C42.58,17,42.76,17,42.92,16.9Z"/><path class="cls-7" d="M63.51,79.38c0-.27.21-.33.45-.26Z"/><path class="cls-8" d="M80.38,30.46c-.24,0-.42,0-.43-.32A1,1,0,0,1,80.38,30.46Z"/><path class="cls-8" d="M59.38,18.25c-.19,0-.36,0-.41-.23A.61.61,0,0,1,59.38,18.25Z"/><path class="cls-8" d="M79.44,29.83c-.19,0-.36,0-.41-.23A.61.61,0,0,1,79.44,29.83Z"/><path class="cls-8" d="M76.76,28.28c-.19,0-.37,0-.42-.23A.66.66,0,0,1,76.76,28.28Z"/><path class="cls-8" d="M63.52,20.63c-.19,0-.37,0-.42-.23A.71.71,0,0,1,63.52,20.63Z"/><path class="cls-8" d="M81.53,31.89c-.24,0-.24-.22-.23-.41A.65.65,0,0,1,81.53,31.89Z"/><path class="cls-8" d="M60.11,18.66c-.19,0-.37,0-.42-.22A.62.62,0,0,1,60.11,18.66Z"/><path class="cls-8" d="M80,30.14c-.19,0-.36,0-.41-.23A.57.57,0,0,1,80,30.14Z"/><path class="cls-8" d="M63.11,20.41c-.19,0-.37,0-.41-.22A.49.49,0,0,1,63.11,20.41Z"/><path class="cls-8" d="M73.55,26.42c-.19,0-.36,0-.42-.23A.63.63,0,0,1,73.55,26.42Z"/><path class="cls-8" d="M58.14,17.53c-.19,0-.36,0-.41-.23A.68.68,0,0,1,58.14,17.53Z"/><path class="cls-9" d="M66.73,22.48c-.19,0-.37,0-.41-.22A.67.67,0,0,1,66.73,22.48Z"/><path class="cls-8" d="M74.79,27.14c-.19,0-.36,0-.41-.23A.73.73,0,0,1,74.79,27.14Z"/><path class="cls-8" d="M57.42,17.11c-.19,0-.37,0-.42-.22A.6.6,0,0,1,57.42,17.11Z"/><path class="cls-8" d="M55.77,16.17c-.19,0-.37,0-.41-.22A.53.53,0,0,1,55.77,16.17Z"/><path class="cls-7" d="M57,83.13c0-.26.22-.25.41-.23Z"/><path class="cls-8" d="M62.07,19.8a.39.39,0,0,1-.41-.22A.56.56,0,0,1,62.07,19.8Z"/><path class="cls-8" d="M75.43,27.53a.23.23,0,0,1-.33-.2A.36.36,0,0,1,75.43,27.53Z"/><path class="cls-8" d="M62.71,20.19a.23.23,0,0,1-.33-.2C62.52,20,62.65,20,62.71,20.19Z"/><path class="cls-8" d="M73.87,26.62c-.17,0-.33,0-.33-.21A.52.52,0,0,1,73.87,26.62Z"/><path class="cls-8" d="M38.16,19.68a.23.23,0,0,1-.33.2A.41.41,0,0,1,38.16,19.68Z"/><path class="cls-8" d="M74.18,26.81a.23.23,0,0,1-.32-.2A.35.35,0,0,1,74.18,26.81Z"/><path class="cls-8" d="M41.57,17.71c0,.18-.14.26-.32.2C41.31,17.76,41.43,17.73,41.57,17.71Z"/><path class="cls-8" d="M20,30.23c0,.16-.06.22-.2.23A.28.28,0,0,1,20,30.23Z"/><path class="cls-7" d="M64,79.12c0-.21.12-.14.22-.16S64.05,79.08,64,79.12Z"/><path class="cls-7" d="M56.79,83.27c0-.15.1-.19.23-.15Z"/><path class="cls-8" d="M79,29.61c-.1,0-.19,0-.22-.11S79,29.51,79,29.61Z"/><path class="cls-8" d="M21.4,29.39c0,.13-.11.14-.21.12A.17.17,0,0,1,21.4,29.39Z"/><path class="cls-8" d="M78.31,29.2c-.1,0-.18,0-.21-.11S78.28,29.1,78.31,29.2Z"/><path class="cls-8" d="M77.58,28.8c-.1,0-.19,0-.2-.13S77.54,28.71,77.58,28.8Z"/><path class="cls-8" d="M69,23.82c-.1,0-.19,0-.22-.11A.18.18,0,0,1,69,23.82Z"/><path class="cls-8" d="M23.48,28.16c0,.12-.12.12-.21.12A.24.24,0,0,1,23.48,28.16Z"/><path class="cls-8" d="M75.63,27.64c-.11,0-.19,0-.22-.11A.2.2,0,0,1,75.63,27.64Z"/><path class="cls-8" d="M81.73,32.31c-.12,0-.13-.11-.11-.22S81.73,32.22,81.73,32.31Z"/><path class="cls-8" d="M75.11,27.34c-.1,0-.19,0-.22-.12S75.07,27.24,75.11,27.34Z"/><path class="cls-8" d="M81.63,32.1c-.12,0-.13-.11-.11-.21S81.63,32,81.63,32.1Z"/><path class="cls-8" d="M62.39,20c-.1,0-.19,0-.22-.1A.19.19,0,0,1,62.39,20Z"/><path class="cls-8" d="M74.38,26.92c-.1,0-.18,0-.21-.11A.18.18,0,0,1,74.38,26.92Z"/><path class="cls-8" d="M73.14,26.2c-.1,0-.18,0-.23-.09A.17.17,0,0,1,73.14,26.2Z"/><path class="cls-8" d="M34.55,21.76c0,.09-.1.11-.18.12S34.47,21.77,34.55,21.76Z"/><path class="cls-8" d="M38.37,19.57c0,.13-.12.13-.22.12A.21.21,0,0,1,38.37,19.57Z"/><path class="cls-8" d="M60.94,19.17c-.1,0-.19,0-.21-.12A.18.18,0,0,1,60.94,19.17Z"/><path class="cls-8" d="M59.7,18.44c-.1,0-.19,0-.21-.11A.19.19,0,0,1,59.7,18.44Z"/><path class="cls-8" d="M57.73,17.31c-.1,0-.18,0-.21-.12S57.7,17.21,57.73,17.31Z"/><path class="cls-8" d="M42.5,17.19c0,.13-.11.13-.21.12A.18.18,0,0,1,42.5,17.19Z"/><path class="cls-8" d="M57,16.9c-.1,0-.19,0-.21-.12A.18.18,0,0,1,57,16.9Z"/><path class="cls-8" d="M43.13,16.8c0,.11-.12.11-.21.11Z"/><path class="cls-8" d="M56,16.28c-.09,0-.18,0-.21-.12A.22.22,0,0,1,56,16.28Z"/><path class="cls-8" d="M53.08,14.63c-.1,0-.19,0-.22-.11S53,14.52,53.08,14.63Z"/><path class="cls-7" d="M21.49,70.72c.11,0,.2,0,.2.12Z"/><path class="cls-7" d="M63.31,79.49c0-.12.12-.11.21-.11Z"/><path class="cls-7" d="M58.05,82.52c0-.15.13-.14.24-.14A.29.29,0,0,1,58.05,82.52Z"/><path class="cls-7" d="M47.43,85.69c.1,0,.21,0,.24.13C47.58,85.8,47.48,85.79,47.43,85.69Z"/><path class="cls-8" d="M38.48,19.48l-.12.11C38.36,19.51,38.42,19.49,38.48,19.48Z"/><path class="cls-8" d="M60.22,18.76l-.12-.11C60.16,18.67,60.22,18.68,60.22,18.76Z"/><path class="cls-8" d="M59.5,18.35l-.12-.11C59.44,18.25,59.5,18.27,59.5,18.35Z"/><path class="cls-8" d="M58.25,17.63l-.12-.11C58.19,17.53,58.25,17.55,58.25,17.63Z"/><path class="cls-8" d="M81,31.08,80.88,31Z"/><path class="cls-8" d="M80.89,31l-.11-.11Z"/><path class="cls-8" d="M57.53,17.21l-.12-.11C57.47,17.11,57.53,17.13,57.53,17.21Z"/><path class="cls-8" d="M80.79,30.87l-.11-.13Z"/><path class="cls-8" d="M80.59,30.66l-.12-.12Z"/><path class="cls-8" d="M56.08,16.38c-.06,0-.1,0-.11-.11S56.09,16.29,56.08,16.38Z"/><path class="cls-8" d="M79.55,29.93l-.11-.11C79.5,29.83,79.55,29.85,79.55,29.93Z"/><path class="cls-8" d="M76.87,28.38l-.12-.11C76.81,28.28,76.87,28.29,76.87,28.38Z"/><path class="cls-7" d="M20.74,70.28l.16.11Z"/><path class="cls-8" d="M74.9,27.24l-.12-.11C74.84,27.14,74.9,27.16,74.9,27.24Z"/><path class="cls-8" d="M69.77,24.25l-.17-.11Z"/><path class="cls-8" d="M68.28,23.42l-.12-.11Z"/><path class="cls-9" d="M67.56,23a.12.12,0,0,1-.12-.1C67.5,22.9,67.56,22.92,67.56,23Z"/><path class="cls-9" d="M66.84,22.58a.11.11,0,0,1-.12-.1C66.78,22.49,66.84,22.5,66.84,22.58Z"/><path class="cls-8" d="M62.18,19.9l-.12-.11C62.12,19.8,62.18,19.82,62.18,19.9Z"/><path class="cls-9" d="M30.41,46.7a26.17,26.17,0,0,0-.2,4.15c.05.82.13,1.64.2,2.46-.14,0-.18-.11-.2-.25a26.65,26.65,0,0,1,0-6.12C30.23,46.81,30.26,46.71,30.41,46.7Z"/><path class="cls-9" d="M49.86,29.31a20.77,20.77,0,0,0-5.79,1.12c.33-.44.86-.46,1.31-.57a16.31,16.31,0,0,1,3.93-.65,3.7,3.7,0,0,0,.55-.09Z"/><path class="cls-9" d="M31.05,56.09c.32.82.63,1.65.95,2.47A5.14,5.14,0,0,1,31.05,56.09Z"/><path class="cls-8" d="M31.48,42.67A16.84,16.84,0,0,1,30.74,45,4.63,4.63,0,0,1,31.48,42.67Z"/><path class="cls-6" d="M49.86,29.31v-.19c.58,0,1.15,0,1.73,0,.16,0,.36-.08.43.16l-.31,0a.44.44,0,0,0-.34,0Z"/><path class="cls-9" d="M30.73,54.86a4.46,4.46,0,0,1,.33,1.24A1.43,1.43,0,0,1,30.73,54.86Z"/><path class="cls-8" d="M59,30.89a5.83,5.83,0,0,1-1.3-.53A1.8,1.8,0,0,1,59,30.89Z"/><path class="cls-8" d="M61.32,32a2.53,2.53,0,0,1-.94-.51A1.08,1.08,0,0,1,61.32,32Z"/><path class="cls-9" d="M32.7,59.91a4.34,4.34,0,0,1,.54.93A1,1,0,0,1,32.7,59.91Z"/><path class="cls-8" d="M32.63,40.19a2.34,2.34,0,0,1-.44.84C32.2,40.68,32.24,40.34,32.63,40.19Z"/><path class="cls-8" d="M60.09,31.41a2.22,2.22,0,0,1-.84-.42A.92.92,0,0,1,60.09,31.41Z"/><path class="cls-8" d="M62.66,32.87a1.8,1.8,0,0,1-.72-.44A.61.61,0,0,1,62.66,32.87Z"/><path class="cls-8" d="M39.23,32.86a1.42,1.42,0,0,1-.6.43C38.67,32.93,38.91,32.84,39.23,32.86Z"/><path class="cls-8" d="M32,41.43a1.94,1.94,0,0,1-.33.83A.91.91,0,0,1,32,41.43Z"/><path class="cls-8" d="M40.45,32a.8.8,0,0,1-.61.44C39.93,32.15,40.18,32.07,40.45,32Z"/><path class="cls-8" d="M63.6,33.57a1,1,0,0,1-.42-.31C63.42,33.23,63.6,33.29,63.6,33.57Z"/><path class="cls-8" d="M36.85,34.81a1,1,0,0,1-.4.34C36.4,34.82,36.61,34.8,36.85,34.81Z"/><path class="cls-9" d="M32.2,59a.59.59,0,0,1,.21.41C32.16,59.35,32.16,59.17,32.2,59Z"/><path class="cls-8" d="M31.67,42.25a.57.57,0,0,1-.2.43C31.43,42.49,31.46,42.32,31.67,42.25Z"/><path class="cls-8" d="M35.8,35.84c-.1.11-.2.22-.31.32C35.45,35.92,35.56,35.81,35.8,35.84Z"/><path class="cls-8" d="M61.84,32.35a.61.61,0,0,1-.41-.23C61.61,32.11,61.79,32.11,61.84,32.35Z"/><path class="cls-9" d="M33.34,61c.14,0,.16.16.22.25l-.15.06Z"/><path class="cls-8" d="M63,33.07a.28.28,0,0,1-.31-.22C62.79,32.89,62.93,32.91,63,33.07Z"/><path class="cls-8" d="M38.51,33.38c0,.12-.13.16-.23.2C38.28,33.43,38.34,33.35,38.51,33.38Z"/><path class="cls-8" d="M37.36,34.29a.29.29,0,0,1-.21.22C37.14,34.36,37.21,34.29,37.36,34.29Z"/><path class="cls-8" d="M35.4,36.26c0,.13-.16.13-.22.2C35.19,36.33,35.24,36.24,35.4,36.26Z"/><path class="cls-8" d="M59.26,31a.38.38,0,0,1-.32-.12C59.06,30.88,59.2,30.84,59.26,31Z"/><path class="cls-8" d="M60.39,31.52a.29.29,0,0,1-.31-.12C60.2,31.4,60.34,31.35,60.39,31.52Z"/><path class="cls-8" d="M38.18,33.67a.24.24,0,0,1-.2.12C38,33.67,38.09,33.67,38.18,33.67Z"/><path class="cls-8" d="M63.81,33.72l-.21-.15A.17.17,0,0,1,63.81,33.72Z"/><path class="cls-8" d="M32.2,41c0,.09,0,.18-.11.21S32.08,41.05,32.2,41Z"/><path class="cls-8" d="M32.1,41.23c0,.09,0,.18-.11.21S32,41.25,32.1,41.23Z"/><path class="cls-9" d="M32.08,58.73a.27.27,0,0,1,.12.26C32.07,59,32.08,58.84,32.08,58.73Z"/><path class="cls-8" d="M39.53,32.64c0,.09-.09.16-.2.13S39.43,32.63,39.53,32.64Z"/><path class="cls-8" d="M39.74,32.54c0,.1-.14.09-.22.11S39.64,32.53,39.74,32.54Z"/><path class="cls-9" d="M32.41,59.39c.09,0,.1.13.11.21S32.38,59.49,32.41,59.39Z"/><path class="cls-9" d="M32.51,59.6c.1,0,.11.12.11.21S32.49,59.7,32.51,59.6Z"/><path class="cls-9" d="M33.23,60.84a.21.21,0,0,1,.12.2C33.21,61,33.21,60.94,33.23,60.84Z"/><path class="cls-8" d="M35.93,35.65c0,.11-.06.15-.13.2C35.8,35.75,35.8,35.66,35.93,35.65Z"/><path class="cls-8" d="M37.66,34.08l-.21.12C37.48,34.09,37.57,34.08,37.66,34.08Z"/><path class="cls-8" d="M37.78,34l-.12.11Z"/><path class="cls-8" d="M38,33.77l-.11.14Z"/><path class="cls-8" d="M38.61,33.27c0,.09,0,.11-.11.11A.1.1,0,0,1,38.61,33.27Z"/><path class="cls-8" d="M63.19,33.27l-.12-.11Z"/><path class="cls-8" d="M37.05,34.6l-.12.12Z"/><path class="cls-8" d="M37.46,34.19l-.11.11Z"/><path class="cls-8" d="M39.33,32.75c0,.09,0,.1-.11.11A.11.11,0,0,1,39.33,32.75Z"/><path class="cls-9" d="M32.61,59.8c.07,0,.09.06.1.12Z"/><path class="cls-8" d="M30.77,45a.05.05,0,0,1,0,.08L30.69,45Z"/><path class="cls-8" d="M39.85,32.44c0,.08-.06.1-.12.11Z"/><path class="cls-8" d="M65.57,35.25l-.13-.13Z"/><path class="cls-8" d="M62,32.44c-.06,0-.12,0-.12-.11Z"/><path class="cls-8" d="M61.43,32.13c-.06,0-.11,0-.12-.11Z"/><path class="cls-8" d="M63.08,33.17c-.07,0-.13,0-.12-.11A.12.12,0,0,1,63.08,33.17Z"/><path class="cls-8" d="M36.33,35.23c0,.08,0,.12-.1.11S36.26,35.24,36.33,35.23Z"/><path class="cls-8" d="M36.23,35.34c0,.08,0,.11-.11.11S36.16,35.34,36.23,35.34Z"/><path class="cls-8" d="M65.78,35.44l-.13-.11Z"/><path class="cls-8" d="M36.13,35.44c0,.08,0,.12-.11.11S36.06,35.45,36.13,35.44Z"/><path class="cls-8" d="M65.88,35.55l-.11-.12Z"/><path class="cls-8" d="M36,35.54c0,.08,0,.13-.12.11A.12.12,0,0,1,36,35.54Z"/><path class="cls-8" d="M66.09,35.75,66,35.64Z"/><path class="cls-8" d="M66.19,35.85l-.11-.11Z"/><path class="cls-8" d="M66.29,36l-.11-.12Z"/><path class="cls-8" d="M66.39,36.06,66.28,36Z"/><path class="cls-8" d="M36.44,35.13c0,.08,0,.12-.11.11A.1.1,0,0,1,36.44,35.13Z"/><path class="cls-8" d="M66.5,36.2l-.11-.15Z"/><path class="cls-8" d="M35.5,36.15l-.11.12Z"/><path class="cls-8" d="M37.15,34.5l-.11.11Z"/><path class="cls-9" d="M32,58.56c.09,0,.09.07.1.14Z"/><path class="cls-10" d="M52,70.72A25.12,25.12,0,0,0,56.58,70v.1a9.16,9.16,0,0,1-2.57.6c-.65.12-1.32.15-2,.22Z"/><path class="cls-11" d="M47.17,70.46a12.84,12.84,0,0,1,2.39.32A5.28,5.28,0,0,1,47.17,70.46Z"/><path class="cls-7" d="M41.07,68.29a14.26,14.26,0,0,1,1.77.83A3,3,0,0,1,41.07,68.29Z"/><path class="cls-7" d="M59.34,69,61,68.16A2.49,2.49,0,0,1,59.34,69Z"/><path class="cls-7" d="M52,70.72v.17H49.85s0-.06,0-.09h.51a8.44,8.44,0,0,0,1.33,0Z"/><path class="cls-7" d="M56.58,70.07V70c.42-.09.78-.38,1.24-.31A3.49,3.49,0,0,1,56.58,70.07Z"/><path class="cls-7" d="M58.23,69.43,59.34,69C59.13,69.28,58.44,69.56,58.23,69.43Z"/><path class="cls-7" d="M42.84,69.11a2.49,2.49,0,0,1,.77.33C43.33,69.38,43,69.5,42.84,69.11Z"/><path class="cls-7" d="M46.24,70.28a1.9,1.9,0,0,1,.82.11v.09A1.26,1.26,0,0,1,46.24,70.28Z"/><path class="cls-7" d="M35.6,64l.45.47C35.64,64.51,35.65,64.19,35.6,64Z"/><path class="cls-7" d="M35,63.33c.18,0,.26.16.34.3C35.07,63.67,35,63.54,35,63.33Z"/><path class="cls-9" d="M33.6,61.34l.22.35C33.64,61.64,33.5,61.57,33.6,61.34Z"/><path class="cls-7" d="M45.72,70.15c.15,0,.33-.08.43.12C46,70.25,45.83,70.34,45.72,70.15Z"/><path class="cls-7" d="M61.31,68c.08-.13.21-.12.33-.13C61.58,68,61.45,68,61.31,68Z"/><path class="cls-7" d="M61,68.16l.33-.19C61.33,68.23,61.17,68.21,61,68.16Z"/><path class="cls-7" d="M36.37,64.74c.06,0,.12.07.12.15S36.31,64.86,36.37,64.74Z"/><path class="cls-7" d="M40.86,68.18c.09,0,.19,0,.22.12A.19.19,0,0,1,40.86,68.18Z"/><path class="cls-11" d="M49.86,70.8s0,.06,0,.09a.2.2,0,0,1-.2-.09Z"/><path class="cls-7" d="M35.29,63.62l.12.12A.12.12,0,0,1,35.29,63.62Z"/><path class="cls-7" d="M35.39,63.73l.11.12Z"/><path class="cls-7" d="M35.49,63.84l.11.12Z"/><path class="cls-7" d="M36,64.44l.11.1C36.06,64.56,36,64.52,36,64.44Z"/><path class="cls-7" d="M36.14,64.54a1.14,1.14,0,0,1,.11.11C36.16,64.66,36.13,64.62,36.14,64.54Z"/><path class="cls-11" d="M47.06,70.48v-.09c.07,0,.1,0,.12.08Z"/><path class="cls-7" d="M36.24,64.64a1.14,1.14,0,0,1,.11.11C36.27,64.76,36.23,64.73,36.24,64.64Z"/><path class="cls-2" d="M40.46,52.18a3.56,3.56,0,0,1-.2-1.25,4.92,4.92,0,0,0,0-2,11.22,11.22,0,0,1,1.27-4.17,15.89,15.89,0,0,1,1.74-2.37,5.56,5.56,0,0,1,1-.81c.14,0,.23-.07.21-.23h0c.1,0,.19,0,.21-.12h0c.16,0,.23,0,.22-.19h0c.16,0,.32,0,.31-.21h0c.1,0,.18,0,.21-.12h0c.1,0,.19,0,.21-.11h0a1.15,1.15,0,0,0,.95-.52h0a.62.62,0,0,0,.4-.06A12.21,12.21,0,0,1,52,39.24h0c.06.11.12.12.2,0,.49-.14.88.31,1.36.21a4.46,4.46,0,0,0,1.77.69h0c0,.12.15.12.26.11a11.58,11.58,0,0,1,4.6,4,3.17,3.17,0,0,1,.53.93c-.2.35-.58.46-.9.65L51,51.07c-.17.1-.38.17-.47.38a.94.94,0,0,0-.3.06l-2.31,1.36L42.31,56.1l-.15.06v0h0a.11.11,0,0,0-.11-.1h0L42,55.9h0c0-.19,0-.36-.23-.41h0c0-.1,0-.19-.12-.2h0c.06-.18,0-.28-.2-.32h0a.69.69,0,0,0,0-.25,10.48,10.48,0,0,1-.82-2.36C40.61,52.3,40.52,52.24,40.46,52.18Z"/><path class="cls-12" d="M42.31,56.1l5.56-3.23,2.31-1.36a.94.94,0,0,1,.3-.06,3.13,3.13,0,0,0,1.11.79c1.24.79,2.55,1.47,3.8,2.25A31.89,31.89,0,0,1,59,56.79c.15.12.36-.08.45.15-.48.4-.82.93-1.34,1.32-.33.24-.63.53-1,.75-.07,0-.13,0-.15.11h0c-.1,0-.19,0-.21.14l0,0c-.11,0-.21,0-.2.13v0a.11.11,0,0,0-.13.09h0c-.1,0-.19,0-.21.12h0c-.2-.07-.36,0-.53.13a11.28,11.28,0,0,1-4.71,1.09,3.29,3.29,0,0,0-1,0,8.92,8.92,0,0,1-1.55-.23,5.94,5.94,0,0,0-2-.7,10.73,10.73,0,0,1-4.22-3.48Z"/><path class="cls-11" d="M64.35,50.05c.56,0,1.28-.2,1.64.07s.08,1,.1,1.56c0,.37.12.88-.07,1.07s-.7.07-1.07.08l-.72,0c.31-.33.71-.15,1.06-.16.7,0,.7,0,.7-.7,0-.43,0-.87,0-1.29s-.08-.55-.48-.51a8.61,8.61,0,0,1-.88,0C64.51,50.21,64.39,50.21,64.35,50.05Z"/><path class="cls-11" d="M71.07,46.07c0,.5,0,1,0,1.49,0,.25-.09.28-.3.28-.74,0-1.48,0-2.22,0-.26,0-.3-.09-.3-.32a8.81,8.81,0,0,0,0-1.54c.29,0,.21.25.23.43,0,.42-.19,1,.11,1.23s.78.08,1.19.08c1.17,0,1.16,0,1.18-1.18C71,46.38,70.89,46.19,71.07,46.07Z"/><path class="cls-11" d="M73.53,50.06l1.56,0c-.11.27-.35.16-.54.16-1.12,0-1.12,0-1.12,1.15,0,.31,0,.62,0,.93s.1.41.41.42.85-.16,1.24.12c-.5,0-1,0-1.49,0-.22,0-.3-.06-.3-.28,0-.82,0-1.64,0-2.46Z"/><path class="cls-10" d="M71.06,56.81a9,9,0,0,0,2.26,0c0,.14-.07.22-.22.22H71.29C71.13,57,71.08,56.94,71.06,56.81Z"/><path class="cls-7" d="M68.37,55.07c.8,0,1.6,0,2.4,0,.23,0,.34,0,.32.3,0,.49,0,1,0,1.48-.25-.4-.09-.84-.11-1.25s-.11-.42-.42-.41c-.69,0-1.38,0-2.07,0Z"/><path class="cls-5" d="M75.11,50l0-2.17c.1,0,.21,0,.21.17,0,.61,0,1.23,0,1.84C75.28,49.94,75.19,50,75.11,50Z"/><path class="cls-10" d="M75.13,55V52.91c.16,0,.17.15.16.28v1.49C75.29,54.81,75.28,54.93,75.13,55Z"/><path class="cls-11" d="M64.33,55.06c.48,0,1,0,1.44,0,.28,0,.34.08.33.34,0,.48,0,1,0,1.44A2.53,2.53,0,0,1,66,55.58c0-.32-.12-.4-.42-.41S64.73,55.3,64.33,55.06Z"/><path class="cls-7" d="M73.32,56.83c0-.5,0-1,0-1.5,0-.22.07-.29.29-.28.5,0,1,0,1.5,0a2.11,2.11,0,0,1-1.19.1c-.37,0-.47.13-.47.48S73.56,56.45,73.32,56.83Z"/><path class="cls-5" d="M68.37,55.07l.1.11v1.24c0,.16.06.36-.19.41A7.43,7.43,0,0,1,68.37,55.07Z"/><path class="cls-11" d="M75.09,47.84H75c-.55,0-1.34.25-1.6-.09s-.07-1.1-.07-1.68c.26.36.11.77.11,1.15s.1.54.52.53S74.72,47.59,75.09,47.84Z"/><path class="cls-10" d="M66.4,56.9a8.37,8.37,0,0,1,1.66,0V57H66.4Z"/><path class="cls-7" d="M64.24,47.83c0,.72,0,1.44,0,2.16A4.06,4.06,0,0,1,64.24,47.83Z"/><path class="cls-7" d="M64.25,52.88c0,.73,0,1.46,0,2.19-.05,0-.14-.09-.14-.14A6.14,6.14,0,0,1,64.25,52.88Z"/><path class="cls-11" d="M68.26,46l-2.17,0s0-.08,0-.08A4.6,4.6,0,0,1,68.26,46Z"/><path class="cls-11" d="M73.33,46,71.15,46A3.53,3.53,0,0,1,73.33,46Z"/><path class="cls-11" d="M66.09,47.72c-.19.24-.46.09-.69.11-.39,0-.78,0-1.17,0,.41-.25.87-.06,1.3-.11A5.28,5.28,0,0,1,66.09,47.72Z"/><path class="cls-11" d="M66.08,46.18v1.34A2,2,0,0,1,66.08,46.18Z"/><path class="cls-11" d="M66.4,56.9V57c-.16,0-.29,0-.31-.21Z"/><path class="cls-11" d="M68.06,57V56.9l.21,0C68.24,57,68.19,57,68.06,57Z"/><path class="cls-7" d="M50.06,60.77a3.29,3.29,0,0,1,1,0,11.28,11.28,0,0,0,4.71-1.09c.17-.09.33-.2.53-.13a10.38,10.38,0,0,1-6.17,1.3S50.08,60.79,50.06,60.77Z"/><path class="cls-8" d="M52,39.24a12.21,12.21,0,0,0-5.11.86.62.62,0,0,1-.4.06,9,9,0,0,1,3.76-1A3.85,3.85,0,0,1,52,39.24Z"/><path class="cls-8" d="M40.46,52.18c.06.06.15.12.17.19a10.48,10.48,0,0,0,.82,2.36.69.69,0,0,1,0,.25A7.35,7.35,0,0,1,40.46,52.18Z"/><path class="cls-7" d="M46.5,59.84a5.94,5.94,0,0,1,2,.7A5.73,5.73,0,0,1,46.5,59.84Z"/><path class="cls-8" d="M55.36,40.16a4.46,4.46,0,0,1-1.77-.69A5.18,5.18,0,0,1,55.36,40.16Z"/><path class="cls-6" d="M40.27,49a4.92,4.92,0,0,1,0,2A11.54,11.54,0,0,1,40.27,49Z"/><path class="cls-8" d="M46.54,40.15a1.15,1.15,0,0,1-.95.52A2.07,2.07,0,0,1,46.54,40.15Z"/><path class="cls-10" d="M51.7,70.76a8.44,8.44,0,0,1-1.33,0A5.37,5.37,0,0,1,51.7,70.76Z"/><path class="cls-8" d="M41.76,55.5c.24,0,.25.22.23.41A.53.53,0,0,1,41.76,55.5Z"/><path class="cls-8" d="M41.45,55c.18,0,.26.14.2.32C41.5,55.25,41.47,55.11,41.45,55Z"/><path class="cls-8" d="M45.19,40.89c0,.23-.15.23-.31.21A.51.51,0,0,1,45.19,40.89Z"/><path class="cls-8" d="M44.47,41.4c0,.16-.07.22-.21.23C44.3,41.52,44.34,41.42,44.47,41.4Z"/><path class="cls-8" d="M44.88,41.09c0,.17-.06.24-.22.19C44.69,41.17,44.78,41.13,44.88,41.09Z"/><path class="cls-2" d="M51.37,29.24a.44.44,0,0,1,.34,0A.37.37,0,0,1,51.37,29.24Z"/><path class="cls-8" d="M55.6,40.27c-.11,0-.21,0-.26-.11A.28.28,0,0,1,55.6,40.27Z"/><path class="cls-8" d="M45.6,40.67c0,.12-.11.13-.21.11A.19.19,0,0,1,45.6,40.67Z"/><path class="cls-8" d="M45.4,40.77c0,.12-.11.13-.21.12A.24.24,0,0,1,45.4,40.77Z"/><path class="cls-8" d="M44.67,41.29c0,.12-.11.13-.21.12A.21.21,0,0,1,44.67,41.29Z"/><path class="cls-8" d="M41.65,55.3c.13,0,.14.1.12.2A.16.16,0,0,1,41.65,55.3Z"/><path class="cls-8" d="M42.31,56.1l0,.26a.23.23,0,0,1-.12-.2Z"/><path class="cls-7" d="M56.8,59.25c0-.14.11-.15.21-.14Z"/><path class="cls-7" d="M56.62,59.36c0-.15.09-.15.2-.13Z"/><path class="cls-7" d="M56.28,59.55c0-.13.11-.13.21-.12Z"/><path class="cls-8" d="M52.23,39.26c-.08.1-.14.09-.2,0Z"/><path class="cls-7" d="M57,59.12c0-.08.08-.1.15-.11Z"/><path class="cls-7" d="M56.48,59.43a.11.11,0,0,1,.13-.09Z"/><path class="cls-8" d="M42.08,56a.11.11,0,0,1,.11.1C42.09,56.15,42.09,56.08,42.08,56Z"/><path class="cls-8" d="M42,55.9l.11.12C42,56,42,56,42,55.9Z"/><path class="cls-11" d="M71.06,50.1c0,.81,0,1.61,0,2.42,0,.24-.06.32-.32.32-.72,0-1.44,0-2.17,0-.23,0-.34,0-.33-.3,0-.74,0-1.48,0-2.22,0-.24.08-.29.3-.29l2.27,0ZM71,51.46c0-1.25,0-1.25-1.27-1.25s-1.21,0-1.21,1.21,0,1.27,1.25,1.27S71,52.69,71,51.46Z"/><path class="cls-13" d="M71.06,50.1l-.21,0C70.93,50,71,50,71.06,50.1Z"/><path class="cls-4" d="M73.53,50.06l-.21,0C73.37,50,73.46,50,73.53,50.06Z"/><path class="cls-13" d="M71,51.46c0,1.23,0,1.23-1.23,1.23s-1.25,0-1.25-1.27,0-1.21,1.21-1.21S71,50.21,71,51.46Z"/></svg>