<svg id="Layer_1" data-name="Layer 1" xmlns="http://www.w3.org/2000/svg" viewBox="0 0 100 100"><defs><style>.cls-1{fill:#8e8e8e;}.cls-2{fill:#464646;}</style></defs><title>Artboard 3</title><path class="cls-1" d="M83.65,21.27c-2,2.91-3.62,6-5.39,9.08Q64.54,54,50.85,77.59c-.24.43-.51.85-.86,1.44l-5.34-9.18Q30.88,46.09,17.11,22.34a2.51,2.51,0,0,0-.76-1.07V21l13.49.09L50,55.84c.52-.84.92-1.46,1.29-2.1q3.66-6.32,7.32-12.66l11.58-20L83.65,21Z"/><path class="cls-2" d="M29.84,21.06H42.26L50,34.37l7.73-13.31H70.16l-11.58,20q-3.66,6.33-7.32,12.66c-.37.64-.77,1.26-1.29,2.1Z"/></svg>