<svg id="Layer_1" data-name="Layer 1" xmlns="http://www.w3.org/2000/svg" viewBox="0 0 100 100"><title>Artboard 3</title><path d="M35.54,40.81l14.45-8L64.44,40.8,50,49.16Z"/><path d="M65.42,42.65V58.33L51.16,66.17V50.88Z"/><path d="M34.65,42.7l14.27,8.24V66.22L34.65,58.38Z"/><path d="M76.09,64.25l-8.51-4.93V41.4c2.72-1.57,5.46-3.28,8.51-4.84Z"/><path d="M32.5,41.49V59.23l-8.59,5V36.6C27,38.11,29.64,39.87,32.5,41.49Z"/><path d="M49,21.1v9.78a7.75,7.75,0,0,1-1.84,1.22L35.54,38.48c-.48.26-1,.48-1.46.75a1.21,1.21,0,0,1-1.27,0L25,34.69Z"/><path d="M75.07,34.7c-2.68,1.52-5.15,2.89-7.57,4.34a1.57,1.57,0,0,1-1.78.07c-2.91-1.6-5.84-3.17-8.75-4.76-1.95-1.07-3.89-2.16-5.86-3.25v-10Z"/><path d="M34.34,60.58l14.58,8V78.9L25.56,65.66Z"/><path d="M74.44,65.66,51.13,78.85V68.56l14.48-8Z"/></svg>