<svg xmlns="http://www.w3.org/2000/svg" viewBox="0 0 100 100"><defs><style>.cls-1{isolation:isolate;}.cls-2{fill:#ced5cb;}.cls-3{fill:#fff;}.cls-4{fill:#c4ac9f;}.cls-5{fill:#bdbdbd;}.cls-6{mix-blend-mode:exclusion;}</style></defs><title>Artboard 3</title><g class="cls-1"><g id="Layer_1" data-name="Layer 1"><path class="cls-2" d="M74.75,39.75l-3.83-.57a14.09,14.09,0,0,1-1.36,2l2,3.33a2,2,0,0,1-.46,2.57l-1.32,1A2,2,0,0,1,67.13,48l-2.76-2.72a14.27,14.27,0,0,1-2.29.84L61.72,50a2,2,0,0,1-1.89,1.82l-1.68.06a2,2,0,0,1-2-1.68l-.65-3.82c-.39-.08-.79-.16-1.19-.27s-.77-.25-1.15-.4l-2.56,2.91a2,2,0,0,1-2.59.36L46.6,48A2,2,0,0,1,46,45.46L47.68,42a14.49,14.49,0,0,1-1.5-1.91l-3.78.84a2,2,0,0,1-2.31-1.23l-.58-1.58a2,2,0,0,1,1-2.43l3.42-1.79a14.16,14.16,0,0,1-.07-2.44l-3.56-1.54a1.94,1.94,0,0,1-1.14-2.35l.46-1.62a2,2,0,0,1,2.21-1.4l3.83.57a14.09,14.09,0,0,1,1.36-2l-2-3.32a2,2,0,0,1,.46-2.58l1.32-1a2,2,0,0,1,2.62.17L52.18,19a15.29,15.29,0,0,1,2.29-.84l.36-3.86a2,2,0,0,1,1.89-1.81l1.68-.06a2,2,0,0,1,2,1.67L61.06,18c.39.08.79.16,1.19.28s.77.25,1.15.39L66,15.71a2,2,0,0,1,2.59-.36l1.4.94a2,2,0,0,1,.65,2.54L68.87,22.3a14.58,14.58,0,0,1,1.5,1.92l3.78-.85a2,2,0,0,1,2.31,1.23L77,26.18a2,2,0,0,1-1,2.43L72.65,30.4a14.16,14.16,0,0,1,.07,2.44l3.56,1.54a2,2,0,0,1,1.14,2.35L77,38.35A2,2,0,0,1,74.75,39.75Z"/><circle class="cls-3" cx="58.28" cy="32.15" r="10.02"/><circle class="cls-4" cx="58.28" cy="32.15" r="2.97"/><path class="cls-5" d="M50,54c.09,0,.29,0,.24-.1l-.34-.06Z"/><path class="cls-5" d="M50.54,53.3a.85.85,0,0,0-.75-.14c.32.1.19.14.58.25,0,.1-.1.19-.22.17.09,0-.06.17.15.22.24-.15.24-.33,0-.5A.33.33,0,0,1,50.54,53.3Z"/><path class="cls-5" d="M47.33,43.37l0,.08A.19.19,0,0,0,47.33,43.37Z"/><path class="cls-5" d="M41.51,40a.1.1,0,0,0,.09-.07C41.55,39.92,41.5,39.94,41.51,40Z"/><path class="cls-5" d="M40.28,39.6h.08S40.3,39.57,40.28,39.6Z"/><path class="cls-5" d="M47.33,43.37l0-.21C47.21,43.22,47.29,43.29,47.33,43.37Z"/><path class="cls-5" d="M49.61,52a.2.2,0,0,0,.1.08.56.56,0,0,1-.05-.08Z"/><path class="cls-5" d="M49.24,45.67l0,0,.14,0Z"/><path class="cls-5" d="M50.23,47.74c0-.05-.27,0-.4.06.12,0,.19,0,.22,0A.85.85,0,0,0,50.23,47.74Z"/><path class="cls-5" d="M50.67,51.33l0,.05Z"/><path class="cls-5" d="M48.42,44.24l.07-.08A.27.27,0,0,0,48.42,44.24Z"/><path class="cls-5" d="M49.22,56.41h.05S49.22,56.39,49.22,56.41Z"/><polygon class="cls-5" points="50.71 54.01 50.73 54.05 50.88 54.05 50.71 54.01"/><path class="cls-5" d="M37.9,39.76h0C38,39.71,37.93,39.73,37.9,39.76Z"/><path class="cls-5" d="M30.47,57.15c.22-.25.37.31.6-.06C31,57.14,30.6,56.85,30.47,57.15Z"/><path class="cls-5" d="M49.64,51.92a.28.28,0,0,1,0-.09A.13.13,0,0,0,49.64,51.92Z"/><path class="cls-5" d="M31.07,57.09h0l0,0Z"/><path class="cls-5" d="M33.76,43l.13,0A.28.28,0,0,0,33.76,43Z"/><path class="cls-5" d="M36.92,40.85h-.11A.19.19,0,0,0,36.92,40.85Z"/><path class="cls-5" d="M33,44.85s-.09,0-.09.11h0S32.9,44.88,33,44.85Z"/><path class="cls-5" d="M32.06,46.62h.06v-.07Z"/><path class="cls-5" d="M48,61.52l.27,0C48,61.49,48.07,61.23,48,61.52Z"/><path class="cls-5" d="M49.77,52a.19.19,0,0,1-.13,0l0,0A.18.18,0,0,0,49.77,52Z"/><path class="cls-5" d="M34.83,46.06l-.17.21A1.2,1.2,0,0,0,34.83,46.06Z"/><path class="cls-5" d="M38.65,66.19h.07S38.68,66.17,38.65,66.19Z"/><path class="cls-5" d="M34.33,47a.54.54,0,0,0-.25.06.34.34,0,0,0,.06.06Z"/><path class="cls-5" d="M48.22,61.55Z"/><path class="cls-5" d="M48.26,59.63c-.09.24.3.23.49.35,0,.34-.3.05-.51.09,0,.21.28.47.21.6s-.09,0-.15-.05c.19.3-.2.58,0,.94a.16.16,0,0,1-.1,0,2.44,2.44,0,0,1,.47.18c0,.12.11.31-.13.25,0-.07,0-.12-.09-.18l0,.16c-.36-.05,0-.21-.26-.32,0,.27.12.66-.05.79-.32-.13.09-.45-.28-.37l.24-.2c-.58,0,.11-.14-.49-.21-.25.28,0,.46-.3.72.12.16.25.11.37.28,0,.64-.93-.09-.76.47.13.21.46.49.1.58l-.25-.3c-.24.26.32.5-.11.65-.08-.15.07-.31,0-.29-.38,0,.08.28-.05.42L46.37,64c-.21.3-.29.81-.57,1.12-.06-.09-.08-.21-.22-.22a1.82,1.82,0,0,1-1.38.75V66s-.13-.08-.12-.15c-.21,0,.08.17.06.31s-.2-.08-.19-.19c-.14.4-.67.89-1.1.7l0-.1c-.29-.06-.15.65-.47.45l0-.06c-.59,0-1.28.3-1.7-.19-.13.44-.54-.25-.68.32-.28-.37-.17-.4-.55-.74-.1-.07-.29.29-.46.29l.1-.29-.32.24,0-.39h-.16a.29.29,0,0,1,0,.26c-.27,0-.42-.45-.35-.59a4.16,4.16,0,0,1-.6,0c.08-.1.18-.09.28-.12-.41.11.13-.3-.25-.2,0,.08-.11.14-.15.19,0-.22-.26-.39-.48-.48l.16-.14a2.26,2.26,0,0,0-.51-.38c-.17-.14-.36-.28-.52-.44,0,.18-.25.41-.38.34l.2-.27c-.21.07,0,.19-.3.23-.1-.16.19-.34.34-.34l-.23-.08c.07-.08.14-.07.24-.14-.21.06,0-.5-.33-.37l.07-.07c-.3-.35-.5-.48-.73-.79-.24.15-.27,0-.53,0-.09-.29,0-.69-.24-1s-.24,0-.45,0c.21-.13.05-.44.29-.36a3.37,3.37,0,0,0-.68-.88c-.08.1-.09.18-.19.18s0-.26.14-.29l0,0c-.28-.22-.23-.62-.19-1s.13-.71-.2-.87h0a5.14,5.14,0,0,1-.4-.41c0-.24.21.09.33-.12-.52-.44-.13-.84-.47-1.23.71-.45-.22-1.22.25-1.73l-.17,0c-.18-.11.09-.15.12-.24-.13,0-.15.13-.25.07-.29-1,.25-2.13.51-3.11.11-.36-.88-.34-.38-.76l.3.19a1.86,1.86,0,0,1,0-1.17A3.74,3.74,0,0,0,33.25,49c.06.07.15.1.13.17.28-.08.18-.55,0-.62,0-.1.17,0,.29,0s-.15-.48.1-.47c0,0,.06.06.07.1-.07-.14.2-.43-.09-.44.22-.21.08-.56.33-.68-.21-.27.35-.36,0-.6.39.22.54-.26.46-.52.09.12.2,0,.33.1.09-.17.11-.37-.1-.46.63,0,.08-.86.75-.62a3.71,3.71,0,0,1,.3-.85,3.4,3.4,0,0,1,.42-.72c.29.34-.4.43,0,.76.2-.47.16-1,.62-1.2.14,0,.06.2.08.28.28-.43.76-.52,1-.92a.23.23,0,0,1,0,.16c.06-.06.2,0,.1-.22l0,.09c-.27-.19,0-.72,0-.87.11.58.49,0,.56.73a.27.27,0,0,0,0-.29c.1,0,.15.07.13.25.23-.22.06-.38.33-.48,0,.09,0,.15,0,.27.06-.24.15-.45.4-.43,0,.06,0,.13,0,.15a1.55,1.55,0,0,0,.49-.37.65.65,0,0,1,.59-.14c-.1.44.17.12.21.49a1.13,1.13,0,0,1,.22-.11l-.09-.19c.2,0,.4-.24.58-.11l-.16.15.4-.06-.22-.15c.24-.18,0-.47.31-.35-.06,0,.23,0,.31.29h0c.13-.1.27-.2.41-.08s-.12.4-.12.48c.19-.3.5.05.74-.22a.61.61,0,0,0-.13.29l.16-.21c.08.11.08.15,0,.29.27.14.07-.48.35-.17,0,0,0,0-.11.07.29.23.71.16,1,.42-.1.37-.3,0-.35.28.22.06.47.12.74.17a1.07,1.07,0,0,1,.66.33l0-.08c.38-.38.11.43.45.38-.07,0-.25.18-.2.14.19.26.55.36,1,.6l-.15.05c0,.22.28.44.36.64.15,0,.21.07.32-.11a.73.73,0,0,0,.41.85c.27.18.56.36.41.78,0-.06-.18-.08-.15,0l.34.36c.19-.14.1-.12.2-.3a.43.43,0,0,1,.38.18c-.25-.13-.33.17-.4.32a1.86,1.86,0,0,1,.2-.1c-.24.42.44-.17.35.28l-.12,0c.11.09.31.14.34.28-.22.17-.17-.07-.38,0,.1.17.63.16.47.43-.11,0-.16-.16-.27-.21-.2.31-.12.3-.1.45v0c0,.12,0,.25,0,.37l.05-.11c.74,0,.3.43.85.6-.53-.17-.26,0-.55.11,0,.1-.1.25-.19.25.28.07-.11.3.29.41-.09,0,0,.17-.21.2.13.18.15-.09.28-.11.4.22-.18.81.34,1.16.27.34.61.36.84.7-.13.15-.37,0-.37,0a.47.47,0,0,0,.07.54c-.09,0-.15,0-.25.1s.36,0,.25.27a1.53,1.53,0,0,1-.41-.1c.11.17.32.32.43.5-.17.06-.27-.09-.39-.14.11.2.2.52.47.56l.09-.14c0,.07-.23.06-.28,0-.22-.16.07-.27.17-.29a.57.57,0,0,1,.08.13c.55-.2-.16-.53-.17-.8l.43.06-.38-.23c.1-.07.33-.15.41,0,.17-.23-.17-.16,0-.36,0,0,.06,0,.07,0a1.19,1.19,0,0,0-.15-.18c.09,0,.28-.08.25.05.16-.39-.42-.5-.14-.69l0,0c-.23-.45-.31,0-.73-.26l.68-.41-.3,0c0-.06,0-.16.11-.17-.25-.13-.12.06-.34,0,.21-.3-.3-.59.15-.79-.25,0-.11.28-.33.08.47-.23-.16-.26,0-.54.28,0,.21.22.37-.06-.48,0-.06-.44-.21-.59-.35.12-.27-.34-.51-.58.12,0-.06-.62-.07-.94l.06,0c-.35.1-.42-.2-.6-.35a.44.44,0,0,1,.44,0l-.11-.19a.32.32,0,0,1-.31-.11l.26-.09c-.16-.24-.54-.34-.59-.73-.23.13-.45.62-.8.41.11-.09.3-.23.41-.18s-.16,0-.15-.12h.28c0-.19-.21,0-.27-.08.17-.11.07-.16.21-.23s0,.14.09.14a.56.56,0,0,1,0-.49c-.09.07-.22.15-.3.07s.14-.22.13-.41c-.16,0-.16-.2-.4,0-.05-.07,0-.17.1-.24-.2,0-.47-.51-.6-.18v0h0c-.51-.17-.55-.83-1-1.08l.06-.07c-.29-.09-.53-.35-.81-.31-.06,0,0-.26,0-.34-.22-.06-.3,0-.47-.29.28,0,0-.17.26,0-.19-.22-.17-.4-.57-.34.22-.16,0-.39-.2-.38l.1.25a1.06,1.06,0,0,1-.38-.2l.22-.26a.73.73,0,0,0-.81-.26c-.3,0-.54.07-.67-.33-.22.17.27.26,0,.48-.24-.14-.4-.68-.5-.69-.35-.26-.45.41-.82.21a.41.41,0,0,1-.26.52c-.25-.06-.29-.52-.1-.6s.1,0,.09.07.22-.08.12-.21l0,.11c-.12-.13-.52-.13-.42-.32-.22.1-.1.19.06.26-.36-.18-.57-.06-1-.13.06.06.12.2.06.2-.55-.09-.22.25-.57.33-.22-.15,0-.44-.33-.24-.24-.07-.1-.3,0-.41-.3.3-.68,0-.9,0l.16-.13a.61.61,0,0,1-.28.12l.17.2c-.12,0-.21,0-.24-.08-.06.18.2.35.06.62-.17-.07-.34.27-.5,0,.45-.06-.16-.27.18-.46a.34.34,0,0,1-.26.09s0-.06,0-.09c-.52-.1-.06.41-.47.56,0-.18-.24-.26-.29-.19.17-.08.2.23.13.43-.31,0-.22.23-.35.29l.17,0c0,.18-.09.22-.23.36-.08-.11.11-.16,0-.18,0,.36-.59,0-.71.32-.18,0-.2-.26-.35-.26-.13.39-.47,0-.62.41.23.11.2.06.17.4a4.39,4.39,0,0,1,.34-.5c0,.17-.06.33-.07.5.12-.11.19-.33.3-.37,0,.26,0,.2.14.31-.41-.15-.22.44-.57.43l-.38-.45c-.49.09-.35.71-.79,1l.19,0c.12.21-.19.26-.23.45-.14-.14-.27-.11-.41-.13.11.08-.26.29,0,.57l-.35,0c-.33.29.16.71-.09,1-.12-.22-.33-.14-.32-.45-.07.11-.17.2,0,.27-.15,0,0,.46-.19.47,0,.09.21.21.12.33a.21.21,0,0,1-.08,0c.08,0,0,.26.25.26-.74.06-.47,1-1.09,1.11a5.68,5.68,0,0,1-.2.88c-.05,0-.09,0-.05-.07-.31.27.44.39.13.71-.36.09-.1-.26-.25-.18-.63-.15-.06.5-.51.65v-.08c-.29.15.08.57,0,.89a.29.29,0,0,0-.1,0,1.85,1.85,0,0,1,.3,1.1c-.23-.15-.1-.18-.37-.16,0,.15.42,0,.44.33-.15.07-.3.26-.58.24l0-.28c-.37.08,0,.36-.13.5l-.15,0c0,.43.36.48.3.93l.12,0c.37.28-.23.19,0,.46l-.4,0a6.42,6.42,0,0,1,.4.89c-.3-.17-.42-.53-.58-.76,0,.17,0,.57.19.66,0-.07-.13-.16-.07-.22a.91.91,0,0,1,.44.8c-.76-.06-.2.84-.76,1.1.31.57-.06,1.17.09,1.85.56-.32,0,.2.64.07.06.15.06.21,0,.23a5.36,5.36,0,0,0-.28.53c-.15.14-.16-.13-.3-.09,0,.35-.22.19-.33.45.2-.09.33.06.29.28l.22-.34c.42.41-.42.53,0,.95l-.22-.11c.16.22.25.93.79,1-.06.07-.2.17-.28.08.11.62.94,1.1.83,1.65l-.16,0c.09.08.34.07.26.26-.06,0-.15,0-.14.07s.37.16.35.34l-.21-.05c.07.64.78.64,1.11,1-.39.22-.28.71-.2,1l0,0a1.88,1.88,0,0,0,.68.69,8.1,8.1,0,0,1,.85.49,1.11,1.11,0,0,0,.4.89,8.72,8.72,0,0,1,.74.89c0-.13.23-.26.35-.22s.51,0,.25.34l0,0c-.15.4.2.5.41.65l.32-.42a.8.8,0,0,0,.32.54,1.93,1.93,0,0,0,.58.22c.39.12.75.15.81.53.2-.07.4,0,.59-.08l-.09.27a2.83,2.83,0,0,0,1.24.3l-.14.18c.33.08.5-.78.77-.77l.07.43c.54,0,1.16.32,1.66-.11,0,.06,0,.18-.09.21.26,0,1.09,0,.84-.49,0,.18.2.16.36.06a3.41,3.41,0,0,0,.41-.45l.05.28c.11-.43.07-.52.34-.73.08,0,.16.18,0,.15.3,0,.07-.33.41-.35l0,.22c.25-.12.19-.19.21-.44a.45.45,0,0,1,.64,0c-.06-.15-.06-.41.11-.44a.23.23,0,0,1,.06.19c.48-.12.34-.64.73-.64a.31.31,0,0,0,.15.09c-.27.24-.51.4-.5.36.15.21.43.06.45.49.09-.3.1-.9.39-1l.09,0v0a.18.18,0,0,0,.1-.15.62.62,0,0,0,.23-.11c.17.12.31-.18.42-.28-.22-.18-.06-.29-.35-.31,0,0,0,0,0,.12a.14.14,0,0,0,0,.06v0l-.22.28c0-.19,0-.36.18-.37l-.21-.45c.42.13.84,0,1.06.09.13-.46.55-.91.24-1.42,0-.14.2,0,.3,0s-.05.15,0,.23c0-.29.33-.65,0-.89.3-.17.21.32.37-.07l.07.1c.92-.49-.23-1.58.78-2.12-.07,0-.1.06-.16,0,.7-.86.35-2.08,1.08-2.95.15-.26-.08-.34-.23-.54h.31l-.3-.35c-.18-.44.84-.64.4-1.23l-.21,0c.06-.19-.07-.61.16-.57,0,0-.2-.07-.09-.14h.16L51,55c.12-.36.63.07.66-.47,0-.21-.45-.57-.56-.49a.26.26,0,0,1-.25.21l-.08-.17c-.47,0-.95-.14-1.28.27l.29.29-.23.09v-.24c-.22.14,0,.22.1.32a.37.37,0,0,0-.25.12l.44.29c-.18,0-.36-.14-.46.05.2.14.41-.12.54.11-.22.13-.39.08-.22.25a.21.21,0,0,1-.24-.09c.13.15,0,.38.27.47-.28.12,0,.49-.41.43.1.06.32.29.31.43-.48-.31-.1.48-.65.33.43.25.13.66.3,1,0,0-.1-.07-.07-.09-.08.16-.23.18-.34.27.37.1.4.39.6.6-.42.12-.42-.24-.78-.26.31.06.22.44.49.43-.28.1-.15.11-.49.1.46.17,0,.17.28.39-.3.15-.45-.08-.39.21C48.35,59.9,48.26,59.63,48.26,59.63Zm-2.4,5.55h0l.08-.1Zm-.38.35a1,1,0,0,0,.17-.14c.08.06.13.15.09.18S45.59,65.54,45.48,65.53Zm2.2.6c0,.1-.09.09-.14.06l.09-.15,0,0A.56.56,0,0,1,47.68,66.13Z"/><path class="cls-5" d="M47.53,65.75s0,0,0,0h-.08l0,.09Z"/><path class="cls-5" d="M47.35,43.46h0s0,0,0,0Z"/><polygon class="cls-5" points="39.19 66.27 39.16 66.33 39.22 66.29 39.19 66.27"/><path class="cls-5" d="M48.25,46.54a.09.09,0,0,0,0,.06A.15.15,0,0,0,48.25,46.54Z"/><path class="cls-5" d="M48.74,47.72l0,.21A1.14,1.14,0,0,0,48.74,47.72Z"/><path class="cls-5" d="M49,48.69l.12,0h0Z"/><path class="cls-5" d="M37.9,42.46l0,0C37.83,42.57,37.87,42.53,37.9,42.46Z"/><path class="cls-5" d="M42,41.11a.75.75,0,0,1-.17.1C41.87,41.25,41.93,41.26,42,41.11Z"/><polygon class="cls-5" points="34.85 46.03 34.85 46.03 34.83 46.06 34.85 46.03"/><path class="cls-5" d="M41.59,41.17a.16.16,0,0,0,.2,0C41.73,41.18,41.66,41.13,41.59,41.17Z"/><path class="cls-5" d="M49.69,52.84v0h0Z"/><path class="cls-5" d="M49.73,52.89l0,0S49.76,52.89,49.73,52.89Z"/><path class="cls-5" d="M49.84,53l-.08-.1S49.76,53,49.84,53Z"/><path class="cls-5" d="M49.66,51.54h0Z"/><path class="cls-5" d="M49.56,51.16c0,.09-.16.26-.09.38h.09C49.4,51.51,49.75,51.22,49.56,51.16Z"/><path class="cls-5" d="M50.4,49.22l0,.36c.08-.09.2-.2.27-.06C50.88,49,50.48,49.68,50.4,49.22Z"/><path class="cls-5" d="M50.22,48.12c.11.16.15,0,.21-.07C50.29,48,50.26,48,50.22,48.12Z"/><path class="cls-5" d="M45.66,41.57l.16-.19C45.67,41.32,45.76,41.46,45.66,41.57Z"/><polygon class="cls-5" points="43.71 41.95 43.76 42.15 43.92 41.97 43.71 41.95"/><polygon class="cls-5" points="43.6 39.93 43.68 39.92 43.39 39.91 43.6 39.93"/><path class="cls-5" d="M32,46.19l.3.09C32.28,46.17,32,46,32,46.19Z"/><path class="cls-5" d="M30.77,51.93c-.16,0-.28.21-.13.32C30.67,52.12,30.8,52,30.77,51.93Z"/><polygon class="cls-5" points="36.77 67.9 36.6 67.92 36.85 67.97 36.77 67.9"/><path class="cls-5" d="M40.45,37.79c.09,0,.28,0,.24-.06l-.34,0Z"/><path class="cls-5" d="M41,37.27a1.16,1.16,0,0,0-.76-.06c.33,0,.2.08.58.14,0,.08-.1.14-.22.13.09,0-.06.12.15.15s.25-.24,0-.35A.55.55,0,0,1,41,37.27Z"/><path class="cls-5" d="M37.69,30.67l0,.07A.08.08,0,0,0,37.69,30.67Z"/><path class="cls-5" d="M33.14,29s0,0,0-.07S33.13,29,33.14,29Z"/><path class="cls-5" d="M32.27,28.63l0,0S32.28,28.61,32.27,28.63Z"/><path class="cls-5" d="M37.69,30.67l0-.16C37.58,30.6,37.65,30.62,37.69,30.67Z"/><path class="cls-5" d="M40.1,36.42a.19.19,0,0,0,.1,0l-.05,0Z"/><path class="cls-5" d="M39.51,31.9l0,0,.12-.07Z"/><path class="cls-5" d="M40.56,33.23s-.25.1-.37.15q.16-.06.21,0Z"/><path class="cls-5" d="M41.13,35.84l0,0Z"/><path class="cls-5" d="M38.67,31a.35.35,0,0,0,.06-.09Z"/><path class="cls-5" d="M39.67,39.32h0Z"/><polygon class="cls-5" points="41.19 37.77 41.2 37.8 41.36 37.8 41.19 37.77"/><path class="cls-5" d="M30.59,28.5h0S30.61,28.47,30.59,28.5Z"/><path class="cls-5" d="M23.51,40.22c.2-.22.38.18.59-.12C24,40.15,23.61,40,23.51,40.22Z"/><path class="cls-5" d="M40.13,36.38a.11.11,0,0,1,0-.05A0,0,0,0,0,40.13,36.38Z"/><path class="cls-5" d="M24.1,40.1h0l0,0Z"/><path class="cls-5" d="M27.19,30.21a.25.25,0,0,0,.1.08Z"/><path class="cls-5" d="M29.82,29.3h-.07A.06.06,0,0,0,29.82,29.3Z"/><path class="cls-5" d="M26.35,31.45c-.05,0-.08,0-.09.05h0S26.28,31.45,26.35,31.45Z"/><path class="cls-5" d="M25.39,32.55l.06,0v0Z"/><path class="cls-5" d="M38.34,42.48a1.34,1.34,0,0,1,.24.12C38.41,42.49,38.46,42.31,38.34,42.48Z"/><path class="cls-5" d="M40.25,36.39c-.07,0-.1,0-.12,0s0,0,0,0S40.23,36.41,40.25,36.39Z"/><path class="cls-5" d="M27.87,33.06l-.16.09A.43.43,0,0,0,27.87,33.06Z"/><path class="cls-5" d="M30.94,45l0,0S31,44.93,30.94,45Z"/><path class="cls-5" d="M27.4,33.58a.59.59,0,0,0-.22,0l0,.06Z"/><path class="cls-5" d="M38.58,42.6Z"/><path class="cls-5" d="M38.68,41.24c-.09.14.27.24.44.38,0,.24-.28,0-.48-.09,0,.16.26.43.19.5a.31.31,0,0,1-.14-.09c.16.28-.22.34,0,.7l-.09,0a3.16,3.16,0,0,1,.41.29c-.05.07.08.27-.13.14,0,0,0-.1-.07-.16l0,.13c-.32-.16,0-.17-.21-.33,0,.2.06.54-.1.58-.27-.21.11-.31-.23-.38l.23-.07c-.5-.23.11-.06-.42-.33-.23.12,0,.33-.29.44.1.17.22.18.31.35,0,.5-.79-.43-.67.09.1.21.35.55,0,.5l-.19-.34c-.21.12.23.52-.13.48,0-.15.07-.22,0-.24-.31-.14,0,.25-.07.33l-.22-.26c-.18.17-.28.56-.52.75,0-.1,0-.21-.15-.27a.83.83,0,0,1-.49.27,2.36,2.36,0,0,1-.6,0l0,.33s-.1-.11-.08-.17c-.16-.07,0,.18,0,.3s-.15-.13-.13-.23c-.14.3-.53.72-.85.44l0-.1c-.21-.08-.13.64-.36.4l0-.06c-.44-.08-.94.22-1.26-.24-.08.42-.4-.2-.48.37-.22-.32-.14-.42-.44-.65-.09,0-.2.33-.33.37l.06-.3-.22.28v-.38l-.12,0a.31.31,0,0,1,0,.24c-.2.11-.34-.3-.29-.46l-.45.12c.05-.11.13-.13.2-.19-.3.23.07-.32-.2-.1,0,.07-.08.16-.1.22a.35.35,0,0,0-.39-.29l.11-.18c-.23-.15-.57-.18-.85-.34.05.14-.16.45-.27.43l.14-.3c-.16.14,0,.16-.22.3-.08-.1.13-.36.25-.41h-.18c0-.08.1-.11.17-.21-.16.14,0-.41-.28-.17l.05-.08c-.26-.17-.42-.2-.63-.35-.19.21-.23.09-.44.2-.08-.21-.07-.52-.25-.67s-.21.12-.39.17c.19-.17,0-.34.25-.36a2,2,0,0,0-.64-.43c-.07.09-.08.16-.17.18s0-.19.12-.24h0c-.58-.17.19-1.16-.41-1.2h0l-.38-.2c0-.16.22,0,.32-.15-.54-.18-.1-.54-.46-.74.69-.38-.23-.78.25-1.15l-.18,0c-.18-.06.09-.1.13-.16-.14,0-.15.1-.25.06-.28-.67.26-1.39.55-2,.1-.21-.86-.35-.38-.55l.3.17a1,1,0,0,1,0-.77,1.14,1.14,0,0,0,.19-.74c.05.06.14.1.12.15.26,0,.2-.32,0-.43.06-.05.16.08.27.09s-.14-.39.1-.31a.11.11,0,0,1,.05.09c-.06-.11.21-.23-.06-.33.22-.08.1-.37.33-.39-.18-.27.32-.14,0-.45.33.31.47,0,.42-.23.07.12.17,0,.27.2.09-.1.12-.24-.05-.39.52.22.1-.67.64-.22a2.79,2.79,0,0,1,.67-1c.2.39-.33.25-.07.64.17-.34.19-.75.55-.83.11,0,0,.21.05.29.23-.32.61-.22.82-.55a.2.2,0,0,1,0,.13c.05,0,.15,0,.08-.17l0,.07c-.19-.25.06-.66,0-.82.05.6.35.06.37.82a.35.35,0,0,0,0-.28c.07,0,.11.09.09.26.18-.17.06-.35.26-.39,0,.1,0,.14,0,.26.06-.2.13-.41.31-.36,0,.06,0,.13,0,.14.27-.09.45-.57.8-.41-.08.43.12.13.15.5l.16-.11-.07-.19c.15,0,.29-.25.43-.13l-.12.15.29-.06L33,30.2c.17-.19,0-.47.21-.36,0,0,.17,0,.23.24h0c.09-.11.19-.22.3-.11s-.08.4-.07.48c.12-.29.37,0,.53-.34a.75.75,0,0,0-.08.3l.11-.24a.29.29,0,0,1,0,.29c.21.1,0-.48.25-.22,0,0,0,.06-.08.08.23.17.54,0,.74.16,0,.38-.23,0-.25.35.33,0,.82-.2,1.09,0l0-.07c.27-.46.12.34.38.19,0,0-.18.24-.14.19.15.19.46.11.85.15l-.11.09c0,.18.25.27.33.4.12-.09.17,0,.25-.21,0,.44.16.5.4.55s.49.1.39.47c0,0-.16,0-.14,0l.33.15c.15-.17.07-.12.15-.3a.33.33,0,0,1,.35,0c-.23,0-.28.24-.34.38l.17-.14c-.2.41.38-.27.32.1l-.1.07c.11,0,.29,0,.33.11-.19.19-.17,0-.34.12.09.1.58-.08.43.19-.09,0-.14-.08-.24-.08-.17.29-.1.26-.09.37h0v.27l0-.1c.67-.22.31.22.81.22-.49,0-.24.08-.51.21-.05.1-.09.22-.18.24.27,0-.09.24.3.21-.09,0,0,.11-.19.19.13.09.14-.1.25-.14.41.06-.18.62.36.74.26.19.58.15.82.37-.13.13-.36,0-.36,0-.11.18,0,.27.09.37-.09,0-.15,0-.25.1s.36,0,.24.16a2.68,2.68,0,0,1-.4,0c.1.1.31.18.41.3-.16.06-.26,0-.38-.06a.7.7,0,0,0,.48.35L40.8,37s-.23.06-.28,0c-.23-.09.06-.18.16-.21l.07.09c.55-.18-.15-.37-.15-.55H41l-.37-.12c.09-.07.32-.15.4-.07.17-.19-.18-.09,0-.26a.06.06,0,0,1,.07,0L41,35.73c.1,0,.28-.1.25,0,.16-.31-.41-.3-.14-.49h0c-.24-.29-.3.06-.73,0l.65-.43-.3.08s0-.11.11-.15c-.24,0-.12.07-.33.08.2-.28-.3-.38.12-.62-.24.05-.09.22-.32.13.45-.28-.17-.15,0-.4.26-.08.2.12.34-.14-.44.14-.06-.33-.22-.4-.31.18-.29-.17-.51-.3.12-.06-.09-.46-.13-.71l.05,0c-.31.2-.38,0-.55-.08a.53.53,0,0,1,.38-.18l-.1-.11a.3.3,0,0,1-.29,0l.22-.15c-.16-.15-.51-.09-.57-.39-.19.18-.35.64-.65.6.08-.11.23-.29.33-.28s-.14,0-.14,0l.24-.1c0-.15-.18.11-.23,0,.13-.15,0-.15.15-.26s0,.12.09.08a.48.48,0,0,1,0-.41c-.06.09-.17.2-.24.17s.1-.23.07-.39c-.12.07-.15-.11-.33.12-.05,0,0-.15.06-.23-.17,0-.43-.26-.51.07v0h0c-.42,0-.51-.51-.86-.58l0-.08c-.23,0-.44-.14-.65,0,0,0-.06-.23,0-.33-.17,0-.22.1-.38-.12.21-.11,0-.17.2-.07-.16-.15-.16-.31-.45-.13.15-.21,0-.35-.17-.31l.08.22a.53.53,0,0,1-.28-.1l.14-.31c-.34-.5-.91.48-1.1-.23-.15.21.21.19.06.45-.18-.07-.32-.57-.38-.58-.26-.22-.31.44-.58.3,0,.12,0,.43-.16.54-.18-.05-.22-.5-.09-.59s.07,0,.06.06.16-.08.08-.22l0,.12c-.09-.12-.36-.12-.3-.31-.15.11-.06.19.05.26-.26-.18-.4,0-.67-.12,0,.06.09.2,0,.2-.39-.12-.15.24-.4.31-.16-.17,0-.43-.23-.26-.17-.11-.07-.31,0-.41-.21.23-.47-.08-.62-.11l.11-.11a.3.3,0,0,1-.2.09l.12.22c-.08,0-.15,0-.17-.12,0,.17.13.38,0,.62-.12-.1-.27.17-.37-.12.33,0-.11-.31.15-.41a.16.16,0,0,1-.19,0,.06.06,0,0,1,0-.08c-.37-.2-.06.38-.36.46,0-.19-.16-.31-.2-.26.13,0,.14.27.07.43-.23-.08-.17.16-.28.17l.14,0c0,.18-.09.18-.19.29-.06-.13.08-.14,0-.18,0,.35-.43-.18-.56.1-.13-.07-.13-.3-.25-.35-.13.3-.34-.11-.5.18.18.18.16.12.1.41l.3-.34-.09.44c.11-.05.17-.26.26-.25,0,.23-.05.17.08.32-.29-.25-.19.34-.46.21l-.27-.53c-.41-.1-.32.52-.72.6l.16,0c.09.22-.18.15-.23.3-.1-.17-.21-.19-.32-.26.09.12-.24.17,0,.5l-.3-.1c-.31.12.08.65-.16.79-.08-.22-.28-.23-.23-.48-.08.07-.17.1-.08.21-.12-.05,0,.38-.21.3,0,.09.17.25.08.31a.43.43,0,0,1-.07-.07c.07.07,0,.22.21.3-.64-.19-.51.62-1.06.52a4.44,4.44,0,0,1-.26.62s-.08-.06-.05-.08c-.29.14.4.44.08.59-.35,0-.07-.23-.22-.2-.58-.29-.11.35-.53.36V33.8c-.27.05.06.46-.09.67l-.09,0a1.4,1.4,0,0,1,.24.88c-.21-.15-.09-.15-.35-.18,0,.11.41.1.41.32a1.42,1.42,0,0,1-.59.08,1.17,1.17,0,0,1,.05-.2c-.38,0-.07.26-.15.35l-.15-.06c0,.34.36.43.26.74h.12c.35.25-.24.12,0,.34h-.4a3.92,3.92,0,0,1,.38.68c-.29-.14-.4-.41-.55-.59,0,.12,0,.42.16.5,0-.05-.12-.12-.05-.17.28.18.44.38.42.61-.76-.06-.22.61-.77.82.3.42,0,.89.1,1.41.56-.3.05.15.64,0,.06.11.07.15,0,.17l-.26.43c-.14.14-.16-.07-.29,0,0,.27-.22.18-.32.4.2-.1.32,0,.29.18l.21-.3c.4.25-.38.48.05.73l-.22-.05c.17.15.27.7.81.65-.05.06-.18.17-.26.12.14.47.95.63.89,1.09l-.14.05c.09,0,.31,0,.25.14s-.14.06-.12.1.35,0,.35.16l-.19,0c.12.49.75.28,1.07.46a.67.67,0,0,0-.09.84l0,0c.37.4.92.32,1.41.44,0,.58.74.72,1.06,1.16,0-.1.16-.3.26-.31s.4-.15.23.21l0,0c-.08.4.18.41.36.47l.21-.49c.09.44.42.49.71.48s.56-.05.62.32c.14-.1.28-.08.41-.2l-.05.28a1.67,1.67,0,0,0,.88.14l-.09.2c.23,0,.33-.81.52-.82l.05.42c.38,0,.81.34,1.16-.07,0,.07,0,.19-.06.21.18,0,.75.18.59-.38.07.37.41,0,.56-.23l0,.28c.09-.4.07-.49.27-.65.06,0,.11.2,0,.15.22.09.06-.29.32-.21l0,.19c.19,0,.15-.11.18-.35s.36-.06.48.16c0-.15,0-.38.12-.35a.2.2,0,0,1,0,.18c.39.06.3-.49.61-.34a.39.39,0,0,0,.11.13c-.23.11-.42.19-.41.16.1.24.32.18.31.58.09-.26.15-.76.39-.75l.07.06v0c.06,0,.08,0,.1-.1a.35.35,0,0,0,.18,0c.13.16.27,0,.37-.09-.16-.23,0-.27-.26-.39,0,0,0,0,0,.08s0,0,0,.05v0l-.2.15c0-.17,0-.31.18-.24l-.13-.46c.33.26.68.28.85.44.16-.33.56-.55.34-1.08,0-.11.17,0,.25.08s-.05.11,0,.18c0-.22.35-.41.12-.69.27,0,.16.32.32.06l.06.11c.42,0,.42-.39.41-.71s0-.65.47-.71a.2.2,0,0,1-.15,0c.7-.48.49-1.46,1.2-2,.17-.17,0-.27-.18-.44l.31,0-.28-.3c-.2-.35.87-.38.43-.87l-.2,0c0-.13-.07-.45.16-.4,0,0-.2-.07-.09-.12l.16,0a3,3,0,0,0-.25-.37c.12-.26.63.08.67-.33-.06-.16-.45-.43-.56-.37a.27.27,0,0,1-.26.16l-.08-.13a1.85,1.85,0,0,0-1.27.19l.28.19-.23.06v-.16c-.21.08,0,.14.1.21a.47.47,0,0,0-.25.07l.44.21c-.18,0-.35-.11-.46,0,.19.1.41,0,.53.1-.22.08-.39,0-.23.16a.31.31,0,0,1-.24-.08c.13.11,0,.25.27.33-.26.06,0,.34-.41.24.09.05.3.23.3.32-.48-.27-.11.31-.64.13.43.24.07.44.26.72,0,0-.1-.07-.07-.08s-.22.08-.32.11c.36.16.36.36.54.55-.4,0-.38-.27-.73-.37.29.12.19.35.44.42a.83.83,0,0,1-.45-.05c.43.23,0,.12.26.34-.3,0-.43-.18-.38,0C38.76,41.45,38.68,41.24,38.68,41.24Zm-2.26,3.41h0l.08-.06Zm-.32.17.14-.06c.06.08.09.17,0,.18S36.18,44.87,36.1,44.82Zm1.69,1.28c0,.08-.09,0-.12,0a.49.49,0,0,0,.08-.1v0A1.12,1.12,0,0,1,37.79,46.1Z"/><path class="cls-5" d="M37.7,45.72l0,0-.07,0,0,.09Z"/><path class="cls-5" d="M37.72,30.75h0a.08.08,0,0,1,0,0Z"/><polygon class="cls-5" points="31.34 44.91 31.32 44.98 31.36 44.92 31.34 44.91"/><path class="cls-5" d="M38.69,32.9a.43.43,0,0,0,0,.07S38.68,32.93,38.69,32.9Z"/><path class="cls-5" d="M39.17,33.64v.16A.48.48,0,0,0,39.17,33.64Z"/><path class="cls-5" d="M39.41,34.28l.11-.05h0Z"/><path class="cls-5" d="M30.47,31.07s0,0,0,0S30.44,31.13,30.47,31.07Z"/><path class="cls-5" d="M33.48,30.08a.65.65,0,0,1-.11.12C33.42,30.23,33.47,30.24,33.48,30.08Z"/><polygon class="cls-5" points="27.89 33.05 27.88 33.05 27.87 33.06 27.89 33.05"/><path class="cls-5" d="M33.22,30.19a.09.09,0,0,0,.15,0S33.27,30.15,33.22,30.19Z"/><path class="cls-5" d="M40.18,37v0h0Z"/><path class="cls-5" d="M40.22,37l0,0S40.25,37,40.22,37Z"/><path class="cls-5" d="M40.33,37.13l-.08-.07S40.25,37.12,40.33,37.13Z"/><path class="cls-5" d="M40.14,36.13h0Z"/><path class="cls-5" d="M40,35.88c0,.07-.17.21-.08.27H40C39.88,36.14,40.22,35.89,40,35.88Z"/><path class="cls-5" d="M40.81,34.32l0,.27c.08-.09.2-.2.26-.1C41.27,34.05,40.9,34.65,40.81,34.32Z"/><path class="cls-5" d="M40.58,33.52c.11.1.14-.08.19-.1C40.64,33.39,40.61,33.38,40.58,33.52Z"/><path class="cls-5" d="M36.23,29.68l.11-.23C36.22,29.44,36.3,29.54,36.23,29.68Z"/><path class="cls-5" d="M34.81,30.58l0,.18.11-.21A.4.4,0,0,0,34.81,30.58Z"/><polygon class="cls-5" points="34.61 28.66 34.66 28.64 34.46 28.69 34.61 28.66"/><path class="cls-5" d="M25.34,32.19l.27.17C25.62,32.27,25.35,32,25.34,32.19Z"/><path class="cls-5" d="M23.83,36.29c-.17,0-.29.13-.14.23C23.72,36.42,23.86,36.35,23.83,36.29Z"/><polygon class="cls-5" points="29.66 47.06 29.54 47.13 29.73 47.1 29.66 47.06"/><path class="cls-5" d="M20.89,87.15c.08,0,.28,0,.24,0l-.33,0Z"/><path class="cls-5" d="M21.51,86.89a2.15,2.15,0,0,0-.75-.09c.32,0,.18.06.56.12,0,0-.11.07-.23.06.09,0-.07.07.14.09s.27-.12.06-.19A.81.81,0,0,1,21.51,86.89Z"/><path class="cls-5" d="M22.36,83l-.05,0Z"/><path class="cls-5" d="M23,80.71a.08.08,0,0,0,.07,0A.1.1,0,0,0,23,80.71Z"/><path class="cls-5" d="M23.45,80.4l0,0S23.48,80.42,23.45,80.4Z"/><path class="cls-5" d="M22.36,83l.11,0C22.36,83,22.39,83,22.36,83Z"/><path class="cls-5" d="M20.72,86.31a.19.19,0,0,0,.09,0s0,0,0,0Z"/><path class="cls-5" d="M22.48,84.11v0l.13,0Z"/><path class="cls-5" d="M22.45,84.92a2.15,2.15,0,0,0-.39-.07.39.39,0,0,1,.19.06Z"/><path class="cls-5" d="M21.87,86.17l0,0Z"/><path class="cls-5" d="M22.62,83.55h0Z"/><path class="cls-5" d="M32.59,63l0,0Z"/><polygon class="cls-5" points="34.19 63.6 34.19 63.62 34.27 63.75 34.19 63.6"/><path class="cls-5" d="M24,79.79Z"/><path class="cls-5" d="M26.41,73.55c-.26-.06-.22-.27-.52-.31C26,73.29,26.22,73.55,26.41,73.55Z"/><path class="cls-5" d="M20.76,86.29v0A0,0,0,0,0,20.76,86.29Z"/><path class="cls-5" d="M25.89,73.24Z"/><path class="cls-5" d="M24.34,78.14l-.12,0Z"/><path class="cls-5" d="M23.57,79.22l0,0S23.57,79.21,23.57,79.22Z"/><path class="cls-5" d="M24.19,77.38s.07,0,0,0h0S24.24,77.38,24.19,77.38Z"/><path class="cls-5" d="M24.45,76.74h-.06v0Z"/><path class="cls-5" d="M30.91,64.53l.19.17C31,64.55,31,64.43,30.91,64.53Z"/><path class="cls-5" d="M20.88,86.32l-.12,0,0,0Z"/><path class="cls-5" d="M22.13,76.57l.08-.1A.19.19,0,0,0,22.13,76.57Z"/><path class="cls-5" d="M27.23,68.32v0S27.21,68.29,27.23,68.32Z"/><path class="cls-5" d="M22.3,76.13a.52.52,0,0,0,.21,0l-.07,0Z"/><path class="cls-5" d="M31.1,64.7Z"/><path class="cls-5" d="M31.27,63.69c-.09.07.19.32.3.5s-.22-.18-.37-.29c0,.13.16.43.1.46a.73.73,0,0,1-.1-.13c.12.29-.19.18,0,.53l-.07-.06c.13.13.25.27.34.38s.08.23-.09.06c0,0,0-.09-.07-.16l0,.12c-.26-.24,0-.14-.19-.34,0,.16.09.45,0,.43-.24-.25.06-.21-.21-.37l.17,0c-.42-.35.08,0-.36-.4-.18,0,0,.25-.2.28.09.16.19.2.29.37,0,.4-.7-.52-.53-.07.12.19.4.52.16.43l-.23-.31c-.14.08.31.47,0,.38-.08-.13,0-.17,0-.19-.28-.15.09.21,0,.27l-.24-.24c-.08.15-.05.45-.13.62-.07-.08-.12-.18-.22-.22-.05.28-.38.31-.68.33l.15.26s-.12-.06-.15-.12.13.13.19.24-.17-.07-.21-.15c.07.28.08.68-.25.58l-.05-.08c-.17,0,.35.51.07.41l0,0c-.29.1-.28.51-.75.37.29.31-.32.07.12.47-.33-.07-.38-.17-.67-.13-.06,0,.23.3.23.4l-.24-.2.19.28-.32-.19,0,.1a.38.38,0,0,1,.21.1c0,.17-.33.06-.46,0l.05.35a.59.59,0,0,1-.14-.21c.16.3-.27-.19-.12.09a.93.93,0,0,1,.18.16c-.18-.07-.27,0-.27.17l-.15-.14c-.16.11-.17.37-.29.53a.68.68,0,0,1,.4.31l-.28-.18c.14.15.14,0,.29.24-.08,0-.33-.18-.39-.28l0,.14c-.09,0-.11-.1-.21-.18.14.15-.36-.06-.11.19l-.08-.05c-.13.17-.09.31-.18.46.23.16.14.18.3.35-.15,0-.41,0-.47.18s.18.16.29.29c-.22-.13-.28,0-.39-.16a.7.7,0,0,0,0,.52c.1,0,.16,0,.22.1s-.14,0-.24-.06v0c.19.42-.95.1-.61.56v0l.13.33c-.09.06-.14-.15-.31-.17.25.42-.23.28-.08.59-.73-.25-.21.47-.73.41l.16.07c.13.13-.12,0-.17,0,.12.06.17,0,.24.1,0,.48-.65.66-1,1-.11.13.79.48.32.48l-.27-.19c.22.46-.29.6-.12,1-.06,0-.15-.09-.14-.12-.25,0-.11.23.07.3,0,0-.16-.06-.27-.07s.22.28,0,.22a.14.14,0,0,1-.08-.07c.09.09-.1.18.17.25-.17.06,0,.26-.16.28.26.18-.22.14.18.32-.42-.18-.42.06-.24.21-.12-.08-.16,0-.32-.09,0,.09,0,.19.25.26-.57,0,.3.44-.39.29a3.14,3.14,0,0,1,.25.85c-.42-.15,0-.25-.41-.4.11.27.44.51.27.68s-.18-.09-.25-.13c.11.26-.17.39,0,.64a.18.18,0,0,1-.1-.07s-.09.07.11.12l-.05,0c.3,0,.56.32.71.37-.55-.23-.19.14-.88-.17a.47.47,0,0,0,.25.13s-.13,0-.27-.07c.07.17.29.18.26.29a1.54,1.54,0,0,1-.24-.1c.17.11.34.22.23.3s-.13,0-.12-.06c0,.18.41.42.19.56-.41-.16-.16,0-.52,0l.08.13h.19c0,.09.21.23.08.28l-.14-.1,0,.18.16-.06c.17.14.46.1.33.2s0,.08-.25.08h0c.11.07.22.14.11.18s-.4-.1-.48-.11c.3.11,0,.23.35.36a1,1,0,0,0-.3-.08l.24.09a.47.47,0,0,1-.28,0c-.07.11.47.06.24.16l-.09-.05c-.13.13.1.32-.05.43-.37,0-.06-.14-.38-.15,0,.21.36.49.24.67l0,0c.52.12-.28.09-.05.23a.62.62,0,0,0-.23-.06c-.1.12.09.29.22.51l-.13,0c-.14.06-.1.19-.18.27.13,0,.11.09.31.09-.81.15.33.54-.33.69,0,0-.11-.08-.11-.06l.1.21a1,1,0,0,0,.32,0c.14,0,.24.11.23.15a.67.67,0,0,0-.5,0l.22,0c-.42.06.46.07.17.18l-.12,0c.05.06.21.12.17.17-.27,0-.12-.06-.34-.09,0,.08.49.21.22.25-.08,0-.07-.09-.14-.13-.32.05-.24.06-.3.12h0l-.15.12.08,0c.69.16.11.21.56.38-.42-.16-.25,0-.55-.07a.68.68,0,0,1-.27,0c.24.08-.2.09.15.21-.1,0,0,.06-.26,0,.07.09.17,0,.29,0,.32.15-.42.27,0,.49.18.16.51.21.67.36a.62.62,0,0,1-.36-.06c-.14.08-.12.14,0,.22a.63.63,0,0,0-.27,0c0,.06.36,0,.21.13a2.7,2.7,0,0,1-.39-.08c.09.08.27.15.35.23a.92.92,0,0,1-.37-.08.57.57,0,0,0,.42.25l.1,0s-.23,0-.28,0c-.21-.07.09-.1.19-.1l.06.06c.58,0-.08-.21,0-.32l.41.06-.34-.12a.74.74,0,0,1,.4,0c.21-.06-.14-.07.09-.12a.08.08,0,0,1,.07,0l-.12-.08c.08,0,.29,0,.23,0,.24-.12-.3-.23,0-.26h0c-.13-.18-.3,0-.65-.18l.76,0-.31,0s0-.05.16,0c-.2-.09-.13,0-.33,0,.29-.07-.11-.26.38-.24-.23,0-.19.07-.34,0,.52,0-.08-.12.16-.18s.12.11.37,0c-.45-.08.11-.15,0-.22-.36,0-.14-.16-.25-.29.12,0,.22-.19.37-.28h.06c-.37-.06-.29-.16-.35-.25a.83.83,0,0,1,.39.11v-.08a.37.37,0,0,1-.21-.11l.27,0c0-.1-.3-.24-.1-.34-.25,0-.72,0-.87-.15a1.3,1.3,0,0,1,.42.08s-.1-.06,0-.07l.22.08c.11,0-.19,0-.16-.1.2,0,.15,0,.3,0s-.09,0,0,0a.5.5,0,0,1,.32-.09c-.12,0-.27,0-.29-.08s.24,0,.35,0c-.13-.05,0-.09-.27-.13,0,0,.14,0,.22,0-.12-.07,0-.24-.32-.23h0c-.26-.21.23-.32.13-.51l.1,0c-.1-.12,0-.23-.23-.34,0,0,.19,0,.31,0-.06-.09-.17-.12,0-.2.15.11.15,0,.11.1.1-.08.26-.07,0-.22.24.08.32,0,.26-.08l-.19,0c0-.06,0-.1,0-.14l.33.09c.43-.11-.6-.5.09-.51-.22-.1-.18.07-.44,0,.06-.08.55-.07.56-.1.21-.08-.45-.22-.29-.32-.12,0-.44-.07-.52-.2s.51,0,.59.09,0,0-.07,0a.21.21,0,0,0,.2.09l-.11,0c.13,0,.15-.14.33-.07a.2.2,0,0,0-.25,0c.19-.07,0-.18.19-.27-.07,0-.21,0-.21,0,.19-.14-.2-.13-.22-.27.2,0,.42.14.3,0,.14,0,.31.07.4.12-.2-.16.2-.16.25-.21l.08.08a.09.09,0,0,1,0-.1l-.24,0s.06,0,.16,0c-.14-.08-.39-.08-.58-.21.13,0-.08-.17.22-.1-.14.11.31.08.33.21,0,0,0-.06,0-.08a.11.11,0,0,1,.07,0c.31-.05-.32-.16-.28-.29.17.07.34.06.31,0s-.3-.06-.41-.15c.16,0-.07-.12,0-.16l-.08,0c-.17-.07-.13-.11-.16-.18.13,0,.07.08.13.07-.27-.15.36,0,.19-.21.13,0,.32.1.41.08-.19-.17.27,0,.12-.2a.58.58,0,0,1-.38-.17l.1.23-.29-.22s.11.16.06.18a.47.47,0,0,0-.31-.12c.36,0-.15-.22.11-.23l.56.18c.29,0-.22-.32,0-.45l-.12,0c-.21-.1,0-.12-.06-.21a1.41,1.41,0,0,0,.39.08c-.14,0,.06-.11-.31-.26h.27c.15-.1-.47-.35-.36-.46.19.12.34.11.45.25,0,0,.07-.07-.06-.12.13,0-.2-.21,0-.19-.08,0-.27-.13-.24-.17l.1,0c-.1,0-.1-.12-.32-.16.62.09.11-.39.65-.31a.79.79,0,0,1,0-.34c.05,0,.09,0,.06,0,.22,0-.49-.29-.25-.35s.13.14.26.15c.61.23,0-.2.37-.14l0,0c.23,0-.15-.26-.06-.36l.09,0a.79.79,0,0,1-.33-.54.88.88,0,0,0,.34.19c0-.06-.38-.16-.4-.29a1.79,1.79,0,0,1,.53.12l0,.1c.34.1,0-.12.12-.14l.13.07c0-.16-.33-.33-.24-.47l-.11,0c-.31-.26.23,0,0-.18l.37.15a1.59,1.59,0,0,1-.26-.48,2.9,2.9,0,0,1,.43.51.25.25,0,0,0-.1-.31s.1.11,0,.11c-.24-.21-.33-.36-.27-.46.66.37.31-.18.87,0-.16-.32.3-.29.38-.51-.56-.23,0-.07-.52-.36,0-.07,0-.08.05-.07l.4,0c.17,0,.09.11.21.18s.25.08.43.1c-.2-.1-.25-.2-.15-.21l-.29-.06c-.19-.32.52.13.32-.18l.14.15c-.06-.14.17-.27-.2-.6.06,0,.22.1.23.15.18-.13-.19-.67.15-.64l.12.09c0-.05-.2-.21-.05-.16s.12.09.13.08-.16-.23-.06-.22l.12.13c.28-.06-.17-.49-.15-.69a.78.78,0,0,0,.67.18l.05,0c.18-.16-.07-.54-.08-.82.47.18.44-.25.78-.25a.77.77,0,0,1-.27-.27c.1,0-.16-.31.16,0h0c.33.21.31.07.37,0l-.4-.34c.73.31.14-.61.74-.27-.06-.12,0-.17-.09-.29l.21.18a.39.39,0,0,0,.29-.27l.13.16c.08-.06-.53-.63-.48-.71l.33.26c.12-.14.5,0,.34-.4,0,0,.13.13.12.16s.43,0,0-.41c.28.26.15-.1.1-.29l.19.21c-.2-.31-.27-.38-.26-.53,0,0,.17.14.1.12.16,0-.14-.24,0-.21l.1.15c.08,0,0-.11-.11-.29s.18-.07.36.09c-.1-.11-.21-.29-.12-.28a.54.54,0,0,1,.12.14c.24,0-.07-.39.2-.26a.4.4,0,0,0,.13.1c-.1.08-.18.14-.18.12.18.18.28.15.47.45-.08-.19-.28-.58-.12-.56l.07,0v0s0,0,0-.07.09,0,.11,0c.16.15.16,0,.2,0-.19-.2-.11-.21-.32-.34,0,0,0,0,0,.06s0,0,0,0v0l-.08.1c-.07-.13-.12-.25,0-.17l-.26-.38c.32.24.56.31.74.47,0-.21.18-.31-.1-.76,0-.08.14.08.2.13s0,.07,0,.13c0-.15.16-.2-.07-.49.19,0,.18.29.25.15l.06.1c.6.26-.26-1,.48-.65a.21.21,0,0,1-.11-.08c.49,0,.4-.72,1-.53.14,0,0-.17-.05-.35l.2.23-.12-.34c0-.3.65.44.52-.07l-.14-.15c.08,0,.11-.22.24,0,0,0-.11-.18,0-.11l.09.13V64c.17,0,.34.52.51.44a1.21,1.21,0,0,0-.17-.57s-.12,0-.21-.16v-.11a2.94,2.94,0,0,0-.8-1l.06.3-.16-.16.07-.07c-.16-.14-.09,0,0,.16a.65.65,0,0,0-.19-.17l.16.43c-.11-.14-.16-.33-.29-.37.08.2.28.31.29.47-.17-.14-.26-.29-.21-.1A.7.7,0,0,1,33,62.9c0,.15-.09.14,0,.36-.2-.18-.12.17-.37-.19,0,.09.12.34.08.39-.23-.49-.18.09-.49-.38.22.43-.09.33,0,.62,0,0-.05-.1,0-.09s-.18-.09-.27-.13a2.52,2.52,0,0,1,.3.69c-.31-.25-.25-.4-.49-.67.2.25.07.35.26.54a1.36,1.36,0,0,1-.35-.29c.3.39,0,.11.15.38-.23-.13-.31-.34-.3-.16A.43.43,0,0,1,31.27,63.69Zm-1.4,2.36h0l0,0Zm-.15.15.07,0c.08.06.14.14.12.15S29.8,66.24,29.72,66.2Zm1.67,1.1s-.05,0-.09,0a.08.08,0,0,0,0-.06l0,0Z"/><path class="cls-5" d="M31.18,67s0,0,0,0l-.06,0,.06.07Z"/><path class="cls-5" d="M22.31,83.05Z"/><polygon class="cls-5" points="27.28 68.04 27.33 68.09 27.3 68.03 27.28 68.04"/><path class="cls-5" d="M21.2,84.08h-.07S21.17,84.08,21.2,84.08Z"/><path class="cls-5" d="M21.08,84.58l-.1.06Z"/><path class="cls-5" d="M20.91,85,21,85h0Z"/><path class="cls-5" d="M21.76,78.7s0,0,0,0S21.72,78.66,21.76,78.7Z"/><path class="cls-5" d="M21.91,80.68a.53.53,0,0,1-.11-.09S21.76,80.64,21.91,80.68Z"/><polygon class="cls-5" points="22.12 76.58 22.13 76.58 22.13 76.57 22.12 76.58"/><path class="cls-5" d="M21.82,80.51c-.06,0-.05,0,0,.08S21.86,80.54,21.82,80.51Z"/><path class="cls-5" d="M20.69,86.67h0Z"/><path class="cls-5" d="M20.72,86.69l0,0S20.75,86.69,20.72,86.69Z"/><path class="cls-5" d="M20.82,86.76l-.07-.05S20.74,86.74,20.82,86.76Z"/><path class="cls-5" d="M20.83,86.15h0Z"/><path class="cls-5" d="M20.81,86s-.22.08-.16.14h.08C20.58,86.1,21,86,20.81,86Z"/><path class="cls-5" d="M22.11,85.41l-.09.12c.11,0,.26,0,.28,0C22.63,85.42,22.05,85.58,22.11,85.41Z"/><path class="cls-5" d="M22.3,85c0,.07.15,0,.22,0C22.42,85,22.4,85,22.3,85Z"/><path class="cls-5" d="M22.68,82.21l.25.05C22.9,82.2,22.83,82.24,22.68,82.21Z"/><polygon class="cls-5" points="21.49 81.41 21.32 81.43 21.55 81.5 21.49 81.41"/><polygon class="cls-5" points="23.34 81.47 23.37 81.5 23.3 81.39 23.34 81.47"/><path class="cls-5" d="M24.63,77l-.3-.1C24.37,76.9,24.7,77,24.63,77Z"/><path class="cls-5" d="M25.16,75c.16,0,.27,0,.15-.06S25.14,74.91,25.16,75Z"/><polygon class="cls-5" points="28.87 70.08 28.93 70.18 28.91 70.06 28.87 70.08"/><path class="cls-5" d="M57.12,87.31c.06-.06.17-.22.12-.21l-.22.24Z"/><path class="cls-5" d="M57.3,86.67a2.33,2.33,0,0,0-.52.55c.24-.23.16-.12.43-.38.06,0,0,.12-.09.21.06-.06,0,.1.14-.06s.08-.27-.1-.15A1.15,1.15,0,0,1,57.3,86.67Z"/><path class="cls-5" d="M55,83.91v0S55,83.92,55,83.91Z"/><path class="cls-5" d="M53.69,82.17s0,0,.07,0A.08.08,0,0,0,53.69,82.17Z"/><path class="cls-5" d="M53.74,81.65v0S53.76,81.64,53.74,81.65Z"/><path class="cls-5" d="M55,83.91l0-.12C55,83.87,55,83.87,55,83.91Z"/><path class="cls-5" d="M56.41,87s0,0,.08,0h-.05Z"/><path class="cls-5" d="M55.87,84.39h0l.11-.08Z"/><path class="cls-5" d="M56.44,84.85a2.88,2.88,0,0,0-.28.27c.08-.08.13-.11.15-.11Z"/><path class="cls-5" d="M57,86h0Z"/><path class="cls-5" d="M55.54,84l.06-.08Z"/><path class="cls-5" d="M46,65.57h0Z"/><polygon class="cls-5" points="47.43 64.74 47.44 64.75 47.6 64.76 47.43 64.74"/><path class="cls-5" d="M53.61,80.91h0S53.63,80.91,53.61,80.91Z"/><path class="cls-5" d="M50.4,75.79c-.2.16-.34,0-.55.22C49.94,76,50.29,75.93,50.4,75.79Z"/><path class="cls-5" d="M56.41,86.94s0,0,0,0S56.4,86.94,56.41,86.94Z"/><polygon class="cls-5" points="49.85 76.02 49.84 76.02 49.82 76.04 49.85 76.02"/><path class="cls-5" d="M52.6,79.77l-.1.08Z"/><path class="cls-5" d="M52.93,80.93v0S52.92,80.93,52.93,80.93Z"/><path class="cls-5" d="M51.93,79.49s0,0,0,0l0,0S52,79.45,51.93,79.49Z"/><path class="cls-5" d="M51.61,79l0,0h0Z"/><path class="cls-5" d="M46.16,67.62l.25,0C46.21,67.6,46.14,67.5,46.16,67.62Z"/><path class="cls-5" d="M56.51,86.86a.41.41,0,0,1-.1.08h0Z"/><path class="cls-5" d="M50.05,80.65l0-.11A.14.14,0,0,0,50.05,80.65Z"/><path class="cls-5" d="M46.87,72.39l0,0S46.84,72.39,46.87,72.39Z"/><path class="cls-5" d="M49.83,80.28a.52.52,0,0,0,.13-.15l-.07,0Z"/><path class="cls-5" d="M46.41,67.58Z"/><path class="cls-5" d="M45.72,66.89c0,.11.36,0,.58.06s-.27.06-.46.11c.1.07.44.12.43.18a.86.86,0,0,1-.16,0c.29.06,0,.23.39.31l-.09,0a3.44,3.44,0,0,1,.51,0s.24.07,0,.1c0,0-.1,0-.17,0l.1,0c-.34.06-.12,0-.37,0,.11.09.4.18.31.25-.34,0-.12-.16-.42,0l.13-.12c-.54.11,0-.07-.54,0-.09.15.18.15.09.3.19,0,.28,0,.47,0,.35.18-.84.23-.38.34.23,0,.66,0,.44.13H46.2c0,.14.55,0,.31.2-.15,0-.14-.1-.18-.08-.29.13.22,0,.23.12l-.34,0c.07.15.33.29.41.44a.67.67,0,0,0-.31,0c.19.19,0,.44-.16.67l.3,0s-.13,0-.19,0,.19,0,.31,0-.16.08-.25.07c.26.1.58.31.3.5h-.09c-.1.13.61,0,.36.17h0c-.09.27.23.48-.17.75.42,0-.14.28.44.17-.26.2-.37.18-.52.42,0,.06.38,0,.45.05l-.3.07h.34l-.35.13.09,0s.12-.08.21-.1-.16.28-.31.32l.31.16a.55.55,0,0,1-.26,0c.34,0-.31.1,0,.14a1.14,1.14,0,0,1,.24,0c-.16.1-.13.22,0,.29l-.21,0c0,.18.2.32.25.5a.7.7,0,0,1,.48-.13l-.31.11c.21,0,.11-.09.36-.09,0,.08-.34.15-.45.14l.13,0c-.09,0-.15,0-.27.06.21,0-.27.24.08.19L47,74c0,.18.19.23.25.38.27-.09.23,0,.46,0,0,.13-.23.32-.16.44s.24,0,.41-.06c-.24.09-.17.21-.37.2.09.14.12.18.39.31a.57.57,0,0,1,.21-.12s-.07.12-.19.16h0c.44.08-.52.77,0,.75h0l.33.07c0,.1-.2,0-.32.15.48,0,.07.32.4.37-.64.42.23.41-.14.77l.16-.08c.18,0-.07.09-.09.14s.12-.11.22-.12c.37.26.12.83.16,1.28,0,.15.85-.35.56,0l-.31.1c.49.08.28.55.71.64-.08,0-.16.07-.18.05-.17.17.1.2.28.1,0,0-.15.1-.22.17s.34,0,.15.13a.14.14,0,0,1-.1,0c.12,0,.07.17.29,0-.05.16.22.11.12.27.29-.11,0,.24.35,0-.39.23-.21.35,0,.3-.13.05-.09.12-.27.2.05.07.16.08.35-.06-.37.42.53,0,0,.45a2.92,2.92,0,0,1,.79.26c-.38.25-.17-.16-.55.11.26.06.64-.06.67.15s-.18.09-.25.12c.27.06.19.34.5.34l-.12,0s0,.1.15,0h-.06c.2-.22.58-.26.71-.35-.51.31,0,.23-.67.6a.51.51,0,0,0,.24-.12s-.06.1-.21.17c.16,0,.31-.14.38,0a1.26,1.26,0,0,1-.23.13c.19-.07.38-.14.37,0s-.1.09-.12.07.58-.11.54.15c-.37.23-.08.13-.36.38h.15l.11-.14c0,.07.3-.05.26.08l-.16,0,.15.08.06-.16c.2-.06.35-.31.34-.16s.05.07-.09.24h0c.12,0,.24-.09.21,0s-.32.26-.38.32c.27-.17.2.09.48-.09a2,2,0,0,0-.25.2l.22-.14a.49.49,0,0,1-.19.21c0,.12.34-.34.27-.1l-.09,0c0,.18.29.1.29.27-.26.28-.15,0-.35.22.17.1.59,0,.64.17v0c.4-.34-.11.27.14.17a.86.86,0,0,0-.19.14c0,.15.27.09.51.11l-.11.08c0,.13.08.18.09.28.11-.08.13,0,.25-.19-.38.72.61,0,.31.63,0,0-.13,0-.11.06l.21,0a1.39,1.39,0,0,0,.18-.27c.11-.09.22-.13.25-.1-.16.06-.25.27-.32.39,0-.06.11-.11.16-.16-.22.36.33-.33.23,0l-.09.09c.08,0,.22-.1.23,0-.16.21-.12.06-.27.22.06,0,.45-.28.31,0-.07,0-.1,0-.18,0-.16.28-.1.23-.09.3h0v.19l0-.08c.54-.46.22,0,.62-.23-.38.24-.19.17-.39.39,0,.08-.06.19-.13.24.2-.14-.06.21.24,0-.06.07,0,0-.13.22.11,0,.1-.14.19-.23.3-.17-.06.49.36.25.23,0,.47-.29.67-.33a.6.6,0,0,1-.25.25c0,.16,0,.17.14.13a.77.77,0,0,0-.15.22c.06,0,.25-.25.22-.1a2.44,2.44,0,0,1-.29.27c.1,0,.27-.13.38-.15a1,1,0,0,1-.29.24.54.54,0,0,0,.44-.19l0-.1s-.13.18-.18.21,0-.13,0-.21l.07,0c.32-.47-.2,0-.26-.13l.3-.3-.29.21c.05-.1.18-.29.26-.31.08-.2-.14.08,0-.13,0,0,0,0,0-.06l-.13.06c.07-.06.18-.24.17-.17.07-.25-.34.12-.17-.15h0c-.21,0-.21.22-.53.42l.42-.63-.21.22s0-.06.07-.15c-.18.12-.08.11-.23.24.12-.26-.26,0,.05-.43-.18.16-.06.19-.23.25.32-.41-.14,0,0-.23s.15,0,.25-.26c-.33.31,0-.17-.14-.14-.24.26-.2,0-.36,0,.09-.09,0-.28,0-.44l0,0c-.27.26-.29.14-.39.14a1.06,1.06,0,0,1,.31-.25l0,0a.33.33,0,0,1-.21.11l.21-.19c-.08,0-.36.11-.31-.1-.19.17-.44.57-.65.61a1.64,1.64,0,0,1,.32-.3s-.1.06-.08,0l.2-.13c0-.11-.16.12-.17.08.14-.14.07-.13.19-.23s0,.08,0,0a.59.59,0,0,1,.13-.3c-.08.08-.19.18-.23.18s.14-.19.18-.3c-.11.08-.05-.06-.26.14,0,0,.08-.12.13-.18-.13.06-.18-.13-.37.13v0h0c-.32.09-.11-.35-.3-.37l.07-.07c-.14,0-.18-.1-.38,0,0,0,.09-.17.18-.24-.1,0-.19.07-.13-.11s.09-.12.14,0c0-.13.1-.25-.16-.14.21-.14.19-.26.1-.24l-.09.16c-.06,0-.07,0-.08-.1l.26-.2c.19-.4-.73.2-.31-.35-.21.12-.06.19-.29.33,0-.09.28-.47.27-.49.07-.2-.44.23-.42.06-.09.09-.32.3-.47.3s.32-.39.43-.41,0,0,0,.06.11,0,.19-.12l-.1.07c.06-.11,0-.19.15-.29a.21.21,0,0,0-.19.18c.07-.2-.1-.14-.08-.3,0,.06-.13.16-.14.14,0-.22-.22.09-.33,0,.1-.16.35-.25.16-.24a.65.65,0,0,1,.33-.25c-.24.07,0-.23,0-.3l.11,0c-.06,0-.08,0-.09,0l-.17.17c0-.05,0-.07.08-.13-.15.07-.3.26-.51.33.07-.1-.18,0,.06-.22,0,.17.24-.2.35-.15s-.06,0,0-.06a.13.13,0,0,1,.07,0c.15-.27-.32.17-.39.06.16-.09.26-.22.21-.22s-.22.2-.36.24c.07-.15-.13,0-.14-.06l0,.08c-.15.09-.16,0-.24,0,.11-.08.11,0,.15-.06-.29.13.17-.31-.05-.26.07-.1.27-.2.32-.27-.25,0,.13-.23-.09-.21-.17.17-.12.14-.36.21l.24,0-.35.11c0,.05.19,0,.18.06a.54.54,0,0,0-.29.17c.25-.26-.25,0-.1-.2l.48-.34c.15-.25-.37,0-.34-.23l-.06.1c-.2.12-.08-.06-.19,0a1.73,1.73,0,0,0,.3-.26c-.12.08,0-.11-.39.1l.18-.21c0-.16-.56.19-.57,0,.2-.08.29-.2.46-.22,0,0,0-.08-.12,0,.09-.09-.29,0-.15-.09-.09,0-.26.14-.27.09a.28.28,0,0,1,.08,0c-.08,0-.15,0-.32.16.46-.44-.23-.3.17-.67a.6.6,0,0,1-.27-.17c.05,0,.08,0,.07,0,.1-.19-.52.22-.42,0s.19,0,.27-.12c.55-.34-.15-.09.14-.36h0c.16-.16-.29,0-.31-.14a.28.28,0,0,0,.09-.05.8.8,0,0,1-.62,0,1,1,0,0,0,.36-.16c-.06,0-.36.21-.47.16a1.85,1.85,0,0,1,.42-.35l.06.07c.29-.2-.07-.09,0-.16l.14-.07c-.1-.1-.46.08-.5-.06l-.09.06c-.39.11.16-.16-.13-.1l.34-.2a1.91,1.91,0,0,1-.53-.05,2.82,2.82,0,0,1,.65-.06c0-.05-.1-.15-.29-.09.05,0,.15,0,.1,0-.31.08-.48.07-.52,0,.7-.31,0-.33.56-.65-.34,0,0-.38-.16-.55-.52.3,0,0-.6.2,0,0,0,0,0-.07l.28-.29c.15-.1.14,0,.27-.06s.22-.14.34-.27c-.19.1-.3.08-.25,0l-.22.18c-.36,0,.42-.31.06-.33l.2,0c-.14,0-.11-.26-.59-.16.06,0,.21-.11.27-.09,0-.2-.63-.21-.4-.46l.15,0c-.06,0-.29,0-.16-.06s.14,0,.15,0-.28,0-.22-.07l.18,0c.12-.24-.49-.13-.63-.25.41-.14.51-.32.55-.41h.06c0-.22-.46-.23-.67-.38.42-.25.07-.45.28-.71a.76.76,0,0,1-.38.06c.07-.07-.33,0,.06-.14v0c.37-.14.25-.2.24-.27l-.51.11c.69-.37-.4-.43.25-.69-.14,0-.15-.07-.29-.09l.28-.06a.32.32,0,0,0,0-.35h.21c0-.09-.82.05-.86,0l.41-.1c0-.16.3-.38-.1-.46.06,0,.18,0,.2,0s.24-.32-.33-.2c.37-.07,0-.17-.17-.23l.28,0c-.36,0-.46,0-.57-.09s.22,0,.15,0c.13-.1-.27,0-.14-.14h.19c0-.09-.09-.07-.3-.08s0-.17.3-.21c-.16,0-.37,0-.3-.07a.34.34,0,0,1,.18,0c.17-.16-.34-.17-.08-.3l.16,0c0,.11,0,.2,0,.19a2.22,2.22,0,0,1,.65-.1c-.2,0-.63-.11-.52-.21l.09,0h0s0,0-.05,0,.07-.05.07-.07c.21,0,.1-.12.11-.16-.28,0-.24,0-.47,0,0,0,0,0,.05,0h0l0,.11c-.15,0-.27,0-.12-.11h-.46c.38-.1.58-.24.82-.28-.17-.12-.13-.3-.66-.34-.07,0,.15-.06.23-.08s.05,0,.13,0c-.15-.07-.07-.22-.44-.22.16-.1.34,0,.27-.09h.11c.58-.29-1-.38-.21-.71a.28.28,0,0,1-.13,0c.32-.34-.33-.68.2-1,.11-.1-.13-.11-.31-.17H48l-.34-.11c-.26-.14.74-.22.27-.4h-.21c0-.06-.11-.2.12-.18,0,0-.21,0-.1-.05h.16l-.27-.16c.12-.12.63,0,.67-.13a1.29,1.29,0,0,0-.56-.19s-.1.06-.26.06l-.08-.07a3.33,3.33,0,0,0-1.27,0l.28.13-.23,0v-.09c-.21,0,0,.08.1.12a1,1,0,0,0-.25,0l.44.12c-.18,0-.36-.06-.46,0,.2.06.41,0,.54,0-.21,0-.39,0-.21.09a.56.56,0,0,1-.25,0c.15.06.06.14.31.18-.27,0,.06.18-.38.16a.86.86,0,0,1,.36.16c-.53-.1,0,.18-.6.15.48.07.21.25.47.37,0,0-.11,0-.09,0s-.18.08-.27.13a2.2,2.2,0,0,1,.72.16c-.37.08-.46-.05-.82,0,.32,0,.32.14.58.11a1.11,1.11,0,0,1-.43.09c.49,0,.08.06.38.11-.24.09-.46,0-.3.13A.5.5,0,0,1,45.72,66.89Zm1,2.32h0l0,0Zm0,.2a.14.14,0,0,0,0-.09c.1,0,.2,0,.19,0S46.83,69.37,46.75,69.41Zm1.89-.62s0,0-.07,0,0,0,0,0h.11Z"/><path class="cls-5" d="M48.27,68.78h0l-.06,0h.08Z"/><path class="cls-5" d="M55,84h0l0,0Z"/><polygon class="cls-5" points="46.68 72.2 46.75 72.19 46.69 72.18 46.68 72.2"/><path class="cls-5" d="M55.06,85.39l0,.06S55.05,85.41,55.06,85.39Z"/><path class="cls-5" d="M55.36,85.75l0,.12A.35.35,0,0,0,55.36,85.75Z"/><path class="cls-5" d="M55.53,86.1l.09-.09h0Z"/><path class="cls-5" d="M51.43,82.07h0C51.34,82.07,51.37,82.08,51.43,82.07Z"/><path class="cls-5" d="M53,83l-.13,0S52.87,83.1,53,83Z"/><polygon class="cls-5" points="50.05 80.66 50.05 80.66 50.05 80.65 50.05 80.66"/><path class="cls-5" d="M52.81,83c0,.06,0,.07,0,.07S52.86,83,52.81,83Z"/><path class="cls-5" d="M56.64,87.2v0l0,0Z"/><path class="cls-5" d="M56.68,87.19l0,0Z"/><path class="cls-5" d="M56.79,87.14l-.08,0S56.73,87.2,56.79,87.14Z"/><path class="cls-5" d="M56.35,86.8l-.07.08Z"/><path class="cls-5" d="M56.22,86.73s-.07.22,0,.2l.05-.05C56.17,87,56.36,86.62,56.22,86.73Z"/><path class="cls-5" d="M56.59,85.39l0,.14c0-.1.13-.23.18-.21C56.92,85,56.68,85.52,56.59,85.39Z"/><path class="cls-5" d="M56.43,85c.08,0,.1-.11.15-.16S56.46,84.93,56.43,85Z"/><path class="cls-5" d="M54.6,83.22l.19-.17C54.73,83,54.72,83.11,54.6,83.22Z"/><polygon class="cls-5" points="53.27 83.73 53.19 83.87 53.38 83.73 53.27 83.73"/><polygon class="cls-5" points="54.45 82.3 54.49 82.3 54.37 82.3 54.45 82.3"/><path class="cls-5" d="M51.88,78.92l-.26.18C51.68,79.09,52,78.92,51.88,78.92Z"/><path class="cls-5" d="M50.7,77.46c.13-.09.2-.18,0-.14S50.65,77.46,50.7,77.46Z"/><polygon class="cls-5" points="49.26 72.12 49.37 72.13 49.27 72.08 49.26 72.12"/><g class="cls-6"><path class="cls-5" d="M60,33.63c0-.09-.1-.27-.12-.22l.1.32Z"/><path class="cls-5" d="M59.53,33.16a2,2,0,0,0,.23.71c-.08-.31,0-.19-.12-.56,0-.05.1.08.14.19,0-.08.08,0,0-.16s-.21-.2-.19,0A.84.84,0,0,1,59.53,33.16Z"/><path class="cls-5" d="M55.91,34.35l0,0A0,0,0,0,0,55.91,34.35Z"/><path class="cls-5" d="M53.79,35.41a.09.09,0,0,0,0-.07A.06.06,0,0,0,53.79,35.41Z"/><path class="cls-5" d="M53.25,35.33h0S53.24,35.3,53.25,35.33Z"/><path class="cls-5" d="M55.91,34.35l-.1-.06C55.85,34.38,55.87,34.34,55.91,34.35Z"/><path class="cls-5" d="M59.38,34.09a.34.34,0,0,0,0-.09s0,0,0,0Z"/><path class="cls-5" d="M56.7,33.61h0l0-.12Z"/><path class="cls-5" d="M57.4,33.21a2.92,2.92,0,0,0,.14.36.57.57,0,0,1,0-.19Z"/><path class="cls-5" d="M58.76,33.12v0Z"/><path class="cls-5" d="M56.17,33.83l-.06-.08Z"/><path class="cls-5" d="M43,50.9l0,0Z"/><polygon class="cls-5" points="41.38 51.17 41.37 51.15 41.23 51.09 41.38 51.17"/><path class="cls-5" d="M52.43,35.46h0S52.42,35.43,52.43,35.46Z"/><path class="cls-5" d="M47.32,40.12c.23.12.14.31.42.42C47.66,40.47,47.5,40.16,47.32,40.12Z"/><path class="cls-5" d="M59.34,34.07h0S59.34,34.08,59.34,34.07Z"/><path class="cls-5" d="M47.74,40.54h0Z"/><path class="cls-5" d="M51.13,36.62a.38.38,0,0,0,.09.09Z"/><path class="cls-5" d="M52.4,36.18l0,0A.06.06,0,0,0,52.4,36.18Z"/><path class="cls-5" d="M50.85,37.35s-.06,0-.05,0l0,0S50.81,37.33,50.85,37.35Z"/><path class="cls-5" d="M50.32,37.79l0,0v0Z"/><path class="cls-5" d="M43.76,49.07,43.52,49C43.7,49.06,43.72,49.18,43.76,49.07Z"/><path class="cls-5" d="M59.31,34c0,.07,0,.1,0,.12l0,0A.46.46,0,0,0,59.31,34Z"/><path class="cls-5" d="M52.22,39.09l-.1,0A.12.12,0,0,0,52.22,39.09Z"/><path class="cls-5" d="M46.18,45.08l0,0S46.21,45.1,46.18,45.08Z"/><path class="cls-5" d="M51.91,39.35a.45.45,0,0,0-.17-.11l0,.06Z"/><path class="cls-5" d="M43.52,49Z"/><path class="cls-5" d="M43.8,49.89c.05-.09-.3-.21-.48-.32s.27.07.45.12c-.05-.1-.33-.31-.29-.35a.31.31,0,0,1,.14.07c-.22-.21.1-.21-.19-.46l.09,0c-.17-.07-.34-.16-.46-.22s-.16-.19.06-.09c0,0,.06.07.12.12l-.07-.1c.33.13.08.12.31.24-.06-.14-.26-.37-.14-.38.3.15,0,.2.33.26l-.17,0c.52.18-.06,0,.48.24.15-.07-.08-.22.08-.29-.16-.12-.25-.13-.41-.25-.2-.34.83.28.5-.07-.18-.14-.54-.36-.29-.35l.31.22c.1-.1-.44-.34-.14-.34.12.1.06.16.11.17.3.06-.16-.17-.13-.23l.31.15c0-.15-.11-.41-.08-.58a.67.67,0,0,0,.27.16c0-.27.25-.36.53-.42L44.83,47s.13,0,.17.08-.16-.1-.24-.19.18,0,.24.11c-.14-.24-.25-.61.09-.56l.06.07c.15,0-.44-.43-.15-.37l0,0c.24-.13.16-.5.63-.4-.33-.27.29-.09-.18-.44.32,0,.38.15.65.1,0,0-.25-.27-.27-.36l.25.18L45.9,45l.33.17,0-.09A.43.43,0,0,1,46,45c-.06-.16.3-.06.43,0l-.08-.33a.56.56,0,0,1,.16.2c-.18-.28.27.18.1-.08a1.46,1.46,0,0,1-.19-.16c.19.07.26,0,.25-.14l.16.14c.14-.1.12-.34.24-.48-.12,0-.4-.25-.39-.31l.27.18c-.14-.15-.14,0-.28-.24.07,0,.32.2.37.29L47,44a1.54,1.54,0,0,1,.2.18c-.14-.15.35.09.1-.16l.08,0c.12-.14.08-.27.16-.4-.22-.18-.13-.18-.28-.36.14,0,.39,0,.46-.1s-.17-.17-.27-.31c.2.16.27,0,.37.21a.65.65,0,0,0,.06-.47.78.78,0,0,1-.2-.14s.14,0,.23.1v0c-.14-.43.91.11.63-.38v0l-.08-.33c.09,0,.11.17.27.23-.18-.44.26-.19.16-.51.64.43.28-.36.75-.14l-.13-.12c-.1-.16.11,0,.16,0s-.15-.08-.2-.17c.11-.43.74-.36,1.13-.51.13-.06-.57-.72-.15-.54l.18.28c-.06-.49.44-.38.43-.82,0,.07.1.15.08.17.2.14.17-.14,0-.29,0,0,.13.13.21.19s-.08-.33.09-.17,0,.07,0,.09.15-.09,0-.28c.16,0,.07-.22.24-.15-.16-.28.23,0,0-.35.28.35.37.16.29,0,.07.12.13.07.23.23.06,0,.06-.16-.1-.33.45.34-.05-.52.44,0a2.34,2.34,0,0,1,.2-.8c.26.37-.16.18.14.55,0-.27-.1-.64.11-.67s.1.17.13.24c0-.26.33-.18.32-.48a.17.17,0,0,1,0,.12s.11,0,0-.16v.07c-.22-.21-.25-.59-.34-.72.3.51.23,0,.58.68a.58.58,0,0,0-.12-.25c.05,0,.1.07.17.22,0-.16-.13-.31,0-.37a1.67,1.67,0,0,1,.11.23c-.06-.19-.12-.39,0-.37s.08.11.06.13-.06-.59.19-.53c.19.39.13.08.34.39l0-.14-.13-.14c.07,0,0-.3.11-.24l0,.16.09-.14-.15-.07c0-.21-.26-.39-.11-.37s.07,0,.23.12h0c0-.12-.06-.25,0-.2s.21.35.26.41c-.13-.28.12-.17,0-.48a1.63,1.63,0,0,0,.15.27l-.1-.23a.56.56,0,0,1,.18.21c.12,0-.29-.38-.06-.28,0,0,0,0,0,.1.17,0,.14-.28.32-.24.22.3,0,.14.15.38.12-.15.09-.58.29-.59l0,0c-.24-.47.25.16.2-.1,0,0,.12.27.1.21.15,0,.15-.23.23-.47l0,.13c.12.07.2,0,.29,0,0-.13,0-.13-.11-.3.58.57.21-.58.7-.11,0,0,0,.14,0,.13l.1-.2c-.12-.2-.09-.11-.2-.25s-.05-.26,0-.28c0,.18.17.33.26.43l-.09-.2c.27.33-.2-.42,0-.23l.05.11c0-.07,0-.24,0-.23.14.23,0,.13.1.33.06,0-.1-.52.08-.31,0,.08,0,.1,0,.18.21.25.18.18.25.2h0l.18.08-.07-.07c-.22-.66.11-.19,0-.66.07.45.09.24.21.51.06.07.15.13.17.21-.05-.24.17.14.09-.22,0,.08.06,0,.15.21,0-.11-.08-.15-.13-.26,0-.35.42.25.38-.24.05-.23-.06-.54,0-.74a.68.68,0,0,1,.11.34c.13.1.16,0,.18-.08a.71.71,0,0,0,.13.24s-.11-.34,0-.24.08.27.1.38c0-.11,0-.3,0-.41a1.17,1.17,0,0,1,.09.37.59.59,0,0,0,0-.48l-.08-.07s.1.21.1.26c0,.22-.12-.05-.16-.14l0-.07c-.27-.51-.14.16-.25.17l-.13-.4,0,.36a.8.8,0,0,1-.15-.38c-.15-.16,0,.16-.15,0a.11.11,0,0,1,0-.07l0,.14c0-.08-.13-.26-.06-.22-.22-.17-.06.36-.23.1v0c-.1.2.11.28.14.66l-.39-.64.11.28s-.06,0-.11-.12c0,.21.07.11.12.31-.2-.22-.16.21-.39-.22.07.23.15.13.14.32-.25-.47-.06.12-.23-.06s0-.16-.14-.34c.15.43-.18,0-.21.08.16.33-.06.2-.11.36,0-.11-.27-.08-.42-.15l0-.06c.15.34,0,.32,0,.43a.82.82,0,0,1-.13-.39l-.07,0c0,.12.05.18,0,.24l-.11-.25c-.08.06,0,.38-.22.28.12.23.42.58.39.79a1.18,1.18,0,0,1-.18-.39s0,.12,0,.08l-.07-.23c-.09-.07.07.18,0,.19-.09-.18-.1-.11-.16-.25s.07,0,0,0a.43.43,0,0,1-.26-.2c0,.1.12.23.1.27s-.14-.19-.24-.25c0,.13-.08,0,.06.3,0,0-.1-.11-.14-.17,0,.14-.19.15,0,.39h0v0h0c0,.34-.38,0-.46.21l-.05-.08c0,.14-.16.16-.11.38,0,0-.15-.12-.2-.23,0,.11,0,.21-.15.12s-.11-.12,0-.15c-.13,0-.23-.15-.18.14-.1-.24-.23-.23-.23-.14l.15.11c0,.06-.07.07-.13.07l-.15-.29c-.38-.24.06.77-.43.28.07.22.18.08.28.34-.1,0-.44-.35-.46-.33-.21-.09.16.47,0,.44.08.09.26.35.24.49s-.37-.35-.37-.46,0,0,.07,0a.24.24,0,0,0-.1-.21l.06.11c-.11-.08-.21,0-.29-.18a.2.2,0,0,0,.16.21c-.2-.08-.16.09-.33.06.06.05.15.15.13.16-.23,0,.06.23,0,.35-.16-.12-.22-.38-.24-.18-.13-.06-.19-.25-.22-.35,0,.25-.26,0-.33,0v-.12c0,.07,0,.09-.05.1l.17.18c-.06,0-.08,0-.14-.08.06.15.25.31.31.52-.1-.07,0,.19-.23-.06.18,0-.2-.25-.12-.36s0,.06-.08,0a.11.11,0,0,1,0-.07c-.28-.15.15.32,0,.4-.09-.15-.23-.25-.22-.21s.19.23.23.37c-.16-.06,0,.14-.07.16l.08,0c.09.15,0,.16,0,.24-.09-.11,0-.11-.07-.14.13.29-.32-.17-.27.06-.11-.07-.2-.27-.28-.31,0,.25-.25-.13-.23.1.17.17.14.12.21.36l.06-.26.11.36s0-.2.06-.19c.06.2,0,.15.17.29-.27-.24,0,.26-.21.12l-.36-.47c-.26-.13,0,.39-.24.38l.11,0c.12.2-.07.1-.06.21a1.45,1.45,0,0,0-.28-.28c.09.11-.12.07.11.39L51.11,37c-.18,0,.22.54.07.57-.1-.19-.24-.26-.26-.44,0,0-.09,0,0,.14-.1-.08.07.28-.08.16,0,.08.16.25.11.27a.5.5,0,0,1-.06-.08c.06.08,0,.15.19.3-.5-.39-.27.28-.71,0a.89.89,0,0,1-.14.31s-.07-.08,0-.07c-.22-.06.31.48.07.41s-.06-.18-.17-.24c-.44-.48-.07.18-.39,0v0c-.2-.12,0,.3-.1.35a.27.27,0,0,0-.06-.07.81.81,0,0,1,.09.63c-.14-.21,0-.14-.24-.31,0,.06.29.29.26.42a1.92,1.92,0,0,1-.45-.32l.06-.08c-.27-.22-.08.1-.16.09l-.1-.12c-.08.14.19.43.06.52l.09.08c.2.34-.21-.11-.07.16l-.29-.27a2.44,2.44,0,0,1,.09.54,2.15,2.15,0,0,1-.24-.62.24.24,0,0,0,0,.32s-.06-.13,0-.11c.17.28.21.45.12.52-.52-.56-.35.08-.82-.28.05.34-.38.2-.51.41.48.35,0,.06.41.47,0,.07,0,.08-.06,0l-.38-.13c-.16-.09-.07-.13-.17-.22-.12.06-.22-.14-.4-.19.17.14.2.25.09.24l.28.12c.12.35-.48-.24-.36.11l-.1-.17c0,.14-.23.24.07.63-.06,0-.2-.13-.2-.19-.21.11.07.7-.26.62l-.1-.11c0,.06.16.24,0,.18s-.1-.11-.12-.1.13.25,0,.23l-.1-.14c-.29,0,.1.5.07.7a.74.74,0,0,0-.66-.23l0,0c-.2.15,0,.55,0,.83-.46-.19-.45.24-.79.26a.67.67,0,0,1,.28.27c-.1,0,.16.3-.16,0h0c-.34-.21-.32-.06-.38,0l.42.33c-.75-.29-.11.62-.73.32.07.12,0,.17.11.29L44,44a.42.42,0,0,0-.26.31l-.15-.15c-.07.08.6.57.56.66l-.36-.22c-.09.16-.5.1-.28.46,0,0-.15-.11-.15-.14s-.42.11.08.4c-.31-.2-.12.14,0,.31l-.23-.16c.26.26.34.31.36.46,0,0-.2-.1-.12-.09-.17,0,.19.19,0,.21l-.13-.13c-.06.06,0,.11.17.26s-.15.11-.37,0c.12.09.27.24.18.25a.45.45,0,0,1-.14-.12c-.24,0,.16.36-.13.31l-.15-.07c.07-.1.13-.17.14-.15-.22-.14-.31-.07-.57-.32.12.16.42.5.27.52l-.09,0,0,0s0,0,0,.07-.09,0-.11,0c-.19-.1-.16,0-.19.08.24.14.17.17.4.23,0,0,0,0,0-.06l0,0,0,0,.05-.12c.1.11.18.2,0,.17l.36.29c-.37-.14-.62-.13-.84-.24.07.21-.08.36.34.7,0,.07-.16,0-.24-.06s0-.07-.07-.11c.07.13-.08.24.24.43-.2,0-.27-.21-.29-.05l-.09-.07c-.66,0,.61.85-.2.78a.22.22,0,0,1,.13,0c-.46.17-.05.8-.68.89-.14,0,.07.16.2.29l-.28-.1.27.24c.17.24-.78-.07-.42.3l.2.06c-.07,0,0,.25-.19.14,0,0,.19.11.08.09l-.15-.06.18.26c-.15.08-.56-.27-.67-.1a1.19,1.19,0,0,0,.45.38s.12,0,.27,0l0,.09a3.27,3.27,0,0,0,1.21.41l-.22-.21.22.06,0,.08c.22,0,.06-.06,0-.15a.81.81,0,0,0,.24.06l-.37-.27c.18.06.32.19.44.16-.17-.12-.4-.12-.49-.24.21,0,.37.12.22,0a.53.53,0,0,1,.22.12c-.11-.1,0-.15-.21-.27.26.06,0-.19.41,0-.09-.06-.28-.22-.27-.28.44.3.1-.15.6.11-.4-.26-.09-.3-.28-.52,0,0,.1.07.07.07s.2,0,.3,0a2.15,2.15,0,0,1-.58-.46c.37.09.39.24.73.38-.29-.14-.23-.26-.47-.36a1.79,1.79,0,0,1,.43.12c-.44-.22,0-.09-.3-.26.26,0,.42.18.33,0A.45.45,0,0,1,43.8,49.89Zm.36-2.43h0v0Zm.09-.17s0,0,0,.07-.17-.1-.15-.12S44.17,47.27,44.25,47.29Zm-1.89-.62c0-.05,0,0,.08,0v.07l0,0Z"/><path class="cls-5" d="M42.65,46.9v0h.06l-.07,0Z"/><path class="cls-5" d="M56,34.37h0l0,0Z"/><polygon class="cls-5" points="46.17 45.34 46.11 45.3 46.16 45.35 46.17 45.34"/><path class="cls-5" d="M57.38,34.7l0,.06Z"/><path class="cls-5" d="M57.83,34.55l.1.06S57.85,34.55,57.83,34.55Z"/><path class="cls-5" d="M58.21,34.52l0-.12h0Z"/><path class="cls-5" d="M53.51,37.69v0C53.52,37.77,53.52,37.74,53.51,37.69Z"/><path class="cls-5" d="M54.55,36.19a1,1,0,0,1,0,.15S54.63,36.33,54.55,36.19Z"/><polygon class="cls-5" points="52.23 39.09 52.23 39.08 52.22 39.09 52.23 39.09"/><path class="cls-5" d="M54.5,36.37c.06,0,.07,0,.07,0S54.5,36.33,54.5,36.37Z"/><path class="cls-5" d="M59.68,34h0l0,0Z"/><path class="cls-5" d="M59.68,34v0S59.67,33.92,59.68,34Z"/><path class="cls-5" d="M59.7,33.83v.08S59.72,33.91,59.7,33.83Z"/><path class="cls-5" d="M59.19,34.06l0,.1Z"/><path class="cls-5" d="M59.07,34.15s.17.16.19.08l0-.07C59.27,34.3,59,34,59.07,34.15Z"/><path class="cls-5" d="M58,33.26l.15,0c-.07-.09-.15-.21-.11-.26C57.74,32.79,58.16,33.23,58,33.26Z"/><path class="cls-5" d="M57.57,33.28c0-.07-.07-.14-.09-.2C57.48,33.19,57.48,33.22,57.57,33.28Z"/><path class="cls-5" d="M55.08,34.61,55,34.39C54.93,34.45,55,34.47,55.08,34.61Z"/><polygon class="cls-5" points="55.31 36.02 55.44 36.13 55.33 35.92 55.31 36.02"/><polygon class="cls-5" points="54.09 34.63 54.09 34.59 54.06 34.72 54.09 34.63"/><path class="cls-5" d="M50.25,37.52l.22.23C50.46,37.69,50.24,37.41,50.25,37.52Z"/><path class="cls-5" d="M48.93,39.13c-.13-.1-.24-.13-.16,0S48.94,39.18,48.93,39.13Z"/><polygon class="cls-5" points="44.44 43.42 44.38 43.33 44.4 43.44 44.44 43.42"/></g></g></g></svg>