<svg xmlns="http://www.w3.org/2000/svg" viewBox="0 0 100 100"><defs><style>.cls-1{isolation:isolate;}.cls-2{fill:#123034;}.cls-3{fill:#f6f7f4;}.cls-4{fill:#5c9ea8;}.cls-5{fill:#bdbdbd;}.cls-6{mix-blend-mode:exclusion;}</style></defs><title>Artboard 3</title><g class="cls-1"><g id="Layer_1" data-name="Layer 1"><path class="cls-2" d="M21.69,39.61,25.52,39a14.13,14.13,0,0,0,1.35,2l-2,3.32A2,2,0,0,0,25.36,47l1.33,1a2,2,0,0,0,2.61-.18l2.77-2.71a14.12,14.12,0,0,0,2.28.83l.37,3.86a2,2,0,0,0,1.88,1.82l1.69.06a2,2,0,0,0,2-1.67l.64-3.82c.4-.08.79-.17,1.19-.28s.78-.25,1.16-.39l2.56,2.91a2,2,0,0,0,2.59.36l1.39-.94a2,2,0,0,0,.65-2.54l-1.73-3.47a14.66,14.66,0,0,0,1.51-1.92l3.78.85a2,2,0,0,0,2.31-1.23L56.92,38a2,2,0,0,0-1-2.44l-3.42-1.78a14.16,14.16,0,0,0,.08-2.44l3.55-1.54a2,2,0,0,0,1.15-2.36l-.46-1.61a2,2,0,0,0-2.22-1.4L50.8,25a15,15,0,0,0-1.35-2l2-3.32A2,2,0,0,0,51,17l-1.32-1a2,2,0,0,0-2.61.17l-2.77,2.71A13.89,13.89,0,0,0,42,18.06L41.6,14.2a2,2,0,0,0-1.89-1.82L38,12.32A2,2,0,0,0,36,14l-.64,3.82c-.4.08-.8.17-1.19.28s-.78.25-1.16.39l-2.56-2.9a2,2,0,0,0-2.59-.36l-1.4.94a1.94,1.94,0,0,0-.64,2.53l1.73,3.47a14.66,14.66,0,0,0-1.51,1.92l-3.78-.85A2,2,0,0,0,20,24.47l-.58,1.58a2,2,0,0,0,1,2.43l3.43,1.78a14.24,14.24,0,0,0-.08,2.45l-3.56,1.53A2,2,0,0,0,19,36.6l.46,1.62A2,2,0,0,0,21.69,39.61Z"/><circle class="cls-3" cx="38.16" cy="32.01" r="10.02"/><circle class="cls-4" cx="38.16" cy="32.01" r="2.97"/><path class="cls-5" d="M45.13,53.86c.09,0,.28,0,.25-.09l-.33-.08Z"/><path class="cls-5" d="M45.79,53.16a.9.9,0,0,0-.74-.25c.31.15.18.18.55.33,0,.11-.12.19-.24.16.08.05-.08.17.12.24.27-.13.29-.31.09-.51A.33.33,0,0,1,45.79,53.16Z"/><path class="cls-5" d="M49.8,43.84l-.07,0A.09.09,0,0,0,49.8,43.84Z"/><path class="cls-5" d="M55,41.12s-.06,0-.05.07S55.05,41.15,55,41.12Z"/><path class="cls-5" d="M56,41.48l-.06,0S56,41.5,56,41.48Z"/><path class="cls-5" d="M49.8,43.84l.18-.06C49.91,43.7,49.87,43.8,49.8,43.84Z"/><path class="cls-5" d="M45.14,51.61a.23.23,0,0,0,.07.11.44.44,0,0,1,0-.1Z"/><path class="cls-5" d="M48.48,46.24l0,0,.1.1Z"/><path class="cls-5" d="M47.67,48.16s-.23-.16-.34-.22c.1.07.14.12.15.17Z"/><path class="cls-5" d="M46.33,51.28l0,.07Z"/><path class="cls-5" d="M49.31,45a.26.26,0,0,0,.1,0Z"/><path class="cls-5" d="M44.59,56.55h0Z"/><polygon class="cls-5" points="45.87 53.88 45.88 53.91 46.04 53.92 45.87 53.88"/><path class="cls-5" d="M57.57,42.19h0C57.51,42.19,57.53,42.2,57.57,42.19Z"/><path class="cls-5" d="M63.66,56.66c.28-.16.28.38.6.12C64.14,56.79,63.86,56.44,63.66,56.66Z"/><path class="cls-5" d="M45.18,51.55a.28.28,0,0,1,0-.09S45.17,51.53,45.18,51.55Z"/><path class="cls-5" d="M64.26,56.78h0l0,0Z"/><path class="cls-5" d="M60.82,44.42l.07-.11A.42.42,0,0,0,60.82,44.42Z"/><path class="cls-5" d="M58.73,42.11l.05.07S58.75,42.12,58.73,42.11Z"/><path class="cls-5" d="M62.09,45.55c0,.05,0,.08,0,.11l0,0S62.08,45.62,62.09,45.55Z"/><polygon class="cls-5" points="62.91 47.12 62.94 47.07 62.91 47.02 62.91 47.12"/><path class="cls-5" d="M46.34,62.4a.85.85,0,0,1,.19-.19C46.36,62.32,46.17,62.08,46.34,62.4Z"/><path class="cls-5" d="M45.29,51.63c-.06,0-.1,0-.11-.08v.07A.19.19,0,0,0,45.29,51.63Z"/><path class="cls-5" d="M64,44.48l.14.3A1.59,1.59,0,0,0,64,44.48Z"/><path class="cls-5" d="M58.75,68.13l-.06.07A.09.09,0,0,0,58.75,68.13Z"/><path class="cls-5" d="M64.65,45.63a.59.59,0,0,0-.1.24h.09Z"/><path class="cls-5" d="M46.53,62.21Z"/><path class="cls-5" d="M45.14,60.47c.09.3.39,0,.61,0,.21.31-.21.25-.35.43.18.19.56.23.61.39s-.06.07-.15.07c.37.11.27.66.74.75a.19.19,0,0,1-.07.08A1.93,1.93,0,0,1,47,62c.07.12.32.12.13.27,0-.08-.12,0-.21,0l.16.08c-.26.26-.19-.12-.43,0,.23.2.62.35.63.58-.28.2-.32-.38-.46,0l0-.35c-.37.46-.06-.2-.47.26.12.45.36.37.51.8.22,0,.23-.17.44-.18.61.34-.48.87.16,1,.26,0,.63-.24.64.15l-.38.14c.23.37.59-.14.65.37-.17,0-.3-.19-.3-.11-.06.42.29,0,.43.2l-.23.26a12.23,12.23,0,0,0,1.28.82c-.09,0-.23.07-.21.23a6.38,6.38,0,0,1,1.5,1.44l.37-.13a.13.13,0,0,1-.06.19c.17.22.1-.16.26-.2s.09.24,0,.27c.51,0,1.35,0,1.69.46l-.11.07c.33.2.55-.49.8-.15l-.07,0c.75.3,1.6.06,2.23.45.07-.4.81.1.76-.5.49.18.4.37,1.08.35.17,0,.13-.43.3-.56l.11.29.15-.39.28.28.15-.16a.24.24,0,0,1-.23-.14.67.67,0,0,1,.84,0,4.59,4.59,0,0,0,.49-.6c.06.12,0,.22-.06.34.16-.48.23.23.38-.2-.08,0-.08-.17-.11-.23.25.07.59-.16.76-.42l.09.2a4.08,4.08,0,0,0,.63-.56c.18-.23.36-.46.57-.68-.22.09-.45-.2-.36-.35l.29.18c-.07-.22-.21,0-.24-.29.18-.12.38.15.37.31,0-.09.07-.18.09-.27s.08.13.17.23c-.09-.22.54-.15.37-.5l.09,0a6.6,6.6,0,0,0,.68-1.15c-.23-.16-.07-.28-.19-.52a2.92,2.92,0,0,0,.81-.83c0-.32-.17-.19-.25-.38.24.11.39-.28.46,0a3.49,3.49,0,0,0,.28-1.24c-.12,0-.19.07-.26,0s.19-.19.3-.13l0,0c-.06-.39.24-.69.54-1s.51-.63.33-1v0c0-.21-.06-.41-.12-.62.1-.24.16.2.35,0-.3-.7.27-.95.06-1.5.8-.29.15-1.38.63-1.87l-.18,0c-.16-.15.12-.16.16-.26-.14,0-.17.14-.26.05a27.29,27.29,0,0,1,.32-3.63c0-.45-1-.12-.62-.72l.35.1a3.85,3.85,0,0,1-.43-1.29,2.69,2.69,0,0,0-.47-1.25c.09,0,.18,0,.21.08.17-.24-.2-.65-.38-.59,0-.14.16-.09.23-.2s-.46-.33-.27-.51c0,0,.1,0,.13.05-.16-.07-.19-.54-.4-.33,0-.35-.34-.53-.32-.83-.35,0-.11-.57-.53-.42.43-.19.06-.69-.24-.75.15,0,0-.23.23-.25-.13-.21-.31-.35-.49-.19.23-.69-.86-.47-.44-1.08-.3-.23-.62-.41-.9-.61s-.55-.38-.83-.55c.33-.32.54.45.85.11-.57-.32-1.09-.26-1.48-.72-.09-.14.19-.1.29-.13-.62-.22-1-.76-1.59-.8,0,0,.1,0,.16,0-.1,0-.19-.18-.27,0h.12c0,.34-.66.35-.74.49.42-.47-.42-.33.14-.9a.27.27,0,0,0-.24.19c-.08-.07-.09-.16.08-.26-.42-.05-.36.21-.68.08,0-.1.11-.11.18-.2-.23.1-.46.26-.72.11,0-.06,0-.14.1-.12a1.93,1.93,0,0,0-.72.08.94.94,0,0,1-.72,0c.19-.42-.18-.16-.19-.54a1.35,1.35,0,0,0-.32.11l.12.17c-.26,0-.48.29-.71.18l.19-.16-.49.09.29.13c-.24.2.07.47-.27.38.06,0-.23,0-.4-.15h0c-.1.14-.2.28-.39.23s-.06-.41-.11-.48c0,.31-.56.25-.61.61a.49.49,0,0,0-.06-.31l0,.28c-.13,0-.16-.07-.2-.23-.35.07.27.41-.19.35,0,0,0-.06,0-.11-.43.06-.66.48-1.06.54-.29-.27.26-.23,0-.45a3,3,0,0,0-.62.66,3,3,0,0,1-.6.59l.11,0c.27.46-.47,0-.52.41,0-.07-.13-.28-.11-.22-.34.17-.45.62-.71,1.11L49.21,43c-.24.07-.41.39-.61.53.07.14,0,.22.17.28-.54,0-.64.39-.72.73s-.14.66-.56.77c0-.06,0-.21-.05-.16l-.15.53c.22.07.15,0,.37,0a.41.41,0,0,1,0,.41c0-.28-.32-.18-.49-.14.07,0,.12.08.19.11-.5.05.39.25,0,.45l-.1-.07c0,.16.09.34,0,.46-.26-.05-.05-.18-.24-.29-.08.21.29.59,0,.65,0-.11,0-.22,0-.34-.37.07-.31.12-.42.25h0l-.26.28.11,0c.56.5-.07.56.24,1-.29-.46-.21-.13-.49-.26-.11.06-.25.17-.32.1.18.24-.27.22,0,.56-.1,0-.06.18-.29.07,0,.24.18,0,.29,0,.23.41-.62.68-.26,1.27.1.46.4.59.49,1-.17.1-.33-.16-.33-.16a.46.46,0,0,0-.09.56c-.08-.05-.15,0-.27,0s.34.16.17.35a1.53,1.53,0,0,1-.37-.21c.06.2.22.41.28.61-.17,0-.24-.14-.34-.23,0,.23.1.59.36.68l.11-.13c0,.08-.24,0-.28,0-.2-.21.11-.27.21-.27s0,.1.05.15c.58-.08,0-.56,0-.84l.39.17-.3-.32c.12,0,.35,0,.39.09.23-.16-.12-.2.13-.33,0,0,.06,0,.07,0s-.07-.14-.09-.2.29,0,.21.12c.3-.29-.2-.59.14-.66l0,0c0-.48-.29-.1-.57-.53l.78-.06-.28-.12a.13.13,0,0,1,.18-.08c-.15-.23-.13,0-.3-.16.34-.15.06-.66.54-.57-.2-.15-.24.16-.32-.13.52.09,0-.31.29-.43.23.14,0,.28.33.16-.39-.26.24-.35.22-.54-.34-.13,0-.42,0-.74.1.06.42-.44.65-.63l.05,0c-.31-.21-.12-.44-.08-.66a.51.51,0,0,1,.28.33l.09-.17a.3.3,0,0,1-.08-.3l.21.17c.12-.22,0-.62.31-.79-.2-.16-.75-.16-.69-.56.12.07.33.19.32.29s0-.15,0-.17l.12.25c.17-.07-.12-.18,0-.27.16.12.16,0,.28.11s-.12,0-.08.12a.53.53,0,0,1,.44-.12c-.1,0-.22-.15-.18-.25s.24.07.41,0c-.07-.13.14-.17-.09-.36,0,0,.16,0,.24.05,0-.18.36-.5,0-.59l0,0v0h0c.06-.54.75-.55,1-.94l.06.07c.13-.24.4-.41.41-.69.06,0,.25,0,.3.14.11-.17.07-.27.4-.29-.07.25.14.09-.1.21.26-.06.38,0,.47-.33.05.26.31.17.38.07L52.33,42a.72.72,0,0,1,.32-.15l.1.32c.31.09.41-.18.55-.38s.3-.35.57-.09c.06-.26-.29-.07-.27-.36.24,0,.58.35.64.35.32.13.18-.52.52-.46,0-.11-.15-.43.1-.57.26,0,.33.48.2.59a.07.07,0,0,1-.08-.07c-.07.05-.16.1-.06.23l0-.12c.12.11.42.09.36.28.15-.12.06-.19-.07-.25.29.17.44,0,.72.12,0-.07-.07-.21,0-.21.42.19.21-.2.52-.23.15.2-.12.42.2.31.15.16,0,.32-.1.4.29-.17.42.26.54.33l-.15.06a.31.31,0,0,1,.21,0v-.24c.06.06.12.07.09.17.13-.13.06-.4.28-.55.07.15.37,0,.29.31-.28-.23-.08.31-.36.25a.17.17,0,0,1,.18.08.08.08,0,0,1,0,.07c.17.37.26-.28.57-.15-.11.14-.07.33,0,.33-.11-.07.07-.3.24-.36.13.23.26,0,.36.1L58.64,42c.13-.14.22-.06.39,0-.06.12-.18,0-.16.09.33-.19.17.47.48.45,0,.16-.18.27-.15.4.35,0,.09.34.41.38.09-.24,0-.21.34-.25a2.64,2.64,0,0,0-.47-.17,3.69,3.69,0,0,1,.46-.08c-.11-.11-.34-.07-.38-.15.23-.07.19,0,.25-.23-.05.39.45.09.47.43l-.39.44c.06.42.66.17.84.63l0-.18c.22-.11.21.19.38.23-.15.12-.15.24-.2.36.11-.11.19.26.52,0l-.08.32c.11.36.72,0,.85.36-.24,0-.27.24-.52.12.06.1.08.21.2.14-.07.12.39.14.29.33.1,0,.29-.09.35,0a.16.16,0,0,1-.09.05c.09-.05.23.12.36-.09-.37.62.52.93.17,1.45a4.14,4.14,0,0,1,.44.71c-.06,0-.09,0-.09,0,0,.37.62,0,.54.43-.25.29-.23-.14-.3,0-.6.25.22.41-.07.76l-.06,0c-.15.24.38.38.4.71a.15.15,0,0,0-.1,0,1.5,1.5,0,0,1,.73.8c-.27-.05-.16-.11-.4,0,.06.13.4-.11.51.15-.12.11-.21.33-.48.4l0-.25c-.33.19.06.32,0,.47h-.15c.1.38.51.34.51.77l.12-.06c.4.2-.21.22.1.43l-.39.1a2.7,2.7,0,0,1,.51.79c-.29-.15-.46-.46-.66-.64,0,.15.08.5.26.58,0-.07-.13-.14-.07-.2a.8.8,0,0,1,.46.73c-.77-.05-.18.8-.8,1,.25.55-.18,1-.23,1.64.62-.14,0,.18.61.23,0,.15,0,.2,0,.21a5.37,5.37,0,0,1-.44.37c-.19.07-.1-.16-.24-.17-.11.3-.28.08-.48.25.22,0,.29.16.17.32l.33-.19c.22.5-.58.26-.36.75l-.15-.17c.06.24-.22.77.19,1.12-.08,0-.25,0-.27-.09-.21.48.11,1.3-.33,1.58l-.12-.1c0,.11.19.27,0,.32s-.12-.09-.15-.05.13.34,0,.43L62.3,61c-.37.39,0,.89-.11,1.34-.38-.22-.69.06-.87.17l0,0a1.43,1.43,0,0,0-.29.75,4.16,4.16,0,0,1-.2.81,1.19,1.19,0,0,0-.75.35,1.61,1.61,0,0,1-.76.49c.11,0,.21.27.16.37s-.08.46-.31.13l0,0c-.3-.25-.45,0-.62.05l.26.46c-.42-.17-.66,0-.91.24s-.47.41-.71.12c-.07.16-.21.21-.29.37l-.07-.27a2.11,2.11,0,0,0-.87.14l0-.22c-.21,0-.19.84-.43.87l-.08-.42c-.42.06-.76-.4-1.21,0,0-.06,0-.18.11-.19-.18,0-.61-.44-.7.14,0-.18,0-.21-.2-.19a3.94,3.94,0,0,0-.47.1l.14-.24c-.31.26-.35.35-.66.34,0-.07,0-.23.1-.13-.13-.23-.27.15-.44-.11l.17-.11c-.19-.12-.22,0-.43.09s-.35-.28-.23-.52c-.1.11-.32.21-.39.07a.2.2,0,0,1,.15-.12c-.19-.37-.67-.07-.69-.47.06-.08.08-.12.08-.16a5.05,5.05,0,0,1,.37.37c.15-.2,0-.37.37-.54-.27,0-.78.13-.88-.11l0-.09h0c0-.06-.07-.07-.14-.07a.54.54,0,0,0-.08-.19c.13-.17-.1-.28-.17-.37-.2.19-.27,0-.35.31,0,0,0,0,.11,0l0,0h0l.22.21c-.17,0-.33,0-.31-.17l-.45.17c.18-.4.12-.76.29-.95-.34-.21-.61-.63-1.17-.55-.12,0,.06-.19.11-.27s.11.1.19.08c-.23-.11-.38-.51-.73-.38,0-.32.38,0,.13-.33h.13c.19-.9-1.42-.67-1-1.77,0,.07,0,.11-.09.14,0-1-.92-1.81-.6-2.85.06-.29-.18-.27-.38-.41l.29-.1-.39-.23c-.32-.37.64-.77.12-1.22l-.19.08c0-.18-.17-.57.07-.55,0,0-.22,0-.12-.13h.16l-.28-.44c.11-.35.63,0,.65-.46-.06-.18-.46-.53-.57-.47a.24.24,0,0,1-.25.2l-.09-.18c-.46,0-.94-.2-1.26.26l.29.32-.23.1v-.27c-.22.15,0,.25.1.36a.35.35,0,0,0-.24.14l.44.3c-.18,0-.36-.13-.46.09.21.13.41-.16.55.07-.2.16-.38.13-.18.3a.24.24,0,0,1-.26-.07c.16.15.1.42.35.48-.25.18.11.53-.33.56a.88.88,0,0,1,.41.38c-.56-.2.06.55-.51.56.5.13.3.69.65,1,0,0-.12,0-.1-.07,0,.21-.12.29-.18.44.39-.06.54.22.81.32-.31.33-.48,0-.81.13.31-.09.4.34.64.19-.17.24-.06.18-.34.36.48-.1.13.15.46.21-.15.33-.42.2-.18.44C45.39,60.68,45.14,60.47,45.14,60.47Zm4.42,5.68h0l-.12-.09Zm.44.4a1.53,1.53,0,0,0-.18-.19c0-.08.13-.14.17-.1S50,66.42,50,66.55Zm.49-2.22c.08,0,.06.09,0,.14l-.12-.08,0,0Z"/><path class="cls-5" d="M50.13,64.48h0s0,0,0,.08l.09,0Z"/><path class="cls-5" d="M49.72,43.87h0Z"/><polygon class="cls-5" points="58.14 68.54 58.11 68.47 58.08 68.55 58.14 68.54"/><path class="cls-5" d="M47.21,45.9h0Z"/><path class="cls-5" d="M46.57,47.12a1.07,1.07,0,0,0-.16.14A1.31,1.31,0,0,0,46.57,47.12Z"/><path class="cls-5" d="M46.07,48.07l.11,0h0Z"/><path class="cls-5" d="M59.58,40.43h.05C59.75,40.45,59.68,40.43,59.58,40.43Z"/><path class="cls-5" d="M54.33,40.14a1.14,1.14,0,0,1,.14-.16C54.38,40,54.31,40,54.33,40.14Z"/><polygon class="cls-5" points="64.02 44.44 64.01 44.45 64.03 44.48 64.02 44.44"/><path class="cls-5" d="M54.71,39.94a.21.21,0,0,0-.24,0A.4.4,0,0,0,54.71,39.94Z"/><path class="cls-5" d="M45,52.55l0,.05H45Z"/><path class="cls-5" d="M45,52.61l0,.06S45.06,52.62,45,52.61Z"/><path class="cls-5" d="M45.12,52.79l-.06-.12A.09.09,0,0,0,45.12,52.79Z"/><path class="cls-5" d="M45.3,51.17l-.1,0Z"/><path class="cls-5" d="M45.35,50.74c-.05.1-.27.22-.23.37l.08,0C45.06,51,45.49,50.87,45.35,50.74Z"/><path class="cls-5" d="M47,49.35l-.17.3c.12,0,.28-.07.26.08C47.49,49.42,46.8,49.76,47,49.35Z"/><path class="cls-5" d="M47.43,48.41c0,.18.15.05.2.08C47.57,48.35,47.56,48.32,47.43,48.41Z"/><path class="cls-5" d="M51.53,42.48l.14.21C51.76,42.59,51.61,42.61,51.53,42.48Z"/><polygon class="cls-5" points="52.12 40.6 51.91 40.52 51.96 40.76 52.12 40.6"/><polygon class="cls-5" points="53.6 41.94 53.57 41.99 53.73 41.84 53.6 41.94"/><path class="cls-5" d="M62.55,46.94l.27-.17C62.72,46.71,62.4,46.85,62.55,46.94Z"/><path class="cls-5" d="M64.21,52c-.15.07-.24.23-.08.31C64.14,52.14,64.26,52,64.21,52Z"/><polygon class="cls-5" points="58.39 65.63 58.41 65.48 58.31 65.66 58.39 65.63"/><path class="cls-5" d="M54.65,37.62c.09,0,.28,0,.25-.06l-.33-.07Z"/><path class="cls-5" d="M55.3,37.13a1.1,1.1,0,0,0-.73-.22,4.72,4.72,0,0,0,.55.27c0,.08-.12.13-.24.11.08,0-.08.12.12.17s.28-.21.08-.36A.4.4,0,0,1,55.3,37.13Z"/><path class="cls-5" d="M59.26,31.31h0Z"/><path class="cls-5" d="M63.35,30.15a.07.07,0,0,0,0,.07S63.36,30.18,63.35,30.15Z"/><path class="cls-5" d="M64.06,30.52l0,0S64.05,30.54,64.06,30.52Z"/><path class="cls-5" d="M59.26,31.31l.15,0C59.36,31.23,59.32,31.29,59.26,31.31Z"/><path class="cls-5" d="M54.67,35.94a.28.28,0,0,0,.07.09.24.24,0,0,1,0-.08Z"/><path class="cls-5" d="M58,32.74l0,0,.08.11Z"/><path class="cls-5" d="M57.21,33.91s-.21-.18-.31-.25c.09.07.13.12.13.16A.74.74,0,0,0,57.21,33.91Z"/><path class="cls-5" d="M55.86,35.85l0,0Z"/><path class="cls-5" d="M58.78,32.08l.08.07A.27.27,0,0,0,58.78,32.08Z"/><path class="cls-5" d="M54.18,39.69h0S54.17,39.68,54.18,39.69Z"/><polygon class="cls-5" points="55.39 37.64 55.41 37.67 55.56 37.68 55.39 37.64"/><path class="cls-5" d="M65.23,31h0S65.21,31.05,65.23,31Z"/><path class="cls-5" d="M70.67,39.54c.28-.07.25.29.58.16C71.13,39.69,70.87,39.42,70.67,39.54Z"/><path class="cls-5" d="M54.71,35.9s0,0,0-.07S54.7,35.88,54.71,35.9Z"/><path class="cls-5" d="M71.25,39.7h0l0,0Z"/><path class="cls-5" d="M67.85,32a.56.56,0,0,0,0-.12A.55.55,0,0,0,67.85,32Z"/><path class="cls-5" d="M66.1,30.68l0,.06Z"/><path class="cls-5" d="M69,32.46s0,.07,0,.07l0,0S69,32.52,69,32.46Z"/><path class="cls-5" d="M69.75,33.37l0,0,0,0Z"/><path class="cls-5" d="M56.25,43.83a1.37,1.37,0,0,1,.15-.21C56.26,43.76,56.06,43.64,56.25,43.83Z"/><path class="cls-5" d="M54.82,36c-.06,0-.1,0-.11-.07a.43.43,0,0,0,0,.05A.14.14,0,0,0,54.82,36Z"/><path class="cls-5" d="M70.56,30.92l.15.2A.87.87,0,0,0,70.56,30.92Z"/><path class="cls-5" d="M66.07,47l0,0A0,0,0,0,0,66.07,47Z"/><path class="cls-5" d="M71.22,31.65a.49.49,0,0,0-.06.23l.08,0Z"/><path class="cls-5" d="M56.4,43.62Z"/><path class="cls-5" d="M55,42.65c.11.21.37-.09.58-.15.22.18-.17.25-.29.43.17.11.53,0,.59.14s-.05.08-.13.1c.35,0,.33.43.74.37a.22.22,0,0,1-.05.08,2.27,2.27,0,0,1,.38-.34c.07.07.29,0,.13.17,0-.05-.11,0-.19,0h.15c-.21.29-.18,0-.38.13.22.09.59.08.61.25-.23.26-.32-.19-.41.17l-.06-.27c-.29.49-.07-.14-.4.36.16.32.37.18.53.48.19-.08.19-.21.37-.3.56.07-.32.87.24.78.21-.11.52-.42.55-.1l-.3.25c.23.23.48-.33.58.08-.14.09-.27,0-.26,0,0,.37.25-.09.38,0l-.17.3c.32.14.75.15,1.1.26-.07.08-.18.14-.15.27a1.44,1.44,0,0,1,.67.32,5.78,5.78,0,0,1,.59.52l.26-.22s0,.15,0,.19c.14.16.07-.17.18-.26s.08.2,0,.27c.39-.15,1-.27,1.25.07l-.08.08c.23.16.38-.55.56-.24l-.05.05c.53.18,1.13,0,1.56.37.06-.42.56.17.55-.43.33.25.26.37.74.5.13,0,.11-.39.24-.49l.07.31.12-.36.19.33.12-.11c-.06,0-.15-.11-.16-.19.17-.18.56.08.61.22l.41-.41c0,.12,0,.18-.07.28.15-.39.15.29.3-.06-.06-.06-.05-.18-.07-.24.19.14.46,0,.62-.15l0,.21c.39-.1.69-.46,1.07-.68-.19,0-.35-.34-.26-.43l.21.25c0-.21-.17,0-.16-.33.14,0,.29.25.27.4l.1-.21c.06.08,0,.14.11.25,0-.21.47.07.36-.28l.07.07c.37-.25.43-.49.69-.73-.18-.21,0-.26-.11-.49.23-.11.59-.16.78-.41s-.13-.2-.2-.38c.2.15.38-.11.42.14a1.81,1.81,0,0,0,.35-.91c-.11,0-.18,0-.24-.07s.19-.1.29,0v0c0-.6,1.26-.69,1-1.32v0l-.1-.51c.12-.16.14.18.34.1-.22-.57.28-.7.13-1.14.8-.13.17-1.05.65-1.4H73.3c-.17-.12.11-.12.15-.19-.14,0-.16.1-.26,0-.13-.88.27-1.83.23-2.82,0-.35-.94,0-.63-.48l.35,0a2.07,2.07,0,0,1-.5-.93,1.81,1.81,0,0,0-.54-.87c.09,0,.18,0,.2,0,.15-.24-.25-.47-.41-.37,0-.1.14-.11.19-.21s-.43-.15-.27-.34c0,0,.08,0,.11,0-.15,0-.22-.37-.4-.14,0-.28-.36-.31-.36-.56-.32.1-.16-.42-.52-.16.35-.29,0-.58-.28-.53.13-.06,0-.19.18-.29-.14-.12-.31-.17-.45,0,.13-.64-.77-.09-.48-.74-.56-.15-1.07-.25-1.51-.39.24-.39.46.22.69-.19-.48-.1-.9.16-1.23-.14-.07-.11.14-.15.21-.2-.48,0-.79-.39-1.24-.28,0,0,.07-.07.12-.09s-.16-.12-.21.08l.09,0c0,.32-.47.51-.52.66.28-.53-.32-.24.06-.91a.32.32,0,0,0-.16.24c-.07-.06-.07-.14,0-.27-.3,0-.25.28-.49.22,0-.09.08-.12.13-.23-.17.17-.32.34-.51.22,0-.06,0-.14.07-.13-.37,0-.66.44-1,.22.14-.42-.12-.15-.13-.52l-.22.1.08.18c-.18,0-.34.28-.5.16l.14-.16-.34.08.19.14c-.17.19,0,.47-.19.37,0,0-.18,0-.29-.2h0c-.07.13-.14.27-.28.19s0-.41-.06-.49c-.05.33-.41.14-.46.49A.72.72,0,0,0,62,29l0,.26c-.09-.06-.11-.09-.13-.25-.26,0,.17.45-.16.31,0,0,0-.06,0-.11-.32,0-.52.28-.8.26-.2-.33.2-.17,0-.44-.37.2-.63.69-1,.78h.09c.17.5-.37-.13-.44.18a.61.61,0,0,0-.06-.23c-.28.06-.42.38-.66.73l0-.14c-.19,0-.37.17-.54.22,0,.14-.05.18.11.3-.45-.17-.57.1-.67.34s-.16.5-.55.44c0,0,0-.18,0-.15l-.18.37c.19.14.14.06.33.12s.07.28,0,.34c0-.22-.28-.25-.43-.27.06,0,.11.11.17.15-.44-.11.33.33,0,.36L57,32.47c0,.12.06.29,0,.35-.24-.13,0-.16-.2-.3-.09.14.22.53-.07.5,0-.1,0-.18,0-.27-.35-.07-.29,0-.4.07h0L56,33h.11c.49.54-.12.4.16.86-.26-.43-.2-.16-.45-.32-.11,0-.24.07-.3,0,.16.23-.27.11,0,.43-.1,0-.07.12-.28,0,0,.18.17,0,.27.1.2.35-.6.4-.31.91.08.36.39.51.47.81-.18.05-.32-.17-.32-.17a.26.26,0,0,0-.11.4.35.35,0,0,0-.27,0c0,.12.33.15.16.27a2.09,2.09,0,0,1-.36-.19c.06.16.22.33.28.48-.17,0-.24-.13-.34-.2,0,.18.07.45.35.53l.1-.09c0,.06-.23,0-.28,0s.13-.18.23-.17l0,.1c.59,0,0-.4.05-.6l.4.16-.31-.27c.12,0,.35,0,.39.11.23-.08-.11-.15.14-.21,0,0,.06,0,.07,0l-.08-.16c.07,0,.29.05.21.11.29-.15-.2-.45.13-.44v0c0-.35-.28-.12-.53-.48l.77.11-.27-.14s.07-.09.18,0c-.15-.19-.14,0-.29-.17.31-.05.06-.48.52-.3-.18-.16-.23.06-.29-.17.49.19,0-.22.29-.25.22.17,0,.23.31.21-.36-.3.22-.2.21-.34-.31-.19,0-.31,0-.55.08.07.39-.2.61-.26l0,0c-.26-.25-.1-.38,0-.53.16.15.21.22.23.35l.09-.1a.27.27,0,0,1-.05-.27l.17.22c.11-.13,0-.49.31-.52-.16-.19-.64-.39-.55-.69.1.1.26.27.25.35s0-.13.06-.12l.08.24c.15,0-.09-.18,0-.22.13.15.14.06.23.19s-.11,0-.08.06a.45.45,0,0,1,.38.07c-.07-.08-.17-.2-.13-.26s.2.14.34.15c-.06-.14.12-.09-.06-.32,0,0,.14.07.2.12,0-.15.32-.27.06-.47h0v0h0c.09-.44.64-.19.83-.46l0,.09c.1-.19.33-.23.36-.48.05,0,.19.11.22.23.09-.12.07-.25.31-.15-.06.2.1.12-.08.16.2,0,.28.16.37-.16,0,.26.22.27.28.17l-.17-.14a.37.37,0,0,1,.24-.07l0,.33c.42.32.47-.83.86-.2.05-.24-.22-.14-.18-.42.18,0,.41.48.45.47.23.16.15-.51.4-.4,0-.12-.09-.44.09-.55s.23.49.13.59-.06,0-.06-.07a.15.15,0,0,0-.05.22l0-.12c.08.12.3.11.25.3.12-.11,0-.19,0-.25.21.17.32,0,.53.12,0-.07-.06-.21,0-.21.3.17.15-.21.37-.25.11.19-.08.43.15.3.12.13,0,.31-.07.4.22-.22.32.21.41.26l-.1.08a.15.15,0,0,1,.15,0V30.8c0,.05.1.06.08.15.08-.14,0-.39.18-.58.06.13.28-.09.23.23-.22-.15,0,.31-.25.33,0,0,.09,0,.14,0a.09.09,0,0,1,0,.07c.15.33.19-.32.42-.24-.08.16,0,.34,0,.31s0-.3.16-.4c.11.17.2-.05.28,0L66,30.6c.09-.16.16-.12.29-.13,0,.14-.13.05-.11.13.23-.25.15.4.39.27,0,.14-.13.31-.09.41.26-.15.07.3.33.22,0-.24,0-.2.25-.34h-.37l.34-.21c-.09-.05-.26,0-.3,0,.18-.14.14-.08.18-.29,0,.39.35-.05.39.24l-.28.52c.08.33.52-.06.71.24l0-.14c.16-.18.18.07.32.05a.9.9,0,0,0-.15.37c.09-.12.17.15.43-.15l0,.3c.12.23.59-.27.73,0-.2.1-.21.28-.43.29.06,0,.08.13.18,0,0,.12.34,0,.27.15.08,0,.24-.17.3-.1a.21.21,0,0,1-.07.07c.07-.07.19,0,.3-.2-.29.62.54.53.24,1a2.74,2.74,0,0,1,.44.38c-.06,0-.09,0-.08,0-.05.29.55-.17.51.17-.21.27-.22,0-.29.09-.55.36.24.23,0,.56l0,0c-.15.21.35.18.4.4l-.09,0a.93.93,0,0,1,.72.42c-.27,0-.16,0-.39.07.06.08.38-.16.51,0a1,1,0,0,1-.45.35,1.66,1.66,0,0,0-.06-.16c-.31.19.07.21,0,.32l-.15,0c.11.24.49.16.53.45l.11,0c.42.09-.2.17.11.28l-.38.11a1.91,1.91,0,0,1,.52.51,2.76,2.76,0,0,1-.67-.4c0,.1.07.33.27.37,0,0-.14-.08-.09-.13.34.1.48.27.48.48-.76,0-.17.56-.79.67.27.38-.18.68-.21,1.06.6,0,0,.12.59.23,0,.11,0,.14,0,.14l-.44.19c-.19,0-.1-.12-.24-.15-.1.18-.27,0-.46.09.22,0,.28.15.17.24l.31-.07c.24.38-.56.06-.35.43l-.15-.15c0,.18-.18.47.18.81-.08,0-.24-.05-.25-.13-.2.27.07.95-.34,1l-.11-.11c0,.08.17.27,0,.24s-.11-.11-.13-.09.1.29,0,.31l-.08-.16c-.36.14,0,.67-.16,1a.7.7,0,0,0-.74-.17l0-.05c-.32.2-.26.71-.48,1.06-.45-.25-.77.26-1.22.18a.41.41,0,0,1,.09.38c-.11-.05-.1.38-.24,0h0c-.22-.34-.33-.17-.46-.14l.16.5c-.31-.3-.5-.15-.69,0s-.38.26-.54,0c-.06.15-.17.16-.23.3l0-.28a1.12,1.12,0,0,0-.65,0l0-.2c-.15,0-.16.82-.33.84l-.06-.42c-.3,0-.56-.39-.89,0,0-.06,0-.18.08-.2-.14,0-.47-.35-.52.23.06-.38-.29-.09-.49,0l.09-.26c-.22.3-.25.4-.47.44,0,0,0-.23.06-.14-.1-.19-.19.22-.33,0l.12-.15c-.15-.06-.16,0-.32.2s-.26-.18-.19-.43c-.08.14-.24.3-.3.19a.23.23,0,0,1,.11-.15c-.18-.26-.51.12-.56-.21a.38.38,0,0,0,.05-.16c.19.1.33.2.31.21.11-.24,0-.35.25-.61-.19.12-.59.38-.68.2a.31.31,0,0,1,0-.08l0,0s-.06,0-.11,0,0-.11-.07-.14c.09-.19-.1-.2-.16-.25-.15.24-.22.14-.26.39,0,0,0,0,.09,0h0l.19.1c-.13.09-.26.15-.26,0a3.72,3.72,0,0,1-.35.31c.11-.39,0-.69.17-.9-.28,0-.53-.27-1,0-.1,0,0-.17.08-.25s.1,0,.17,0c-.2,0-.36-.26-.65,0,0-.25.32-.16.1-.3l.1-.06c0-.39-.25-.37-.56-.4s-.59-.13-.44-.58a.27.27,0,0,1-.07.13c-.06-.71-1-1.06-.68-1.88,0-.2-.19-.15-.4-.21l.28-.12L56,39.86c-.3-.23.6-.61.09-.86l-.2.07c0-.13-.16-.38.07-.39,0,0-.22,0-.12-.08H56a4,4,0,0,1-.29-.29c.11-.25.63,0,.65-.33-.07-.12-.47-.36-.58-.31s-.09.13-.25.13l-.08-.12c-.47,0-.95-.16-1.27.19l.29.23-.22.09,0-.21c-.21.12,0,.2.11.27a.44.44,0,0,0-.24.12l.45.21c-.18,0-.37-.08-.46.09.22.09.4-.14.55,0-.19.13-.37.11-.17.23a.27.27,0,0,1-.26,0c.16.11.11.32.36.34-.25.17.12.39-.31.46.12,0,.39.14.43.24-.56-.08.07.42-.49.51.49,0,.37.48.7.64,0,0-.12,0-.1,0,0,.16-.11.25-.16.38.37-.13.55,0,.82.06-.27.32-.46.09-.77.29.28-.14.42.16.63,0-.15.23-.05.16-.31.37.45-.19.13.09.45,0-.11.29-.37.27-.13.39C55.21,42.74,55,42.65,55,42.65Zm4.34,3.18h0l-.1,0Zm.38.19-.16-.09c0-.1.09-.18.13-.15S59.66,45.92,59.68,46Zm.23-2.1c.07,0,.05.06,0,.11l-.1,0,0,0Z"/><path class="cls-5" d="M59.63,44.18h0v.07l.07-.07Z"/><path class="cls-5" d="M59.19,31.3h0l0,0Z"/><polygon class="cls-5" points="65.61 47.28 65.6 47.22 65.57 47.29 65.61 47.28"/><path class="cls-5" d="M56.91,32.05l-.07,0Z"/><path class="cls-5" d="M56.25,32.82l-.16.07Z"/><path class="cls-5" d="M55.72,33.41l.1.08h0Z"/><path class="cls-5" d="M66.65,28.89h0C66.77,28.86,66.71,28.86,66.65,28.89Z"/><path class="cls-5" d="M62.87,29.1A.85.85,0,0,1,63,29C62.91,28.94,62.86,28.94,62.87,29.1Z"/><polygon class="cls-5" points="70.54 30.9 70.54 30.9 70.56 30.92 70.54 30.9"/><path class="cls-5" d="M63.15,29A.11.11,0,0,0,63,29C63,29,63.1,29,63.15,29Z"/><path class="cls-5" d="M54.52,36.64l0,0h0Z"/><path class="cls-5" d="M54.54,36.69l0,0S54.57,36.7,54.54,36.69Z"/><path class="cls-5" d="M54.64,36.83l-.07-.1S54.56,36.8,54.64,36.83Z"/><path class="cls-5" d="M54.85,35.63l-.1,0Z"/><path class="cls-5" d="M54.91,35.31c0,.07-.27.13-.23.25l.07,0C54.62,35.5,55.05,35.43,54.91,35.31Z"/><path class="cls-5" d="M56.51,34.58l-.17.18c.12,0,.27,0,.26.12C57,34.75,56.35,34.84,56.51,34.58Z"/><path class="cls-5" d="M57,34c0,.14.14.08.19.12C57.11,34,57.1,34,57,34Z"/><path class="cls-5" d="M60.7,30.73l.09.24C60.86,30.9,60.75,30.88,60.7,30.73Z"/><path class="cls-5" d="M61.26,29.13,61.12,29v.24Z"/><polygon class="cls-5" points="62.27 30.77 62.24 30.82 62.37 30.69 62.27 30.77"/><path class="cls-5" d="M69.43,33.35l.23-.22C69.58,33.12,69.3,33.33,69.43,33.35Z"/><path class="cls-5" d="M71.17,36.43c-.14.07-.23.18-.07.22S71.22,36.46,71.17,36.43Z"/><polygon class="cls-5" points="65.97 44.57 66 44.45 65.91 44.58 65.97 44.57"/><path class="cls-5" d="M74.22,87c.08,0,.28,0,.24,0l-.33,0Z"/><path class="cls-5" d="M74.82,86.75a2,2,0,0,0-.74,0c.31,0,.18,0,.56.1,0,0-.1.07-.22.06.08,0-.08.06.13.08s.27-.12,0-.18A.85.85,0,0,1,74.82,86.75Z"/><path class="cls-5" d="M75,82.75l0,0S75,82.76,75,82.75Z"/><path class="cls-5" d="M74.69,80.27s0,0,.07,0A.09.09,0,0,0,74.69,80.27Z"/><path class="cls-5" d="M74.94,79.77l0,0S75,79.77,74.94,79.77Z"/><path class="cls-5" d="M75,82.75l.1-.08C75,82.68,75,82.72,75,82.75Z"/><path class="cls-5" d="M74,86.24l.09,0,0,0Z"/><path class="cls-5" d="M75.41,83.81v0h.13Z"/><path class="cls-5" d="M75.54,84.65s-.27,0-.39,0a.64.64,0,0,1,.2,0Z"/><path class="cls-5" d="M75.14,86l0,0Z"/><path class="cls-5" d="M75.39,83.2l.1,0Z"/><path class="cls-5" d="M62.29,65l0,0Z"/><polygon class="cls-5" points="62.33 63.34 62.35 63.34 62.44 63.21 62.33 63.34"/><path class="cls-5" d="M75.08,78.91h0S75.1,78.91,75.08,78.91Z"/><path class="cls-5" d="M72,72.25c-.17.2-.34,0-.52.3C71.61,72.48,72,72.42,72,72.25Z"/><path class="cls-5" d="M74.05,86.22a0,0,0,0,1,0,0S74,86.21,74.05,86.22Z"/><path class="cls-5" d="M71.52,72.55h0l0,0Z"/><path class="cls-5" d="M74.36,77.21l-.11.05Z"/><path class="cls-5" d="M74.4,78.62l0,0S74.4,78.61,74.4,78.62Z"/><path class="cls-5" d="M73.74,76.68s.05-.05,0-.06l0,0S73.78,76.64,73.74,76.68Z"/><path class="cls-5" d="M73.48,76l0,0h0Z"/><path class="cls-5" d="M64,66.19l.14-.21C64,66.14,63.89,66.13,64,66.19Z"/><path class="cls-5" d="M74.17,86.24l-.12,0s0,0,0,0Z"/><path class="cls-5" d="M71.66,77.44v-.12A.24.24,0,0,0,71.66,77.44Z"/><path class="cls-5" d="M67.44,69.64h0S67.41,69.66,67.44,69.64Z"/><path class="cls-5" d="M71.51,77a.4.4,0,0,0,.15-.13l-.07,0Z"/><path class="cls-5" d="M64.13,66Z"/><path class="cls-5" d="M63.16,66c.07.07.27-.25.42-.4.16,0-.13.25-.22.42.12,0,.38-.25.42-.21s0,.08-.1.13c.25-.18.19.14.5-.08a.22.22,0,0,1-.05.08c.11-.15.23-.3.32-.4s.22-.12.07.08c0,0-.08,0-.14.1l.11-.05c-.19.29-.13.05-.3.24.15,0,.42-.17.41,0-.21.26-.2,0-.33.26V66c-.28.46,0-.07-.34.41,0,.17.24,0,.29.15.15-.12.17-.22.32-.34.39-.11-.44.75,0,.52.18-.15.48-.45.41-.21l-.28.26c.08.12.43-.36.37-.06-.13.09-.17,0-.19.06-.13.29.2-.11.26-.06l-.22.26c.14.06.43,0,.6.07a.8.8,0,0,0-.22.23c.28,0,.3.35.3.63l.26-.15s-.07.12-.12.14.13-.13.24-.18-.07.16-.16.2c.28-.07.67-.08.54.25l-.08,0c0,.17.53-.31.4,0l-.05,0c.08.27.47.31.26.74.34-.25,0,.31.48-.06-.12.3-.23.34-.25.62,0,0,.33-.18.42-.17l-.24.2.31-.14-.25.28h.1a.4.4,0,0,1,.14-.18c.17,0,0,.32-.13.42l.35,0a.55.55,0,0,1-.24.09c.32-.1-.24.22,0,.13a1.21,1.21,0,0,1,.2-.14c-.11.16,0,.26.09.28l-.18.12c.06.17.3.22.41.37,0-.11.34-.32.4-.29l-.24.21c.18-.09.06-.12.3-.21,0,.08-.27.26-.38.29h.15a2.3,2.3,0,0,1-.23.15c.18-.09-.18.31.13.15l-.07.06c.11.15.25.16.35.27.24-.16.22-.07.43-.16,0,.14-.12.38,0,.48s.21-.11.38-.17c-.21.15-.11.25-.31.29a.7.7,0,0,0,.45.21c.08-.08.1-.12.18-.16s0,.13-.14.2h0c.45,0-.34.86.21.74h0l.34,0c0,.1-.19.06-.3.2.48,0,.12.31.45.32-.59.49.28.38,0,.77l.15-.09c.18,0-.06.1-.08.15s.11-.12.21-.14c.37.25.15.84.18,1.27,0,.15.87-.33.56,0l-.32.09c.48.1.24.55.67.68-.08,0-.17.06-.18,0-.19.15.08.21.26.14,0,0-.16.08-.24.14s.34,0,.13.15a.17.17,0,0,1-.1,0c.13,0,0,.18.29,0-.08.15.19.15.07.29.31-.06-.06.23.35.09-.42.16-.27.31-.05.3-.13,0-.11.11-.29.15,0,.07.13.11.34,0-.45.33.52.13-.11.45a2,2,0,0,1,.7.46c-.43.13-.11-.21-.56-.05.24.13.64.12.6.35,0,.06-.19,0-.27,0,.24.14.08.39.37.49a.57.57,0,0,1-.13,0s0,.09.15,0l-.06,0c.27-.14.64,0,.79-.07-.58.1-.09.21-.83.33a.58.58,0,0,0,.27,0s-.1.07-.26.08c.14.09.34,0,.36.1a1.45,1.45,0,0,1-.25,0c.2,0,.4,0,.35.12s-.13,0-.14,0c.07.15.58.14.44.37-.43,0-.12.09-.48.2l.13.06.17-.08c0,.09.29.1.19.2l-.16,0,.11.15.11-.13c.21,0,.46-.12.39,0s0,.09-.19.18h0c.12,0,.26,0,.18.12s-.4.08-.48.11c.32,0,.13.18.47.16a1.82,1.82,0,0,0-.31,0l.25,0a.45.45,0,0,1-.26.1c0,.13.45-.14.28,0,0,0,0,0-.1,0-.07.16.22.24.12.4-.36.11-.11-.1-.41,0,.1.17.52.3.46.51l0,0c.52-.06-.24.19,0,.24a1.17,1.17,0,0,0-.24,0c-.06.14.17.24.37.4H74c-.11.09,0,.21-.09.3.14,0,.12,0,.32,0-.74.36.48.42-.14.73,0,0-.12,0-.12,0l.14.18a1.48,1.48,0,0,0,.32-.11c.13,0,.25,0,.25.1-.16-.07-.37,0-.49.09l.22,0c-.4.15.46,0,.2.13h-.12c.07,0,.23.08.2.13-.26,0-.13,0-.34,0,0,.08.52.1.26.2-.08,0-.08-.07-.16-.1-.31.11-.23.11-.27.17h0L74,84.7l.08,0c.7,0,.14.18.61.27-.44-.09-.25,0-.56,0a.51.51,0,0,1-.25.09c.25,0-.19.12.18.18-.1,0,0,.06-.25.07.08.07.16,0,.29,0,.34.1-.39.32.08.46.2.14.53.15.7.29a.58.58,0,0,1-.36,0c-.14.08-.11.14,0,.21a.49.49,0,0,0-.26,0c0,.06.35,0,.21.11a2.6,2.6,0,0,1-.39,0c.09.07.28.13.37.2a1,1,0,0,1-.38-.06.58.58,0,0,0,.43.22l.1,0a.64.64,0,0,1-.28,0c-.21-.07.09-.1.19-.11l.06,0c.57-.07-.1-.2-.07-.31l.42,0-.35-.09a.68.68,0,0,1,.4,0c.2-.09-.15-.06.08-.14a.16.16,0,0,1,.07,0L75,85.94c.09,0,.3,0,.24,0,.23-.15-.32-.2,0-.27h0c-.15-.17-.3,0-.67-.11l.75-.14H75s0-.06.16-.06c-.22-.05-.14,0-.34,0,.28-.11-.14-.24.34-.3-.23,0-.17.1-.34,0,.52-.07-.1-.11.14-.21s.13.1.36,0c-.46,0,.09-.17,0-.23-.37,0-.17-.14-.3-.24.13,0,.18-.24.29-.37h.07c-.37,0-.32-.1-.4-.17a1,1,0,0,1,.41,0v-.07a.39.39,0,0,1-.23-.07h.27c0-.11-.34-.17-.18-.33-.25,0-.69.2-.88.09a1.44,1.44,0,0,1,.43,0s-.12,0-.06,0l.24,0c.09-.07-.2,0-.19,0,.2,0,.14-.06.3-.07s-.08.05,0,.06a.45.45,0,0,1,.28-.18.59.59,0,0,1-.3,0c0-.1.23-.07.33-.15-.14,0,0-.09-.3,0,0,0,.13,0,.21-.08-.14,0-.08-.24-.38-.13l0,0h0c-.31-.13.11-.38,0-.53l.1,0c-.13-.08-.11-.22-.33-.25,0,0,.17-.1.29-.11-.09-.07-.2-.06-.06-.2.18,0,.14,0,.14.06.06-.12.21-.17-.08-.23.26,0,.3-.14.22-.17l-.17.11a.18.18,0,0,1,0-.16l.33,0c.35-.29-.75-.23-.12-.53-.24,0-.14.15-.41.16,0-.11.46-.31.46-.34.15-.18-.51,0-.42-.18a.83.83,0,0,1-.54.06c0-.1.45-.23.56-.19s0,0-.06,0a.23.23,0,0,0,.23,0h-.12c.1-.07.06-.2.26-.22a.2.2,0,0,0-.25.09c.14-.17,0-.2,0-.35-.06,0-.19.09-.19.07.1-.22-.24,0-.32-.14.16-.11.42-.08.24-.17a.51.51,0,0,1,.41-.09c-.26,0,.08-.25.1-.33l.11,0a.11.11,0,0,1-.08-.08l-.22.1s0-.08.12-.1a5.27,5.27,0,0,1-.6.12c.11-.08-.16-.11.14-.21-.06.17.3-.11.38,0s-.05-.05,0-.1h.09c.23-.22-.37,0-.4-.12.18,0,.31-.13.27-.14s-.28.11-.42.09c.1-.13-.13-.07-.13-.12l0,.07c-.18,0-.17,0-.24-.07.13,0,.11,0,.16,0-.32,0,.25-.25,0-.29.1-.08.32-.1.38-.17-.25,0,.19-.2,0-.26a.47.47,0,0,1-.4.09l.22.14-.37,0c0,.06.18.08.15.13-.2,0-.14,0-.32.07.31-.19-.25-.09-.05-.26l.56-.18c.21-.22-.36-.15-.28-.38l-.08.09c-.23.06-.07-.1-.18-.12a1.12,1.12,0,0,0,.35-.19c-.14.06,0-.13-.41,0l.21-.16c0-.18-.59,0-.57-.13.21,0,.32-.15.5-.11,0,0,0-.1-.12,0,.1-.07-.3,0-.14-.15-.09,0-.28.08-.29,0l.09,0c-.09,0-.15,0-.34.09.53-.36-.19-.37.25-.68a1.07,1.07,0,0,1-.26-.26c.06,0,.09,0,.08,0,.12-.19-.56.15-.42-.07s.18,0,.28-.09c.59-.27-.15-.13.15-.38h0c.17-.16-.31-.08-.32-.21l.09,0a.85.85,0,0,1-.64-.12c.25-.07.15,0,.37-.13-.06,0-.37.19-.48.12a1.72,1.72,0,0,1,.43-.34l.06.08c.3-.2-.07-.11,0-.19l.15-.06c-.12-.12-.47.05-.52-.12l-.09.07c-.4.09.16-.17-.15-.12l.34-.2A2.61,2.61,0,0,1,72,73.9a2,2,0,0,1,.67,0,.23.23,0,0,0-.31-.12c.05,0,.15,0,.11,0-.32.08-.5.06-.54,0,.68-.33,0-.37.5-.73-.34-.06-.1-.43-.27-.63-.47.37-.05-.06-.57.26-.06,0-.07-.06,0-.08l.22-.34c.13-.13.15,0,.26-.09s.2-.18.3-.34c-.18.13-.3.12-.26,0l-.19.24c-.37,0,.36-.4,0-.39l.19,0c-.14,0-.17-.31-.64-.12,0,0,.18-.16.24-.15-.06-.23-.71-.14-.55-.45l.14-.07c-.06,0-.27.09-.18,0s.14-.07.13-.09-.28,0-.24,0l.17-.06c0-.29-.53,0-.72-.14a.71.71,0,0,0,.4-.58l0,0c-.1-.25-.55-.15-.83-.23.3-.4-.13-.52-.07-.87a.58.58,0,0,1-.33.2c0-.1-.34.07,0-.17v0c.29-.28.13-.3.09-.38l-.42.32c.45-.67-.6-.29-.15-.82-.14,0-.18,0-.32,0l.22-.18a.45.45,0,0,0-.25-.35l.18-.11c-.06-.09-.71.44-.78.38l.29-.3c-.13-.14,0-.54-.39-.41,0,0,.14-.12.17-.11s0-.45-.42,0c.27-.27-.11-.17-.3-.13l.21-.18c-.31.18-.38.25-.54.23,0,0,.15-.17.12-.09,0-.17-.24.13-.21,0l.15-.1c0-.08-.11,0-.3.1s-.07-.18.09-.37c-.11.1-.3.21-.28.12a.59.59,0,0,1,.14-.12c0-.25-.39.07-.28-.2a.53.53,0,0,0,.1-.14c.09.1.15.18.13.19.18-.19.14-.29.44-.49-.19.08-.59.29-.58.13l0-.07,0,0s0,0-.07,0,0-.09,0-.12c.14-.16,0-.16,0-.21-.19.21-.21.13-.32.35,0,0,0,0,.06,0s0,0,0,0h0l.1.08c-.12.07-.24.13-.17,0L66,66c.22-.33.26-.58.41-.77-.23,0-.35-.18-.78.15-.07,0,.07-.15.11-.22s.07,0,.13,0c-.15,0-.23-.14-.49.12,0-.19.27-.21.12-.27l.09-.07c.14-.65-1,.4-.76-.39a.21.21,0,0,1,0,.12c-.09-.5-.8-.25-.78-.89,0-.15-.17,0-.33.13l.16-.26-.3.22c-.27.11.22-.76-.23-.49l-.1.18c0-.08-.25,0-.1-.22,0,0-.15.16-.11.05l.09-.13-.3.12c-.05-.17.38-.5.23-.64a1,1,0,0,0-.47.36s0,.13-.08.26l-.1,0a3,3,0,0,0-.64,1.1l.25-.17-.1.21-.08,0c-.08.21.06.07.16,0a.58.58,0,0,0-.1.23l.34-.3c-.09.15-.25.26-.25.39.16-.14.2-.36.35-.43-.08.21-.2.34,0,.23a.42.42,0,0,1-.17.18c.13-.08.15,0,.32-.14-.11.24.19,0-.07.4.08-.07.28-.22.33-.2-.38.36.14.14-.22.57.34-.34.32,0,.58-.15,0,0-.09.07-.08,0s0,.2-.06.29a2,2,0,0,1,.58-.46c-.17.35-.33.33-.53.63.19-.25.31-.16.45-.38a1.83,1.83,0,0,1-.2.4c.31-.38.09,0,.32-.24-.08.25-.27.38-.09.33A.52.52,0,0,1,63.16,66Zm2.36,1h0l0,0Zm.16.13-.06-.07c.06-.07.14-.14.15-.12S65.71,67.05,65.68,67.13Zm1-1.71s0,0,0,.09l-.07,0,0,0Z"/><path class="cls-5" d="M66.4,65.64h0l0,.06.07-.06Z"/><path class="cls-5" d="M75,82.79h0l0,0Z"/><polygon class="cls-5" points="67.19 69.56 67.25 69.51 67.19 69.54 67.19 69.56"/><path class="cls-5" d="M74.15,84.06l-.07,0Z"/><path class="cls-5" d="M74.14,84.56l-.09.08Z"/><path class="cls-5" d="M74,85h0Z"/><path class="cls-5" d="M72.61,79.19h0Z"/><path class="cls-5" d="M73.7,80.73l-.15,0S73.54,80.77,73.7,80.73Z"/><polygon class="cls-5" points="71.66 77.45 71.67 77.45 71.66 77.44 71.66 77.45"/><path class="cls-5" d="M73.54,80.63c-.05,0,0,.06,0,.08S73.59,80.64,73.54,80.63Z"/><path class="cls-5" d="M74,86.58h0Z"/><path class="cls-5" d="M74,86.59l0,0S74.06,86.6,74,86.59Z"/><path class="cls-5" d="M74.13,86.65l-.07,0S74.05,86.65,74.13,86.65Z"/><path class="cls-5" d="M74.11,86.08h0Z"/><path class="cls-5" d="M74.07,85.93s-.21.1-.15.14H74C73.85,86.06,74.25,86,74.07,85.93Z"/><path class="cls-5" d="M75.29,85.21l-.07.13c.1,0,.25-.07.28,0C75.81,85.14,75.26,85.38,75.29,85.21Z"/><path class="cls-5" d="M75.41,84.79c.06.06.16,0,.22,0A.18.18,0,0,0,75.41,84.79Z"/><path class="cls-5" d="M75,81.84l.25,0S75.17,81.82,75,81.84Z"/><polygon class="cls-5" points="73.61 81.55 73.47 81.63 73.7 81.61 73.61 81.55"/><polygon class="cls-5" points="75.33 80.85 75.37 80.86 75.26 80.79 75.33 80.85"/><path class="cls-5" d="M73.76,76l-.29.13C73.54,76.18,73.87,76.05,73.76,76Z"/><path class="cls-5" d="M72.58,74.17c.13-.09.19-.19,0-.16S72.53,74.17,72.58,74.17Z"/><polygon class="cls-5" points="69.5 68.38 69.61 68.35 69.49 68.34 69.5 68.38"/><path class="cls-5" d="M38.5,86.12c0,.08.17.23.17.17L38.49,86Z"/><path class="cls-5" d="M39.07,86.45a2.1,2.1,0,0,0-.41-.62c.16.27.07.18.27.5,0,0-.11,0-.18-.14,0,.07-.09,0,0,.15s.25.14.17-.06A1,1,0,0,1,39.07,86.45Z"/><path class="cls-5" d="M42.1,84.42h0Z"/><path class="cls-5" d="M43.74,82.85a.13.13,0,0,0,0,.07A.08.08,0,0,0,43.74,82.85Z"/><path class="cls-5" d="M44.27,82.78h0S44.29,82.8,44.27,82.78Z"/><path class="cls-5" d="M42.1,84.42l.11,0C42.14,84.37,42.13,84.41,42.1,84.42Z"/><path class="cls-5" d="M39,85.53a.16.16,0,0,0,0,.08v0Z"/><path class="cls-5" d="M41.57,85.31v0l.08.11Z"/><path class="cls-5" d="M41,85.88a2,2,0,0,0-.24-.31c.07.09.1.14.1.17Z"/><path class="cls-5" d="M39.8,86.3v0Z"/><path class="cls-5" d="M42,85l.08.07Z"/><path class="cls-5" d="M47.8,65.5h0Z"/><polygon class="cls-5" points="49.15 64.59 49.17 64.61 49.33 64.6 49.15 64.59"/><path class="cls-5" d="M45,82.43h0S45,82.45,45,82.43Z"/><path class="cls-5" d="M48.17,76.56c-.26,0-.25-.24-.55-.24C47.73,76.35,48,76.58,48.17,76.56Z"/><path class="cls-5" d="M39,85.54s0,0,0,0S39,85.53,39,85.54Z"/><path class="cls-5" d="M47.62,76.32Z"/><path class="cls-5" d="M45.84,81l-.12-.06Z"/><path class="cls-5" d="M44.8,81.75h.05S44.81,81.74,44.8,81.75Z"/><path class="cls-5" d="M45.86,80.21s.06,0,0,0l0,0S45.91,80.22,45.86,80.21Z"/><path class="cls-5" d="M46.2,79.64h-.05v0Z"/><path class="cls-5" d="M47.91,67.37l.25,0C48,67.35,47.9,67.26,47.91,67.37Z"/><path class="cls-5" d="M39.05,85.65c0-.06-.06-.09-.06-.11v0Z"/><path class="cls-5" d="M44,79l.08-.07A.18.18,0,0,0,44,79Z"/><path class="cls-5" d="M47.34,71.73l0,0S47.31,71.72,47.34,71.73Z"/><path class="cls-5" d="M44.2,78.68a.76.76,0,0,0,.19,0l-.06,0Z"/><path class="cls-5" d="M48.16,67.35Z"/><path class="cls-5" d="M47.52,66.69c0,.09.36,0,.57.07s-.27,0-.46.08c.1.07.43.14.42.19a.45.45,0,0,1-.16,0c.29.09,0,.22.37.32h.41s.23.09,0,.1c0,0-.09,0-.16,0l.1,0c-.35,0-.12-.07-.38-.08.11.09.4.21.29.27-.34,0-.1-.16-.41-.09l.14-.1c-.54.05,0-.06-.54,0-.1.13.17.16.06.29.18,0,.28,0,.46,0,.33.21-.86.09-.42.26.23,0,.65.1.42.18l-.38-.06c-.05.12.54.12.27.23-.15,0-.11-.11-.16-.1-.31.06.21.08.2.15l-.34,0c0,.14.28.32.32.48a.65.65,0,0,0-.31,0c.14.21-.09.4-.32.55l.29.11s-.14,0-.19,0,.18,0,.29.08-.18,0-.26,0c.23.16.48.44.15.52l-.09,0c-.13.09.58.22.29.27l0,0c-.16.21.06.51-.41.59.41.12-.23.18.35.32-.32.07-.41,0-.64.14,0,0,.34.15.39.23l-.3-.07.29.15-.37,0,.07.07a.63.63,0,0,1,.23,0c.12.12-.26.16-.41.13l.2.26a.64.64,0,0,1-.22-.12c.28.18-.32-.06-.07.1.08,0,.18.06.24.07-.19,0-.22.12-.17.22l-.2-.07c-.09.14,0,.34,0,.5a.77.77,0,0,1,.49.14L47,72.87c.18.09.13,0,.35.12-.06.05-.37-.06-.46-.13L47,73a2,2,0,0,1-.26-.09c.19.09-.35,0,0,.18l-.09,0c0,.17,0,.27,0,.41.27.09.19.12.4.23-.12.07-.36.12-.38.24s.22.1.36.19c-.24-.07-.26.05-.42-.07a.64.64,0,0,0,.12.45.56.56,0,0,1,.23,0s-.13,0-.24,0l0,0c.28.34-.87.2-.43.55l0,0,.19.26c-.07.06-.16-.11-.33-.12.32.34-.17.26,0,.51-.74-.19-.11.42-.62.37l.16.06c.14.11-.11,0-.16,0,.13.05.16,0,.24.09,0,.41-.55.55-.85.8-.11.09.78.49.32.44l-.27-.2c.22.42-.27.48-.1.87-.06,0-.15-.1-.13-.12-.24-.07-.11.17.06.27,0,0-.16-.08-.26-.11s.19.28,0,.18a.12.12,0,0,1-.07-.07c.08.09-.11.13.14.24-.16,0,0,.23-.17.21.24.21-.21.07.15.31-.38-.24-.4,0-.25.13-.11-.1-.15,0-.3-.16,0,.07,0,.17.21.28-.53-.18.21.46-.41.14a2.13,2.13,0,0,1,.09.79c-.36-.26.08-.2-.31-.46.06.26.31.57.11.65s-.14-.14-.19-.19c0,.25-.24.26-.14.53a.27.27,0,0,1-.08-.1s-.1,0,.07.14l0-.06c.27.14.43.48.55.58-.44-.4-.21,0-.76-.47a.51.51,0,0,0,.2.19s-.12,0-.23-.15c0,.16.22.25.15.33A1.53,1.53,0,0,1,43,81c.12.16.24.32.12.34s-.11-.08-.1-.1c-.07.14.25.52,0,.54-.31-.31-.15,0-.45-.27l0,.14.17.09c-.06,0,.11.28,0,.26l-.08-.15,0,.16.17,0c.09.18.37.29.22.31s-.06.05-.26-.06h0c.07.11.14.22,0,.21s-.31-.28-.38-.32c.22.23,0,.19.17.45a2,2,0,0,0-.23-.21l.17.19a.53.53,0,0,1-.23-.16c-.11.06.38.29.14.25a.81.81,0,0,1-.06-.08c-.16,0,0,.3-.22.31-.3-.23,0-.14-.26-.33-.06.18.09.57-.09.64h.05c.38.38-.27-.08-.15.15a.78.78,0,0,0-.16-.18c-.13,0-.06.26-.07.51l-.08-.11c-.13,0-.17.08-.27.09.08.11,0,.12.2.24-.71-.38,0,.61-.62.29,0,0,0-.13-.06-.12l0,.21a.94.94,0,0,0,.26.19c.08.12.12.23.09.26-.05-.17-.26-.27-.37-.34l.15.16c-.35-.23.31.35,0,.24l-.08-.1c0,.08.09.23,0,.23-.19-.18,0-.12-.19-.28,0,.05.24.46,0,.31,0-.08,0-.11,0-.18-.27-.18-.22-.12-.29-.12h0l-.18,0,.08,0c.4.57,0,.21.17.63-.21-.4-.16-.2-.35-.43a.5.5,0,0,1-.22-.16c.12.22-.2-.08,0,.24-.07-.07-.05,0-.2-.16,0,.1.12.11.2.21.13.32-.46-.14-.28.31,0,.24.2.5.21.71a.59.59,0,0,1-.2-.29c-.15-.07-.17,0-.15.11a.68.68,0,0,0-.19-.19s.2.3.06.23a3.87,3.87,0,0,1-.21-.34c0,.11.08.29.08.4a.88.88,0,0,1-.18-.32.56.56,0,0,0,.1.46l.1,0s-.16-.17-.17-.22c-.09-.2.12,0,.19.09v.08c.4.42.09-.19.18-.22l.23.34-.14-.32c.08.07.24.24.24.32.19.11,0-.16.15,0,0,0,0,0,0,.06l0-.14c0,.08.2.22.13.2.25.11,0-.36.19-.15v0c0-.22-.18-.25-.32-.6l.55.52-.18-.24s.06,0,.13.09c-.09-.2-.09-.1-.19-.27.24.15.08-.25.42.11-.14-.2-.18-.09-.22-.26.36.37,0-.14.23,0s0,.16.23.29c-.27-.37.17,0,.16-.13-.24-.28,0-.21,0-.37.08.09.29,0,.45,0l0,0c-.24-.28-.12-.3-.12-.4a1,1,0,0,1,.24.33l.05,0c-.07-.1-.1-.16-.09-.22l.18.21c.05-.08-.09-.36.12-.32-.17-.18-.56-.44-.59-.65.1.1.27.26.28.32s-.05-.1,0-.08l.12.2c.11,0-.11-.15-.07-.17.14.14.13.08.23.19s-.08,0,0,0A.48.48,0,0,1,42,85c-.08-.07-.18-.18-.18-.23s.19.15.3.18c-.08-.11.07-.06-.14-.27,0,0,.12.08.18.13-.06-.13.14-.19-.13-.37h0c-.11-.32.35-.12.36-.32l.08.06c0-.14.09-.2,0-.39,0,0,.17.07.25.16,0-.1-.08-.18.11-.15s.13.09,0,.14c.13,0,.26.08.13-.18.16.2.28.16.26.08l-.18-.07c0-.06.05-.08.1-.1l.23.24c.44.12-.29-.72.32-.39-.15-.19-.19,0-.37-.24.09,0,.51.21.53.18.22,0-.3-.4-.12-.41-.1-.06-.35-.26-.38-.4s.46.24.49.34,0,0-.07,0a.25.25,0,0,0,.15.17L43.85,83c.12,0,.19-.06.32.09a.19.19,0,0,0-.21-.15c.21,0,.12-.14.28-.16-.06,0-.18-.1-.17-.11.22,0-.13-.2-.1-.32.19.06.33.28.28.1.14,0,.26.18.32.26-.12-.22.24-.06.31-.09l0,.11c0-.07,0-.09,0-.11l-.21-.12a.16.16,0,0,1,.15,0c-.11-.12-.33-.22-.46-.4.12,0,0-.19.24,0-.17.05.26.18.23.3q0-.06.06-.06s0,0,0,.06c.31.06-.24-.26-.15-.37.13.12.28.17.27.13s-.26-.15-.33-.27c.16,0,0-.14,0-.17h-.08c-.14-.12-.09-.14-.1-.22.11.08,0,.1.1.12-.21-.24.36.06.24-.14.13,0,.28.19.37.21-.13-.22.26,0,.17-.16s-.16-.07-.31-.27l0,.25-.21-.3c0,.05.05.18,0,.19a.51.51,0,0,0-.26-.22c.34.15-.08-.24.17-.17l.48.34c.29,0-.12-.37.1-.42l-.12,0c-.18-.15,0-.1,0-.2a1.55,1.55,0,0,0,.35.17c-.12-.08.09-.1-.23-.33l.26.08c.16-.06-.39-.44-.26-.51.16.15.31.17.39.33,0,0,.08,0,0-.12.12,0-.15-.25,0-.19-.07-.06-.24-.17-.2-.21l.08.06c-.08-.06-.07-.14-.28-.22.6.21.16-.35.68-.17a.75.75,0,0,1,0-.34s.08,0,.06.06c.22,0-.46-.35-.21-.36s.11.14.24.17c.58.3,0-.19.38-.09l0,0c.23,0-.13-.27,0-.35l.08,0a.88.88,0,0,1-.3-.56c.2.15.09.11.33.21,0-.06-.37-.18-.39-.3a2.1,2.1,0,0,1,.53.15l0,.09c.33.12,0-.11.12-.13l.14.08c0-.15-.32-.33-.23-.46l-.12,0c-.31-.25.23,0,0-.17l.36.15a2.35,2.35,0,0,1-.28-.46,2.71,2.71,0,0,1,.45.49s.06-.18-.11-.29c0,0,.1.1,0,.09-.25-.19-.35-.34-.3-.44.69.35.3-.17.88,0-.17-.3.26-.32.32-.55-.58-.16,0-.07-.56-.3,0-.06,0-.07,0-.06H48c.18,0,.1.1.23.15s.26.05.44,0c-.21-.07-.27-.16-.17-.19l-.3,0c-.23-.27.53.06.3-.21l.16.12c-.07-.12.13-.3-.31-.55.07,0,.24,0,.26.1.14-.17-.33-.61,0-.65l.13.06s-.24-.16-.08-.15.13.06.15,0-.21-.18-.12-.2l.15.09c.25-.12-.28-.42-.33-.6a.73.73,0,0,0,.69,0l.06,0c.12-.21-.22-.49-.33-.74.49,0,.31-.38.63-.52a.65.65,0,0,1-.36-.14c.09,0-.27-.21.12-.1h0c.39.06.32-.06.35-.14l-.51-.14c.8,0-.15-.6.55-.56-.12-.08-.11-.14-.22-.21l.27.06a.36.36,0,0,0,.12-.37l.19.07c0-.09-.77-.28-.77-.37l.42,0c0-.17.42-.27.07-.51.06,0,.18,0,.2.07s.33-.26-.25-.33c.38.06.07-.17-.08-.28l.27.06c-.34-.14-.44-.15-.52-.27s.23,0,.15,0c.16-.06-.25-.1-.09-.18l.17.06c0-.08-.06-.09-.26-.17s.09-.15.34-.13c-.15,0-.34-.11-.26-.15a.34.34,0,0,1,.17,0c.21-.13-.29-.26,0-.33h.17c0,.11-.05.2-.07.19.26,0,.31-.06.66.06-.19-.1-.59-.28-.46-.35H50l0,0s0,0,0-.07a.17.17,0,0,0,.09-.06c.21,0,.12-.1.14-.15-.28,0-.23-.08-.47,0,0,0,0,0,0,0l0,0h0a.47.47,0,0,1,0,.12c-.13-.06-.25-.11-.09-.14l-.44-.11c.39,0,.61-.13.86-.13-.15-.15-.08-.35-.6-.47-.06,0,.16,0,.24,0s0,.06.12.07c-.13-.09,0-.24-.41-.28.18-.1.34.07.29-.07l.11,0c.61-.25-.92-.5-.15-.77a.28.28,0,0,1-.13,0c.35-.34-.3-.71.23-1.06.11-.09-.13-.1-.31-.16l.3,0-.35-.09c-.25-.14.74-.27.25-.44l-.2,0c0-.07-.13-.2.11-.2,0,0-.21,0-.11,0h.16l-.28-.15c.11-.13.63,0,.65-.2a1.2,1.2,0,0,0-.57-.13.4.4,0,0,1-.26.08l-.08,0a3.19,3.19,0,0,0-1.26.16l.29.08-.23,0,0-.08c-.21.06,0,.08.11.11a.73.73,0,0,0-.24,0l.45.08c-.18,0-.37,0-.46,0,.2,0,.4-.06.54,0-.21.06-.38.05-.2.1a.57.57,0,0,1-.25,0c.15,0,.07.13.31.15-.26.06.08.17-.36.17.1,0,.34.08.36.13-.52-.08,0,.17-.59.16.47,0,.21.21.48.32,0,0-.12,0-.09,0s-.19.08-.28.12a2.58,2.58,0,0,1,.73.16c-.38.07-.46,0-.83,0,.32,0,.32.14.58.11a1.38,1.38,0,0,1-.44.08c.49,0,.09,0,.39.11-.25.07-.46,0-.32.1A.54.54,0,0,1,47.52,66.69Zm.7,2.22h0l0,0Zm0,.19a.12.12,0,0,0,0-.08c.1,0,.2,0,.19,0S48.29,69.08,48.2,69.1Zm2-.2s0,0-.08,0a.15.15,0,0,0,0-.06h0Z"/><path class="cls-5" d="M49.82,68.81h-.08l.09,0Z"/><path class="cls-5" d="M42,84.41h0l0,0Z"/><polygon class="cls-5" points="47.25 71.5 47.32 71.52 47.26 71.49 47.25 71.5"/><path class="cls-5" d="M40.62,84.46l-.06,0Z"/><path class="cls-5" d="M40.25,84.72l-.11,0Z"/><path class="cls-5" d="M39.9,84.84l.08.1h0Z"/><path class="cls-5" d="M43.27,80.65h0C43.24,80.58,43.25,80.61,43.27,80.65Z"/><path class="cls-5" d="M42.79,82.32l-.06-.12S42.67,82.22,42.79,82.32Z"/><polygon class="cls-5" points="43.99 79.01 43.99 79.01 44 79 43.99 79.01"/><path class="cls-5" d="M42.78,82.14c-.06,0-.07,0-.05.06S42.8,82.19,42.78,82.14Z"/><path class="cls-5" d="M38.7,85.7h0l0,0Z"/><path class="cls-5" d="M38.71,85.73v0S38.72,85.76,38.71,85.73Z"/><path class="cls-5" d="M38.73,85.85l0-.08S38.68,85.78,38.73,85.85Z"/><path class="cls-5" d="M39.13,85.51l-.06-.08Z"/><path class="cls-5" d="M39.22,85.4s-.21-.11-.2,0l0,.06C39,85.3,39.3,85.56,39.22,85.4Z"/><path class="cls-5" d="M40.48,86l-.15,0c.09.07.21.16.18.21C40.84,86.36,40.33,86.05,40.48,86Z"/><path class="cls-5" d="M40.86,85.85c0,.08.11.12.15.17S41,85.89,40.86,85.85Z"/><path class="cls-5" d="M42.78,84l.19.18C43,84.07,42.89,84.06,42.78,84Z"/><polygon class="cls-5" points="42.14 82.69 41.99 82.62 42.15 82.79 42.14 82.69"/><polygon class="cls-5" points="43.71 83.66 43.72 83.7 43.71 83.58 43.71 83.66"/><path class="cls-5" d="M46.35,79.87l-.28-.15C46.11,79.78,46.4,80,46.35,79.87Z"/><path class="cls-5" d="M47,78c.15.05.26,0,.14-.06S47,78,47,78Z"/><polygon class="cls-5" points="49.59 72.58 49.68 72.64 49.62 72.55 49.59 72.58"/><g class="cls-6"><path class="cls-5" d="M36.94,32.26c0,.07-.12.26-.07.24l.16-.3Z"/><path class="cls-5" d="M36.94,32.93a2,2,0,0,0,.35-.66c-.16.27-.12.14-.31.47,0,0,0-.12,0-.23,0,.07,0-.09-.13.09s0,.29.15.12A1,1,0,0,1,36.94,32.93Z"/><path class="cls-5" d="M40.07,35v0Z"/><path class="cls-5" d="M41.94,36.36s0,0-.06,0S41.93,36.38,41.94,36.36Z"/><path class="cls-5" d="M42.06,36.87v0S42,36.89,42.06,36.87Z"/><path class="cls-5" d="M40.07,35v.12C40.13,35.05,40.09,35.06,40.07,35Z"/><path class="cls-5" d="M37.74,32.4a.22.22,0,0,0-.07.07l0,0Z"/><path class="cls-5" d="M39.06,34.78h0l-.07.11Z"/><path class="cls-5" d="M38.35,34.48a2.12,2.12,0,0,0,.2-.34.75.75,0,0,1-.12.16Z"/><path class="cls-5" d="M37.44,33.51l0,0Z"/><path class="cls-5" d="M39.52,35.09l-.05.09A.41.41,0,0,0,39.52,35.09Z"/><path class="cls-5" d="M55.82,49.68l0,0S55.83,49.69,55.82,49.68Z"/><polygon class="cls-5" points="54.92 51.09 54.9 51.08 54.76 51.14 54.92 51.09"/><path class="cls-5" d="M42.44,37.57h0S42.42,37.58,42.44,37.57Z"/><path class="cls-5" d="M47.43,41.59c.14-.23.32-.14.45-.41C47.8,41.26,47.49,41.41,47.43,41.59Z"/><path class="cls-5" d="M37.74,32.44h0S37.75,32.43,37.74,32.44Z"/><path class="cls-5" d="M47.88,41.18h0v0Z"/><path class="cls-5" d="M43.83,38.39l.07-.11A.42.42,0,0,0,43.83,38.39Z"/><path class="cls-5" d="M43.1,37.34v0S43.11,37.35,43.1,37.34Z"/><path class="cls-5" d="M44.57,38.47s0,.06,0,0l0,0S44.56,38.51,44.57,38.47Z"/><path class="cls-5" d="M45.08,38.88l0-.05h0Z"/><path class="cls-5" d="M54.77,47.83l-.21.15C54.73,47.88,54.85,47.93,54.77,47.83Z"/><path class="cls-5" d="M37.68,32.54l.06-.1h0A.23.23,0,0,0,37.68,32.54Z"/><path class="cls-5" d="M46,36.76l.06.1A.17.17,0,0,0,46,36.76Z"/><path class="cls-5" d="M52.1,43.6h0S52.13,43.59,52.1,43.6Z"/><path class="cls-5" d="M46.33,37a.77.77,0,0,0-.08.19l.06,0Z"/><path class="cls-5" d="M54.56,48Z"/><path class="cls-5" d="M55.49,48.33c0-.1-.35.12-.55.19s.22-.17.37-.3c-.12,0-.45.08-.47,0a.39.39,0,0,1,.14-.08c-.29.06-.12-.21-.49-.13l.07-.05-.44.25s-.25,0,0-.1c0,0,.09,0,.16,0h-.11c.29-.2.14,0,.36-.12-.14,0-.45,0-.39-.1.29-.18.18.1.4-.13l-.06.16c.43-.33,0,.08.46-.26,0-.18-.23-.07-.21-.25-.18.06-.24.14-.42.2-.4,0,.66-.55.19-.47-.22.07-.6.27-.45.06l.35-.16c0-.14-.52.2-.37-.06.14,0,.16,0,.19,0,.22-.24-.22,0-.26,0l.29-.18c-.12-.11-.42-.14-.56-.25.09-.05.2-.07.27-.16-.26-.1-.2-.42-.14-.71l-.3.09a.3.3,0,0,1,.16-.11c0-.13-.16.09-.28.12s.11-.14.2-.16c-.29,0-.67-.06-.49-.36l.09,0c0-.17-.57.21-.4,0h.05c0-.28-.41-.36-.15-.77-.37.2,0-.32-.49,0,.16-.28.27-.31.31-.59,0-.06-.35.14-.44.12l.25-.18-.31.12.27-.26h-.1s-.08.12-.16.17,0-.32.16-.42l-.35,0a.55.55,0,0,1,.24-.09c-.33.09.25-.21,0-.13-.05,0-.16.1-.21.14.12-.16,0-.27-.08-.3l.18-.11c-.06-.17-.3-.24-.42-.39a.73.73,0,0,1-.4.3l.24-.22c-.18.1-.06.13-.3.22,0-.08.26-.27.37-.3h-.14c.07-.06.12-.08.22-.15-.18.09.16-.33-.15-.15l.08-.06c-.13-.16-.27-.16-.38-.28-.22.18-.21.09-.42.2,0-.15.08-.39,0-.48s-.2.13-.36.2c.19-.17.08-.26.27-.32a.63.63,0,0,0-.48-.16.55.55,0,0,1-.15.18c-.06,0,0-.14.12-.21h0c-.43.07.19-.91-.34-.7h0l-.34,0c0-.1.18-.09.25-.25-.46.14-.18-.29-.51-.22.44-.63-.38-.31-.17-.78l-.12.13c-.16.09,0-.11,0-.17-.1.1-.08.15-.17.2-.43-.14-.41-.77-.61-1.18-.08-.14-.69.61-.54.17l.26-.21c-.49.08-.46-.43-.91-.38.07-.05.13-.12.15-.1.12-.22-.16-.17-.29,0,0,0,.1-.14.15-.23s-.32.13-.19-.08a.18.18,0,0,1,.08-.05c-.11.06-.13-.15-.28.09,0-.18-.24-.05-.21-.23-.24.2,0-.24-.34.09.29-.35.08-.41-.11-.29.1-.09,0-.15.18-.28-.07,0-.18,0-.32.16.22-.51-.5.16-.14-.44a2.63,2.63,0,0,1-.85,0c.28-.35.22.11.5-.27-.28,0-.61.26-.7.05s.14-.14.2-.19c-.28,0-.3-.27-.59-.17a.2.2,0,0,1,.1-.08s0-.1-.15.07l.06,0c-.12.28-.47.42-.57.55.39-.44-.06-.22.45-.78a.59.59,0,0,0-.2.2c0-.05,0-.13.15-.23-.17,0-.25.22-.35.15.06-.08.1-.1.18-.19-.16.13-.32.25-.35.13s.07-.12.09-.1c-.15-.07-.52.27-.57,0,.29-.33,0-.16.23-.47l-.15,0-.07.17c-.07,0-.28.13-.27,0l.13-.09-.17,0v.17c-.18.11-.25.4-.29.25s-.07,0,0-.26h0c-.1.07-.2.16-.2,0s.23-.34.26-.41c-.2.24-.22,0-.44.22a1.54,1.54,0,0,0,.18-.26l-.16.19c0-.09,0-.12.11-.25-.08-.1-.22.42-.23.17,0,0,0,0,.07-.06-.06-.17-.32,0-.36-.19.16-.34.14,0,.27-.31-.2,0-.57.18-.69,0v.05c-.29.44,0-.3-.19-.13a1.13,1.13,0,0,0,.14-.19c-.07-.14-.29,0-.54,0l.09-.11c0-.14-.14-.16-.18-.25-.09.11-.11.07-.19.25.16-.8-.61.15-.5-.53,0,0,.12-.07.1-.08l-.23,0a1.21,1.21,0,0,0-.09.32c-.08.11-.18.18-.22.16.15-.1.17-.33.2-.47,0,.07-.07.13-.1.2.1-.41-.23.41-.22.1l.06-.1c-.07,0-.19.15-.22.1.1-.25.1-.09.21-.29-.08,0-.36.39-.3.12.06,0,.1,0,.16-.08.08-.32,0-.25,0-.32h0l-.06-.19v.09c-.4.59-.23,0-.55.39.3-.33.13-.21.27-.48a.59.59,0,0,1,0-.27c-.16.19,0-.22-.24.07,0-.09,0,0,.07-.26-.11,0-.06.17-.12.27-.25.25-.09-.48-.44-.14-.21.11-.37.4-.56.49a.63.63,0,0,1,.18-.31c0-.16-.08-.16-.19-.08a.67.67,0,0,0,.09-.26c-.06,0-.18.31-.19.15a3.7,3.7,0,0,1,.21-.33c-.1.05-.23.19-.33.24a.84.84,0,0,1,.21-.31.56.56,0,0,0-.38.3v.11s.08-.22.12-.26.05.13,0,.22l-.07,0c-.18.54.21,0,.29.06l-.2.37.23-.28c0,.11-.11.33-.18.36,0,.22.12-.11.08.13a.09.09,0,0,1,0,.06l.12-.08c-.05.07-.11.27-.13.2,0,.27.31-.21.22.1l0,0c.22-.06.14-.27.41-.54l-.24.72.15-.27s0,.05,0,.16c.15-.16,0-.13.17-.29,0,.29.26,0,.07.43.13-.2,0-.2.16-.3-.2.48.13,0,.1.21s-.14.07-.18.32c.24-.39.09.16.19.11.16-.33.19-.08.34-.14-.06.11.1.27.13.44l0,0c.18-.32.24-.21.34-.24a1,1,0,0,1-.23.33l.06,0a.36.36,0,0,1,.18-.16l-.14.24c.09,0,.31-.2.34,0,.12-.22.24-.67.44-.76a1.89,1.89,0,0,1-.22.37s.08-.09.08,0l-.16.18c0,.11.12-.16.15-.12s0,.14-.12.27,0-.09-.05,0a.48.48,0,0,1,0,.33c0-.1.12-.23.17-.24s-.09.23-.09.34c.09-.11.07.05.22-.21,0,0,0,.14-.07.21.1-.09.22.08.32-.22v0h0c.29-.18.21.3.41.27l-.05.09c.14,0,.22.05.39-.1,0,0,0,.19-.11.28.1,0,.17-.11.18.08-.16.11-.06.14-.13.07,0,.12,0,.27.2.09-.16.2-.11.31,0,.27l0-.19c.06,0,.09,0,.11.08l-.19.27c0,.44.66-.41.42.24.17-.17,0-.19.18-.4.06.09-.12.54-.1.56,0,.22.36-.35.39-.18.05-.1.21-.38.35-.42s-.17.48-.27.53,0,0,0-.08a.24.24,0,0,0-.15.17l.07-.09c0,.12.08.18,0,.33a.22.22,0,0,0,.13-.23c0,.21.14.1.18.26,0-.06.08-.19.09-.18.06.22.19-.14.32-.12,0,.19-.26.35-.08.29,0,.14-.17.26-.24.33.21-.13.07.23.1.3l-.1,0a.08.08,0,0,1,.1,0l.11-.21c0,.05,0,.07,0,.15.12-.11.2-.34.38-.48,0,.13.18,0,0,.24-.06-.17-.17.27-.3.24,0,0,.06,0,.07.06a.17.17,0,0,1-.06.06c-.06.3.25-.26.36-.18-.12.14-.17.3-.13.28s.15-.26.27-.34c0,.16.13,0,.16,0v-.08c.12-.13.14-.09.22-.1-.08.12-.1.05-.12.11.24-.22-.06.35.14.23,0,.13-.2.28-.21.36.22-.12-.06.27.14.18s.08-.17.28-.31l-.24,0,.3-.21s-.18.05-.19,0a.51.51,0,0,0,.22-.26c-.15.34.25-.07.17.17l-.35.48c-.06.28.36-.11.41.12l0-.12c.16-.17.1,0,.2,0a1.2,1.2,0,0,0-.19.34c.09-.12.09.09.34-.22l-.1.26c0,.17.47-.35.54-.21-.17.14-.21.29-.38.35,0,0,.05.09.13,0-.06.11.27-.13.18,0,.07-.06.2-.21.23-.17a.37.37,0,0,1-.06.08c.06-.08.15-.06.25-.25-.28.56.33.21.08.69a.75.75,0,0,1,.32.09s-.06.07-.06,0c0,.21.43-.39.4-.14s-.17.08-.22.2c-.41.51.19,0,0,.39l-.05,0c-.09.21.3-.07.35,0l-.06.07a.89.89,0,0,1,.61-.17c-.2.17-.13.07-.29.28.06,0,.27-.32.4-.31a1.84,1.84,0,0,1-.28.48l-.08-.06c-.21.3.09.08.09.16l-.11.11c.14.06.41-.23.5-.1l.07-.1c.33-.22-.1.21.16.06l-.25.31a1.53,1.53,0,0,1,.53-.13,2.48,2.48,0,0,1-.61.27s.16.11.31,0c0,0-.13.07-.1,0q.41-.27.51-.15c-.54.53.07.35-.29.83.34-.07.18.35.37.48.37-.47.06,0,.49-.4.07,0,.07,0,.05.07l-.16.37c-.1.15-.13.05-.22.15s-.16.21-.23.38c.15-.16.26-.19.24-.08l.14-.26c.35-.11-.28.45.07.35l-.18.09c.14,0,.2.23.62,0,0,.06-.15.18-.21.18.08.2.69,0,.56.3l-.12.09s.25-.13.17,0-.13.09-.12.1.26-.09.23,0l-.16.08c0,.27.51,0,.69,0a.82.82,0,0,0-.36.59l-.05,0c.1.21.52.06.79.12-.29.4.12.47,0,.8a.72.72,0,0,1,.33-.2c0,.09.33-.08,0,.16v0c-.29.27-.15.28-.11.35l.43-.3c-.49.61.55.27.06.76.13,0,.17,0,.3,0l-.23.16a.36.36,0,0,0,.18.33l-.18.09c0,.08.74-.37.8-.3l-.33.26c.1.14-.12.48.29.41,0,0-.16.09-.19.08s-.07.4.4.07c-.32.2.06.16.25.15l-.24.14c.34-.13.42-.18.56-.14,0,0-.17.14-.13.07-.08.15.26-.08.19.08l-.18.06c0,.09.11,0,.31,0s0,.18-.18.32c.14-.07.34-.13.3,0a.38.38,0,0,1-.16.08c-.09.22.39,0,.2.24a.64.64,0,0,0-.13.1c-.06-.1-.09-.19-.07-.19-.22.13-.21.24-.55.35.2,0,.63-.14.57,0l-.07.06h0s0,0,.07,0,0,.08,0,.11c-.18.11-.05.14,0,.19.24-.14.23-.07.4-.23,0,0,0,0-.06,0h0l-.08-.09c.15,0,.27-.07.16.06l.43-.17c-.31.25-.43.46-.64.59.21.05.26.24.76.07.08,0-.11.11-.17.16s-.07,0-.14,0c.16,0,.16.18.5,0-.1.17-.33.11-.21.21l-.11,0c-.4.52,1.05,0,.51.59a.43.43,0,0,1,.1-.09c-.14.46.61.51.28,1.05-.06.13.16,0,.35,0l-.27.15.36-.06c.3,0-.57.54,0,.51l.17-.11c0,.08.2.15,0,.23,0,0,.2-.06.12,0l-.15.07.32,0c-.06.16-.59.23-.55.41a1.09,1.09,0,0,0,.59-.07s.07-.1.21-.16l.1,0A2.86,2.86,0,0,0,56,50.5h-.31l.2-.12,0,.08c.17-.13,0-.09-.15-.07a.7.7,0,0,0,.21-.15l-.45.08c.16-.08.35-.1.42-.21-.21,0-.36.21-.52.19.18-.14.34-.19.15-.18a.6.6,0,0,1,.24-.07c-.15,0-.12-.11-.36,0,.22-.15-.13-.14.27-.32-.1,0-.36.06-.39,0,.51-.14-.06-.19.47-.4-.46.13-.3-.15-.59-.14,0,0,.11,0,.09,0s.13-.16.19-.24a2.14,2.14,0,0,1-.73.15c.31-.24.44-.15.76-.33-.29.14-.35,0-.58.14a1.37,1.37,0,0,1,.35-.27c-.44.21-.1,0-.39.07.17-.19.4-.23.22-.26A.46.46,0,0,1,55.49,48.33Zm-1.92-1.76h0l0,0Zm-.11-.18a.19.19,0,0,0,0,.08c-.07.06-.16.1-.17.08S53.4,46.46,53.46,46.39ZM52,47.74c-.05,0,0,0,0-.07l.06,0h0Z"/><path class="cls-5" d="M52.34,47.6h0l0,0-.08,0Z"/><path class="cls-5" d="M40.07,35h0s0,0,0,0Z"/><polygon class="cls-5" points="52.35 43.71 52.29 43.75 52.35 43.73 52.35 43.71"/><path class="cls-5" d="M39.55,33.59a.14.14,0,0,0,0-.07S39.56,33.57,39.55,33.59Z"/><path class="cls-5" d="M39.14,33.32V33.2C39.13,33.26,39.14,33.3,39.14,33.32Z"/><path class="cls-5" d="M38.87,33l-.06.11h0Z"/><path class="cls-5" d="M44.18,35.8h0C44.26,35.77,44.23,35.78,44.18,35.8Z"/><path class="cls-5" d="M42.34,35.35a.49.49,0,0,1,.12-.08S42.43,35.21,42.34,35.35Z"/><polygon class="cls-5" points="45.98 36.75 45.98 36.75 45.99 36.76 45.98 36.75"/><path class="cls-5" d="M42.53,35.31c0-.06,0-.06-.07,0S42.48,35.34,42.53,35.31Z"/><path class="cls-5" d="M37.44,32.24v0l0,.05Z"/><path class="cls-5" d="M37.41,32.27l0,0Z"/><path class="cls-5" d="M37.31,32.34l.07-.05S37.35,32.27,37.31,32.34Z"/><path class="cls-5" d="M37.85,32.56l0-.09Z"/><path class="cls-5" d="M38,32.59s0-.23-.07-.19l0,.07C38,32.34,37.89,32.74,38,32.59Z"/><path class="cls-5" d="M38,34,38,33.87c0,.11-.07.25-.13.25C37.83,34.48,37.91,33.89,38,34Z"/><path class="cls-5" d="M38.3,34.3c-.08,0-.06.14-.09.2S38.31,34.41,38.3,34.3Z"/><path class="cls-5" d="M40.7,35.58l-.14.22C40.62,35.79,40.61,35.72,40.7,35.58Z"/><polygon class="cls-5" points="41.83 34.72 41.87 34.56 41.73 34.75 41.83 34.72"/><polygon class="cls-5" points="41.14 36.44 41.1 36.46 41.22 36.42 41.14 36.44"/><path class="cls-5" d="M44.83,39l.19-.25C45,38.77,44.73,39,44.83,39Z"/><path class="cls-5" d="M46.5,40.06c-.09.13-.12.24,0,.15S46.55,40,46.5,40.06Z"/><polygon class="cls-5" points="49.99 44.76 49.88 44.8 50 44.8 49.99 44.76"/></g></g></g></svg>