<svg id="Layer_1" data-name="Layer 1" xmlns="http://www.w3.org/2000/svg" viewBox="0 0 17.49 696.08"><defs><style>.cls-1{fill:#e9e9e9;}</style></defs><title>Artboard 1</title><path class="cls-1" d="M7.15,14c-.05,2.1-.06,5.72-.06,9.15C7.13,20.51,7.15,17.7,7.15,14Z"/><path class="cls-1" d="M7.08,23.21v0Z"/><path class="cls-1" d="M9.24,688v0Z"/><path class="cls-1" d="M7,189.17l.08.53c0,8.13-.1,2.36-.08,9.88.12,2.94,0,12.48,0,15.08,0-.06,0,3.62,0,3.39.07,1.13,0,3.78,0,6.1,0,.85,0-.61,0-1.24l0,5.31c0,2.08,0,2.6-.06.34,0,13.89-.08,80.6-.05,95.57.05-1.93,0-6.55.09-8.3,0,3.95,0,5.82,0,7.57-.11,1.51,0,8.69-.14,11.69L7,336.22l0,2c.07,17.4,0,4,0,19.4,0,8.93.1,13.18.06,18.14,0-.73,0-2.7.06-.39-.06.39,0,6.16,0,7.28,0,2.27,0,9.61.08,7.13,0,1.24-.06,7.79-.09,3.89,0,2.21,0,4.35,0,5.94l0-2.84c0,7.47-.05,11.53,0,16.39l0-2.76c0,4.46,0,8.19-.07,9.95l0-4.58c0,7.39,0,11.86,0,18v-2.2c.07,7.86.13,48.95.22,56.19l.06-3.34,0,6.23c0-.74-.19-3-.17-3.62,0,13.33,0,82.71,0,95,0,5-.09.89-.1.84,0,6.05.06,2.61.06,7.75,0,1.4,0-.29,0-1.08,0,2.25,0,4.34,0,4.51a19.46,19.46,0,0,1,.14-2.81v6.61l0-.29c0,1.47.12,3.74.09,10.24,0,11,0,22.87,0,33.89,0-.17,0-2.49-.06-4.81,0,1.48,0,3.73,0,5.1.05-2.67,0,4.62.05,2.54.11,8.07,0,18.52.08,25.65.1.62,1.68,15.26,1.79,15.26,0,2.21,0,4.41,0,5.09,0-.57,0-4.92,0-7.23l-.06-.4c0-5.32,0-1.25,0-6.44.06-.28.07,4.5.07,8.71,0-3.79,0-7.56,0-9.11,0-3.56.06.4.08-3.89,0-3-.06-7.06,0-10.57v.06c.05-8.53-.08-13,0-20.85l0,.84c0-2.75,0-8.18,0-13.15,0,1.42-.05,2.65-.05-.34,0-5.71,0-9.61,0-13.79l0-4c0-19.89-.06-98.48-.07-118.47v.78c0-30.45,0-93-.09-124.43,0-4.87,0-11.58.05-16.66,0,2.82-.06,1.85-.06-.35,0-15.47,0-1-.05-16.69,0-18,0-87,.05-103C9,223,9.06,212.25,9,203.84l0,.84c0-9,0-60.21,0-70.72v1.41c0-9.16,0-7.91.06-15.13-.08,1-.12-6.9-.13-9.9l0,.12c0-4.52-.09-14.75-.1-22.2l0,.29c0-6.22,0-17.91,0-22.38,0-10.23.1-26,0-39.66l.13-8.83V16.39S7.52,2.17,7.19,20.22l0-.28V23.5c0,4.29,0,6.27,0,6V23.61c0,4.3,0,1.3-.07-.34,0,1.79,0,3.54,0,5,0,.84,0-.63,0-1.3,0,2.32.06,5.54,0,8.36,0,4.4-.08.28-.08,5.42C7,67.83,7,94.1,7,121.51c0,.62,0-.12,0-.91,0,8.25,0,15.59,0,23.11,0,2.08-.05,2.65-.06,3.27C7,145.74,7,188.5,7,189.17Z"/><path class="cls-1" d="M12.54,14.31c.11,0,0-.13.07-.06S12.58,14.36,12.54,14.31Z"/><path class="cls-1" d="M12.62,13.65c-.5-.12-.36-.69-.75-.9,0,0,.19-.09.1-.15-.43-.17-.53-.75-.53-1.24h.06c0-.09-.22-.09-.23-.18s.06,0,.1,0c-.12,0-.12-.12-.22-.11s.11-.09.13-.16l-.14,0c-.35,0-.14-.3-.37-.39,0,0,.06,0,.08,0-.31-.18-.46-.53-.68-.8a.38.38,0,0,0,.17-.08c-.13.05-.21,0-.28-.09.11-.11-.19-.08-.17-.21h0c-.17,0,0-.14-.17-.11l.08-.1c-.2.06,0-.15-.08-.16l0,0c-.07,0,0-.11-.05-.14l0,0c-.11-.09,0-.21-.19-.13.09-.11.11.08.24-.07A3.85,3.85,0,0,1,9,7.46a.48.48,0,0,1,.08-.16c-.05,0-.1-.13-.18-.11s0-.08,0-.1-.16.06-.15-.07a.19.19,0,0,0,.12-.1c-.12,0-.15-.06-.21-.09s0,0,.07-.07c-.13.06-.07-.19-.15-.16l.06-.09c0-.26-.12.21-.14,0,0,0,0-.07.06-.12-.12.13-.17-.08-.23-.08V6.28c-.06,0-.1-.25-.16-.21,0-.12,0-.43,0-.47,0,.23,0,.17-.06.2a1.44,1.44,0,0,0,0,.3S8,6.1,8,6.27c0-.17-.06-.37,0-.48l0-.14c0-.15,0,0,0-.18,0,.07-.08.33-.11.32,0,.28,0,.67,0,.8,0-.16-.09-.27-.08-.35a5.63,5.63,0,0,0,.06.63s-.07-.18-.07-.07a.53.53,0,0,1,0,.17s0,.16-.14,0,0-.1,0-.12,0,.13,0,.19l0,0s0,.19.08.23-.08-.08,0-.08a.27.27,0,0,1,0,.24l-.09-.11c.06.19.1.22.09.37s-.12-.11-.07-.11c-.18.09,0,.37-.22.41,0,0,.11,0,.09,0s-.16,0-.14.07,0,.06,0,.12,0,0,0,0a.55.55,0,0,1-.19.5s.12.17.09.21L7,8.78c-.08,0,0,.12-.14.08.08.14,0-.34.08-.19-.09,0,.09.22,0,.13,0,.07,0,.2-.09.21,0,0-.11-.13-.13-.07s0,.05,0,.15v.07c.1.06-.06.08.07.1-.09,0,0,.17-.18.07l-.12-.08c0,.05.1.14.14.21l-.07,0c.19.11-.07.09.06.22-.12.05-.13.22-.27.2,0,.1.06.2,0,.25s0,0,0-.07,0,.05,0,.11-.17,0-.26.06.14.13.2.17c-.23,0,0,.26-.19.24,0,0,0-.15-.12-.12-.23,0,.07.2-.07.25l.17.06c-.12,0,0,.2-.14.1,0,.06-.12.09,0,.16-.22.09-.13.44-.47.39,0,0,0,.08,0,.11s0-.09,0-.07,0,.05.05.07-.09.06-.2-.06c-.15.07.21.26.07.37-.06,0-.09,0-.1,0l.07.14c-.08.07-.18,0-.29-.09s0,.12,0,.19l-.17,0c.12,0,0,.08.06.12l0,0s0,.06,0,.09a.16.16,0,0,0,.16,0c0,.05,0,.08,0,.14s-.12,0-.16.08.07.1.06.11,0,.07-.11,0,.08,0,0-.05-.15,0-.11.05.22.1.1.15,0-.06-.08-.1-.07,0-.1,0l.1.05,0,0c.1.07,0,.08.12.13s-.09,0-.12,0h0c-.08,0-.05.06,0,.08h0s0,0,0,.05c-.11,0-.5,0-.36.08,0,0,.22,0,.32,0-.13.08.09,0-.18.19l.14,0c-.08.08,0,.05-.07.15l-.11.09a2.11,2.11,0,0,0-.27.18c.18-.1-.12.1.15-.07a3,3,0,0,0,.26-.19c.13,0,.17,0,.09,0A.63.63,0,0,1,5,13.29c-.19.16-.17.19-.08.13l.1-.1-.08.1s.21-.2.14-.11L5,13.42c.11-.08.23-.22.2-.14l-.07.15a.38.38,0,0,0,.09-.15c0,.09,0,.1,0,.22.11-.15.14-.23.2-.26a1.21,1.21,0,0,1,.42,0v.08c.07.06,0-.13.09-.08s.05.15,0,.24c.1.07.12-.13.19-.16s0,.06,0-.07.14.08.15-.07a.36.36,0,0,1,0,.23l.07-.07c.07.17-.17.3-.1.51l.06,0c0,.15-.15.17,0,.22s.12-.28.06-.35c.13,0,.06-.34.2-.33s-.11,0-.09.14.13-.07.19,0,0-.21,0-.23,0,.13.06.15.1-.15,0-.21.11.06.16-.09c0,.13-.1.31,0,.38,0-.13.13-.18.07-.37,0,0,0,.14,0,.22s.15-.24.17,0l0-.13.08.14s.17-.18.16,0c0,0,.14,0,.1-.15s-.09.1-.13-.08c0,.15.11,0,.15-.07v.07s.08,0,.1-.09a.1.1,0,0,0,0,.11l0-.11c.1-.06,0,.2.13.17l-.08.09s0,.09.1,0L7.89,13c.06,0,0,.12.08,0l-.07.13s0,.18.13.18.13-.19.05-.25.09.06.06.14,0-.12.06-.18.13.17.19.27l-.08.18h0c-.06.15,0,.11,0,.26s.08,0,.12-.06c-.11-.24.11-.33.08-.55.15-.06.09.53.24.19,0-.06,0-.23,0-.17.09,0,.06-.22.17-.13-.08.1.08.23,0,.36,0-.07-.06-.06-.08,0s0,.22.08.22.14,0,.12-.14-.08,0,0-.12.14.15.18-.07c-.07,0-.09-.12-.09-.2L9.15,13l0,.08c.13.06,0-.15.17-.13l.06.17c0,.14-.19-.07-.17.16.09,0,.12-.1.19,0s0,0-.05,0,.05.32.17.14,0-.09,0-.17.17-.12.26-.13c0,.17.15,0,.06.19-.05-.1-.24-.09-.29.07s-.1,0-.13.18c.11,0,.1.2.12.33s.06-.05.08-.07,0-.12,0-.24a.28.28,0,0,0,.3-.16c0,.06,0,.19,0,.2a.79.79,0,0,1,.43,0c-.09-.2.15-.05.09-.22a.25.25,0,0,1-.1-.27c.05,0,0,.08,0,.13.06-.11.09.17.15,0-.13.06,0,.24-.05.4.09-.09,0,.11.09.11a.73.73,0,0,1,.31-.19c.13.15.33,0,.44,0s0,.25.09.28-.06-.19.06-.11v0s.21.12.24-.13l0,.19s0,0,.05-.05,0,.12,0,.16.14,0,.22,0l0-.11c.13-.09.22,0,.35,0V14l.07-.07c0,.11,0,.18.09.09l-.19.27c-.06-.07,0-.14,0-.25s-.15-.06-.17.05,0,0,.09-.06c0,.16-.06.15-.09.25s.06,0,.06,0-.09.08-.17.09,0-.1,0-.14c0,.13-.08.18-.17.14s-.18.1-.29.06a.65.65,0,0,1,.17-.31c-.07-.07-.08,0-.15-.06,0,.1-.06.26-.15.32v-.1c-.08,0-.08.2-.18.17a2.49,2.49,0,0,0-.5-.06v-.1c-.08.21-.25.08-.36.17-.17-.09-.38.1-.46-.07a2.5,2.5,0,0,1-.9.11l.05-.15c-.05.11,0-.08-.09-.06s-.08.15-.12.24c-.14-.11-.32,0-.45.12v-.1c-.13.19-.28,0-.44,0s0-.14-.1-.13c-.08.17-.13.16-.25.26a.62.62,0,0,1-.34-.11c-.35.23-.7.09-1.06.23l0-.12a.84.84,0,0,1-.55.12,3.41,3.41,0,0,0-.84,0l.13-.2c-.11-.07-.34.05-.39.19-.11-.06-.48.1-.44-.06-.12,0-.27.09-.44.12a1.49,1.49,0,0,0-.74,0h.06c.1-.05.22-.13.17-.15s-.31-.05-.59.19a.19.19,0,0,0-.09,0c.19-.29.13-.51.49-.85-.11.06-.09,0-.13,0,.14-.28.46-.58.43-.77.06,0,.1.05.16,0s-.1,0-.1-.07a1.69,1.69,0,0,1,.36-.65l.22-.28A.92.92,0,0,0,3.86,12a5.21,5.21,0,0,1,.55-1.22l0,0c-.1-.22.32-.21.13-.44,0,0,.08-.11.15,0-.07-.16.26-.22.19-.44,0,0,0,0,0,0,.17-.09.11-.29.28-.4a.14.14,0,0,0,0,.09c.11,0-.11-.24.12-.16,0,0-.1-.08-.1-.06a3.28,3.28,0,0,0,.46-1.1c.25-.19.35.17.3-.11,0,0-.07-.05,0,0s.29,0,.21-.11,0-.08-.13-.12c.17-.11.3-.08.27-.25l.06,0c-.12-.24.07-.35-.08-.59L8.11,3.32,8.5,4c.39.79.78,1.5,1.18,2.24L10,6.8l.16.31a5.09,5.09,0,0,1,.25.6c-.08.28-.07.29.11.45,0,0-.05,0-.07,0,.15-.06.09.14.24.08a7.54,7.54,0,0,0,.46.83s-.17,0-.13.06h.12l0,0s.14,0,.16,0a19.76,19.76,0,0,1,1,2.25,1.54,1.54,0,0,0,.34.59,3.14,3.14,0,0,0,.64,1.72S12.82,13.83,12.62,13.65Z"/><path class="cls-1" d="M12.42,14.33c0-.09-.1-.13,0-.24A1,1,0,0,1,12.42,14.33Z"/><path class="cls-1" d="M10.48,13.48s0,0,0-.05.05-.07.07,0S10.49,13.45,10.48,13.48Z"/><path class="cls-1" d="M10,13.43c0-.07.11-.13.17-.14Z"/><path class="cls-1" d="M9.53,13.13c0-.06,0-.09,0-.09S9.54,13.1,9.53,13.13Z"/><path class="cls-1" d="M9.49,13.3s-.05,0-.07-.08S9.51,13.18,9.49,13.3Z"/><path class="cls-1" d="M8.49,13.09s-.07.06-.1,0S8.51,13,8.49,13.09Z"/><path class="cls-1" d="M8,13.2s0,0,0,0,0-.09,0-.1Z"/><polygon class="cls-1" points="5.99 10.71 6 10.78 5.94 10.73 5.99 10.71"/><path class="cls-1" d="M7.68,7.52s.06,0,.07,0S7.69,7.49,7.68,7.52Z"/><polygon class="cls-1" points="8.17 6.03 8.16 6.03 8.17 5.73 8.17 6.03"/><path class="cls-1" d="M9,7.23s-.18-.07-.07-.05S9,7.26,9,7.23Z"/><path class="cls-1" d="M5.9,13.09c-.48-.33.09-.16-.2-.4,0,0,.28.14.22.09-.36-.28-.06-.28.29-.22l.08,0c.06,0-.19-.14-.14-.14l.14.07c-.15-.08,0-.07-.17-.13l.27.11-.18-.1c-.41-.25.07-.06-.13-.21l.11.06C6,12.08,6.05,12,6,11.9l.25.13A.58.58,0,0,1,6,11.84c.2.09-.16-.12,0-.09l0,0c-.2-.12.13,0-.11-.11l.16.07c-.27-.14.15,0,0,0l-.06,0c-.06,0,.09,0,0,0h0c-.06-.06.1,0-.11-.11.17.08.06.07.32.18-.18-.21-.08-.28,0-.38l.2.08s0-.06-.13-.12l.13,0c.09,0-.23-.14-.12-.11a.75.75,0,0,0,.2.11c-.16-.1-.12-.11-.16-.15a.54.54,0,0,0,.12.07c-.18-.12.06,0-.06-.1l.13.07c.16.05-.26-.14-.16-.12l.14.08c-.22-.14-.12-.14-.19-.2l.05,0s.07,0,0-.1.3.15.27.1c-.25-.12-.08-.1-.37-.22,0,0,.16,0,.08-.05.09.06.31.14.33.17l.15.06c.1.05,0,0,.09.06s-.09-.1,0-.08a3.84,3.84,0,0,1-.44-.3c.09.06.28.13.32.16l-.46-.28s.2.1.14,0l-.16-.09s0-.07.21.05,0,0,.14.07-.08-.06-.08-.08l0,0s-.09-.09-.23-.15.15.07.07.05-.17-.12-.16-.14a1.09,1.09,0,0,0,.17.1,1.52,1.52,0,0,1-.3-.25c-.11,0,.21.12.15.09.17.05-.2-.18.05-.09l-.13-.07s.19.08.13,0c.1.05,0,0-.05-.06s.05,0,.06,0-.2-.2,0-.16a1,1,0,0,1-.22-.15l.16.08c.09,0,0,0,.13,0-.18-.11.12.15,0,.05.13.06-.23-.15,0,0,0,0-.16-.12,0-.07a.63.63,0,0,0,.2.1s-.07,0-.11-.08l-.06-.05c-.15-.07,0,0-.14-.08.13.06-.06-.07.19.05l.19.1-.28-.17.09,0c-.29-.15,0,0-.18-.14.11,0,0,0,.22,0-.08-.06-.18-.13-.11-.12l.1.06c.09,0,0,0,0,0l.3.1a2.71,2.71,0,0,0-.34-.18c.3.13-.17-.15.11,0a.68.68,0,0,0,.21.12c.3.13-.2-.14,0-.09l-.24-.12c.15.07-.13-.1.12,0-.08-.05.09,0-.14-.1.22.06-.08-.16.36,0,0,0,0,0-.11-.08s.09.06,0,0l-.1-.06a1.18,1.18,0,0,1,.28.13c.16,0-.4-.23-.28-.22s.13.07.12,0l-.16-.1a1.44,1.44,0,0,1,.4.18s0,0-.13-.11L7,9.24c-.16-.06-.1-.06-.14-.08l0,0c.07,0,0,0,0,0a.62.62,0,0,0-.19-.06A.91.91,0,0,1,6.6,9c.16.09.13,0,.15,0S6.61,9,6.62,9s0,0,.13,0-.08,0,0,0,.21.1.11,0-.32-.15-.21-.12L6.8,9l.1,0L6.75,9l.07,0c-.15-.08,0-.05-.21-.15l.14,0h0c.09,0,0,0,0-.07l0,0s0,0-.09-.08c.13,0,.57.27.39.16a1.52,1.52,0,0,0-.36-.2c.12,0-.11-.14.14-.05a.49.49,0,0,1-.13-.08c.08,0-.13-.18.18-.06a1.67,1.67,0,0,0,.23.11C7,8.57,7.25,8.7,7,8.58a1.68,1.68,0,0,0-.26-.11c-.06-.06,0-.1.09-.05l-.14-.08c.21.11.26.11.19.05l-.13-.06.14.05s-.28-.14-.14-.09l.14.07c-.1-.07-.27-.19-.15-.15L7,8.3a.79.79,0,0,0-.19-.11,1,1,0,0,1,.32.1C6.71,8,6.73,8,6.78,7.92l.1,0c.1,0-.17-.09-.09-.07s.21.09.32.16S7,8,6.91,7.91s.08.06-.08,0,.11,0-.08-.08l.3.15L7,7.89c.23.1.39.24.68.37l0,0c.21.09.22.15.3.15a5.2,5.2,0,0,0-.46-.25c0-.05-.46-.24-.43-.26s0,0,.18.11-.07-.07,0-.06a1.19,1.19,0,0,1-.3-.16c.1,0,.18.11.21.1a1.54,1.54,0,0,0-.27-.15c-.26-.13.08,0-.12-.1.19.09.41.23.51.26-.17-.09-.22-.15-.48-.27L7,7.75c.11,0-.3-.19,0,0L6.9,7.63l.21.08s-.23-.15,0,0c0,0,0,0-.19-.12s.13.09-.13,0c.21.09,0,0-.08-.08l.11,0s0,0-.12-.08l.15.07-.15-.08c-.07-.07.28.13.24.08l.12.08s.12,0,.08,0l-.42-.23c-.06,0,.17.07,0,0l.17.1s.24.11.25.09a1.48,1.48,0,0,0-.33-.18.45.45,0,0,1,.19.08s-.15-.07-.23-.13l.39.14.23.14h0a2.85,2.85,0,0,0,.35.17s0,0-.08-.06c-.34-.14-.43-.25-.73-.39-.07-.07.73.34.28.07-.08,0-.3-.16-.22-.1s-.29-.16-.16-.12.31.13.47.25c-.09,0-.08,0,0,0s.3.15.31.13,0,0-.18-.12,0,0-.16-.07.21.08-.08-.08a1.2,1.2,0,0,1-.28-.12l-.06,0L7,7.15c.1,0-.2-.11-.16-.12l.23.09c.19.11-.1,0,.21.15,0,0-.13-.09,0-.07l0,0s.43.2.21.06a1.61,1.61,0,0,0-.23-.12S7.11,7.06,7.1,7c.23.11,0,0,.27.11-.14-.06-.15,0,.06.11s0,0,.22.15a1.9,1.9,0,0,1,.46.2s0-.05-.08-.07L7.7,7.39c.06,0,0-.08-.18-.17a1.51,1.51,0,0,1,.26.13s0-.07.07-.08c-.28-.11,0-.06-.27-.16A2.15,2.15,0,0,1,7.19,7,.83.83,0,0,1,7.37,7c-.14-.09.24.1,0,0a3.87,3.87,0,0,0,.53.28c-.11-.08.15.07.16,0a.74.74,0,0,1-.22-.19c.21.07,0-.07,0-.1s.35.17.4.18S8,7.1,8.15,7.13l0,0s.18,0-.15-.14l.25.13-.06,0a1.12,1.12,0,0,1,.22.11c.18.07,0,0,0-.07l-.16-.06c-.11-.09.05,0,0-.09l.15.08L8.37,7c.14.07.24.1.13,0l.34.22c-.09,0-.17-.1-.32-.17s-.11,0,0,.06,0,0-.07,0a2.09,2.09,0,0,1,.33.19s.06,0,0,0c.09.06.1.08.1.1a1.07,1.07,0,0,0-.19-.09c.18.09.23.13.17.13-.22-.09.12.1,0,.1a4.46,4.46,0,0,1-.39-.24c-.1,0,0,0-.1,0,.13.08.34.19.41.25l-.13-.06c.06,0,.26.15.21.15a.22.22,0,0,0-.14.07l-.14-.07c.29.16.09.11.2.19-.15,0,.09.15-.15,0,.07.12.14.23.06.27L8.59,8c.14.08-.12,0-.1,0a1.35,1.35,0,0,1,.32.19c-.17,0,0,.07.1.17l-.13-.07c.24.16,0,.08-.06.09L8.54,8.3a1.64,1.64,0,0,1,.31.23s-.08,0-.17,0c.27.23,0,.21.18.38L8.7,8.83c.31.25,0,.18.09.33L8.52,9c-.09,0,.05.08.25.17-.1,0,.11.12-.12,0-.07,0,.11.09.14.12-.13,0-.11,0-.08.08h0l-.19-.09c.07,0-.1,0,.23.16-.21-.05.11.18-.17.09.09,0,.1.06.16.09s-.21,0-.08.09c0,0-.14-.08-.16-.07l.16.09c.14.14-.23,0-.21.11s0,.23,0,.34l-.06,0c.23.15-.3-.06.07.15a.45.45,0,0,1-.17-.05c.17.11-.2,0,0,.13,0,0,0,0,0,0s0,.09-.13.06L8,10.39c-.13-.05.26.17-.06,0l.15.07c-.16,0,0,.21,0,.33-.22,0-.53-.26-.32-.1-.06,0,.12.07.05,0s-.36-.15-.2-.06.1.07.22.13c-.15,0-.32-.11-.19,0l-.1-.05c.27.18.09.14.41.34,0,.22.06.49,0,.69s-.1.41-.37.5c-.29-.09-.28-.08-.19,0l-.1-.05c.22.11,0,.05.21.16-.07,0,0,.14-.08.21s-.19-.12-.18-.1l.13.08-.06,0a.89.89,0,0,0,.2.11c.11.27-.42.23-.45.43-.12,0-.06.09,0,.16-.36,0-.66,0-.52.22A4.21,4.21,0,0,1,5.9,13.09Z"/><path class="cls-1" d="M9,7.27a1.81,1.81,0,0,1-.33-.15Z"/><path class="cls-1" d="M7.64,7.12l-.07,0s-.09-.06,0,0S7.59,7.09,7.64,7.12Z"/><path class="cls-1" d="M7.52,7.19a.45.45,0,0,1-.17-.13Z"/><path class="cls-1" d="M7.07,7.09C7,7.05,6.94,7,6.94,7A.54.54,0,0,1,7.07,7.09Z"/><path class="cls-1" d="M7.29,7.2l-.12,0C7.25,7.21,7.12,7.12,7.29,7.2Z"/><path class="cls-1" d="M6.9,7.27s.08.07,0,0C6.94,7.32,6.75,7.2,6.9,7.27Z"/><path class="cls-1" d="M7,7.45s0,0,0,0l-.12-.07Z"/><polygon class="cls-1" points="6.49 9.44 6.45 9.41 6.54 9.46 6.49 9.44"/><path class="cls-1" d="M6.1,10.24c.06,0-.1,0-.11-.05S6.11,10.26,6.1,10.24Z"/><polygon class="cls-1" points="6.38 10.9 6.37 10.9 6.57 11 6.38 10.9"/><path class="cls-1" d="M11,9.26s-.17-.09-.06-.06S11,9.29,11,9.26Z"/><path class="cls-1" d="M7.89,14.12c-.46-.35.09-.13-.19-.38,0,0,.27.16.22.1-.35-.29-.06-.25.28-.15l.07.05c.06,0-.18-.15-.13-.15l.14.09c-.15-.09,0-.07-.16-.14l.25.13-.17-.11c-.39-.27.07,0-.13-.21l.11.07c-.21-.2-.13-.24-.18-.36l.24.15C8.06,13.1,8,13.05,8,13c.19.11-.16-.13,0-.08l0,0c-.19-.13.12.05-.11-.1l.16.08c-.26-.17.15.06,0,0l-.06,0s.08,0,0,0l0,0c-.06-.06.09,0-.11-.11.17.09.06.07.31.2-.17-.21-.08-.26,0-.34l.19.09s0-.05-.12-.12l.12.06c.09,0-.22-.15-.11-.11a1,1,0,0,0,.19.12c-.15-.11-.12-.11-.16-.16l.12.08c-.17-.13,0,0-.05-.09l.11.07c.16.07-.24-.15-.14-.12a.74.74,0,0,0,.13.08c-.21-.15-.12-.14-.18-.2l.05,0s.07,0,0-.1.29.18.25.13c-.23-.14-.07-.1-.35-.25,0,0,.16,0,.09,0,.08.06.29.16.31.19l.15.08c.09.06,0,0,.08.06s-.08-.09,0-.08A3.59,3.59,0,0,1,8.47,12c.09.07.27.15.3.18l-.43-.3s.19.11.13.06l-.15-.1s0-.07.2.07,0,0,.13.08-.07-.06-.07-.08l0,0c.05,0-.08-.09-.21-.16s.14.08.06,0-.16-.13-.15-.14l.16.1a1.56,1.56,0,0,1-.28-.25c-.11-.07.2.13.14.1.17.06-.19-.19.05-.08l-.12-.08s.18.1.13.05,0,0-.05-.06.05,0,.05,0-.19-.2,0-.14l-.21-.16.15.09c.09,0,0,0,.12,0-.17-.12.12.15,0,.05.12.07-.22-.17,0-.05,0,0-.16-.13,0-.06,0,0,.19.14.19.12s-.07-.05-.11-.09l-.05-.05c-.14-.08,0,0-.14-.09.12.07,0-.07.19.07l.18.11-.27-.18.09,0c-.29-.17,0,0-.18-.14.11,0,0,0,.22.06-.08-.07-.17-.14-.1-.12a.26.26,0,0,0,.09.06c.09,0,0,0,0,0l.29.13L8.43,11c.29.16-.16-.15.11,0l.2.14c.29.15-.19-.15,0-.09l-.24-.14c.15.08-.12-.11.12,0-.08-.06.09,0-.14-.12.21.09-.07-.15.35.08,0,0,0,0-.11-.08s.09.06,0,0-.07,0-.1-.06a.9.9,0,0,1,.27.14c.15.07-.38-.25-.27-.23s.13.08.12.06l-.15-.11a2.32,2.32,0,0,1,.38.21.41.41,0,0,0-.12-.11l.2.11c-.15-.08-.09-.06-.12-.09l0,0c.07,0,0,0,0,0a.68.68,0,0,0-.18-.08l-.12-.1c.15.09.12,0,.14,0s-.14-.1-.13-.09,0,0,.13.06-.08,0,0,0,.2.12.11,0-.31-.18-.2-.14l.15.11.09,0-.14-.09.07,0c-.15-.09,0-.05-.2-.16l.13.05h0c.09,0,0,0,0-.07l0,0s0,0-.08-.08c.12.05.54.32.37.2a1.75,1.75,0,0,0-.34-.23c.11,0-.11-.14.13,0l-.12-.09c.07,0-.13-.18.17,0a1.16,1.16,0,0,0,.23.14c-.13-.09.13.07-.08-.07l-.25-.13c-.06-.07,0-.1.09,0A.56.56,0,0,1,8.75,10c.21.13.25.13.18.08L8.81,10l.13.07s-.26-.16-.13-.1l.13.07c-.09-.07-.26-.19-.14-.14L9,10a.7.7,0,0,0-.18-.12,1.22,1.22,0,0,1,.31.13c-.36-.28-.35-.34-.29-.37l.09.06c.1,0-.16-.11-.09-.08l.31.18c.11.05-.15-.12-.19-.15s.08.05-.08,0,.11,0-.07-.08l.28.17L9,9.59c.22.12.37.27.65.42l0,0c.21.11.21.16.29.17a4.08,4.08,0,0,0-.44-.28S9,9.6,9.06,9.58s0,0,.17.12-.07-.07,0,0a1.83,1.83,0,0,1-.29-.18c.1,0,.17.12.2.11a1.08,1.08,0,0,0-.26-.16c-.24-.16.08,0-.1-.11a5.55,5.55,0,0,0,.48.29c-.17-.09-.21-.15-.46-.29l.28.16c.11,0-.29-.2,0,0L9,9.35l.19.1s-.21-.17,0,0A.49.49,0,0,0,9,9.31c-.12-.05.12.09-.13-.05.2.11,0,0-.07-.08l.1.06a.63.63,0,0,0-.12-.09l.15.09-.14-.1c-.07-.06.26.15.23.11l.11.08s.12.06.08,0l-.4-.26c-.06,0,.15.09,0,0L9,9.2l.23.12a2.08,2.08,0,0,0-.31-.21l.19.1S9,9.13,8.88,9.06l.38.18.22.15h0c.17.12.14.07.33.2,0,0,0,0-.07-.07-.33-.17-.42-.28-.7-.45-.07-.07.7.4.27.11C9.24,9.14,9,9,9.1,9.06S8.83,8.88,9,8.93s.3.16.46.28c-.09-.06-.08,0-.05,0a2.61,2.61,0,0,0,.29.16s0,0-.17-.13,0,0-.15-.08.21.09-.08-.09L9,8.92l-.06-.06.1.07c.09,0-.19-.12-.15-.13l.22.12c.18.11-.1,0,.2.16,0,0-.12-.11,0-.07l.06,0s.41.24.19.08A2.11,2.11,0,0,0,9.29,9s-.13-.12-.14-.14c.22.13,0,0,.25.13-.13-.07-.14,0,.07.11s-.05,0,.21.16a2.71,2.71,0,0,1,.44.23L10,9.42c-.15-.1-.15-.09-.32-.19.06,0,0-.06-.16-.17a1.21,1.21,0,0,1,.24.16c0-.06,0-.07.07-.07-.26-.14,0-.06-.26-.18a2.18,2.18,0,0,1-.37-.19,1,1,0,0,1,.17.09c-.13-.09.24.12,0,0,.07.07.31.19.51.32-.1-.09.14.08.15.07A2.21,2.21,0,0,1,9.88,9c.21.09,0-.06,0-.09s.33.2.37.21-.25-.14-.13-.09l0,0c-.05,0,.18.06-.14-.14l.24.15-.06,0a1.3,1.3,0,0,1,.21.12c.18.09,0,0,0-.06L10.3,9c-.1-.09,0,0,0-.07l.15.08L10.38,9c.14.08.23.13.12,0l.33.24c-.09,0-.17-.11-.31-.19s-.1,0,0,.06,0,0-.05-.05a3.17,3.17,0,0,1,.31.21s.06,0,0,0,.1.08.1.1l-.19-.11c.18.11.22.16.17.14-.21-.11.11.11,0,.1l-.37-.26c-.1,0,0,0-.1,0,.12.09.32.21.4.28l-.14-.08c.06.05.26.17.21.17a.17.17,0,0,0-.14,0l-.13-.08c.27.18.08.11.19.2-.14,0,.09.14-.15,0,.07.12.14.22.06.25l-.19-.12c.14.09-.11-.06-.09,0a2.17,2.17,0,0,1,.3.21c-.16-.06,0,.07.1.17l-.13-.08c.23.17,0,.07-.06.07l-.17-.08a3.84,3.84,0,0,1,.3.25.29.29,0,0,1-.17,0c.26.23,0,.18.17.35l-.15-.08c.29.26-.05.15.08.31l-.26-.17c-.09,0,0,.08.24.19-.09,0,.1.12-.12,0-.06,0,.11.09.13.13s-.1,0-.07.06h0l-.19-.11c.07.06-.1,0,.22.18-.2-.07.1.17-.16.06l.15.1s-.2,0-.07.07c-.05,0-.14-.09-.16-.09s.11.07.15.11-.22,0-.2.07,0,.21,0,.3l-.06,0c.23.17-.28-.09.07.15-.06,0,0,0-.16-.07.16.12-.19,0,0,.12l0,0c-.15-.05,0,.09-.12,0A.42.42,0,0,0,10,12c-.12-.06.25.18-.05,0,0,0,.14.09.14.08-.16,0,0,.19,0,.3-.21-.06-.51-.3-.31-.13-.06,0,.11.08.05,0s-.35-.18-.2-.07a2.33,2.33,0,0,1,.21.13c-.14,0-.31-.13-.18,0l-.1-.06c.26.19.09.13.4.35,0,.19,0,.45,0,.63s-.1.35-.36.4c-.28-.12-.27-.11-.19,0l-.09-.06c.21.13,0,0,.2.17-.07,0,0,.12-.08.18s-.19-.13-.18-.11l.13.09-.06,0,.19.13c.1.25-.41.14-.45.32-.1,0-.05.08,0,.14-.35-.06-.64-.09-.51.14A5.55,5.55,0,0,1,7.89,14.12Z"/><path class="cls-1" d="M11,9.29a3.48,3.48,0,0,1-.31-.17Z"/><path class="cls-1" d="M9.67,9,9.61,9s-.1-.07,0,0Z"/><path class="cls-1" d="M9.55,9a.9.9,0,0,1-.16-.14Z"/><path class="cls-1" d="M9.12,8.89C9,8.84,9,8.82,9,8.81Z"/><path class="cls-1" d="M9.33,9,9.21,9C9.29,9,9.17,8.92,9.33,9Z"/><path class="cls-1" d="M9,9s.08.07,0,0C9,9.08,8.81,9,9,9Z"/><path class="cls-1" d="M9,9.2s0,0,0,0a.48.48,0,0,1-.12-.08Z"/><polygon class="cls-1" points="8.52 10.93 8.48 10.89 8.57 10.95 8.52 10.93"/><path class="cls-1" d="M8.13,11.59S8,11.54,8,11.53,8.14,11.61,8.13,11.59Z"/><polygon class="cls-1" points="8.38 12.22 8.38 12.22 8.58 12.33 8.38 12.22"/><path class="cls-1" d="M4.7,11.51c0,.06,0,.25,0,.11S4.71,11.41,4.7,11.51Z"/><path class="cls-1" d="M11.58,12.66c-.19.74-.19,0-.35.43,0,0,.06-.41,0-.32-.17.58-.26.21-.3-.26l0-.12c0-.08-.08.3-.1.24s0-.11,0-.21c0,.23-.05.1-.08.27,0-.09,0-.28,0-.38l0,.26c-.12.63-.08-.05-.17.27l0-.17c-.13.37-.22.29-.32.42,0-.1,0-.27.05-.37a.87.87,0,0,1-.11.39c0-.29-.07.26-.08.1v-.06c-.06.29,0-.18-.07.18l0-.23c-.06.4,0-.22,0,0v.08c0,.1,0-.11,0,0v-.05c-.05.1,0-.12-.08.19a3.87,3.87,0,0,0,.08-.48c-.15.31-.25.23-.36.22a2.71,2.71,0,0,1,0-.29.58.58,0,0,0-.08.21,1,1,0,0,0,0-.18c0-.12-.07.35-.07.21a2.24,2.24,0,0,0,.05-.31.49.49,0,0,1-.11.28.53.53,0,0,0,0-.18c-.07.27,0-.07-.08.11l0-.19c0-.22-.06.39-.07.25l0-.2c-.07.33-.1.21-.15.32l0-.08s-.06-.07-.11.07c0-.08.07-.44,0-.38-.06.37-.08.14-.12.56,0-.06,0-.21-.08-.09,0-.13,0-.45.08-.47l0-.23c0-.15,0,.05,0-.14,0,0-.07.16-.07.1a4.66,4.66,0,0,1-.17.68c0-.14,0-.41.07-.47l-.15.7s0-.29,0-.2,0,.16-.05.24-.06.08,0-.28c0-.14,0-.08,0-.21s0,.13-.06.13v-.05c0-.05-.06.15-.08.35,0,0,0-.21,0-.11s-.07.27-.09.27,0-.16,0-.26a2.31,2.31,0,0,1-.16.48c0,.17.06-.31,0-.22,0-.24-.13.33-.11,0a1,1,0,0,1,0,.19s0-.27,0-.18c0-.15,0,0-.05.09s0-.08,0-.09-.13.34-.15.12a1.7,1.7,0,0,1-.08.34l0-.23c0-.14,0,0,0-.18-.06.27.11-.22,0,0,0-.19-.09.35,0,0,0,0-.07.26-.06.05a1.36,1.36,0,0,0,0-.3s0,.11-.06.18l0,.09c0,.22,0,0-.05.21,0-.18-.05.11,0-.25l.05-.29a2.76,2.76,0,0,0-.09.43.76.76,0,0,1,0-.14c-.06.44,0,0-.08.3,0-.16-.06,0,0-.3,0,.13-.08.29-.08.19s0-.05,0-.15,0,0,0,.06,0-.26,0-.42a3.86,3.86,0,0,0-.09.51c0-.44-.09.27-.06-.12a1.22,1.22,0,0,0,.06-.33c0-.43-.08.32-.08.11l0,.36c0-.23-.07.2,0-.17,0,.13,0-.12-.06.23,0-.3-.14.17-.08-.47a.54.54,0,0,0,0,.18c0,.2,0-.14,0,0a1,1,0,0,0,0,.15,1.58,1.58,0,0,1,0-.4c0-.22-.11.59-.13.45s0-.2,0-.18l-.06.25a2.83,2.83,0,0,1,.07-.58s0,0-.07.21l0-.32c0,.23,0,.15,0,.21v-.06c0-.1,0,0,0,0a1.29,1.29,0,0,0,0,.26c0,.11,0,.08-.06.21,0-.24,0-.18,0-.2s0,.21,0,.2,0,0,0-.2,0,.13,0,0,0-.32,0-.16-.07.48-.07.32,0-.15,0-.24v-.13l0,.22c0-.05,0-.07,0-.1,0,.23,0,.06-.09.32,0,0,0-.15,0-.18v0c0-.13,0-.05-.06.1v0s0,0-.06.14c0-.16.12-.83,0-.55a3.81,3.81,0,0,0-.1.54c0-.16-.1.2-.08-.15a1.73,1.73,0,0,1,0,.2c0-.1-.15.24-.12-.2,0-.09,0-.22,0-.34,0,.19,0-.21,0,.13a2.53,2.53,0,0,0,0,.38c0,.1-.09.09-.08-.1a1,1,0,0,1,0,.22c0-.32,0-.37,0-.26l0,.19,0-.2c0,.06-.07.41-.06.22l0-.21c0,.16-.1.42-.1.25l0-.28a.94.94,0,0,0,0,.28,1.6,1.6,0,0,1,0-.44c-.14.58-.23.6-.29.54l0-.14c0-.14,0,.25,0,.15s0-.3.07-.47S6,13.7,6,13.76s0-.12,0,.12c0,.07,0-.15-.06.14,0-.12,0-.33.07-.45l0,.14c0-.34.13-.59.17-1l0,0c0-.3.09-.33.07-.44a5.72,5.72,0,0,0-.12.68c0,.08-.11.69-.14.66s0,0,.06-.28,0,.13,0,.05a2.29,2.29,0,0,1-.08.45,1.51,1.51,0,0,0,0-.31c0,.17-.06.29-.06.41-.06.37,0-.11-.07.18,0-.26.12-.61.11-.74,0,.25-.08.34-.12.72a2.83,2.83,0,0,1,0-.43c0-.16-.1.46,0,0l0,.26c0-.08,0-.15,0-.29s-.1.35,0,0c0,0,0,0-.06.29s0-.19,0,.18c0-.3,0,0-.05.13l0-.15a.47.47,0,0,0-.06.19,1.31,1.31,0,0,0,0-.23l0,.23c0,.11.06-.41,0-.34l0-.18s0-.18,0-.11-.08.46-.11.63,0-.24,0,0l0-.25a1.12,1.12,0,0,0,0-.35,3.13,3.13,0,0,0-.08.49.76.76,0,0,1,0-.28c0,.07,0,.23-.06.36,0-.14,0-.35,0-.56l.07-.35h0c.05-.28,0-.22.07-.52,0-.05,0,0,0,.13,0,.48-.12.65-.17,1.09-.06.11.12-1.07,0-.39,0,.12-.08.45,0,.33s-.07.43-.07.25,0-.45.1-.71c0,.15,0,.12,0,.08a2.87,2.87,0,0,0,0-.45s0,.05-.07.28,0,0,0,.22c0,.09,0-.29-.07.15a1.85,1.85,0,0,1,0,.4l0,.1,0-.17c0-.12,0,.3-.08.25l0-.33c0-.28,0,.14.09-.33,0,0-.06.22-.06.09s0,0,0-.09.07-.62,0-.27a2.57,2.57,0,0,0,0,.33c0,.05-.08.23-.1.25.05-.34,0,0,0-.38,0,.2,0,.19.09-.13s0,.06.08-.34a4,4,0,0,1,.07-.67s0,.09,0,.13c0,.24,0,.24-.06.49,0-.07-.07.06-.12.29a1.87,1.87,0,0,1,.06-.38c0,.07-.08,0-.1,0,0,.4,0,.09-.09.42a3.16,3.16,0,0,1,0,.55,1.7,1.7,0,0,1,0-.26c0,.21,0-.35,0,0a7.23,7.23,0,0,0,.12-.79c0,.17,0-.22,0-.22a1.68,1.68,0,0,1-.13.36c0-.3-.08,0-.11,0,0-.16.07-.51.06-.57s0,.38,0,.22l0-.07c0,.08,0-.25-.1.25l.06-.38s0,.06,0,.1c0-.13,0-.24,0-.32,0-.26,0,0-.06,0l0,.23c-.06.17,0-.05-.09,0l0-.22,0,.13c0-.21,0-.35,0-.18l.13-.53c0,.13,0,.27-.08.48s0,.14.06-.07c0,0,0,0,0,.1,0-.31.06-.29.09-.5,0,0,0-.08,0,0,0-.15,0-.17.06-.18a1.58,1.58,0,0,0,0,.28c0-.27.07-.35.08-.27,0,.31.07-.19.09-.1,0,.27-.1.48-.13.59s0,0,0,.14c0-.21.09-.52.13-.64l0,.2c0-.1.08-.39.09-.33a.29.29,0,0,0,.11.14l0,.2c.08-.43.09-.15.14-.34,0,.2.12-.18.1.17.09-.14.18-.28.25-.2l0,.29c0-.21,0,.17,0,.13a2.68,2.68,0,0,1,.1-.48c0,.24.08,0,.14-.2l0,.2c.08-.38.07,0,.1,0s0,.27,0,.25a3.84,3.84,0,0,1,.14-.5s0,.09.05.22c.15-.44.2-.14.33-.4l0,.24c.16-.49.2,0,.31-.27l-.07.4c0,.13.07-.09.11-.38,0,.13.08-.19,0,.14,0,.08.06-.18.08-.23,0,.16.05.13.11.06v0a1.17,1.17,0,0,0,0,.29c0-.11,0,.12.09-.37,0,.29.15-.21.14.17a2.42,2.42,0,0,1,0-.24s0,.28.11.06c0,.06,0,.22,0,.24s0-.18,0-.25c.11-.23.1.27.18.22.14-.24.24-.09.35-.12l0,.1c.09-.37,0,.39.14-.17A.5.5,0,0,1,8,11c.07-.26.05.25.14-.07,0,0,0,0,0,0,0,.22.09-.07.1.13,0,0,0,.07,0,.17s.1-.41,0,.06a.6.6,0,0,0,0-.22c.07.2.21-.09.32-.18,0,.29-.1.79,0,.45,0,.09,0-.18,0-.08,0-.13,0,.52,0,.28s0-.16.05-.33c0,.19,0,.45.06.24l0,.15c.1-.42.12-.19.22-.68.24,0,.49-.3.71-.32s.44-.07.62.22c0,.41,0,.4.08.24a.89.89,0,0,0,0,.14c0-.32,0,0,.1-.33.07.07.15,0,.24,0a.87.87,0,0,0-.05.28l.05-.21v.1a1.19,1.19,0,0,0,0-.32c.25-.25.36.43.57.38,0,.15.12,0,.18,0,.09.46.18.83.38.55A7.76,7.76,0,0,1,11.58,12.66Z"/><path class="cls-1" d="M4.74,11.48a3.35,3.35,0,0,1-.06.47C4.7,11.79,4.72,11.62,4.74,11.48Z"/><path class="cls-1" d="M5,13.22c0-.05,0,.06,0,.09s0,.15,0,.06A.75.75,0,0,0,5,13.22Z"/><path class="cls-1" d="M5.09,13.33A.59.59,0,0,1,5,13.6Z"/><path class="cls-1" d="M5.12,13.94c0,.13,0,.19,0,.19S5.11,14,5.12,13.94Z"/><path class="cls-1" d="M5.17,13.61a.43.43,0,0,1,0,.17C5.19,13.66,5.14,13.86,5.17,13.61Z"/><path class="cls-1" d="M5.36,14.07s0-.13,0,0C5.39,14,5.33,14.28,5.36,14.07Z"/><path class="cls-1" d="M5.51,13.87s0,0,0,0a1.3,1.3,0,0,1,0,.18Z"/><polygon class="cls-1" points="7.69 13.59 7.67 13.66 7.69 13.52 7.69 13.59"/><path class="cls-1" d="M8.61,13.71c0-.09,0,.14,0,.16S8.63,13.69,8.61,13.71Z"/><polygon class="cls-1" points="9.21 13.06 9.21 13.06 9.25 12.77 9.21 13.06"/><path class="cls-1" d="M8,5.88c-.06,0-.16.1-.08,0S8,5.84,8,5.88Z"/><path class="cls-1" d="M11.81,13.82c-.56.16-.1-.23-.48-.17,0,0,.28-.13.2-.13-.45.1-.29-.18,0-.45l.08,0c0-.06-.23.05-.21,0a.4.4,0,0,0,.15-.07c-.16.08-.09,0-.22,0,.06,0,.19-.1.25-.15l-.19.08c-.45.18,0-.11-.26,0l.11-.06c-.3.05-.31-.08-.45-.13l.25-.13c-.19.09-.25.09-.3.08.19-.11-.2,0-.11,0l0,0c-.21.08.11-.09-.15,0l.15-.09c-.28.13.12-.1,0,0l-.06,0c-.08,0,.06-.06,0-.05l0,0c-.09,0,.05-.1-.16,0,.17-.1.1,0,.34-.15-.29,0-.31-.17-.37-.29a.71.71,0,0,1,.18-.12c-.05,0-.07,0-.18,0l.11-.07c.07-.06-.25.09-.16,0l.21-.09a.35.35,0,0,1-.24,0,.69.69,0,0,0,.13-.06c-.2.07,0-.07-.11,0l.13-.05c.13-.12-.27.12-.2,0a.46.46,0,0,0,.14-.07c-.24.09-.19,0-.28,0l.05,0s0-.09-.11-.08c0,0,.31-.15.24-.16-.25.13-.13,0-.4.15,0-.05.09-.14,0-.12.1,0,.3-.17.33-.15l.14-.1c.1,0,0,0,.1,0s-.13,0-.1,0a2.53,2.53,0,0,1-.51.15c.11,0,.27-.15.32-.16l-.5.19s.19-.1.12-.09a.77.77,0,0,1-.17.07s-.09,0,.15-.15.07,0,.15-.06-.1,0-.12,0h0s-.12,0-.25.09.14-.08.08,0-.2.05-.21,0L9.64,11a1,1,0,0,1-.39.07c-.12.06.22-.09.16-.06.14-.12-.28,0-.06-.13l-.13.07s.17-.12.1-.1c.1-.05,0,0-.07,0s0,0,.06,0-.29,0-.17-.11c-.06,0-.25.1-.25.08L9,10.72c.09-.06,0,0,.1-.1-.19.07.21,0,0,.05.12-.07-.27.08-.06,0,0,0-.2,0-.06,0,0,0,.22-.09.2-.1s-.08,0-.14,0l-.07,0c-.15.07,0,0-.16.06.12-.07-.1,0,.15-.13l.2-.09a2.44,2.44,0,0,0-.31.11L9,10.45c-.3.15,0,0-.23.05.09-.08,0-.07.15-.18-.1,0-.22.06-.17,0a.36.36,0,0,0,.11,0c.08-.06,0,0-.06,0a3.1,3.1,0,0,0,.26-.19,2.83,2.83,0,0,0-.36.16c.29-.17-.22,0,0-.12A.69.69,0,0,0,9,10c.29-.17-.23.07-.11,0l-.24.13c.15-.09-.16,0,.09-.1-.1,0,.06-.08-.18,0,.18-.15-.18-.06.23-.31,0,0,0,0-.13,0s.1,0,0,0l-.11,0s.06-.07.26-.15-.42.16-.35.07.14-.07.11-.08l-.18.06a1.56,1.56,0,0,1,.39-.21s0,0-.17,0l.2-.12c-.15.09-.11,0-.15,0l0,0c.07,0,0,0,0,0a.49.49,0,0,0-.16.12,1.23,1.23,0,0,1-.16,0c.17-.08.11-.09.12-.11s-.16.06-.15.05,0,0,.12-.08-.07.06,0,0,.2-.12.09-.08-.33.16-.24.08l.18-.06.07-.07-.15.07.07,0c-.16.07-.07,0-.25.07,0,0,.09-.08.1-.1h0c.08-.06,0,0-.09,0l0,0s0,0-.12,0c.1-.07.56-.29.36-.22a2.27,2.27,0,0,0-.38.16c.08-.09-.19,0,0-.16a.6.6,0,0,1-.14,0c0-.09-.24,0,0-.22a2.67,2.67,0,0,0,.24-.12c-.14.05.13-.09-.11,0A.83.83,0,0,0,8,9c-.09,0-.12,0,0-.14a.29.29,0,0,1-.15.07c.22-.1.24-.15.15-.13l-.13.07L8,8.8s-.28.13-.16,0l.13-.07c-.11,0-.31.1-.21,0l.18-.12a.79.79,0,0,0-.19.09A1,1,0,0,1,8,8.54c-.44.14-.5.06-.51,0l.1,0c.08-.06-.18.08-.12,0s.2-.12.32-.16-.19.05-.24.05.09,0-.07.06.08-.09-.12,0a2.8,2.8,0,0,1,.3-.15l-.1,0c.21-.13.43-.15.7-.32h0c.2-.11.25-.07.3-.14A2.24,2.24,0,0,0,8,8.07c-.08,0-.48.22-.48.17s0,0,.2-.07-.11,0-.06,0a1.09,1.09,0,0,1-.31.15c.08-.07.19-.08.2-.12a.92.92,0,0,0-.28.13c-.26.12,0-.07-.15,0a3.67,3.67,0,0,0,.5-.26c-.17.1-.25.08-.5.23a1.09,1.09,0,0,1,.29-.15c.1-.07-.34.11,0-.06l-.18.08L7.44,8s-.27.07,0-.06c0,0,0,0-.21.07s.15,0-.1.1c.2-.12,0,0-.11,0l.1-.05s0,0-.15,0A.59.59,0,0,0,7.13,8L7,8.11c-.1,0,.27-.14.21-.15l.13,0s.11-.07.06-.06l-.44.19c-.07,0,.16-.09,0,0L7.12,8s.23-.13.21-.15A1,1,0,0,0,7,8s.07-.07.18-.12c-.06,0-.15.08-.25.11.09-.06.21-.16.34-.24l.25-.1v0a3.7,3.7,0,0,0,.35-.17s-.05,0-.11,0A8.21,8.21,0,0,1,7,7.78c-.1,0,.71-.39.22-.2-.07,0-.31.14-.21.12s-.3.13-.2,0,.29-.17.48-.23c-.09,0-.06.06,0,0s.3-.15.29-.17-.06,0-.21.05,0,0-.15.1.18-.14-.12,0c0,0-.14.1-.26.16H6.73l.11,0c.07-.08-.21.09-.19,0l.21-.13c.2-.09-.06.09.25-.07,0,0-.16,0-.09,0l.07,0s.41-.23.16-.14A.8.8,0,0,0,7,7.43c-.06,0-.18,0-.21,0,.23-.1,0-.05.24-.14-.12.08-.08.13.14,0s0,0,.25-.08A2.29,2.29,0,0,1,7.87,7s-.06,0-.09,0l-.33.17c0-.05-.08,0-.25,0a.79.79,0,0,1,.26-.12c-.07,0-.07-.08,0-.14-.26.16-.09,0-.3.12a1.42,1.42,0,0,1-.36.21,1.22,1.22,0,0,1,.17-.09c-.15.06.22-.14,0,0a3.49,3.49,0,0,0,.55-.26c-.13,0,.15-.07.13-.1a.92.92,0,0,1-.29,0c.18-.14,0-.1-.07-.12s.34-.18.37-.22-.25.14-.15.06l0,0c-.06,0,.14-.14-.21,0l.26-.12s0,0-.07,0l.22-.1c.16-.11,0,0-.07,0l-.15.09c-.13,0,0-.08-.07-.09l.15-.07-.1,0c.15-.06.23-.13.11-.08L8,6c-.08.06-.19.08-.33.16s-.07.09.08,0,0,0-.08,0A1.68,1.68,0,0,1,8,6.08s0,0,0,0c.1,0,.13,0,.14,0a1,1,0,0,0-.18.1c.18-.09.25-.1.21-.05-.2.13.16,0,.12.05a2.22,2.22,0,0,1-.43.15c-.09.07,0,0-.07.09a2.63,2.63,0,0,1,.45-.17l-.13.06c.08,0,.28-.11.26-.06a.27.27,0,0,0,0,.19l-.13.06c.3-.12.14,0,.29,0-.11.11.18,0,0,.18.15,0,.29.06.28.18l-.2.08c.15-.05-.11.07-.08.07a1.17,1.17,0,0,1,.35-.13c-.14.12.06.09.21,0L8.86,7c.27-.09.07.06.05.13s-.18.11-.16.11a3.15,3.15,0,0,1,.38-.1s0,.1-.09.17c.36-.06.21.14.45.15l-.16.09c.39-.07.14.2.36.2l-.28.13c-.07.07.11,0,.3-.08-.07.07.16,0-.05.13,0,.05.14,0,.19,0s0,.12,0,.14V8c-.06,0-.18.08-.19.11s0,.1.28-.08c-.16.15.22.05,0,.23a1.56,1.56,0,0,1,.17-.07c0,.05-.13.19,0,.15,0,0-.15.07-.15.09s.11-.06.17-.07c.21,0-.09.25,0,.29.23,0,.21.22.3.33l-.07,0c.27-.09-.21.22.19.06-.06,0,0,0-.14.11.19-.06-.13.17.12.11h0c-.12.12.1.07,0,.18l-.12,0c-.12.08.3-.09,0,.08a.36.36,0,0,0,.15-.08c-.07.17.19.19.32.27-.15.17-.53.27-.26.21-.06,0,.12-.05.05,0,.1,0-.33.21-.16.15s.12,0,.24-.1c-.1.11-.27.21-.11.17l-.1.05c.31-.1.18,0,.53-.1.19.23.5.38.66.6s.32.44.27.78c-.24.19-.23.19-.09.2l-.09,0c.22-.11,0,0,.25-.06,0,.11.11.16.16.26S12,12,12,12l.15-.06-.06,0a.77.77,0,0,0,.21-.1c.31.15,0,.6.16.8-.07.1.05.14.13.18-.21.32-.36.6-.07.67A3.7,3.7,0,0,1,11.81,13.82Z"/><path class="cls-1" d="M8,5.9a1.43,1.43,0,0,1-.31.17Z"/><path class="cls-1" d="M7.17,7l-.06,0s-.11,0-.05,0Z"/><path class="cls-1" d="M7.17,7.19a.32.32,0,0,1-.21,0Z"/><path class="cls-1" d="M6.83,7.52c-.07.05-.12.07-.13.06Z"/><path class="cls-1" d="M7.06,7.42s0,0-.1.08S6.89,7.5,7.06,7.42Z"/><path class="cls-1" d="M6.92,7.84s.1,0,0,0C7,7.84,6.77,7.91,6.92,7.84Z"/><path class="cls-1" d="M7.13,7.9s0,0,0,0A.45.45,0,0,1,7,8Z"/><polygon class="cls-1" points="8.72 10.11 8.67 10.12 8.77 10.07 8.72 10.11"/><path class="cls-1" d="M9.25,11.15c.07,0-.08.06-.1.07S9.28,11.16,9.25,11.15Z"/><polygon class="cls-1" points="10.03 11.48 10.02 11.47 10.22 11.38 10.03 11.48"/><path class="cls-1" d="M5,679.49c-.11,0,0,.13-.07,0S5,679.44,5,679.49Z"/><path class="cls-1" d="M4.87,680.14c.49.15.31.71.68.94,0,0-.19.08-.1.15.41.2.48.78.44,1.27H5.83c0,.09.21.1.22.19s-.06,0-.1,0c.12,0,.12.12.21.12s-.11.08-.14.15h.14c.35,0,.12.31.35.42,0,0-.07,0-.09,0a2.9,2.9,0,0,1,.63.84.36.36,0,0,0-.17.07.24.24,0,0,1,.27.11c-.12.1.19.09.16.22h0c.17,0,0,.14.16.12l-.08.09c.2,0,0,.15.07.17l0,0c.07,0,0,.11,0,.14l0,0c.11.1,0,.22.18.15-.1.09-.11-.1-.25,0a3.66,3.66,0,0,1,.67,1.16c0,.07,0,.11-.09.14s.09.14.18.13-.06.07-.06.1.17,0,.15.08a.17.17,0,0,0-.13.09c.13,0,.15.07.21.11a.12.12,0,0,0-.07.06c.13-.06.05.19.14.17l-.07.08c0,.27.13-.2.14,0a.27.27,0,0,0-.07.12c.13-.12.17.09.23.09a.18.18,0,0,0,0,.06c0,.06.08.26.14.22,0,.12-.06.43,0,.48,0-.23.05-.17.07-.2a.83.83,0,0,0,0-.3s.12,0,.15-.16a3.63,3.63,0,0,1,0,.48l0,.14c0,.15,0,0,0,.18,0-.07.1-.32.13-.31,0-.28,0-.67.08-.8,0,.16.08.27.06.35a4.33,4.33,0,0,0,0-.63s.06.19.06.08a1.13,1.13,0,0,1,0-.18s0-.15.15,0,0,.09,0,.12,0-.13,0-.19l0,0s0-.19-.07-.23.08.09,0,.08,0-.2,0-.24a.33.33,0,0,0,.08.11c-.05-.19-.09-.23-.06-.37s.11.12.06.11c.18-.07,0-.37.25-.39,0,0-.12-.06-.09,0s.15,0,.14,0,0-.07,0-.13,0,0,0,0,0-.4.22-.48c0,0-.1-.18-.07-.21l.09.07c.07,0,.06-.12.14-.07-.07-.14-.06.33-.1.18.1,0-.07-.23.05-.13,0-.06,0-.19.1-.2,0,0,.1.14.12.08s0-.06,0-.15V685c-.09-.07.06-.08-.07-.11.09,0,0-.17.19-.06l.12.09s-.09-.15-.13-.21a.1.1,0,0,1,.07,0c-.19-.13.07-.09,0-.23.11,0,.13-.21.28-.18,0-.1,0-.2,0-.25a.08.08,0,0,0,0,.08c.08,0,0,0,0-.11s.17,0,.27,0-.13-.14-.19-.19c.22.06,0-.25.21-.22,0,0,0,.15.11.12s-.06-.2.08-.24l-.17-.07c.13,0,0-.2.15-.09,0-.07.12-.08,0-.16.22-.08.15-.43.48-.36,0,0,0-.08,0-.12s0,.09,0,.07,0,0-.05-.07.1-.06.2.07c.16,0-.19-.27-.05-.37s.09,0,.11,0l-.06-.14c.08-.08.17,0,.28.1s0-.12,0-.19l.17,0c-.12,0,0-.08-.05-.12v0c.05,0,.06-.06.06-.09a.14.14,0,0,0-.16,0s0-.08,0-.15c.1.08.13,0,.16-.06s-.06-.11,0-.12,0-.06.11,0-.08,0,0,0,.15.06.12,0-.21-.12-.09-.16.05.07.08.11l.09,0-.09-.06,0,0c-.1-.06,0-.08-.12-.13s.1,0,.13,0h0c.09,0,.06-.06,0-.08h0s0,0-.06-.06c.12,0,.51,0,.37,0,0,0-.22,0-.32,0,.14-.08-.09-.06.19-.18l-.14,0c.09-.07,0-.05.08-.14l.11-.09a1.64,1.64,0,0,0,.29-.16c-.19.09.12-.09-.15.06l-.28.17c-.13,0-.17,0-.09,0a.71.71,0,0,1-.14.1c.21-.15.19-.18.1-.13l-.11.1.09-.1s-.22.19-.15.1l.09-.1c-.11.08-.24.2-.2.12l.08-.13a.28.28,0,0,0-.11.13c0-.08,0-.1,0-.22-.13.14-.16.22-.23.25a1.19,1.19,0,0,1-.42,0l0-.07c-.07-.07,0,.12-.09.07s0-.15,0-.24-.13.12-.2.15.06-.06,0,.06-.14-.08-.16.06a.42.42,0,0,1,0-.22l-.06.07c-.07-.18.18-.29.12-.51l-.06,0c0-.15.16-.16,0-.22s-.14.27-.09.34c-.13,0-.08.34-.21.32s.11,0,.09-.13-.14,0-.19,0,0,.2,0,.23.06-.14,0-.16-.12.14,0,.2-.1-.06-.16.09c0-.14.12-.31,0-.38,0,.13-.14.17-.1.36,0,0,0-.14,0-.22s-.16.23-.16,0l0,.13-.07-.15c-.05,0-.18.17-.17,0,0,0-.14,0-.1.14s.1-.09.13.1c-.05-.16-.12,0-.16.06V681s-.09,0-.11.09a.12.12,0,0,0,0-.12l0,.12c-.11,0,0-.21-.12-.18l.09-.09s-.05-.09-.1-.06l-.1.32c-.06,0,0-.13-.08,0l.09-.12s0-.18-.12-.19-.14.19-.07.25a.1.1,0,0,1,0-.15c-.09,0,0,.12-.08.18s-.11-.18-.16-.29l.09-.17H9.1c.08-.13,0-.11,0-.25s-.09,0-.12.05c.09.25-.14.33-.13.55-.15.05-.05-.54-.23-.21,0,.06-.06.22,0,.17-.09,0-.08.21-.18.12.09-.09-.07-.23.05-.36,0,.08.06.06.08,0s0-.22-.07-.22-.13,0-.13.13.09,0,0,.12-.12-.16-.18.06c.07,0,.08.12.08.2l-.09,0,0-.08c-.13-.07-.05.15-.17.12l-.05-.17c0-.14.18.07.17-.16-.08,0-.12.1-.19,0l.06,0s0-.32-.17-.14,0,.08,0,.16-.18.11-.26.12c0-.17-.15,0,0-.2a.16.16,0,0,0,.29,0c0-.21.1,0,.15-.17-.11,0-.09-.21-.1-.34s-.06,0-.08.06,0,.12,0,.25a.27.27,0,0,0-.31.13c0-.06,0-.18,0-.19a.85.85,0,0,1-.42,0c.07.2-.16,0-.11.2a.28.28,0,0,1,.08.29s0-.09,0-.14c-.07.11-.08-.18-.15,0,.14,0,0-.24.08-.39-.1.08,0-.11-.08-.12a1,1,0,0,1-.33.17c-.12-.16-.33,0-.44,0s0-.26-.07-.29,0,.19-.06.11v0s-.2-.13-.25.12l0-.19s0,0-.07,0,0-.12,0-.16-.15,0-.22,0l0,.11c-.14.08-.22,0-.35,0v-.11l-.08.07c0-.11,0-.18-.08-.1l.21-.26c.05.07-.07.13,0,.25s.14.07.17,0,0,0-.09,0c0-.15.07-.14.11-.24s-.06-.05-.07,0a.18.18,0,0,1,.18-.08c-.06.06,0,.1,0,.14,0-.13.09-.17.18-.13s.19-.08.3,0a.76.76,0,0,1-.19.29c.06.07.08,0,.14.07,0-.1.08-.25.17-.31v.1c.08,0,.09-.19.2-.16a3.88,3.88,0,0,0,.49.1v.1c.09-.21.26-.07.37-.15.17.1.38-.08.46.1a2.49,2.49,0,0,1,.9,0l-.06.14c.06-.1,0,.09.09.07s.09-.15.13-.24c.14.13.33,0,.46-.08v.1c.14-.18.28,0,.43,0s0,.14.09.13.14-.14.27-.24a.72.72,0,0,1,.33.13c.36-.21.71,0,1.08-.15v.12a.83.83,0,0,1,.57-.09,3.25,3.25,0,0,0,.83,0l-.14.19c.1.07.35,0,.41-.17.1.07.47-.07.43.1.11,0,.28-.08.45-.1a1.37,1.37,0,0,0,.73.07h-.06c-.1,0-.22.11-.17.13s.3.08.59-.15a.19.19,0,0,0,.09,0c-.21.27-.16.5-.54.82.11-.06.08,0,.13,0-.17.27-.5.55-.48.74-.07,0-.1-.06-.17,0s.1,0,.1.08a1.77,1.77,0,0,1-.4.62l-.24.27a.56.56,0,0,0-.13.18,5.7,5.7,0,0,1-.63,1.17l0,0c.09.21-.34.18-.16.42-.05,0-.08.1-.15,0,.05.17-.27.21-.22.43,0,0,0,0,0-.05-.18.09-.13.29-.3.39a.18.18,0,0,0,0-.09c-.12,0,.09.24-.13.15,0,0,.08.08.09.06a3.25,3.25,0,0,0-.53,1.07c-.27.17-.35-.19-.31.09-.05,0,.07.06,0,0s-.29,0-.22.09,0,.08.12.12c-.17.1-.3.07-.28.24l-.06,0c.1.25-.1.35,0,.6l-2,3.63L8.35,690c-.34-.81-.68-1.53-1-2.3l-.26-.58-.14-.32a6.45,6.45,0,0,1-.21-.62c.1-.27.09-.28-.08-.45,0,0,0,0,.07,0-.16,0-.08-.14-.23-.1-.11-.3-.27-.55-.4-.86,0,0,.17,0,.13,0l-.12,0,0,0s-.14,0-.17,0a19.52,19.52,0,0,1-.87-2.31,1.66,1.66,0,0,0-.3-.61A3.15,3.15,0,0,0,4.25,680S4.67,679.94,4.87,680.14Z"/><path class="cls-1" d="M5.11,679.48c0,.08.09.13,0,.24A2.12,2.12,0,0,1,5.11,679.48Z"/><path class="cls-1" d="M7,680.45s0,0,0,0,0,.07-.07,0S7,680.48,7,680.45Z"/><path class="cls-1" d="M7.48,680.53c0,.07-.12.12-.19.13Z"/><path class="cls-1" d="M7.92,680.86c0,.06,0,.1,0,.09A.24.24,0,0,1,7.92,680.86Z"/><path class="cls-1" d="M8,680.7s.06,0,.07.08S7.94,680.82,8,680.7Z"/><path class="cls-1" d="M9,681s.08-.06.1,0S8.92,681.08,9,681Z"/><path class="cls-1" d="M9.42,680.89s0,0,0,0a.09.09,0,0,1,0,.1Z"/><polygon class="cls-1" points="11.29 683.5 11.28 683.44 11.34 683.49 11.29 683.5"/><path class="cls-1" d="M9.39,686.58c0,.06-.06,0-.07,0S9.39,686.61,9.39,686.58Z"/><polygon class="cls-1" points="8.81 688.03 8.81 688.04 8.78 688.34 8.81 688.03"/><path class="cls-1" d="M8.09,686.78c0,.05.17.09.07.06S8,686.75,8.09,686.78Z"/><path class="cls-1" d="M11.54,681.14c.45.36-.1.15.17.41,0,0-.27-.16-.22-.1.35.3,0,.28-.3.19l-.07,0c-.07,0,.17.16.13.15l-.14-.08c.15.09.05.07.16.15l-.26-.13.17.11c.4.27-.07.05.12.22l-.11-.07c.22.21.13.26.18.38l-.25-.14a.65.65,0,0,1,.25.2c-.2-.1.15.13,0,.09l0,0c.19.13-.13-.05.1.1l-.15-.07c.26.16-.15-.06,0,0l.06,0c.06.06-.08,0,0,0l0,0c.06.07-.1,0,.11.12-.17-.08-.06-.07-.31-.19.16.21.06.28,0,.37a1.63,1.63,0,0,1-.19-.09s0,.06.12.13l-.13-.06c-.08,0,.22.15.12.12a1.16,1.16,0,0,0-.2-.13A.41.41,0,0,1,11,683l-.12-.08c.17.13-.06,0,.05.1l-.12-.08c-.16,0,.25.16.15.13l-.13-.08c.2.15.11.14.17.21l0,0s-.07,0,0,.11-.29-.18-.26-.12c.24.14.07.1.35.24-.05,0-.16,0-.09,0-.09-.07-.3-.16-.31-.2l-.15-.07c-.1-.06,0,0-.09-.06s.08.1,0,.08a3.41,3.41,0,0,1,.42.33c-.09-.07-.27-.15-.31-.18l.44.31s-.19-.11-.14-.06l.15.1s0,.07-.2-.06c-.09,0,0,0-.13-.09s.07.07.07.09l0,0c-.05,0,.08.09.21.16s-.14-.08-.06,0,.16.13.15.15l-.17-.11a1.22,1.22,0,0,1,.28.26c.12.07-.2-.13-.13-.1-.18,0,.18.2-.07.1,0,0,.16.09.13.07s-.18-.09-.13,0c-.1-.06,0,0,0,.05s0,0-.06,0,.19.21,0,.16a1.13,1.13,0,0,1,.21.17l-.15-.09c-.09,0,0,0-.13,0,.17.12-.11-.16,0,0-.13-.07.22.17,0,0,0,0,.15.14,0,.07a1.76,1.76,0,0,0-.2-.12s.07,0,.11.1l.05.05c.14.08,0,0,.14.09-.12-.07,0,.08-.19-.07l-.18-.11a2.22,2.22,0,0,0,.26.19l-.08-.05c.28.17,0,0,.17.15-.11,0,0,.05-.22,0,.08.06.17.14.1.12l-.09-.07c-.09,0,0,0,0,.05a1.83,1.83,0,0,0-.29-.12,3.62,3.62,0,0,0,.33.2c-.29-.15.16.16-.11,0a1,1,0,0,0-.21-.13c-.29-.15.2.15,0,.09l.24.14c-.16-.08.11.11-.13,0,.09.05-.09,0,.14.11-.21-.08.07.16-.36-.06,0,0,0,0,.11.09s-.09-.07,0,0l.1.07a.73.73,0,0,1-.26-.15c-.16,0,.37.26.26.24s-.13-.08-.12-.06l.15.12a2.32,2.32,0,0,1-.38-.21s0,0,.12.11l-.21-.1c.15.07.09.06.13.09l0,0c-.07,0,0,0,0,0a.68.68,0,0,0,.18.08.91.91,0,0,1,.13.1c-.16-.09-.13,0-.15,0s.14.1.13.1,0,0-.13-.07.08,0,0,0-.21-.11-.11,0,.31.18.2.15l-.15-.11-.09,0,.14.09-.07,0c.15.09,0,.06.2.16,0,0-.12,0-.14,0h0c-.09,0,0,0,0,.08l0,0s0,0,.08.08c-.12,0-.55-.31-.38-.19a1.9,1.9,0,0,0,.35.23c-.12,0,.1.14-.14,0l.12.08c-.08,0,.12.19-.18.06a.82.82,0,0,0-.23-.13c.13.08-.14-.07.08.06a1.41,1.41,0,0,0,.26.14c0,.06,0,.1-.1,0l.14.09c-.21-.13-.25-.13-.19-.07l.13.08-.14-.07s.26.16.13.1l-.13-.07c.09.07.26.2.14.15l-.19-.1a.56.56,0,0,0,.18.12,1.18,1.18,0,0,1-.32-.12c.37.28.34.35.28.39l-.09-.06c-.1,0,.16.11.09.08l-.31-.18c-.11,0,.15.12.19.16s-.08-.06.08,0-.11,0,.07.08l-.29-.17.09.07c-.23-.12-.37-.27-.65-.41l0,0c-.21-.11-.21-.16-.29-.17a4,4,0,0,0,.44.27c0,.06.44.28.41.3s0,0-.17-.13.07.08,0,.06a1.46,1.46,0,0,1,.29.18c-.1,0-.17-.11-.2-.11a1.15,1.15,0,0,0,.26.17c.24.15-.08,0,.1.1a3,3,0,0,0-.49-.28c.17.09.22.16.47.29l-.28-.16c-.11,0,.28.21-.05,0l.17.1-.2-.09s.21.17-.05,0c0,0,0,0,.18.14s-.12-.1.13,0c-.2-.1,0,0,.07.09l-.1-.06s0,0,.12.1l-.15-.09.14.1c.07.06-.27-.15-.23-.11l-.11-.08s-.13-.06-.08,0l.4.25c0,.05-.16-.08,0,0l-.16-.11-.24-.11a1.1,1.1,0,0,0,.32.2.52.52,0,0,1-.2-.09s.15.08.23.15l-.38-.17-.22-.15h0a3.79,3.79,0,0,0-.34-.2s0,0,.08.07c.32.16.41.28.7.44.06.07-.71-.39-.28-.1.08,0,.29.18.22.12s.28.18.15.13-.3-.15-.46-.28c.09.06.08,0,.06,0s-.29-.17-.3-.15,0,0,.16.13,0,0,.16.08-.21-.08.08.09a1.39,1.39,0,0,1,.26.14l.06.06-.1-.07c-.1,0,.19.12.14.13L10,687c-.18-.12.11,0-.2-.16,0,0,.13.1,0,.07l-.05,0s-.42-.22-.2-.06l.22.13s.13.12.14.15c-.22-.13,0,0-.26-.13.14.06.15,0-.06-.11s.05,0-.21-.17a2.38,2.38,0,0,1-.44-.22s0,0,.07.06a3.47,3.47,0,0,0,.33.18c-.06,0,0,.08.16.18a1.46,1.46,0,0,1-.25-.15c0,.06,0,.08-.07.08.26.13,0,.06.26.18a1.3,1.3,0,0,1,.37.19s-.11-.07-.17-.1c.13.1-.24-.11,0,0a3.47,3.47,0,0,0-.51-.31c.1.08-.15-.09-.16-.07a1,1,0,0,1,.21.21c-.21-.09,0,.06,0,.09s-.33-.19-.38-.2.25.13.13.1l0,0c.05,0-.18,0,.14.15l-.24-.15s0,0,.05,0l-.2-.12c-.18-.08,0,0,0,.07l.16.07c.1.1-.06,0,0,.09L8.59,687l.08.07c-.14-.09-.24-.13-.12,0l-.33-.25c.09,0,.16.12.31.19s.1,0,0-.06,0,0,.05,0a3.48,3.48,0,0,1-.31-.2s-.06,0,0,0c-.09-.06-.1-.08-.09-.1a1.25,1.25,0,0,0,.18.11c-.18-.11-.22-.16-.16-.15.21.11-.11-.11,0-.1l.37.26c.1,0,0,0,.1,0a3.05,3.05,0,0,1-.4-.27l.14.08c-.06-.06-.26-.17-.21-.17a.18.18,0,0,0,.14-.06l.14.08c-.28-.18-.08-.12-.19-.21.15,0-.08-.15.16,0-.07-.12-.13-.23-.05-.27l.19.12c-.14-.09.11.06.09,0a1.55,1.55,0,0,1-.3-.21c.17.06,0-.07-.09-.18l.13.08c-.23-.17,0-.08.06-.08s.19.09.18.07a1.52,1.52,0,0,1-.3-.24s.08,0,.17,0c-.25-.25,0-.21-.16-.39l.16.09c-.29-.27.06-.18-.07-.34l.26.16c.09,0,0-.09-.23-.19.09,0-.1-.12.12,0,.06,0-.11-.09-.13-.13s.11,0,.08-.08h0a.65.65,0,0,0,.19.11c-.07-.06.1,0-.23-.18.21.07-.09-.18.18-.08a.74.74,0,0,1-.16-.1s.22,0,.09-.08c0,0,.14.09.16.08s-.12-.06-.16-.1.23,0,.22-.1,0-.23.05-.33l.06,0c-.22-.18.29.07-.06-.16.07,0,0,0,.16.06-.15-.12.2,0,0-.13l0,0c.16.05,0-.1.13-.06l.1.08c.13.06-.25-.19.06,0,0,0-.15-.09-.14-.08.16,0,0-.21,0-.33.21,0,.51.29.31.11l-.05,0c-.07-.07.36.17.21.06a2.12,2.12,0,0,1-.22-.13c.14,0,.32.13.19,0l.1.06c-.26-.19-.09-.14-.39-.36,0-.22,0-.49,0-.69s.12-.4.39-.48c.29.11.28.1.2,0l.09,0c-.21-.13,0,0-.2-.17.08,0,.06-.13.1-.2s.18.13.18.11l-.13-.1.06,0a.86.86,0,0,0-.2-.13c-.08-.28.44-.2.49-.4.11,0,.06-.09,0-.16.36,0,.65.06.53-.19A4.52,4.52,0,0,1,11.54,681.14Z"/><path class="cls-1" d="M8.08,686.74a2.49,2.49,0,0,1,.31.17Z"/><path class="cls-1" d="M9.41,687l.06,0s.09.07,0,0Z"/><path class="cls-1" d="M9.53,686.92c.09.06.16.12.16.14Z"/><path class="cls-1" d="M10,687.05c.08,0,.12.07.11.08Z"/><path class="cls-1" d="M9.76,686.92s.06,0,.12.05S9.92,687,9.76,686.92Z"/><path class="cls-1" d="M10.16,686.88s-.08-.07,0,0C10.11,686.83,10.3,687,10.16,686.88Z"/><path class="cls-1" d="M10.07,686.7s0,0,0,0l.12.07Z"/><polygon class="cls-1" points="10.71 684.74 10.75 684.78 10.66 684.72 10.71 684.74"/><path class="cls-1" d="M11.15,684c-.05-.05.09,0,.11,0S11.14,684,11.15,684Z"/><polygon class="cls-1" points="10.92 683.29 10.92 683.29 10.73 683.18 10.92 683.29"/><path class="cls-1" d="M6.24,684.63s.17.1.06.06S6.18,684.6,6.24,684.63Z"/><path class="cls-1" d="M9.62,680c.43.38-.1.13.16.4,0,0-.26-.18-.21-.12.33.31,0,.25-.29.13l-.07,0c-.06,0,.17.16.13.15l-.14-.1c.14.11.05.08.15.16-.06,0-.17-.12-.24-.15l.16.12c.38.3-.07,0,.11.21l-.1-.07c.2.21.11.25.16.37l-.23-.16c.17.12.21.17.23.21-.19-.12.14.14,0,.09l0,0c.18.14-.12-.06.1.11l-.15-.09c.25.18-.14-.07,0,0l.05,0c.06.06-.07,0,0,0l0,0c.05.07-.1,0,.1.13a2,2,0,0,0-.3-.22c.16.21.06.26,0,.34L9,681.35a.32.32,0,0,0,.11.13L9,681.41c-.08,0,.21.17.11.12l-.19-.14a.4.4,0,0,1,.15.17l-.11-.08c.16.14-.06,0,0,.09l-.11-.08c-.15-.07.24.17.14.14l-.12-.1c.19.17.1.15.16.22l0,0s-.07,0,0,.1-.28-.19-.25-.14c.23.16.07.1.34.27-.05,0-.16,0-.09,0-.08-.07-.29-.19-.3-.22l-.14-.08c-.09-.07,0,0-.08-.07s.08.1,0,.08a2.75,2.75,0,0,1,.4.35c-.08-.07-.26-.17-.29-.2l.42.33s-.19-.12-.13-.07l.14.11s0,.07-.19-.08,0,0-.13-.09.07.07.06.08l0,0s.08.1.21.17-.14-.09-.06,0,.15.14.14.15l-.16-.12a2,2,0,0,1,.27.28c.11.07-.19-.14-.13-.11-.17-.07.17.2-.06.08l.12.08s-.18-.11-.13-.06,0,0,.05.06l-.05,0c.07.06.17.21,0,.15a1.47,1.47,0,0,1,.2.17l-.14-.1c-.09,0,0,0-.13,0,.17.13-.11-.16,0-.05-.12-.07.21.18,0,.05,0,0,.15.14,0,.06,0,0-.19-.15-.19-.13s.06,0,.1.1l.05,0c.14.09,0,0,.13.1-.11-.07.05.08-.17-.08l-.18-.13s.18.14.25.21l-.08-.06c.27.19,0,0,.17.16-.11-.05,0,0-.22-.07.08.07.17.15.1.12L8.81,683c-.09-.05,0,0,0,0l-.27-.15c.07.07.22.16.31.23-.28-.18.15.16-.11,0a1.14,1.14,0,0,0-.19-.15c-.28-.17.18.17,0,.09l.23.16c-.15-.09.11.11-.12-.05.08.07-.09,0,.13.12-.21-.09.06.16-.35-.1,0,0,0,0,.11.1s-.09-.08,0,0l.09.07a1.07,1.07,0,0,1-.25-.16c-.15-.07.36.28.25.25s-.12-.09-.11-.07l.14.12a2.53,2.53,0,0,1-.37-.24s0,0,.12.12l-.2-.12c.14.09.08.07.12.1l0,0c-.06,0,0,0,0,0a.7.7,0,0,0,.17.09,1.43,1.43,0,0,0,.12.11c-.15-.11-.12-.06-.14-.06s.13.1.12.1,0,0-.13-.08.08,0,0,0-.2-.13-.11,0,.3.2.19.15l-.14-.11-.09,0,.14.09-.07,0c.14.1,0,.06.19.17s-.11,0-.13,0h0c-.09-.05,0,0,0,.07l0,0s0,0,.08.09c-.11-.06-.52-.36-.36-.22a2.47,2.47,0,0,0,.33.25c-.11,0,.1.14-.13,0a1.33,1.33,0,0,1,.11.1c-.07,0,.12.18-.17,0,0,0-.14-.09-.22-.15.12.1-.13-.07.08.07l.24.16c.05.06,0,.1-.09,0a.73.73,0,0,1,.13.09c-.2-.14-.24-.14-.18-.08l.12.08L8.3,684s.25.18.13.12L8.3,684c.09.08.24.21.13.15l-.18-.11a.67.67,0,0,0,.17.13,1.54,1.54,0,0,1-.3-.14c.34.29.32.36.26.38l-.09-.06c-.09,0,.16.11.09.08a2.64,2.64,0,0,1-.29-.21c-.11,0,.14.14.17.17s-.07-.06.08.05-.11,0,.07.09l-.28-.2.08.07c-.21-.13-.35-.28-.62-.45l0,0c-.19-.12-.19-.17-.27-.19a2.94,2.94,0,0,0,.42.3c0,.06.42.31.39.32s0,0-.16-.13.06.08,0,.05a1.87,1.87,0,0,1,.28.2c-.09,0-.16-.12-.19-.12a2.48,2.48,0,0,0,.25.18c.23.17-.08,0,.1.11-.17-.11-.37-.28-.47-.32.16.11.2.17.44.32a2.47,2.47,0,0,1-.27-.18c-.1-.06.28.23,0,0l.16.12-.19-.11s.2.18-.05,0a.56.56,0,0,0,.18.14c.11.06-.12-.1.12,0-.2-.12,0,0,.07.09l-.1-.07s0,0,.11.1l-.15-.09.15.1c.06.07-.26-.17-.23-.12l-.1-.1s-.12-.06-.08,0l.38.28c.05.05-.15-.1,0,0l-.15-.13s-.22-.14-.23-.12a2,2,0,0,0,.3.22.58.58,0,0,1-.18-.11s.14.09.22.16l-.37-.2-.21-.17h0a3,3,0,0,0-.32-.22l.07.07c.31.19.4.31.67.49.06.08-.67-.44-.26-.12.07,0,.27.2.2.13s.27.2.14.14-.28-.18-.43-.31c.09.06.08,0,0,0s-.27-.2-.28-.18,0,0,.16.14,0,0,.14.09-.2-.1.08.09l.25.16.06.06-.1-.07c-.09,0,.18.13.14.13l-.22-.13c-.17-.12.1,0-.18-.17,0,0,.12.11,0,.07l0,0s-.39-.26-.19-.08a2.37,2.37,0,0,0,.21.15s.12.12.13.15c-.21-.15,0,0-.24-.15.13.08.14,0-.06-.11s0,0-.2-.17a3.05,3.05,0,0,1-.42-.27s0,0,.07.07l.31.21c-.06,0,0,.07.15.18a1.74,1.74,0,0,1-.24-.17s0,.07-.07.06c.26.15,0,.06.25.19a2.69,2.69,0,0,1,.36.22s-.11-.07-.17-.1c.13.1-.22-.14,0,0a4.06,4.06,0,0,0-.48-.35c.09.09-.14-.1-.15-.08l.2.21c-.2-.1,0,.06,0,.08s-.32-.21-.37-.23.25.16.13.11l0,0s-.17-.06.14.16l-.24-.17,0,0-.19-.14c-.17-.1,0,0,0,.06l.15.09c.09.1,0,0,0,.07l-.14-.09.08.07c-.13-.1-.23-.14-.12-.06l-.31-.27c.08,0,.15.13.29.22s.1,0,0-.07,0,0,.06.06a2.73,2.73,0,0,1-.3-.23s-.06,0,0,0-.1-.09-.09-.11.12.08.17.12c-.17-.12-.21-.17-.15-.15s-.1-.12,0-.1.3.23.36.29,0,0,.1,0a2.8,2.8,0,0,1-.38-.3l.12.09c-.05-.06-.24-.19-.19-.18a.18.18,0,0,0,.14,0l.12.09c-.26-.2-.07-.11-.18-.21.15.05-.07-.15.16,0-.06-.12-.13-.23,0-.26l.17.14c-.12-.1.11.07.09,0a1.81,1.81,0,0,1-.28-.23c.15.07,0-.06-.09-.17l.12.08c-.22-.18,0-.07.07-.07l.16.1a2.5,2.5,0,0,1-.28-.27.29.29,0,0,1,.17,0c-.25-.26,0-.19-.15-.37l.15.09c-.28-.27.06-.15-.07-.31l.25.18c.09,0,0-.08-.22-.2.09,0-.09-.13.12,0,.06,0-.1-.1-.13-.14s.11,0,.08-.06h0l.18.12c-.06-.06.1,0-.21-.19.2.08-.09-.18.17,0a.73.73,0,0,1-.15-.11s.21,0,.08-.07c0,0,.14.11.15.1s-.1-.07-.14-.11.22,0,.21-.06,0-.21,0-.3l.06,0c-.21-.18.28.11-.06-.15.06,0,0,0,.16.08-.15-.13.19.06,0-.11l0,0c.15.07,0-.08.13,0l.1.08c.12.07-.24-.2.06,0l-.14-.1c.16,0,0-.19,0-.3.21.07.49.34.3.15.06,0-.11-.08-.05,0s.34.2.2.09l-.21-.15c.14.05.31.15.19,0l.09.07c-.25-.21-.08-.14-.37-.38,0-.19,0-.45,0-.62s.12-.34.39-.38c.27.14.26.13.19,0l.09.06c-.2-.14,0,0-.19-.17.07,0,0-.12.09-.18a.49.49,0,0,0,.17.12l-.12-.1.06,0A1.17,1.17,0,0,0,8,680c-.08-.26.42-.12.47-.29.11,0,.06-.08,0-.14.35.08.63.13.52-.1A4.72,4.72,0,0,1,9.62,680Z"/><path class="cls-1" d="M6.24,684.59c.1.07.16.1.29.2Z"/><path class="cls-1" d="M7.5,685l.07,0s.08.07,0,0Z"/><path class="cls-1" d="M7.62,685a.5.5,0,0,1,.15.14Z"/><path class="cls-1" d="M8.05,685.12c.08,0,.12.08.11.09A.48.48,0,0,1,8.05,685.12Z"/><path class="cls-1" d="M7.85,685,8,685C7.88,685,8,685.08,7.85,685Z"/><path class="cls-1" d="M8.23,685s-.08-.07,0,0C8.18,684.94,8.36,685.08,8.23,685Z"/><path class="cls-1" d="M8.15,684.81s0,0,0,0l.11.08Z"/><polygon class="cls-1" points="8.78 683.13 8.82 683.17 8.73 683.1 8.78 683.13"/><path class="cls-1" d="M9.21,682.49c-.05,0,.09.06.11.06S9.21,682.47,9.21,682.49Z"/><polygon class="cls-1" points="9 681.84 9 681.85 8.82 681.72 9 681.84"/><path class="cls-1" d="M12.62,682.8c0-.06,0-.25,0-.11S12.61,682.89,12.62,682.8Z"/><path class="cls-1" d="M5.84,681.2c.24-.73.19,0,.38-.41,0,0-.09.41,0,.31.21-.56.28-.18.29.29l0,.11c0,.09.1-.29.11-.23s0,.11,0,.21c0-.23.06-.09.1-.27,0,.1,0,.28-.06.38l.07-.26c.17-.62.07.06.19-.25a1,1,0,0,0,0,.17c.16-.37.23-.28.35-.4a2,2,0,0,0-.08.37,1.06,1.06,0,0,1,.13-.39c0,.28.1-.25.09-.09l0,.06c.09-.29,0,.18.09-.18l0,.23c.1-.4,0,.22,0,0v-.08c0-.09,0,.11,0,.05v0c.06-.1,0,.13.1-.18a4.35,4.35,0,0,0-.12.47c.18-.3.27-.21.38-.19a2.58,2.58,0,0,1,0,.29c0-.07,0,0,.09-.21,0,0,0,.16,0,.18s.09-.34.09-.2a1.6,1.6,0,0,0-.08.3.54.54,0,0,1,.13-.27.84.84,0,0,0-.05.18c.08-.27,0,.07.09-.1l0,.18c0,.22.08-.38.09-.24a.83.83,0,0,0,0,.2c.09-.33.12-.21.17-.31a.41.41,0,0,0,0,.07s.05.07.11-.06c0,.08-.1.44,0,.38.07-.36.08-.14.15-.55,0,.06,0,.21.07.09,0,.13-.08.44-.11.47l0,.22c0,.15,0-.05,0,.14,0,0,.08-.15.08-.09a4.57,4.57,0,0,1,.21-.67c0,.14-.07.4-.1.46l.2-.68s-.06.28,0,.19a1.55,1.55,0,0,1,.06-.23s.06-.08,0,.28c0,.14,0,.07,0,.2s0-.12.07-.12v0s.07-.15.1-.35c0,0,0,.22,0,.11s.09-.26.11-.26a2.33,2.33,0,0,0-.06.25,2.17,2.17,0,0,1,.19-.47c0-.17-.08.31-.07.22,0,.24.16-.32.12,0,0,0,0-.25,0-.2s0,.27,0,.18c0,.15,0,0,0-.08s0,.07,0,.08.16-.32.16-.1a3.34,3.34,0,0,1,.1-.34l0,.23c0,.13,0,0,0,.18.08-.27-.13.21-.06,0,0,.19.12-.35.05,0,0,0,.09-.25.06,0a1.33,1.33,0,0,0-.06.3s0-.11.07-.18l0-.09c.05-.21,0,0,.06-.21,0,.18.06-.1,0,.26l-.06.28s.08-.29.12-.42a1.21,1.21,0,0,1,0,.14c.1-.44,0,0,.11-.3,0,.16.06,0,0,.3.05-.12.1-.28.1-.18a1.27,1.27,0,0,0,0,.15c0,.13,0,0,0-.05a3,3,0,0,0,0,.41c0-.12.08-.36.12-.5-.08.43.11-.27.05.13a1.37,1.37,0,0,0-.08.31c-.07.43.1-.31.08-.1l.07-.35c0,.22.09-.2,0,.16,0-.13,0,.13.07-.22,0,.3.15-.16,0,.47,0-.05,0,0,.05-.17s0,.13,0,0a.75.75,0,0,0,0-.15,1.09,1.09,0,0,1-.07.4c0,.22.16-.59.17-.44s0,.19,0,.17l.07-.24a4,4,0,0,1-.1.58.61.61,0,0,0,.08-.21l-.05.31c0-.22,0-.14.06-.2l0,.06c0,.1,0,0,0,0a.94.94,0,0,0,0-.26c0-.11,0-.08.07-.2,0,.24,0,.17,0,.2s.06-.21.06-.2,0,0,0,.19,0-.12,0,0,0,.31,0,.15.09-.47.08-.31,0,.15-.06.24v.13l0-.22c0,.05,0,.07,0,.1,0-.23,0-.06.1-.32,0,0,0,.16,0,.18v0c0,.13,0,.05.06-.09v.05s0,0,.07-.14c0,.17-.17.82-.09.55a2.88,2.88,0,0,0,.13-.53c0,.15.12-.19.08.15a1.24,1.24,0,0,1,.05-.19c0,.09.16-.24.11.2a2.53,2.53,0,0,0-.07.34c.05-.19,0,.21,0-.13a2.38,2.38,0,0,0,.07-.37c.05-.1.1-.09.07.09a.72.72,0,0,1,.05-.2c-.07.31-.05.36,0,.25l0-.19,0,.2c0-.06.09-.4.07-.21s0,.15,0,.2c.05-.15.13-.41.11-.24l0,.28a1.87,1.87,0,0,0,.07-.28,2.65,2.65,0,0,1,0,.45c.18-.58.26-.59.32-.53l0,.14c0,.14.07-.25.06-.15s-.05.3-.1.47.08-.24.11-.31,0,.12,0-.12c0-.06,0,.16.06-.13a3.12,3.12,0,0,1-.09.44l0-.13c-.05.33-.16.58-.23,1l0,0c0,.3-.1.33-.09.44,0-.14.14-.55.16-.68s.15-.67.18-.64,0,0-.08.27.06-.12.06,0a2.92,2.92,0,0,1,.1-.44c0,.13-.07.26,0,.3a2,2,0,0,0,.09-.4c.09-.37,0,.11.08-.18a7.44,7.44,0,0,0-.15.74c.05-.26.1-.34.17-.72a4.22,4.22,0,0,1-.09.43c0,.16.13-.45,0,.05l.06-.26c0,.09,0,.15,0,.29s.12-.34,0,0c0,0,0,0,.09-.29s-.06.2,0-.17c-.05.3,0,0,.07-.13l0,.15a.47.47,0,0,0,.06-.18,1.51,1.51,0,0,0,0,.22l0-.22c.05-.11-.07.4,0,.34l-.06.17s0,.18,0,.11l.15-.62c0-.09,0,.24,0,0l-.08.25a1.69,1.69,0,0,0,0,.34,2.58,2.58,0,0,0,.12-.48.79.79,0,0,1,0,.28c0-.07,0-.23.09-.35,0,.14,0,.34-.07.55l-.09.34h0c-.08.27,0,.21-.11.51,0,.05,0,0,.06-.13.07-.48.16-.64.24-1.07.06-.11-.19,1,0,.38,0-.11.11-.44.06-.32s.11-.43.1-.24-.08.44-.16.69c0-.14,0-.11,0-.07a1.79,1.79,0,0,0-.07.44s0,0,.08-.27a1.85,1.85,0,0,1,0-.23c0-.08,0,.3.07-.13a2.36,2.36,0,0,1,.06-.4l.05-.1,0,.17c0,.12.07-.3.09-.25l-.05.33c-.07.28,0-.14-.11.32,0,0,.07-.21.06-.08a.69.69,0,0,0,0,.08s-.12.62,0,.28a2.36,2.36,0,0,0,.07-.33c0-.05.09-.22.12-.24-.07.33,0,0-.06.37,0-.19,0-.19-.1.13s0-.06-.11.34a4.61,4.61,0,0,1-.11.65s0-.08,0-.12c.05-.24,0-.24.09-.49,0,.08.07,0,.14-.28,0,.12-.07.36-.08.38s.08,0,.09,0c.06-.39.06-.08.11-.41a3.75,3.75,0,0,1,.09-.54,1.19,1.19,0,0,1,0,.25c.06-.21-.05.35,0,0a6.76,6.76,0,0,0-.18.78c.06-.16,0,.22,0,.23a2,2,0,0,1,.15-.36c0,.3.08,0,.11,0,0,.16-.1.5-.09.56s.06-.37.06-.21l0,.07c0-.08,0,.25.11-.25l-.08.37s0,0,0-.08c0,.12,0,.23-.07.31,0,.26.05,0,.07,0l0-.23c.07-.16,0,.06.09,0l0,.22,0-.13c-.05.21-.06.35,0,.18l-.16.52c0-.13.07-.26.11-.48s0-.13-.06.08c0,0,0,0,0-.1a2.8,2.8,0,0,1-.13.48s0,.09,0,0c0,.15-.06.17-.08.17a2,2,0,0,0,.06-.27c-.06.26-.09.34-.1.26.05-.31-.09.19-.1.1.07-.27.13-.48.17-.59s0,0,0-.13c-.05.2-.12.5-.17.62l0-.2c0,.1-.1.39-.11.33a.32.32,0,0,0-.1-.15l0-.19c-.11.42-.1.14-.16.32,0-.2-.13.17-.08-.17-.11.13-.21.27-.27.18l.07-.29c-.06.21,0-.17,0-.13a4.21,4.21,0,0,1-.13.47c0-.23-.09,0-.16.2l0-.2c-.11.37-.08,0-.1,0s0-.27,0-.25a2.91,2.91,0,0,1-.16.48s-.05-.09,0-.22c-.18.43-.21.13-.35.38l0-.24c-.19.48-.2,0-.33.25l.09-.4c0-.13-.07.1-.13.38,0-.13-.09.18,0-.15,0-.08-.07.18-.1.23,0-.16,0-.13-.1-.07v0a1.51,1.51,0,0,0,0-.28c0,.1,0-.12-.12.36,0-.29-.16.2-.13-.18a2.08,2.08,0,0,1-.06.24s0-.28-.11-.07c0-.06.06-.22,0-.23s0,.17-.06.24c-.12.22-.08-.28-.16-.23-.16.23-.25.07-.36.09l0-.09c-.11.36,0-.39-.15.15,0-.09,0-.05,0-.23-.09.25,0-.26-.14.06,0,0,0,0,0,0,0-.22-.09.06-.09-.14l.05-.16c0-.19-.13.39,0-.07A1,1,0,0,0,9,683c0-.2-.22.07-.34.16,0-.29.16-.78,0-.45,0-.09,0,.18,0,.08-.05.13.07-.52,0-.28a2.65,2.65,0,0,1-.08.33c0-.2,0-.45,0-.25l0-.14c-.13.41-.13.17-.26.65-.24,0-.5.27-.73.28s-.44,0-.6-.26c0-.41,0-.4-.06-.25,0-.06,0-.08,0-.14-.07.32,0,0-.12.33-.06-.08-.15,0-.23,0a.89.89,0,0,0,.06-.27l-.06.2v-.09a1.31,1.31,0,0,0-.07.31c-.26.23-.33-.46-.55-.42,0-.14-.11,0-.17,0-.07-.46-.13-.83-.35-.57A8.08,8.08,0,0,1,5.84,681.2Z"/><path class="cls-1" d="M12.59,682.83a3.47,3.47,0,0,1,.09-.47Z"/><path class="cls-1" d="M12.46,681.07s0-.06,0-.09,0-.14,0-.06S12.48,681,12.46,681.07Z"/><path class="cls-1" d="M12.36,681a.62.62,0,0,1,.1-.26Z"/><path class="cls-1" d="M12.37,680.34c0-.12,0-.19.05-.18Z"/><path class="cls-1" d="M12.29,680.66a.82.82,0,0,1,0-.16C12.28,680.62,12.35,680.43,12.29,680.66Z"/><path class="cls-1" d="M12.14,680.2s-.05.12,0,0C12.1,680.28,12.18,680,12.14,680.2Z"/><path class="cls-1" d="M12,680.39s0,0,0,0a.48.48,0,0,1,0-.18Z"/><polygon class="cls-1" points="9.78 680.52 9.81 680.46 9.78 680.6 9.78 680.52"/><path class="cls-1" d="M8.87,680.34c0,.09,0-.13,0-.16S8.85,680.36,8.87,680.34Z"/><polygon class="cls-1" points="8.23 680.95 8.23 680.95 8.17 681.24 8.23 680.95"/><path class="cls-1" d="M9,688.2c.06,0,.17-.09.09,0S8.92,688.24,9,688.2Z"/><path class="cls-1" d="M5.68,680c.57-.13.09.22.47.19,0,0-.29.12-.21.12.46-.07.28.19,0,.45l-.09,0s.24,0,.21,0a.77.77,0,0,0-.15.06c.16-.07.09,0,.22,0l-.26.13.2-.06c.45-.14,0,.11.26.07l-.12,0c.3,0,.3.1.44.16-.07,0-.19.07-.26.11.2-.08.26-.07.31-.06-.2.1.2,0,.1,0h0c.22-.06-.11.09.15,0l-.15.08c.29-.11-.13.1,0,.06l.06,0c.07,0-.06.06,0,.06h0c.09,0-.06.1.16,0-.17.08-.09,0-.34.12.28,0,.29.18.35.31l-.19.11a.34.34,0,0,0,.18,0,.37.37,0,0,0-.12.07c-.07,0,.25-.08.17,0a.74.74,0,0,0-.22.08.34.34,0,0,1,.23,0l-.13,0c.21-.05,0,.07.11,0l-.13,0c-.14.11.28-.1.2,0l-.15.06c.25-.07.19,0,.29,0l-.06,0s0,.1.11.09c0,0-.32.13-.25.15.25-.11.13,0,.41-.13,0,0-.1.14,0,.12-.1,0-.31.15-.34.13l-.15.09c-.1,0,0,0-.1,0,0,0,.14,0,.1,0a2.92,2.92,0,0,1,.52-.12c-.11,0-.28.13-.33.14l.52-.15s-.21.09-.13.08l.17-.06s.09,0-.16.14-.07,0-.15.05.1,0,.11,0h0s.13,0,.26-.07-.15.06-.08,0,.2,0,.21,0l-.18.07a.85.85,0,0,1,.39,0c.12-.05-.23.07-.16,0-.15.12.27,0,0,.14,0,0,.16-.07.13-.06s-.18.1-.11.09c-.1,0,0,0,.08,0s-.05,0-.07,0,.29,0,.16.12c.07,0,.27-.08.26-.06l-.16.06c-.09.05,0,0-.1.09.2-.06-.21,0,0,0-.13.06.27-.06.05,0,0,0,.2,0,.06,0,0,0-.22.07-.21.09s.08,0,.15,0h.07c.15-.07,0,0,.16-.05-.13.06.1,0-.16.12l-.2.08s.22-.07.31-.09l-.09,0c.31-.13,0,0,.23,0-.09.07,0,.08-.16.17.1,0,.22,0,.17,0l-.11,0c-.09.06,0,0,.05,0s-.16.11-.27.17a2.72,2.72,0,0,0,.37-.13c-.3.14.22,0,0,.12a.58.58,0,0,0-.23.08c-.3.15.24,0,.11,0l.24-.11c-.15.08.17,0-.09.09.1,0-.06.07.18,0-.19.15.18.08-.25.3.05,0,0,0,.14,0s-.11,0,0,0l.12,0s-.06.06-.28.13.44-.13.36-.05-.14.07-.12.07l.19,0a1.76,1.76,0,0,1-.4.18s0,0,.17,0l-.21.11c.15-.08.11,0,.16,0H8.5c-.07,0,0,0,0,0a.68.68,0,0,0,.17-.11,1.43,1.43,0,0,0,.16,0c-.17.07-.11.08-.12.1s.16,0,.15,0,0,0-.13.07.08-.05,0,0-.21.1-.09.07.33-.14.23-.07l-.17.06-.08.06.15-.06-.07,0c.17-.06.07,0,.25,0,0,0-.09.07-.1.09h0c-.08,0,0,0,.1,0h0s0,0,.12,0c-.1.07-.57.25-.37.19a1.33,1.33,0,0,0,.39-.13c-.09.08.18,0,0,.16a.56.56,0,0,1,.15,0c0,.08.23.05-.05.22a1.54,1.54,0,0,0-.24.1c.14,0-.14.08.1,0a1.06,1.06,0,0,0,.25-.13c.09,0,.12.06,0,.13a.46.46,0,0,1,.16-.06c-.23.09-.25.13-.16.12l.13,0-.13.07c.05,0,.29-.11.16,0l-.14.07c.12,0,.32-.08.22,0l-.19.1a.53.53,0,0,0,.2-.07.86.86,0,0,1-.27.2c.44-.11.49,0,.5.07l-.11,0c-.08.06.19-.07.12,0s-.2.1-.33.14.19,0,.25,0-.09,0,.08-.05-.09.09.11,0a2.23,2.23,0,0,1-.31.12l.11,0c-.23.12-.44.13-.72.27h0c-.21.1-.26,0-.31.12a2.5,2.5,0,0,0,.48-.18c.07,0,.49-.19.49-.14s0,0-.2.06.1,0,0,0a1.07,1.07,0,0,1,.32-.12c-.08.06-.19.06-.2.1a1,1,0,0,0,.29-.11c.26-.1-.06.06.15,0a5.09,5.09,0,0,0-.52.22,5.14,5.14,0,0,0,.51-.19,1.53,1.53,0,0,1-.3.13c-.1.06.35-.09,0,.06l.18-.07-.19.11s.27-.05,0,.06c0,0,0,0,.22-.06s-.15,0,.1-.09c-.2.11,0,0,.12,0l-.11,0s0,0,.15,0a.49.49,0,0,0-.16.07l.16-.06c.1,0-.28.12-.22.13l-.13,0s-.12.07-.06.06l.44-.16c.08,0-.16.08,0,0l-.19,0c-.05,0-.24.12-.22.14a.89.89,0,0,0,.35-.13s-.08.07-.19.1c.06,0,.16-.07.26-.08l-.36.21-.26.08v0a2.75,2.75,0,0,0-.36.15s0,0,.1,0c.33-.17.48-.15.78-.29.1,0-.73.34-.24.18.08,0,.32-.12.22-.11s.32-.11.2,0-.3.15-.49.19c.1,0,.07-.05,0,0s-.3.13-.29.15.05,0,.21,0,0,0,.15-.08-.19.12.13,0c0,0,.14-.09.26-.14h.08l-.11,0c-.07.07.21-.08.2,0l-.23.12c-.2.07.07-.09-.25,0,0,0,.16,0,.09,0H10s-.43.2-.17.13a1.54,1.54,0,0,0,.24-.1s.18,0,.21,0c-.24.1,0,.06-.26.13.14-.07.1-.12-.13,0s0,0-.26.06c0,0-.27.15-.45.23,0,0,.07,0,.1,0a3.54,3.54,0,0,0,.34-.16c0,.06.08.05.25,0a.83.83,0,0,1-.27.11c.07,0,.06.07,0,.13.26-.14.08,0,.31-.09a1.26,1.26,0,0,1,.37-.19s-.13,0-.18.08c.16-.05-.23.13,0,0a3.83,3.83,0,0,0-.56.22c.14,0-.15.07-.14.09a1.16,1.16,0,0,1,.3,0c-.19.13,0,.1.06.13s-.35.16-.39.19.26-.12.16,0H9.5c.06,0-.14.14.22,0l-.27.1h.07a1.13,1.13,0,0,1-.22.09c-.18.1,0,0,.06,0l.15-.08c.14,0,0,.08.07.09l-.16.06h.11c-.16.06-.24.12-.11.08l-.4.1c.08-.06.19-.06.34-.14s.07-.08-.08,0,0,0,.08,0A1.66,1.66,0,0,1,9,688s-.05,0,0,0c-.11,0-.13,0-.15,0s.13-.07.2-.09c-.19.08-.26.08-.22,0,.21-.11-.16,0-.11-.05a3.06,3.06,0,0,1,.44-.12c.08-.06,0,0,.07-.09a4,4,0,0,1-.46.15l.14-.06c-.09,0-.29.09-.27,0a.25.25,0,0,0,0-.18l.14-.06c-.31.1-.14,0-.29,0,.11-.11-.18-.05.05-.18-.15,0-.28-.08-.27-.2l.21-.07c-.16.05.11-.06.07-.06a1.08,1.08,0,0,1-.35.11c.14-.11-.05-.09-.21-.07l.14-.06c-.28.07-.07-.07,0-.13s.18-.1.16-.1a1.47,1.47,0,0,1-.38.07s0-.09.1-.16c-.36,0-.2-.15-.44-.18l.16-.08c-.39,0-.12-.21-.34-.22l.28-.11c.08-.07-.1,0-.29.06.07-.07-.17,0,.06-.13,0-.05-.15,0-.2,0s0-.12,0-.15v0a.67.67,0,0,0,.19-.09c-.08,0,0-.1-.28.06.17-.14-.21-.07,0-.23l-.18.06s.14-.18,0-.16c0,0,.16-.05.16-.07s-.12.05-.18.05.11-.23,0-.29c-.24,0-.2-.22-.29-.34l.07,0c-.27.06.23-.21-.18-.08.06,0,0-.05.15-.1-.2,0,.13-.16-.12-.11h0c.13-.11-.09-.07,0-.17l.13,0c.12-.07-.31.08,0-.07a.59.59,0,0,0-.16.06c.08-.16-.18-.19-.3-.28.16-.17.55-.24.27-.2l0,0c-.11,0,.34-.19.16-.14a1.63,1.63,0,0,1-.23.09c.1-.11.28-.19.11-.17l.11,0c-.32.08-.18-.05-.54.06-.17-.23-.47-.4-.61-.64s-.3-.46-.23-.79c.26-.18.25-.18.11-.2l.09,0c-.22.09,0,0-.26,0,0-.11-.09-.17-.13-.26s.22-.07.19-.08l-.15,0,.06,0a.66.66,0,0,0-.22.08c-.3-.16.06-.59-.1-.81.07-.09,0-.14-.12-.18.22-.31.4-.57.11-.67A3.22,3.22,0,0,1,5.68,680Z"/><path class="cls-1" d="M8.94,688.17a1.48,1.48,0,0,1,.33-.14Z"/><path class="cls-1" d="M9.87,687.12l.06,0s.11,0,.06,0Z"/><path class="cls-1" d="M9.88,687c.1,0,.19-.05.21,0Z"/><path class="cls-1" d="M10.24,686.64c.08,0,.13-.07.13,0Z"/><path class="cls-1" d="M10,686.72s.05,0,.1-.07S10.18,686.66,10,686.72Z"/><path class="cls-1" d="M10.18,686.31s-.11,0,0,0C10.11,686.31,10.33,686.25,10.18,686.31Z"/><path class="cls-1" d="M10,686.24s0,0,0,0a.36.36,0,0,1,.13-.05Z"/><polygon class="cls-1" points="8.52 683.93 8.58 683.93 8.48 683.97 8.52 683.93"/><path class="cls-1" d="M8.06,682.85c-.07,0,.09-.05.1-.06S8,682.84,8.06,682.85Z"/><polygon class="cls-1" points="7.31 682.48 7.32 682.48 7.11 682.57 7.31 682.48"/></svg>