<svg xmlns="http://www.w3.org/2000/svg" viewBox="0 0 198.7 117.26"><defs><style>.cls-1{isolation:isolate;}.cls-2,.cls-6{fill:#315445;}.cls-19,.cls-2{opacity:0.5;}.cls-14,.cls-18,.cls-3{fill:#4f886f;}.cls-20,.cls-3,.cls-4,.cls-7{stroke:#315445;stroke-miterlimit:10;}.cls-3,.cls-4{stroke-width:0.75px;}.cls-4,.cls-7{fill:#569471;}.cls-20,.cls-5{fill:none;}.cls-8{fill:#3a6352;}.cls-9{fill:#3a6351;}.cls-10{fill:#3e6b4b;}.cls-11{fill:#365c56;}.cls-12{fill:#3e6b58;}.cls-13{fill:#5e4f38;}.cls-14{stroke:#3f6b51;stroke-linejoin:round;}.cls-15{fill:#3f6b51;}.cls-16{fill:#486759;}.cls-17{fill:#3b5d4e;}.cls-19{mix-blend-mode:darken;}.cls-20{stroke-linecap:square;stroke-width:2px;}</style></defs><title>Artboard 1</title><g class="cls-1"><g id="Layer_1" data-name="Layer 1"><rect class="cls-2" x="7.35" y="45.13" width="184" height="12"/><rect class="cls-3" x="86.35" y="7.13" width="46" height="71"/><rect class="cls-4" x="92.85" y="66.13" width="24.5" height="12"/><path class="cls-5" d="M109.11,72.5a3.88,3.88,0,0,0-3.88,3.88,3.82,3.82,0,0,0,.66,2.15h6.44a3.82,3.82,0,0,0,.66-2.15A3.88,3.88,0,0,0,109.11,72.5Zm-1.26,5.83v-4.1l3.55,2Z"/><polygon class="cls-6" points="107.85 78.33 111.4 76.28 107.85 74.23 107.85 78.33"/><path class="cls-6" d="M105.23,76.38a3.88,3.88,0,0,1,7.76,0,3.82,3.82,0,0,1-.66,2.15h.88a4.61,4.61,0,0,0,.55-2.15,4.65,4.65,0,1,0-9.3,0,4.61,4.61,0,0,0,.55,2.15h.88A3.82,3.82,0,0,1,105.23,76.38Z"/><rect class="cls-7" x="92.85" y="39.63" width="25" height="21"/><polygon class="cls-6" points="107.85 48.23 111.4 50.28 107.85 52.33 107.85 48.23"/><path class="cls-6" d="M109.11,46.5a3.88,3.88,0,1,1-3.88,3.88,3.88,3.88,0,0,1,3.88-3.88m0-.78a4.66,4.66,0,1,0,4.65,4.66A4.66,4.66,0,0,0,109.11,45.72Z"/><rect class="cls-7" x="92.85" y="13.63" width="33.5" height="21"/><polygon class="cls-6" points="107.85 22.23 111.4 24.28 107.85 26.33 107.85 22.23"/><path class="cls-6" d="M109.11,20.5a3.88,3.88,0,1,1-3.88,3.88,3.88,3.88,0,0,1,3.88-3.88m0-.78a4.66,4.66,0,1,0,4.65,4.66A4.66,4.66,0,0,0,109.11,19.72Z"/><rect class="cls-3" x="115.35" y="21.13" width="46" height="71"/><rect class="cls-6" x="121.85" y="62.63" width="6" height="6"/><rect class="cls-8" x="121.85" y="69.63" width="6" height="8"/><rect class="cls-6" x="121.85" y="78.63" width="6" height="4"/><rect class="cls-6" x="121.85" y="41.63" width="6" height="7"/><rect class="cls-9" x="121.85" y="49.63" width="6" height="7"/><rect class="cls-6" x="121.85" y="57.63" width="6" height="4"/><rect class="cls-6" x="128.85" y="55.63" width="6" height="6" transform="translate(263.7 117.26) rotate(180)"/><rect class="cls-10" x="128.85" y="46.63" width="6" height="8" transform="translate(263.7 101.26) rotate(180)"/><rect class="cls-6" x="128.85" y="41.63" width="6" height="4" transform="translate(263.7 87.26) rotate(180)"/><rect class="cls-11" x="128.85" y="75.63" width="6" height="7" transform="translate(263.7 158.26) rotate(180)"/><rect class="cls-6" x="128.85" y="67.63" width="6" height="7" transform="translate(263.7 142.26) rotate(180)"/><rect class="cls-12" x="128.85" y="62.63" width="6" height="4" transform="translate(263.7 129.26) rotate(180)"/><rect class="cls-6" x="135.85" y="46.63" width="6" height="6"/><rect class="cls-13" x="135.85" y="53.63" width="6" height="8"/><rect class="cls-6" x="135.85" y="41.63" width="6" height="4"/><rect class="cls-6" x="135.85" y="62.63" width="6" height="7"/><rect class="cls-6" x="135.85" y="70.63" width="6" height="7"/><rect class="cls-6" x="135.85" y="78.63" width="6" height="4"/><rect class="cls-14" x="121.85" y="29.63" width="33" height="9"/><circle class="cls-15" cx="128.35" cy="34.13" r="2.5"/><rect class="cls-16" x="133.85" y="32.63" width="16" height="1" rx="0.5" ry="0.5"/><rect class="cls-16" x="133.85" y="34.63" width="16" height="1" rx="0.5" ry="0.5"/><rect class="cls-3" x="138.35" y="39.13" width="46" height="71"/><circle class="cls-17" cx="161.35" cy="62.13" r="12.5"/><polygon class="cls-18" points="159.64 62.73 157.06 59.93 154.21 62.78 154.21 62.78 159.58 68.15 168.66 59.08 166.58 56.97 159.64 62.73"/><rect class="cls-6" x="147.85" y="79.63" width="27" height="1" rx="0.5" ry="0.5"/><rect class="cls-6" x="147.85" y="81.63" width="27" height="1" rx="0.5" ry="0.5"/><rect class="cls-6" x="147.85" y="83.63" width="27" height="1" rx="0.5" ry="0.5"/><rect class="cls-6" x="147.85" y="85.63" width="10" height="1" rx="0.5" ry="0.5"/><rect class="cls-6" x="147.85" y="87.63" width="10" height="1" rx="0.5" ry="0.5"/><rect class="cls-6" x="147.85" y="93.63" width="27" height="6"/><rect class="cls-18" x="156.35" y="96.13" width="10" height="1" rx="0.5" ry="0.5"/><g class="cls-19"><line class="cls-20" x1="137.05" y1="91.53" x2="137.05" y2="37.83"/><line class="cls-20" x1="160.75" y1="37.83" x2="137.05" y2="37.83"/></g><g class="cls-19"><line class="cls-20" x1="114.05" y1="77.63" x2="114.05" y2="19.83"/><line class="cls-20" x1="131.85" y1="19.83" x2="114.05" y2="19.83"/></g></g></g></svg>