<svg id="Layer_1" data-name="Layer 1" xmlns="http://www.w3.org/2000/svg" viewBox="0 0 100 100"><defs><style>.cls-1{fill:#bdbdbd;}</style></defs><title>Artboard 3</title><path class="cls-1" d="M56.19,50.9c.05.08.23.18.25.07l-.24-.25Z"/><path class="cls-1" d="M57.08,50.64a.86.86,0,0,0-.54-.55c.21.27.08.22.33.54,0,.11-.18.1-.28,0,0,.08-.14.1,0,.26s.39-.12.31-.38C57,50.52,57,50.6,57.08,50.64Z"/><path class="cls-1" d="M60.24,40.7l0,.07A.25.25,0,0,0,60.24,40.7Z"/><path class="cls-1" d="M57.48,34.55a.1.1,0,0,0,.11,0C57.54,34.53,57.49,34.52,57.48,34.55Z"/><path class="cls-1" d="M56.69,33.53l.06.06S56.72,33.52,56.69,33.53Z"/><path class="cls-1" d="M60.24,40.7l.09-.19C60.22,40.5,60.26,40.61,60.24,40.7Z"/><path class="cls-1" d="M57.09,49a.19.19,0,0,0,0,.12v-.09Z"/><path class="cls-1" d="M60.45,43.68v0l.13.07Z"/><path class="cls-1" d="M60.05,45.94s-.24-.13-.35-.18c.1.05.15.1.16.15A.5.5,0,0,0,60.05,45.94Z"/><path class="cls-1" d="M58.33,49.11v0Z"/><path class="cls-1" d="M60.62,42l.1,0Z"/><path class="cls-1" d="M54.19,52.4l0,0S54.2,52.39,54.19,52.4Z"/><polygon class="cls-1" points="56.8 51.32 56.79 51.36 56.92 51.45 56.8 51.32"/><path class="cls-1" d="M54.66,32.28h0C54.74,32.27,54.71,32.27,54.66,32.28Z"/><path class="cls-1" d="M38.51,42.11c.32-.08.12.46.52.3C38.92,42.39,38.78,41.94,38.51,42.11Z"/><path class="cls-1" d="M57.15,49a.25.25,0,0,1,0-.07S57.15,49,57.15,49Z"/><path class="cls-1" d="M39,42.41h0l0,0Z"/><path class="cls-1" d="M49.39,32.53a.39.39,0,0,0,.08.1S49.45,32.58,49.39,32.53Z"/><path class="cls-1" d="M53.23,32.59l-.09-.05A.14.14,0,0,0,53.23,32.59Z"/><path class="cls-1" d="M47.69,33.55c-.06,0-.09,0-.14,0l0,0S47.62,33.54,47.69,33.55Z"/><path class="cls-1" d="M45.92,34.46l.06,0,.05-.05Z"/><path class="cls-1" d="M50.19,55.82a1.16,1.16,0,0,1,.2.18C50.27,55.84,50.46,55.66,50.19,55.82Z"/><path class="cls-1" d="M57.23,49.1c-.06-.05-.08-.08-.08-.11s0,0,0,.06A.19.19,0,0,0,57.23,49.1Z"/><path class="cls-1" d="M48.5,35.62l-.26.06A.82.82,0,0,0,48.5,35.62Z"/><path class="cls-1" d="M39.91,54.22l.05,0S39.94,54.22,39.91,54.22Z"/><path class="cls-1" d="M47.55,36.09a.45.45,0,0,0-.23-.1.28.28,0,0,0,0,.08Z"/><path class="cls-1" d="M50.39,56h0Z"/><path class="cls-1" d="M51.54,54.46c-.21.15.12.37.2.57-.2.28-.28-.13-.47-.22-.11.18,0,.55-.18.61s-.08,0-.09-.13c0,.36-.5.36-.54.78L50.39,56a1.8,1.8,0,0,1,.28.42c-.1.06-.09.31-.24.12.07,0,0-.11,0-.2l-.06.16c-.27-.26.09-.19,0-.42-.16.22-.29.61-.5.61-.19-.28.34-.31,0-.46l.31,0c-.44-.37.17,0-.27-.46-.37.08-.28.36-.66.41,0,.21.14.24.14.45-.37.52-.71-.62-.9-.06,0,.24.09.66-.25.53l0-.39c-.35.07,0,.59-.47.46,0-.16.24-.21.17-.24-.31-.22-.1.28-.29.32l-.12-.32c-.35.12-.7.49-1.12.58,0-.11.07-.22,0-.31A1.8,1.8,0,0,1,44.75,57l-.21.27s-.06-.14,0-.19c-.17-.13,0,.18-.13.29s-.12-.19,0-.27c-.35.24-1.06.33-1.29-.07l.09-.06c-.2-.21-.5.45-.65.1l.07,0c-.49-.34-1.22-.5-1.28-1.14-.36.28-.3-.52-.73-.14,0-.46.09-.42,0-.92,0-.12-.4.07-.55,0l.25-.18h-.39l.25-.3L40,54.25a.23.23,0,0,1-.14.22c-.23-.14-.08-.61.06-.67a3.39,3.39,0,0,1-.45-.4c.12,0,.19,0,.29.07-.4-.15.28-.17-.08-.31-.06.06-.18.05-.24.07a.75.75,0,0,0-.11-.68h.21a2.14,2.14,0,0,0-.19-.61,4.55,4.55,0,0,1-.17-.66c-.07.17-.44.19-.5.06l.31-.1c-.21-.07-.1.16-.37,0,0-.19.35-.17.47-.08a2.43,2.43,0,0,1-.14-.2c.1,0,.15,0,.27,0-.2-.07.31-.39,0-.49l.1,0c0-.46-.13-.67-.14-1.06-.28,0-.21-.17-.44-.3.1-.29.38-.59.38-.94s-.22-.1-.38-.24c.25,0,.3-.33.44-.12a3.1,3.1,0,0,0,0-1.12c-.12,0-.17.09-.25,0s.16-.2.28-.16v0c-.1-.35.18-.65.42-.92s.52-.51.35-.83l0,0a5.77,5.77,0,0,1-.08-.58c.13-.19.12.2.33.11-.16-.66.39-.76.34-1.28.83,0,.52-1.12,1.21-1.26l-.17-.07c-.08-.2.17-.07.25-.12-.13-.07-.21,0-.25-.09.36-1,1.44-1.59,2.22-2.24.3-.23-.52-.78.13-.83l.14.33a1.83,1.83,0,0,1,.71-.94,3.37,3.37,0,0,0,.8-.84c0,.08.07.16,0,.21.27.09.47-.34.36-.51.11,0,.12.13.24.17s.15-.47.36-.32c0,0,0,.08,0,.12,0-.16.41-.24.18-.42.3,0,.39-.4.67-.35,0-.34.49-.09.33-.5.19.4.59.1.67-.15,0,.14.2.07.21.27.18-.09.31-.24.19-.44.52.35.56-.65,1-.07a4.26,4.26,0,0,1,.74-.51,3,3,0,0,1,.76-.34c0,.44-.57.12-.46.59.43-.27.69-.68,1.19-.61.13.07-.06.2-.1.28.49-.19.93,0,1.38-.15,0,0-.06.08-.11.11s.19.09.21-.12l-.09,0c-.11-.31.43-.58.49-.73-.26.54.41.26,0,.93a.33.33,0,0,0,.17-.24c.07.06.08.14,0,.27.32,0,.27-.27.55-.2,0,.1-.1.12-.16.22.19-.16.38-.27.58-.11,0,.05,0,.14-.1.11a1.58,1.58,0,0,0,.61,0,.66.66,0,0,1,.56.23c-.34.3.06.2-.12.52l.25,0,0-.21c.16.14.47,0,.54.25l-.22,0,.36.19-.09-.24c.3,0,.29-.38.46-.11-.07,0,.16.17.08.41h0c.16,0,.33,0,.38.18s-.33.25-.37.32c.32-.14.37.34.72.25a.54.54,0,0,0-.27.16l.26-.08c0,.13,0,.17-.17.24.14.27.34-.34.38.07,0,0-.06,0-.13,0,.11.36.49.55.55.9-.3.25-.22-.22-.46,0,.15.18.32.38.51.57a1.11,1.11,0,0,1,.34.66l0-.09c.53-.08-.16.41.14.58,0,0-.3,0-.24,0,0,.33.24.62.49,1.09l-.14,0a3.45,3.45,0,0,0-.08.72c.14.06.13.18.32.1a.74.74,0,0,0-.16.94c.12.3.24.61-.12.87,0-.07-.1-.17-.11-.12l.07.5c.24,0,.15,0,.34-.13a.39.39,0,0,1,.2.36c-.12-.25-.36-.05-.5,0,.07,0,.14,0,.21,0-.43.2.46.11.12.43l-.11,0c0,.14.17.29.11.43-.28,0-.1-.17-.31-.22,0,.2.42.5.12.63-.06-.11,0-.23-.09-.33-.35.13-.27.17-.35.3h0l-.22.29.1-.06c.61.42,0,.52.34,1-.33-.45-.23-.12-.51-.24-.1.06-.23.16-.3.1.19.22-.27.18,0,.51-.1,0-.07.15-.29,0,0,.22.18,0,.29.07.2.42-.61.55-.39,1.14,0,.44.28.64.27,1.06-.2,0-.27-.25-.27-.25a.45.45,0,0,0-.26.49c-.06-.08-.14-.07-.26-.07s.26.25,0,.36a1.43,1.43,0,0,1-.27-.32c0,.2.07.45.06.65-.17,0-.17-.22-.24-.33,0,.22-.13.54.06.73l.16-.06c0,.07-.22-.09-.24-.16-.08-.26.22-.18.31-.14s0,.1,0,.15c.57.17.18-.52.33-.74l.32.3-.18-.41c.13,0,.36.06.35.21.27-.08,0-.22.23-.27,0,0,.06,0,.06,0a2,2,0,0,0,0-.23c.06.08.28.1.17.19.36-.22,0-.65.29-.64v0c.07-.5-.26-.16-.44-.63l.79.06-.26-.15a.13.13,0,0,1,.19-.07c-.14-.25-.14,0-.29-.19.34-.13.1-.66.58-.55-.19-.16-.25.15-.31-.14.51.1,0-.3.3-.44.24.14,0,.31.34.16-.4-.26.21-.39.18-.6-.36-.1,0-.43-.09-.76.12,0,.31-.54.5-.81l0,0c-.34-.12-.22-.41-.28-.64a.46.46,0,0,1,.38.23l0-.22a.35.35,0,0,1-.19-.27l.27.08c0-.29-.24-.59-.06-.94-.26,0-.72.24-.88-.13.13,0,.37,0,.43.09s-.12-.12-.06-.18l.23.16c.11-.16-.19-.09-.16-.22.19,0,.14-.09.3-.07,0,0-.09.11,0,.16a.62.62,0,0,1,.31-.38c-.11,0-.27,0-.29-.11,0-.28.24-.09.35-.26-.15-.07,0-.25-.31-.25,0-.08.13-.1.21-.14-.14-.14-.08-.68-.38-.49l0,0,0,0h0c-.31-.43,0-1-.17-1.44l.1,0c-.18-.25-.23-.59-.48-.72,0-.08.12-.25.24-.25-.14-.18-.26-.16-.22-.51.24.14.11-.13.2.16,0-.29.1-.42-.27-.6.28,0,.22-.34.07-.43l-.07.26a1,1,0,0,1-.19-.38l.33-.09c0-.36-.25-.54-.51-.68s-.48-.25-.35-.65c-.28,0,.06.37-.24.41-.11-.24.07-.78,0-.84-.14-.42-.61.06-.79-.31a.42.42,0,0,1-.51.27c-.18-.19.06-.59.26-.55s.06.08,0,.11.23.06.23-.1l-.11.06c0-.17-.35-.41-.16-.51-.24,0-.19.1-.1.25-.19-.36-.43-.38-.7-.65,0,.08,0,.23-.06.2-.4-.4-.33.07-.66-.06-.1-.26.27-.36-.13-.39-.16-.2.09-.31.22-.36-.42.08-.55-.39-.74-.5l.21,0a.7.7,0,0,1-.3-.06l0,.26c-.09-.08-.17-.12-.14-.21-.15.11-.05.4-.32.54-.1-.15-.43,0-.4-.3.4.22,0-.32.42-.27a.36.36,0,0,1-.27-.07s0-.06.06-.07c-.36-.38-.28.29-.71.18.09-.16,0-.35-.12-.32.18,0,0,.3-.15.42-.26-.17-.31.06-.45,0l.15.08c-.07.17-.2.14-.39.17,0-.14.17-.07.11-.14-.22.27-.45-.37-.76-.15-.14-.12,0-.33-.13-.42-.34.24-.39-.25-.74,0,.12.22.13.16-.09.42a3.73,3.73,0,0,1,.56-.2,4,4,0,0,0-.35.36c.17,0,.35-.16.46-.13-.17.2-.15.14-.07.34-.24-.37-.43.22-.71,0l-.05-.59c-.45-.22-.69.37-1.22.35l.18.07c0,.24-.31.1-.45.23,0-.2-.15-.24-.26-.35.05.13-.38.1-.31.49L48.87,33c-.44,0-.28.66-.66.75,0-.24-.19-.3,0-.55-.12.05-.25.06-.2.19-.12-.08-.24.39-.42.27,0,.1,0,.3-.09.34a.12.12,0,0,1,0-.09c0,.09-.16.21,0,.36-.63-.38-1,.55-1.53.27a6,6,0,0,1-.67.6c0-.05-.06-.08,0-.09-.4,0,.14.58-.3.66-.35-.14.07-.27-.1-.29-.43-.5-.34.36-.79.23l0-.07c-.32-.05-.26.51-.54.7a.21.21,0,0,0-.07-.07,1.82,1.82,0,0,1-.38,1.06c-.11-.26,0-.2-.21-.35-.08.14.31.27.16.53a1.07,1.07,0,0,1-.61-.14l.18-.21c-.35-.15-.24.27-.39.33l-.1-.12c-.26.35,0,.6-.3.93l.12.05c.14.44-.3,0-.24.39l-.35-.2a5.21,5.21,0,0,1-.19,1,2.05,2.05,0,0,1,0-1c-.11.12-.34.45-.23.64,0-.07,0-.2.07-.22a.88.88,0,0,1-.1.91c-.58-.49-.66.56-1.26.45-.08.64-.73.92-1,1.56.64.07-.08.19.48.43,0,.15-.07.2-.12.2l-.53.26c-.21,0-.06-.19-.19-.24-.19.3-.3,0-.54.17.22,0,.23.25.08.4l.37-.15c.1.58-.65.19-.55.77l-.11-.22c0,.28-.34.91,0,1.3-.08,0-.26,0-.26-.1-.28.56.11,1.44-.29,1.82l-.14-.08c0,.13.24.26.06.37s-.14-.08-.15,0,.19.35.08.48L36.76,47c-.32.56.26,1,.31,1.47-.44,0-.64.41-.71.66l-.06,0a2,2,0,0,0,.16,1c.13.3.3.58.41.89a1.1,1.1,0,0,0-.2,1,7.62,7.62,0,0,1,.09,1.15c.05-.12.33-.07.41,0s.4.32,0,.42v-.06c-.36.24-.12.52,0,.76l.51-.15a.78.78,0,0,0-.06.63,2.06,2.06,0,0,0,.34.51c.25.32.52.56.36.91.2.05.32.22.52.27l-.23.17a2.85,2.85,0,0,0,.84,1l-.23.07c.23.25.86-.34,1.08-.18l-.19.38c.41.36.76.94,1.41.88,0,0-.1.15-.19.12.22.14.86.67,1,.09-.07.18.07.25.25.26a3.53,3.53,0,0,0,.6-.13l-.12.26c.33-.29.36-.38.7-.4.07.05,0,.24-.06.14.23.19.24-.23.53,0l-.14.16c.27,0,.26,0,.43-.23s.49.11.52.36c.05-.16.19-.36.35-.29a.19.19,0,0,1-.07.18c.46.19.65-.32,1-.09a.3.3,0,0,0,.07.16,1.44,1.44,0,0,1-.62,0c0,.26.31.3.09.66.25-.19.6-.68.9-.58a.29.29,0,0,1,0,.08l0,0a.16.16,0,0,0,.17-.06.47.47,0,0,0,.25,0c.07.2.36,0,.5,0-.07-.27.12-.27-.1-.46,0,0,0,0-.11.07s0,0,0,0v0l-.34.09c.09-.16.18-.31.36-.19l.09-.48c.27.34.7.47.81.68.38-.29,1-.42,1-1,.08-.11.18.08.25.14s-.12.1-.13.19c.18-.22.65-.34.55-.69.35,0,0,.37.34.15v.13c1,.13.73-1.43,1.87-1.28a.29.29,0,0,1-.17-.05c1.08-.29,1.5-1.49,2.6-1.77.28-.13.14-.33.13-.58l.26.17,0-.46c.11-.46,1,0,1-.76l-.2-.08c.15-.13.3-.54.46-.37,0,0-.12-.18,0-.17l.12.09.07-.54c.31-.23.47.42.81,0,.08-.2,0-.73-.17-.73a.27.27,0,0,1-.33,0l0-.19c-.36-.29-.68-.66-1.19-.52l.06.4-.24-.06.13-.2c-.25,0-.15.17-.1.32a.41.41,0,0,0-.27,0l.19.49c-.17-.08-.22-.32-.4-.23.08.24.39.15.37.41-.25,0-.36-.16-.33.07a.23.23,0,0,1-.14-.21c0,.2-.2.33-.06.54-.29-.06-.26.42-.58.12.05.1.1.42,0,.52-.22-.53-.36.33-.73-.11.22.46-.27.62-.34,1,0,0,0-.12,0-.12-.16.09-.29,0-.43,0,.24.31.09.56.13.85-.4-.15-.19-.44-.48-.67.21.23-.07.49.15.64-.28-.08-.19,0-.46-.21.28.41-.07.16,0,.48-.34-.05-.33-.33-.44-.05C51.46,54.74,51.54,54.46,51.54,54.46Zm-5.18,3.13h0l.12,0Zm-.51.07.22,0c0,.09,0,.2,0,.2S45.93,57.73,45.85,57.66Zm1.45,1.76c-.09.06-.14,0-.16,0a.43.43,0,0,0,.16-.07v0A.66.66,0,0,1,47.3,59.42Z"/><path class="cls-1" d="M47.39,59l0,0-.07-.05,0,.1Z"/><path class="cls-1" d="M60.2,40.78h0l0,0Z"/><polygon class="cls-1" points="40.3 54.59 40.24 54.63 40.32 54.63 40.3 54.59"/><path class="cls-1" d="M59.15,43.81a.13.13,0,0,0-.08,0Z"/><path class="cls-1" d="M58.85,45.05l-.14.15A.6.6,0,0,0,58.85,45.05Z"/><path class="cls-1" d="M58.46,46a.34.34,0,0,0,.11,0h0Z"/><path class="cls-1" d="M53.09,34.47h0C53,34.52,53,34.51,53.09,34.47Z"/><path class="cls-1" d="M57.18,35.73H57C57,35.79,57.07,35.84,57.18,35.73Z"/><polygon class="cls-1" points="48.53 35.61 48.53 35.6 48.5 35.62 48.53 35.61"/><path class="cls-1" d="M56.85,35.57a.17.17,0,0,0,.14.15C57,35.66,56.92,35.58,56.85,35.57Z"/><path class="cls-1" d="M56.65,49.77l0,0,0,0Z"/><path class="cls-1" d="M56.65,49.83v.07A0,0,0,0,0,56.65,49.83Z"/><path class="cls-1" d="M56.66,50V49.9S56.6,50,56.66,50Z"/><path class="cls-1" d="M57.38,48.7l-.08-.06S57.34,48.67,57.38,48.7Z"/><path class="cls-1" d="M57.53,48.33c-.07.08-.29.12-.3.26l.07,0C57.19,48.52,57.65,48.49,57.53,48.33Z"/><path class="cls-1" d="M59.33,47.24l-.19.3c.12,0,.29,0,.25.12C59.85,47.35,59.14,47.66,59.33,47.24Z"/><path class="cls-1" d="M59.83,46.24c0,.2.15,0,.2.07C60,46.16,60,46.13,59.83,46.24Z"/><path class="cls-1" d="M59.92,38.26l.25-.06C60.08,38.07,60.07,38.23,59.92,38.26Z"/><polygon class="cls-1" points="58.12 37.44 58.04 37.63 58.27 37.57 58.12 37.44"/><polygon class="cls-1" points="59.2 35.72 59.27 35.76 59.04 35.59 59.2 35.72"/><path class="cls-1" d="M46.1,34.07l.2.25C46.36,34.22,46.21,33.9,46.1,34.07Z"/><path class="cls-1" d="M41.78,38c-.16-.06-.34,0-.29.18C41.59,38.13,41.77,38.11,41.78,38Z"/><polygon class="cls-1" points="37.38 54.51 37.24 54.44 37.41 54.63 37.38 54.51"/><path class="cls-1" d="M57.88,32.16c.06.07.23.17.23.08L57.86,32Z"/><path class="cls-1" d="M58.65,32.07a1.14,1.14,0,0,0-.57-.49c.23.23.1.18.38.45,0,.09-.16.06-.25,0,.06.07-.12.06,0,.21s.34,0,.23-.27C58.54,32,58.6,32,58.65,32.07Z"/><path class="cls-1" d="M59.78,24.76l0,.07A.13.13,0,0,0,59.78,24.76Z"/><path class="cls-1" d="M57,20.75a.09.09,0,0,0,.09,0S57.05,20.72,57,20.75Z"/><path class="cls-1" d="M56.55,20l0,.05S56.57,19.94,56.55,20Z"/><path class="cls-1" d="M59.78,24.76l0-.16C59.73,24.63,59.78,24.7,59.78,24.76Z"/><path class="cls-1" d="M58.39,30.84a.41.41,0,0,0,0,.09v-.06Z"/><path class="cls-1" d="M60.54,26.81v.05h.14Z"/><path class="cls-1" d="M60.62,28.51s-.26-.07-.38-.09c.11,0,.17.06.19.1Z"/><path class="cls-1" d="M59.57,31l0,.06Z"/><path class="cls-1" d="M60.38,25.61l.09,0Z"/><path class="cls-1" d="M56.35,33l0,0S56.36,32.94,56.35,33Z"/><polygon class="cls-1" points="58.49 32.57 58.49 32.6 58.62 32.7 58.49 32.57"/><path class="cls-1" d="M55.26,18.86h0S55.29,18.85,55.26,18.86Z"/><path class="cls-1" d="M42.68,24.29c.29-.06.21.37.55.24C43.12,24.51,42.9,24.15,42.68,24.29Z"/><path class="cls-1" d="M58.44,30.82s0,0,0-.05A.06.06,0,0,0,58.44,30.82Z"/><path class="cls-1" d="M43.23,24.53h0Z"/><path class="cls-1" d="M51.49,18.28a.83.83,0,0,0,0,.12A.27.27,0,0,0,51.49,18.28Z"/><path class="cls-1" d="M54.17,19.07,54.11,19A.13.13,0,0,0,54.17,19.07Z"/><path class="cls-1" d="M50.09,18.8s-.06-.05-.1,0l0,0S50,18.76,50.09,18.8Z"/><polygon class="cls-1" points="48.67 19.14 48.71 19.18 48.75 19.16 48.67 19.14"/><path class="cls-1" d="M53.44,34.75a1,1,0,0,1,.12.23C53.49,34.79,53.64,34.68,53.44,34.75Z"/><path class="cls-1" d="M58.54,30.91c-.07,0-.09-.06-.1-.09v.05Z"/><path class="cls-1" d="M50.39,21h-.18A.36.36,0,0,0,50.39,21Z"/><path class="cls-1" d="M46,32.46H46S46,32.45,46,32.46Z"/><path class="cls-1" d="M49.71,21.14a.59.59,0,0,0-.15-.16.16.16,0,0,0,0,.07Z"/><path class="cls-1" d="M53.56,35Z"/><path class="cls-1" d="M54.44,33.93c-.16.06.08.36.13.57-.15.18-.2-.21-.33-.35-.07.14,0,.5-.14.51a.23.23,0,0,1-.06-.15c0,.32-.38.15-.43.55a.56.56,0,0,1,0-.08,2.55,2.55,0,0,1,.17.48c-.08,0-.09.27-.19,0,.05,0,0-.1,0-.18l-.06.12c-.17-.31.08-.14,0-.39-.13.15-.26.48-.42.41-.09-.32.27-.18,0-.44l.22.08c-.27-.48.12,0-.15-.51-.26-.05-.22.24-.48.18,0,.2.06.28,0,.47-.32.39-.4-.81-.6-.32,0,.23,0,.66-.25.44L52,35c-.23,0-.11.55-.38.31,0-.16.19-.14.15-.18-.17-.3-.11.22-.24.23l0-.34c-.25,0-.55.28-.86.3,0-.1.09-.2,0-.31a.78.78,0,0,1-.56-.06,2.5,2.5,0,0,1-.46-.39l-.21.25s0-.14,0-.19-.06.18-.16.27,0-.2,0-.27c-.29.17-.85.28-.94-.14l.08-.05c-.12-.19-.47.44-.52.11l.06,0c-.32-.32-.9-.36-.89-.93-.31.3-.21-.4-.61,0,0-.39.13-.42,0-.79,0-.07-.35.17-.48.12l.23-.21-.34.1.22-.31-.13,0a.31.31,0,0,1-.12.21c-.22,0-.1-.45,0-.55L45.5,32a.47.47,0,0,1,.28,0c-.38,0,.24-.21-.1-.2a.68.68,0,0,1-.22.12.34.34,0,0,0-.15-.46l.2-.08c-.1-.26-.36-.48-.49-.77,0,.14-.39.27-.47.19l.29-.16c-.22,0-.07.14-.36.11,0-.13.32-.21.44-.19l-.15-.09c.09,0,.14,0,.26-.07-.21,0,.23-.34-.13-.3L45,30c-.11-.29-.22-.41-.31-.65-.27.05-.24-.06-.48-.09.06-.22.25-.47.19-.69s-.24,0-.41-.09c.25,0,.22-.27.41-.16a2.17,2.17,0,0,0-.27-.72c-.11,0-.16.09-.24.06s.11-.15.23-.14l0,0c-.38-.46.83-.83.36-1.21l0,0L44.34,26c.08-.13.16.14.34.07-.34-.46.24-.5,0-.87.79.09.27-.77.87-.79l-.16-.08c-.11-.15.14,0,.2-.05-.12-.07-.18,0-.24-.11.17-.7,1-1,1.59-1.27.2-.11-.5-.78,0-.67l.14.32a1,1,0,0,1,.5-.6,1.19,1.19,0,0,0,.58-.49c0,.08.05.16,0,.19.2.16.35-.15.27-.33.08,0,.09.15.17.22s.12-.39.26-.19a.13.13,0,0,1,0,.11c0-.13.3-.07.15-.31.22.07.3-.24.49-.12,0-.32.34.07.27-.36.09.44.39.27.47.05,0,.14.13.13.11.32.13,0,.24-.12.18-.35.3.49.47-.48.65.2a3,3,0,0,1,1.16-.47c-.06.44-.41,0-.43.49.34-.19.6-.51.93-.36.08.08-.09.19-.13.26.38-.12.63.18,1,0,0,0-.06.07-.1.1s.11.11.17-.09l-.07,0c0-.32.43-.5.5-.64-.3.51.26.24-.17.88a.41.41,0,0,0,.18-.23c0,.06,0,.14-.09.27.25,0,.26-.25.44-.17,0,.09-.09.11-.16.21.17-.14.35-.26.47-.11,0,0-.06.12-.1.1.28.08.69-.21.89.12-.32.32,0,.18-.17.5h.2l0-.19c.11.09.38,0,.42.14l-.19.05.28.12-.05-.21c.25-.06.28-.39.39-.18-.06,0,.13.1,0,.33h0c.14,0,.28-.07.31.08s-.3.29-.34.36c.27-.17.33.18.63,0a1.27,1.27,0,0,0-.24.2l.23-.12c0,.11,0,.14-.16.24.11.19.31-.37.33,0,0,0-.05,0-.11,0,.09.26.47.27.51.55-.27.28-.2-.11-.41.15.25.21.79.31.87.66v-.08c.48-.22-.1.35.2.37a.49.49,0,0,0-.23.07c0,.25.31.36.6.62h-.14c-.07.17,0,.36,0,.52.14,0,.15.08.32,0-.28.33-.16.5,0,.68s.34.36.05.61c0-.05-.14-.09-.13-.06l.17.32c.23,0,.13-.06.3-.16a.36.36,0,0,1,.28.21c-.18-.14-.37,0-.5.12a1.64,1.64,0,0,1,.22,0c-.4.22.47,0,.2.27h-.12c.07.09.23.17.2.27-.26.05-.13-.09-.35-.09,0,.13.53.27.25.4-.07-.06-.07-.15-.15-.21-.3.14-.23.16-.29.26h0l-.15.22.09-.05c.68.21.12.36.53.64-.39-.28-.24-.07-.54-.12-.09.05-.2.12-.28.09.23.14-.21.14.12.34-.1,0,0,.12-.27.05.06.15.17,0,.29,0,.3.29-.51.39-.13.81.09.31.38.47.44.78-.17,0-.3-.19-.3-.19-.19.08-.19.19-.14.35a.43.43,0,0,0-.27-.07c0,.11.3.21.11.28a2.6,2.6,0,0,1-.32-.26,4,4,0,0,1,.17.49c-.17-.05-.2-.19-.28-.27a.68.68,0,0,0,.19.56l.13,0c0,.05-.21-.09-.24-.15-.13-.21.16-.11.25-.08l0,.12c.55.17.08-.39.19-.54l.34.24L59,31c.12,0,.35.06.36.18.25-.06-.09-.18.17-.21a.09.09,0,0,1,.06,0l-.07-.17c.08.05.29.08.2.14.31-.17-.16-.49.18-.48v0c0-.38-.27-.13-.55-.47l.77,0-.29-.11a.12.12,0,0,1,.17-.05c-.17-.18-.13,0-.3-.13.32-.11,0-.48.45-.44-.22-.1-.2.14-.34-.07.53,0,0-.22.21-.34.26.08.09.21.36.08-.44-.15.14-.3.06-.45-.37,0-.14-.31-.25-.55.13,0,.19-.42.31-.65h.06c-.37,0-.3-.24-.4-.39a.52.52,0,0,1,.42.08l0-.15a.35.35,0,0,1-.25-.16h.28c0-.21-.37-.36-.25-.65-.25,0-.65.33-.88.11.14,0,.37-.09.44,0s-.13-.05-.09-.11l.26.06c.07-.14-.21,0-.21-.11.19-.05.12-.1.28-.12s-.06.09,0,.11a.47.47,0,0,1,.23-.34c-.11,0-.26.06-.3,0s.21-.13.28-.27c-.14,0,0-.18-.33-.1,0-.05.11-.11.18-.15-.16-.07-.2-.46-.46-.24v0h0c-.36-.22-.12-.71-.37-1l.09,0c-.19-.13-.28-.37-.53-.38,0-.05.08-.22.2-.26-.15-.09-.24-.05-.24-.32.24,0,.1-.13.2.06,0-.21,0-.34-.29-.37a.18.18,0,0,0,0-.35l-.06.23a.59.59,0,0,1-.17-.25l.29-.17c0-.6-1-.13-.76-.82-.24.08.06.27-.21.39-.11-.16.07-.64,0-.69-.08-.32-.5.18-.63-.09,0,.12-.23.38-.46.35s.12-.54.28-.54,0,.06,0,.1.18,0,.2-.14l-.1.08c0-.15-.23-.31-.06-.43-.19,0-.17.12-.12.24-.1-.29-.3-.26-.47-.48,0,.07,0,.21-.08.19-.24-.33-.26.1-.5,0,0-.24.26-.35,0-.35-.07-.19.13-.3.23-.35-.31.07-.34-.34-.45-.45l.16,0a.33.33,0,0,1-.21-.05l0,.25c0-.07-.11-.1-.06-.19-.14.11-.12.39-.34.51,0-.15-.32,0-.23-.3.24.22.09-.31.35-.25-.06,0-.11,0-.17-.08s0-.06.06-.07c-.19-.37-.27.28-.56.17.1-.15,0-.34,0-.32.12,0,0,.29-.2.39-.14-.2-.23,0-.32,0l.09.1c-.09.16-.17.1-.32.13,0-.14.15-.06.12-.13-.23.26-.25-.4-.51-.25-.07-.14.07-.32,0-.42-.28.16-.22-.3-.51-.15,0,.25.05.19-.16.39l.44-.1-.32.3c.12,0,.28-.11.35-.05-.16.16-.14.11-.12.31-.1-.37-.35.16-.5-.11l.09-.58c-.27-.31-.56.23-.93.07l.12.11c-.07.23-.24,0-.36.11a.68.68,0,0,0-.12-.4c0,.15-.29,0-.31.4L51,18.55c-.32-.09-.31.57-.59.54.06-.22-.09-.34.09-.52-.1,0-.19,0-.18.12-.07-.11-.23.3-.35.13,0,.09,0,.3-.11.3a.27.27,0,0,1,0-.1c0,.09-.14.16,0,.36-.41-.53-.77.21-1.16-.19a4,4,0,0,1-.57.35c0-.06,0-.09,0-.09-.31-.06.08.59-.27.52s.07-.22-.06-.29c-.31-.57-.3.23-.65,0l0-.06c-.25-.11-.22.41-.46.5a.28.28,0,0,0,0-.09,1.55,1.55,0,0,1-.31.86c-.09-.25,0-.17-.18-.35-.07.09.26.31.14.49a1.39,1.39,0,0,1-.53-.27l.16-.14c-.31-.22-.21.17-.33.2l-.09-.13c-.21.26.05.55-.22.75l.11.06c.14.4-.26,0-.18.29l-.32-.23a4.45,4.45,0,0,1-.09.77,1.65,1.65,0,0,1-.11-.8c-.08.09-.26.33-.16.5,0-.06,0-.17.06-.16a.71.71,0,0,1,0,.74c-.59-.5-.53.37-1.11.21,0,.52-.55.7-.73,1.21.62.08-.05.15.53.36,0,.12,0,.16-.07.15l-.47.21c-.19,0-.08-.16-.22-.19-.13.23-.28,0-.49.14.22,0,.26.18.13.31l.34-.12c.18.44-.59.16-.38.62L42,25.33c.06.22-.19.73.28,1-.07,0-.24,0-.28,0-.16.47.41,1.07.1,1.4l-.15,0c0,.09.27.16.12.26s-.15,0-.15,0,.27.22.19.34l-.18-.09c-.18.47.45.66.61,1a.67.67,0,0,0-.56.63h-.06c.07.55.56.81.89,1.19-.36.45.19,1,.19,1.56,0-.1.31-.15.39-.1s.42.11.06.3v0c-.3.28-.09.44,0,.59l.46-.27a.6.6,0,0,0,.3.8c.25.16.48.29.32.62.17,0,.27.1.45.08l-.2.2a1.57,1.57,0,0,0,.63.62l-.19.11c.17.15.73-.47.9-.37l-.21.38c.3.23.46.74,1,.61,0,0-.1.15-.17.14.15.11.52.58.71,0-.16.34.35.22.59.14l-.13.24c.3-.26.33-.35.59-.37,0,0,0,.23-.08.14.13.2.23-.2.39,0l-.14.14c.18.09.2,0,.36-.18s.32.16.29.41c.06-.14.21-.32.3-.22a.27.27,0,0,1-.08.17c.28.27.52-.24.69.07a.26.26,0,0,0,0,.17,1.13,1.13,0,0,1-.44-.11c0,.25.16.33-.08.66.22-.17.57-.54.75-.39a.2.2,0,0,1,0,.09l0,0s.09,0,.13,0a.32.32,0,0,0,.17.09c0,.21.24.13.35.14,0-.28.14-.23,0-.47,0,0,0,0-.09,0l0,0v0h-.26c.09-.14.18-.25.29-.09l.16-.45c.12.41.39.63.44.86.32-.18.77-.13.9-.69.08-.08.12.13.16.21s-.1.06-.12.14c.16-.16.52-.13.5-.5.24.13-.07.36.22.25v.12c.35.21.56-.08.75-.34s.34-.55.79-.31c-.06,0-.09,0-.12-.09.85,0,1.25-.91,2.13-.92.24,0,.12-.24.11-.46l.23.21-.06-.41c0-.39.93.2.86-.45l-.18-.1c.12-.08.21-.41.37-.23,0,0-.13-.18,0-.15l.12.1a3.17,3.17,0,0,0,0-.44c.25-.14.46.43.73.12,0-.16-.11-.61-.24-.62a.26.26,0,0,1-.3,0V32.6c-.37-.28-.72-.61-1.15-.58l.12.32-.22-.09.09-.14c-.23,0-.11.1,0,.24a.45.45,0,0,0-.24-.1l.23.43c-.15-.1-.22-.29-.38-.26.1.19.37.2.37.39-.22-.07-.33-.2-.27,0a.31.31,0,0,1-.15-.21c0,.17-.12.22,0,.43-.25-.11-.18.29-.48,0a.67.67,0,0,1,.06.43c-.24-.5-.27.19-.6-.27.22.45-.19.4-.2.74,0,0,0-.11,0-.1s-.23-.07-.33-.1c.2.34.09.5.12.76-.31-.25-.15-.44-.38-.73.17.27,0,.4.12.6-.21-.14-.14,0-.34-.3.22.44,0,.12,0,.42-.25-.15-.24-.39-.33-.19C54.38,34.15,54.44,33.93,54.44,33.93Zm-3.83,1.46Zm-.36,0,.16,0c0,.1,0,.19-.07.18S50.29,35.43,50.25,35.34Zm.64,2c-.08,0-.1,0-.1-.08l.12,0v0Z"/><path class="cls-1" d="M51,37h0l0-.07L51,37Z"/><path class="cls-1" d="M59.75,24.84h0s0,0,0,0Z"/><polygon class="cls-1" points="46.33 32.65 46.28 32.7 46.34 32.68 46.33 32.65"/><path class="cls-1" d="M59.29,27.16a.11.11,0,0,0-.07,0Z"/><path class="cls-1" d="M59.25,28l-.1.12A.31.31,0,0,0,59.25,28Z"/><path class="cls-1" d="M59.07,28.69l.12,0h0Z"/><path class="cls-1" d="M53.66,20.89h0C53.57,20.93,53.61,20.92,53.66,20.89Z"/><path class="cls-1" d="M56.69,21.83a.45.45,0,0,1-.16,0C56.56,21.92,56.59,22,56.69,21.83Z"/><polygon class="cls-1" points="50.41 21 50.41 20.99 50.39 20.99 50.41 21"/><path class="cls-1" d="M56.42,21.77c0,.08,0,.1.11.09S56.48,21.77,56.42,21.77Z"/><path class="cls-1" d="M58.12,31.36l0,0,0,0Z"/><path class="cls-1" d="M58.13,31.4v.05S58.16,31.42,58.13,31.4Z"/><path class="cls-1" d="M58.17,31.55l0-.1S58.11,31.49,58.17,31.55Z"/><path class="cls-1" d="M58.6,30.62l-.1-.05Z"/><path class="cls-1" d="M58.66,30.36c0,.05-.26.07-.23.18l.07,0C58.38,30.48,58.8,30.48,58.66,30.36Z"/><path class="cls-1" d="M60.19,29.54l-.14.23c.12,0,.28-.05.27.08C60.72,29.59,60.07,29.86,60.19,29.54Z"/><path class="cls-1" d="M60.47,28.76c0,.14.15,0,.21,0S60.57,28.66,60.47,28.76Z"/><path class="cls-1" d="M59.16,23.1l.23-.12C59.3,22.9,59.3,23,59.16,23.1Z"/><path class="cls-1" d="M57.48,23l-.07.17.21-.11Z"/><polygon class="cls-1" points="58.43 21.33 58.49 21.35 58.3 21.27 58.43 21.33"/><path class="cls-1" d="M48.85,18.82l.12.29C49,19,48.94,18.69,48.85,18.82Z"/><path class="cls-1" d="M45.23,21.28c-.15-.09-.31-.07-.25.1C45.06,21.32,45.22,21.34,45.23,21.28Z"/><polygon class="cls-1" points="43.71 33.43 43.57 33.41 43.75 33.51 43.71 33.43"/><path class="cls-1" d="M32.87,76.14c.07.06.24.15.21.11l-.29-.17Z"/><path class="cls-1" d="M33.49,76.19a1.91,1.91,0,0,0-.73-.19,3.29,3.29,0,0,1,.55.19s-.12,0-.24,0c.08,0-.08,0,.11.1s.3,0,.1-.12A.72.72,0,0,1,33.49,76.19Z"/><path class="cls-1" d="M32.57,71.89l0,0A.06.06,0,0,0,32.57,71.89Z"/><path class="cls-1" d="M31.52,69.39s.05,0,.08,0S31.54,69.37,31.52,69.39Z"/><path class="cls-1" d="M31.65,68.82v0S31.67,68.81,31.65,68.82Z"/><path class="cls-1" d="M32.57,71.89l.06-.11C32.53,71.83,32.58,71.85,32.57,71.89Z"/><path class="cls-1" d="M32.71,75.72h.09l0,0Z"/><path class="cls-1" d="M33.35,72.87v0l.13,0Z"/><path class="cls-1" d="M33.78,73.72s-.26.07-.37.11a.41.41,0,0,1,.19,0Z"/><path class="cls-1" d="M33.8,75.34l0,0Z"/><path class="cls-1" d="M33.11,72.24l.09-.06Z"/><path class="cls-1" d="M41.47,55v.05A.07.07,0,0,0,41.47,55Z"/><polygon class="cls-1" points="42.67 56.34 42.66 56.36 42.67 56.51 42.67 56.34"/><path class="cls-1" d="M31.62,67.92h0S31.65,67.92,31.62,67.92Z"/><path class="cls-1" d="M30.41,61.63c-.26-.07-.22-.25-.52-.31C30,61.37,30.22,61.62,30.41,61.63Z"/><path class="cls-1" d="M32.74,75.69s0,0,0,0S32.73,75.69,32.74,75.69Z"/><path class="cls-1" d="M29.89,61.32Z"/><path class="cls-1" d="M30.76,66.27l-.11.06Z"/><path class="cls-1" d="M30.91,67.71l0,0S30.91,67.7,30.91,67.71Z"/><path class="cls-1" d="M30.15,65.72s.05,0,0,0h0S30.18,65.69,30.15,65.72Z"/><path class="cls-1" d="M29.94,65l-.05,0,0,0Z"/><path class="cls-1" d="M39,55.54a1.69,1.69,0,0,1,.08.24C39.06,55.58,39.16,55.49,39,55.54Z"/><path class="cls-1" d="M32.87,75.69a.26.26,0,0,1-.13,0s0,0,0,0Z"/><path class="cls-1" d="M28,66.36v-.14A.33.33,0,0,0,28,66.36Z"/><path class="cls-1" d="M33.4,57.21v0S33.39,57.18,33.4,57.21Z"/><path class="cls-1" d="M27.87,65.84a.52.52,0,0,0,.17-.13H28Z"/><path class="cls-1" d="M39.11,55.78h0Z"/><path class="cls-1" d="M39.84,55c-.13,0,0,.36,0,.58s-.12-.26-.2-.44c-.07.11-.09.46-.16.46a.65.65,0,0,1,0-.16c0,.31-.28.07-.32.45a.16.16,0,0,1,0-.09,4,4,0,0,1,.1.5c-.05,0-.05.24-.12,0,0,0,0-.09,0-.17l0,.11c-.12-.33.05-.13,0-.38-.09.13-.16.43-.26.36-.08-.33.17-.16,0-.43l.16.1c-.2-.51.09,0-.11-.52-.2-.07-.17.21-.36.15,0,.19.07.27.07.46-.17.38-.37-.8-.46-.32,0,.23.08.66-.1.47l0-.39c-.17,0,0,.56-.2.35,0-.15.1-.15.07-.19-.19-.27,0,.23-.12.25l-.1-.33c-.16.09-.3.38-.48.49a.54.54,0,0,0-.08-.3c-.2.23-.53.09-.83,0v.31s-.07-.12-.06-.18,0,.18,0,.31-.12-.15-.11-.24c-.09.29-.3.65-.57.4v-.09c-.17-.07,0,.62-.17.4v-.06c-.33,0-.55.33-.91,0,.1.42-.35-.07-.16.49-.26-.22-.26-.34-.55-.43-.07,0,0,.38,0,.46l-.11-.28v.34l-.19-.32,0,.1s.11.1.14.19-.34-.1-.41-.24l-.15.35a.52.52,0,0,1,0-.27c0,.35-.15-.29-.16,0a1.13,1.13,0,0,1,.08.24.2.2,0,0,0-.35,0l-.06-.2c-.22,0-.36.26-.57.36.11.05.25.4.2.46L32,57.83c.05.2.12.08.14.35-.09,0-.21-.32-.21-.43l0,.14a2.16,2.16,0,0,1-.1-.25c.05.2-.3-.22-.21.12l-.05-.08c-.21.09-.26.24-.42.34.13.25,0,.23.09.46-.17,0-.4-.14-.54,0s.08.23.11.4c-.13-.22-.26-.12-.27-.32a1,1,0,0,0-.37.52c.08.07.13.09.17.18s-.16,0-.22-.14v0c0,.24-.28.2-.54.2s-.51,0-.42.31v0c0,.14,0,.28,0,.41s-.09-.19-.27-.21c.11.5-.38.37-.28.76-.79-.2-.28.67-.83.75l.17,0c.15.12-.12,0-.17.09.13,0,.17,0,.25,0,0,.61-.52,1.14-.67,1.75-.05.23.91.11.5.38l-.33-.06c.41.39.05.85.45,1.18-.07,0-.17,0-.18,0-.22.12.05.3.24.26,0,.06-.17,0-.26.1s.34.14.12.23a.15.15,0,0,1-.1,0c.12,0,0,.25.28.14-.1.17.19.22.06.37.31,0-.08.27.34.17-.43.12-.28.34-.05.36-.14,0-.11.11-.3.14,0,.09.15.15.36.06-.45.35.52.2-.09.53a3.57,3.57,0,0,1,.76.57c-.42.16-.14-.24-.58-.06.26.17.68.14.67.41,0,.08-.2,0-.28,0,.27.15.15.45.46.54a.2.2,0,0,1-.13,0s0,.12.16,0H29.3c.24-.18.63-.1.78-.16-.57.17,0,.25-.78.45a.47.47,0,0,0,.27-.06c0,.05-.08.1-.24.12.16.1.34,0,.39.08s-.14,0-.25.07c.21,0,.41,0,.38.1s-.12.06-.13,0c.11.17.6.09.53.36-.42.13-.1.12-.43.29l.15.06.14-.12c0,.09.33,0,.25.19h-.17l.15.13.08-.15c.22,0,.42-.22.38-.06,0,0,0,.09-.13.24h0c.13,0,.26,0,.21.09s-.38.17-.44.21c.3-.09.18.18.51.08a1.13,1.13,0,0,0-.29.13l.24-.08c0,.08-.08.1-.22.17,0,.14.4-.26.29,0a.56.56,0,0,1-.1,0c0,.19.29.21.24.4-.31.21-.14-.08-.4.11.16.17.61.2.62.43l0-.05c.49-.21-.16.26.11.24a.67.67,0,0,0-.22.08c0,.17.25.21.5.33l-.14,0c-.07.13,0,.23,0,.34s.13,0,.3-.09c-.58.59.61.3.13.8,0,0-.14,0-.13,0l.21.14c.2-.11.11-.09.26-.2s.25,0,.28,0c-.18,0-.34.16-.44.25a1.76,1.76,0,0,1,.2-.09c-.32.27.43-.18.24.08l-.11,0c.08,0,.25,0,.24.08-.23.13-.14,0-.34.08.05.07.53,0,.32.13-.08,0-.1,0-.19-.06-.25.21-.17.18-.19.26h0l-.07.19.06-.07c.68-.17.2.15.68.11-.46,0-.24.07-.53.17a.46.46,0,0,1-.22.17c.26,0-.14.17.23.12-.09,0,0,.07-.22.14.09,0,.15-.07.27-.11.35,0-.28.41.2.44.22.09.55,0,.74.16a.55.55,0,0,1-.36,0c-.12.11-.08.15,0,.21a.69.69,0,0,0-.26.06s.36,0,.22.08H32.8a2.21,2.21,0,0,1,.37.15,1.06,1.06,0,0,1-.38,0,.82.82,0,0,0,.42.19l.11,0s-.24,0-.28,0c-.2,0,.09-.07.19-.08l.07.05c.56-.06-.11-.21-.08-.29h.41l-.36-.07c.11,0,.33-.09.4,0,.19-.12-.16,0,.06-.17h.07l-.14-.06c.09,0,.28-.07.23,0,.21-.22-.36-.16-.07-.3h0c-.19-.17-.3,0-.68,0l.69-.32-.3.07s0-.07.13-.1c-.23,0-.12.06-.32.08.22-.19-.22-.22.23-.41-.23,0-.14.15-.32.11.48-.22-.13-.09.06-.26s.16.07.35-.11c-.45.12,0-.21-.09-.25-.34.14-.2-.1-.37-.17.12,0,.08-.31.15-.47l.06,0c-.34.13-.33,0-.44-.06a.86.86,0,0,1,.39-.11l0-.07a.35.35,0,0,1-.25,0l.26-.1c-.06-.1-.39-.07-.29-.28-.23.1-.59.41-.81.35a1.1,1.1,0,0,1,.4-.16s-.12,0-.08,0l.23,0c.07-.1-.19,0-.19,0,.18-.09.11-.1.25-.16s-.05.07,0,.06a.42.42,0,0,1,.2-.27c-.1.05-.24.11-.28.08s.2-.13.26-.24c-.14,0,0-.09-.31,0,0,0,.11-.1.17-.15-.14,0-.15-.23-.4,0v0h0c-.35,0,0-.43-.23-.54l.09,0c-.15,0-.17-.2-.4-.17,0,0,.13-.16.24-.2-.11,0-.21,0-.12-.18.19,0,.12-.1.15,0,0-.14.16-.23-.14-.22.24-.08.25-.22.16-.23l-.13.15c-.06,0-.06-.09-.07-.15l.31-.12c.26-.39-.8-.06-.27-.52-.24,0-.09.18-.36.26,0-.12.37-.43.36-.46.1-.21-.5.1-.45-.09-.1.07-.37.22-.52.17s.39-.33.5-.32,0,.05,0,.07a.21.21,0,0,0,.21-.07l-.11,0c.09-.1,0-.22.2-.28a.19.19,0,0,0-.22.14c.1-.2-.08-.19,0-.37-.05.05-.17.13-.17.11,0-.25-.25,0-.35-.08.13-.15.4-.16.2-.22.08-.13.28-.15.38-.17-.26,0,0-.27.05-.35l.11,0a.1.1,0,0,1-.09-.07l-.2.13s0-.08.1-.12c-.16,0-.35.19-.57.21.09-.1-.19-.09.09-.24,0,.2.28-.14.39,0,0,0-.06,0,0-.09a.13.13,0,0,1,.08,0c.2-.25-.35.08-.41-.06.17-.06.3-.18.25-.18s-.26.15-.4.15c.08-.15-.14-.06-.15-.12l0,.08c-.17.06-.17,0-.25,0,.13-.07.12,0,.16,0-.31,0,.23-.29,0-.31.09-.09.31-.14.36-.21-.25,0,.18-.21,0-.26-.21.13-.15.11-.4.12l.23.13h-.37c0,.07.19.07.17.12-.21,0-.15,0-.32.11.3-.22-.26-.09-.08-.27l.55-.22c.19-.24-.38-.14-.31-.38l-.07.1c-.23.06-.08-.1-.19-.13a1.37,1.37,0,0,0,.35-.19c-.14,0,0-.14-.42,0l.22-.17c.05-.18-.59,0-.58-.16.22,0,.33-.13.51-.08,0-.05,0-.11-.12-.06.1-.07-.3,0-.14-.16-.09,0-.29.07-.29,0l.09,0c-.09,0-.15,0-.34.06.54-.32-.17-.41.31-.68a.86.86,0,0,1-.22-.3c.06,0,.1,0,.08,0,.15-.17-.57,0-.41-.16s.19,0,.3,0c.63-.15-.13-.17.23-.33h0c.21-.11-.27-.14-.24-.27l.1,0a.75.75,0,0,1-.57-.32c.26,0,.14,0,.39,0,0-.06-.41,0-.49-.06a1.45,1.45,0,0,1,.53-.16l0,.1c.35-.07,0-.13,0-.18h.16c-.05-.14-.44-.14-.41-.31h-.12c-.39-.11.22-.07-.07-.17h.4a1.4,1.4,0,0,1-.42-.35,2.94,2.94,0,0,1,.58.32c0-.06,0-.18-.19-.24,0,0,.12.07.06.08-.3-.1-.44-.22-.41-.35.73.16.26-.25.85-.16-.23-.26.23-.27.26-.44-.57-.22,0,0-.53-.34,0-.07,0-.08.05-.06l.39.07c.16.07.09.11.21.18s.23.11.39.16c-.19-.12-.25-.21-.14-.19l-.27-.12c-.17-.3.47.24.3-.06l.12.16c0-.12.13-.16-.13-.56a.62.62,0,0,1,.19.21c.15,0,0-.66.28-.49l.07.14c0-.06-.1-.27,0-.17s.06.14.08.14,0-.28,0-.23l.05.17c.25.08.1-.51.21-.69.21.39.43.44.54.46l0,.06c.25-.07.23-.52.38-.79.34.37.55,0,.88.12a.55.55,0,0,1-.11-.37c.08,0,0-.35.17,0h0c.2.34.26.2.35.18l-.19-.5c.51.62.48-.49.85.1,0-.15.07-.17.08-.31l.09.26a.47.47,0,0,0,.42-.11l0,.2c.1,0-.15-.81-.06-.86l.17.39c.18-.08.48.21.55-.21,0,.06,0,.18,0,.2s.42.17.21-.37c.12.36.2,0,.26-.22l.06.27c0-.36,0-.46.05-.59,0,0,.09.21,0,.15.14.11,0-.27.16-.16v.18c.11,0,.07-.1.07-.31s.2,0,.29.25c0-.15,0-.37,0-.31a.35.35,0,0,1,0,.18c.21.14.16-.38.34-.14a1,1,0,0,0,.06.15c-.13,0-.24,0-.23,0,.07.25.18.27.19.63,0-.21.07-.65.2-.56l0,.08v0s.05,0,.06-.06.07.06.1.06c.06.2.15.08.2.08-.07-.27,0-.25-.11-.46t0,.06s0,0,0,0v0l-.13,0c0-.15,0-.28.12-.14l0-.46c.16.36.35.54.42.77.13-.19.35-.19.35-.73,0-.07.08.14.12.22s-.05,0-.05.13c.06-.15.26-.11.21-.47.15.14,0,.34.15.25v.12c.42.51.34-1,.83-.35a.23.23,0,0,1-.06-.12c.45.27.78-.44,1.25,0,.13.1.11-.14.16-.32l.06.29.08-.36c.14-.27.37.71.53.21l0-.2c.08,0,.23-.14.24.09,0,0,0-.21,0-.11l0,.16.17-.29c.15.1,0,.63.24.64a1,1,0,0,0,.15-.58s-.09-.09-.1-.25l.07-.08a2.58,2.58,0,0,0-.2-1.26l-.11.29-.06-.22.11,0c-.08-.21-.11,0-.14.11a.66.66,0,0,0-.08-.24l-.09.45c0-.18,0-.36-.07-.45,0,.21.1.4,0,.54-.08-.2-.08-.38-.14-.19a.37.37,0,0,1,0-.25c-.06.15-.17.08-.18.33-.09-.26-.22.08-.25-.36,0,.11-.08.36-.14.39,0-.54-.23,0-.26-.57,0,.48-.28.24-.39.52,0,0,0-.12,0-.09s-.13-.17-.19-.25a1.86,1.86,0,0,1-.11.74c-.15-.36,0-.46-.08-.82,0,.32-.13.34-.06.6a1.3,1.3,0,0,1-.17-.42c.06.49-.06.09-.07.4-.15-.22-.1-.45-.2-.28A.43.43,0,0,1,39.84,55Zm-2.67,1.41h0l.06,0Zm-.23.07.11,0c0,.09.05.19,0,.19S37,56.53,36.94,56.46Zm1,1.76c0,.05,0,0-.07-.06a.13.13,0,0,0,.06,0v0A.78.78,0,0,1,37.9,58.22Z"/><path class="cls-1" d="M37.88,57.85a0,0,0,0,1,0,0l0,0v.09Z"/><path class="cls-1" d="M32.55,71.94h0l0,0Z"/><polygon class="cls-1" points="33.6 56.98 33.63 57.05 33.62 56.98 33.6 56.98"/><path class="cls-1" d="M32.24,73.52l-.06,0Z"/><path class="cls-1" d="M32.41,74l-.06.11A.41.41,0,0,0,32.41,74Z"/><path class="cls-1" d="M32.43,74.47l.12,0h0Z"/><path class="cls-1" d="M29.2,68.49h0C29.11,68.47,29.14,68.48,29.2,68.49Z"/><path class="cls-1" d="M30.67,70.08a.74.74,0,0,1-.15,0S30.52,70.15,30.67,70.08Z"/><polygon class="cls-1" points="28.02 66.38 28.03 66.38 28.02 66.36 28.02 66.38"/><path class="cls-1" d="M30.48,70c0,.06,0,.08,0,.09S30.53,70,30.48,70Z"/><path class="cls-1" d="M32.7,75.94h0Z"/><path class="cls-1" d="M32.73,76h0Z"/><path class="cls-1" d="M32.83,76l-.07,0S32.75,76,32.83,76Z"/><path class="cls-1" d="M32.78,75.56h0Z"/><path class="cls-1" d="M32.73,75.43s-.2.13-.13.15h.08C32.53,75.58,32.9,75.42,32.73,75.43Z"/><path class="cls-1" d="M33.73,74.4l0,.17c.1-.06.22-.14.27-.08C34.21,74.2,33.75,74.6,33.73,74.4Z"/><path class="cls-1" d="M33.71,73.91c.07,0,.14-.06.2-.08C33.8,73.82,33.77,73.81,33.71,73.91Z"/><path class="cls-1" d="M32.29,70.94l.23-.11C32.46,70.79,32.43,70.88,32.29,70.94Z"/><polygon class="cls-1" points="30.83 70.98 30.72 71.11 30.94 71.03 30.83 70.98"/><polygon class="cls-1" points="32.3 69.84 32.34 69.85 32.21 69.8 32.3 69.84"/><path class="cls-1" d="M30.21,65.07l-.3.1C30,65.19,30.32,65.11,30.21,65.07Z"/><path class="cls-1" d="M29.61,63.05c.16,0,.26-.07.1-.11S29.57,63,29.61,63.05Z"/><polygon class="cls-1" points="33.96 59.56 33.96 59.67 34.01 59.56 33.96 59.56"/><path class="cls-1" d="M37.75,80.23c.08,0,.27.08.24,0l-.32-.11Z"/><path class="cls-1" d="M38.37,80.15a2,2,0,0,0-.73-.16c.31.07.18.06.55.16,0,0-.11,0-.23,0,.08,0-.08,0,.12.09s.28,0,.08-.14A.71.71,0,0,1,38.37,80.15Z"/><path class="cls-1" d="M38.2,76.23l0,0Z"/><path class="cls-1" d="M37.78,73.87s0,0,.08,0A.11.11,0,0,0,37.78,73.87Z"/><path class="cls-1" d="M38.05,73.4v0S38.08,73.4,38.05,73.4Z"/><path class="cls-1" d="M38.2,76.23l.08-.09C38.18,76.17,38.21,76.19,38.2,76.23Z"/><path class="cls-1" d="M37.59,79.66l.09,0,0,0Z"/><path class="cls-1" d="M38.73,77.2h0Z"/><path class="cls-1" d="M39,78a2,2,0,0,0-.39,0h.2Z"/><path class="cls-1" d="M38.72,79.42l0,0Z"/><path class="cls-1" d="M38.64,76.61l.1,0Z"/><path class="cls-1" d="M46.23,58.19l0,.05S46.24,58.19,46.23,58.19Z"/><polygon class="cls-1" points="47.59 59.21 47.58 59.23 47.63 59.38 47.59 59.21"/><path class="cls-1" d="M38.25,72.62h0S38.28,72.63,38.25,72.62Z"/><path class="cls-1" d="M38.28,66.56c-.26,0-.25-.23-.55-.25C37.84,66.35,38.1,66.57,38.28,66.56Z"/><path class="cls-1" d="M37.63,79.64s0,0,0,0S37.62,79.64,37.63,79.64Z"/><path class="cls-1" d="M37.73,66.31Z"/><path class="cls-1" d="M37.84,71l-.12,0Z"/><path class="cls-1" d="M37.62,72.31l0,0Z"/><path class="cls-1" d="M37.39,70.44s0,0,0,0h0S37.43,70.42,37.39,70.44Z"/><path class="cls-1" d="M37.36,69.79h0v0Z"/><path class="cls-1" d="M44.22,59.14a1.16,1.16,0,0,1,.13.22C44.26,59.18,44.33,59.07,44.22,59.14Z"/><path class="cls-1" d="M37.75,79.65h-.12s0,0,0,0Z"/><path class="cls-1" d="M35.17,70.57l0-.12A.24.24,0,0,0,35.17,70.57Z"/><path class="cls-1" d="M39.69,61.76v0S39.68,61.73,39.69,61.76Z"/><path class="cls-1" d="M35.15,70.08a.54.54,0,0,0,.19-.07h-.07Z"/><path class="cls-1" d="M44.35,59.36Z"/><path class="cls-1" d="M44.8,58.44c-.11,0,.09.36.14.56s-.16-.22-.27-.38c0,.12,0,.46,0,.47a.77.77,0,0,1-.06-.15c0,.31-.23.12-.18.5a.56.56,0,0,0,0-.08,3.73,3.73,0,0,1,.22.46s0,.25-.1,0c0,0,0-.09,0-.17v.12c-.18-.3,0-.14-.09-.37,0,.14,0,.45-.14.39-.15-.3.12-.18-.1-.41l.16.07c-.3-.45.08,0-.23-.48-.19,0-.09.23-.27.2,0,.19.12.25.17.44,0,.4-.52-.7-.48-.22.06.22.24.62,0,.46l-.13-.36c-.16,0,.17.53-.09.37,0-.15,0-.16,0-.19-.23-.23,0,.22,0,.26l-.17-.3c-.12.12-.17.42-.3.56a.67.67,0,0,0-.14-.28c-.12.26-.45.2-.74.13l.07.3a.29.29,0,0,1-.1-.16c-.13-.06.08.16.1.28s-.13-.11-.15-.2c0,.29-.1.67-.4.48l0-.09c-.16,0,.2.59,0,.42V61c-.29,0-.4.41-.81.15.2.38-.32,0,0,.49-.29-.16-.31-.27-.6-.31-.07,0,.13.35.11.44l-.18-.25.11.32-.25-.27v.1s.12.08.17.16-.33,0-.43-.16l0,.36a.52.52,0,0,1-.08-.25c.08.34-.21-.24-.14.06a.92.92,0,0,1,.13.21c-.15-.12-.27,0-.3.09L38.9,62c-.19.07-.25.32-.42.45.12,0,.34.33.31.39l-.22-.24c.1.19.13.06.22.3-.09,0-.27-.25-.3-.37v.15c-.06-.07-.08-.13-.15-.23.1.19-.33-.15-.16.16l-.06-.07c-.18.15-.18.32-.31.46.19.21.09.22.21.42-.16,0-.42,0-.53.12s.16.19.24.33c-.19-.16-.29,0-.37-.21a.62.62,0,0,0-.12.55.52.52,0,0,1,.21.11c0,.06-.14,0-.24-.06v0c.16.44-1,.13-.67.62v0l.11.33c-.1.07-.14-.14-.32-.15.27.43-.22.34,0,.65-.76-.14-.18.55-.72.59l.18,0c.14.11-.12,0-.17.06.14,0,.17,0,.25.06.1.5-.49.86-.74,1.34-.06.17.9.23.46.38L35.2,68c.36.39-.09.71.22,1.07-.07,0-.17,0-.17-.06-.24.06,0,.26.18.26,0,0-.17,0-.27,0s.31.18.07.22a.15.15,0,0,1-.1,0c.12,0,0,.22.25.17-.13.13.13.24,0,.34.31,0-.14.22.3.22-.46,0-.37.23-.14.29-.14,0-.14.08-.33.06,0,.09.11.16.34.13-.52.21.46.28-.22.43a3.7,3.7,0,0,1,.59.66c-.45.06-.08-.24-.54-.17.2.2.62.26.54.49-.05.06-.2,0-.28,0,.22.18,0,.42.3.57l-.12,0s-.06.1.15.06l-.07,0c.29-.11.64,0,.8,0-.59,0-.12.21-.86.25a.47.47,0,0,0,.27,0S36,73,35.8,73c.14.11.34,0,.36.14a1.81,1.81,0,0,1-.25,0c.2,0,.4,0,.34.16s-.13,0-.14,0c.07.17.57.18.43.41-.44,0-.13.09-.49.18l.13.08.17-.08c0,.09.29.11.19.21l-.16,0,.1.15.12-.13c.2,0,.45-.11.38,0s0,.09-.19.19h0c.13,0,.26,0,.19.11s-.41.08-.48.11c.31,0,.13.19.47.16a1.9,1.9,0,0,0-.31.06l.26,0a.45.45,0,0,1-.26.1c0,.13.45-.15.28,0a.32.32,0,0,1-.1,0c-.06.17.23.23.14.4-.35.13-.12-.1-.41,0,.11.17.53.27.5.48l0,0c.52-.11-.22.21,0,.23a1,1,0,0,0-.24,0c0,.15.2.22.41.37h-.14c-.1.1,0,.21-.06.3.14,0,.13,0,.32,0-.69.44.52.35,0,.73,0,0-.13,0-.12,0l.17.15c.22-.07.12-.06.29-.14s.25,0,.26.06c-.16,0-.35.09-.47.16l.21-.05c-.37.19.46-.1.22.1l-.12,0c.07,0,.24,0,.22.1-.25.09-.13,0-.35,0,0,.07.53,0,.29.16-.08,0-.1-.06-.18-.08-.28.15-.2.14-.24.2h0l-.11.15.07,0c.7-.06.17.16.65.19-.45,0-.25,0-.55.08a.53.53,0,0,1-.25.12c.25,0-.17.13.2.14-.1,0,0,.06-.24.1.09.06.16,0,.28-.07.35.06-.35.33.13.42.22.12.53.1.71.23a.62.62,0,0,1-.36,0c-.13.09-.1.13,0,.2a.63.63,0,0,0-.26,0c0,.05.36,0,.22.1l-.4,0c.1,0,.28.11.38.17a1,1,0,0,1-.38-.06.73.73,0,0,0,.41.2l.11,0s-.24,0-.28,0c-.21-.06.1-.07.2-.07l.06,0c.58,0-.11-.2-.08-.28l.42,0-.35-.08c.11,0,.34-.06.4,0s-.15-.06.07-.14a.11.11,0,0,1,.08,0l-.13-.07c.09,0,.29,0,.23,0,.23-.17-.32-.19,0-.28h0c-.17-.16-.31,0-.68,0l.72-.21-.3,0s0-.06.14-.07c-.22,0-.13,0-.33,0,.26-.13-.17-.21.3-.32-.23,0-.16.11-.33,0,.51-.13-.11-.09.11-.22s.14.08.36,0c-.45,0,.07-.18,0-.23-.36.08-.19-.11-.33-.2.12,0,.14-.26.24-.39l.06,0c-.36.07-.32,0-.41-.11a.92.92,0,0,1,.41,0l0-.08a.29.29,0,0,1-.24,0l.27-.05c0-.09-.36-.11-.22-.28-.25.05-.66.28-.86.19a1.38,1.38,0,0,1,.42-.09s-.12,0-.07,0h.24c.08-.08-.2,0-.19,0,.19-.05.13-.07.28-.11s-.07.06,0,.06a.49.49,0,0,1,.26-.21c-.11,0-.26.07-.29,0s.22-.1.3-.18c-.14,0,0-.08-.3,0,0,0,.12-.07.2-.1-.14,0-.1-.23-.39-.09v0h0c-.33-.08.07-.38-.09-.51l.09,0c-.13-.07-.12-.2-.34-.21,0,0,.15-.12.27-.14-.09-.05-.2,0-.07-.18.19,0,.14-.06.14,0,.06-.12.21-.18-.08-.22.25,0,.29-.15.2-.17L38.1,75a.14.14,0,0,1,0-.15l.33,0c.34-.3-.76-.19-.14-.5-.24,0-.13.15-.41.17,0-.1.47-.31.46-.34.15-.16-.5,0-.41-.16-.11.05-.42.14-.55.06s.46-.22.57-.18,0,0-.06,0a.2.2,0,0,0,.22,0l-.12,0c.11-.07.07-.19.27-.21a.21.21,0,0,0-.25.08c.15-.15,0-.18.06-.32-.06,0-.2.08-.2.06.11-.21-.23,0-.31-.14.16-.1.43-.06.25-.15a.56.56,0,0,1,.41-.07c-.25-.06.1-.23.13-.3l.11,0c-.07,0-.07-.05-.08-.08l-.22.08s0-.07.12-.09a3.23,3.23,0,0,1-.6.08c.11-.07-.16-.11.15-.19-.08.16.31-.07.38,0s0,0,0-.08a.11.11,0,0,1,.08,0c.25-.19-.36,0-.37-.13.17,0,.32-.09.28-.11s-.29.08-.43.05c.12-.11-.11-.07-.11-.12l0,.06c-.18,0-.16,0-.23-.09.14,0,.1,0,.16,0-.32,0,.29-.21.07-.27.11-.06.33-.06.4-.11-.24-.07.22-.15,0-.23a.51.51,0,0,1-.42,0l.2.16-.36-.07c0,.06.16.1.13.14a.42.42,0,0,0-.33,0c.34-.14-.24-.13,0-.25l.58-.08c.24-.17-.34-.2-.2-.39l-.1.07c-.23,0,0-.1-.14-.15a1.32,1.32,0,0,0,.38-.09c-.14,0,0-.13-.39-.1l.25-.11c.09-.14-.57-.1-.52-.25.22,0,.35,0,.51,0,0,0,0-.08-.1-.07.12,0-.28-.11-.1-.16-.09,0-.29,0-.28-.06h.09c-.09,0-.14-.07-.35,0,.61-.17,0-.39.48-.53a.71.71,0,0,1-.15-.3c.06,0,.1,0,.08,0,.18-.12-.57-.08-.37-.22s.18.08.3,0c.65,0-.1-.17.29-.24l0,0c.23-.06-.23-.18-.17-.29h.1a.82.82,0,0,1-.5-.39c.25.06.13.07.39.07,0-.05-.41,0-.48-.14a2.38,2.38,0,0,1,.55-.05v.1c.36,0,0-.12.07-.16l.15,0c0-.14-.43-.2-.37-.35H37.1c-.36-.15.24,0,0-.17l.4,0a1.71,1.71,0,0,1-.38-.38,4,4,0,0,1,.55.37.22.22,0,0,0-.17-.25s.12.08.05.08c-.29-.13-.41-.25-.38-.36.74.21.25-.23.84-.13-.23-.26.24-.28.27-.47-.58-.17,0-.06-.56-.29,0-.07,0-.08,0-.07h.39c.18.05.11.1.23.16s.25.07.42.08c-.2-.08-.27-.17-.17-.18l-.28,0c-.23-.28.49.11.28-.15l.14.13c-.06-.12.15-.2-.23-.52a.52.52,0,0,1,.24.15c.15-.09-.21-.62.11-.56l.11.11c0-.06-.19-.23,0-.17s.11.11.12.1-.14-.23,0-.2l.1.13c.26,0-.12-.45-.08-.64a.9.9,0,0,0,.6.33l0,0c.18-.09,0-.51,0-.78.4.29.48-.12.81,0a.64.64,0,0,1-.2-.33c.09,0-.07-.33.16,0h0c.26.3.28.15.35.12l-.3-.44c.62.5.29-.55.78,0,0-.14,0-.18,0-.31l.16.23a.38.38,0,0,0,.34-.17l.08.18c.09,0-.34-.75-.27-.81l.25.34c.14-.1.48.12.42-.29,0,0,.09.16.08.19s.41.08.08-.4c.2.32.17-.06.17-.25l.13.25c-.12-.35-.16-.43-.12-.57,0,0,.14.18.07.14.15.08-.07-.27.09-.19l.06.17c.09,0,0-.1,0-.31s.19,0,.32.19c-.06-.14-.12-.34,0-.3a.39.39,0,0,1,.07.17c.22.09,0-.39.26-.2a.87.87,0,0,0,.1.14c-.11,0-.2.08-.2.06.12.22.22.22.33.57,0-.21-.11-.65,0-.58l.05.07v0s0,0,0-.06.07,0,.1,0c.11.19.15.06.2,0-.14-.25-.06-.23-.22-.41,0,0,0,0,0,.06s0,0,0,0v0l-.09.07c0-.15-.06-.27.06-.16l-.14-.43c.23.32.44.45.56.66.06-.21.26-.24.12-.76,0-.08.11.12.16.18s0,.07,0,.14c0-.16.2-.15.06-.49.17.1.09.33.2.21l0,.11c.49.43,0-1,.63-.48a.2.2,0,0,1-.08-.1c.45.16.57-.58,1.09-.21.14.06.06-.16.06-.35l.12.27,0-.36c.06-.29.5.61.51.1L47,59.8c.07,0,.16-.18.23,0,0,0-.05-.21,0-.11l0,.15.08-.31c.15.07.17.6.36.57a1.18,1.18,0,0,0,0-.59s-.1-.07-.15-.22l0-.1a3,3,0,0,0-.47-1.18l0,.31-.1-.21.09,0c-.12-.19-.1,0-.1.14a.53.53,0,0,0-.12-.22l0,.46c-.07-.17-.07-.36-.17-.44,0,.22.18.38.13.53-.11-.18-.15-.35-.16-.16a.41.41,0,0,1,0-.24c0,.15-.13.11-.08.35-.14-.23-.16.13-.3-.29a.84.84,0,0,1,0,.4c-.09-.53-.2,0-.37-.5.09.46-.18.28-.21.58,0,0,0-.12,0-.1s-.15-.14-.23-.2a2.16,2.16,0,0,1,.09.74c-.22-.32-.11-.45-.27-.78.12.29,0,.35.1.59a1.18,1.18,0,0,1-.25-.37c.17.46,0,.1,0,.4-.18-.19-.2-.42-.24-.24A.44.44,0,0,1,44.8,58.44Zm-2,1.86h0l0,0Zm-.19.11.09,0c.05.08.09.18.07.18S42.7,60.46,42.63,60.41Zm1.29,1.52s0,0-.07,0l0-.06v0Z"/><path class="cls-1" d="M43.81,61.58s0,0,0,0l-.05,0,0,.09Z"/><path class="cls-1" d="M38.16,76.27h0Z"/><polygon class="cls-1" points="39.81 61.5 39.85 61.56 39.84 61.5 39.81 61.5"/><path class="cls-1" d="M37.52,77.62l-.07,0Z"/><path class="cls-1" d="M37.57,78.1l-.08.09A.28.28,0,0,0,37.57,78.1Z"/><path class="cls-1" d="M37.52,78.49l.12,0h0Z"/><path class="cls-1" d="M35.78,72.66h0Z"/><path class="cls-1" d="M36.79,74.33l-.14,0S36.64,74.36,36.79,74.33Z"/><polygon class="cls-1" points="35.17 70.58 35.17 70.58 35.17 70.57 35.17 70.58"/><path class="cls-1" d="M36.63,74.22s0,.06,0,.08S36.68,74.23,36.63,74.22Z"/><path class="cls-1" d="M37.58,79.91h0Z"/><path class="cls-1" d="M37.61,79.93h0Z"/><path class="cls-1" d="M37.7,80l-.06,0S37.63,80,37.7,80Z"/><path class="cls-1" d="M37.69,79.52h0Z"/><path class="cls-1" d="M37.65,79.39s-.21.1-.15.13h.08C37.43,79.52,37.82,79.41,37.65,79.39Z"/><path class="cls-1" d="M38.79,78.59l0,.15c.1,0,.24-.1.27,0C39.3,78.47,38.78,78.77,38.79,78.59Z"/><path class="cls-1" d="M38.87,78.15c.06.06.15,0,.21,0A.17.17,0,0,0,38.87,78.15Z"/><path class="cls-1" d="M38.15,75.35l.25-.06S38.3,75.32,38.15,75.35Z"/><polygon class="cls-1" points="36.73 75.15 36.59 75.24 36.83 75.21 36.73 75.15"/><polygon class="cls-1" points="38.42 74.4 38.46 74.41 38.35 74.35 38.42 74.4"/><path class="cls-1" d="M37.61,69.9l-.31,0C37.35,70,37.71,70,37.61,69.9Z"/><path class="cls-1" d="M37.4,68c.16,0,.27,0,.12-.09S37.36,68,37.4,68Z"/><polygon class="cls-1" points="40.83 63.88 40.85 63.99 40.86 63.88 40.83 63.88"/><path class="cls-1" d="M70.49,58.08c.09,0,.27-.09.22-.11l-.32.08Z"/><path class="cls-1" d="M71,57.64a2.07,2.07,0,0,0-.73.18c.32-.06.2,0,.57-.09,0,0-.08.1-.2.13.09,0,0,.08.16,0s.21-.19,0-.18A.65.65,0,0,1,71,57.64Z"/><path class="cls-1" d="M70.05,54l0,0S70.05,54,70.05,54Z"/><path class="cls-1" d="M69.13,51.76s0,0,.07,0A.06.06,0,0,0,69.13,51.76Z"/><path class="cls-1" d="M69.24,51.23v0S69.27,51.22,69.24,51.23Z"/><path class="cls-1" d="M70.05,54l.06-.11C70,53.89,70.06,53.91,70.05,54Z"/><path class="cls-1" d="M70.07,57.42h.09a.05.05,0,0,1,0,0Z"/><path class="cls-1" d="M70.72,54.78v0l.13,0Z"/><path class="cls-1" d="M71.08,55.51a2.35,2.35,0,0,0-.37.12c.11,0,.17-.05.19,0Z"/><path class="cls-1" d="M71.08,56.87h0Z"/><path class="cls-1" d="M70.54,54.23l.09,0Z"/><path class="cls-1" d="M54.39,40l0,0S54.38,40,54.39,40Z"/><polygon class="cls-1" points="54.23 38.32 54.25 38.32 54.32 38.18 54.23 38.32"/><path class="cls-1" d="M69.17,50.39h0S69.2,50.39,69.17,50.39Z"/><path class="cls-1" d="M64.86,45c-.13.23-.32.13-.45.4C64.49,45.3,64.81,45.17,64.86,45Z"/><path class="cls-1" d="M70.1,57.39l0,0S70.08,57.39,70.1,57.39Z"/><path class="cls-1" d="M64.41,45.38h0v0Z"/><path class="cls-1" d="M68.09,49,68,49.1S68.05,49.06,68.09,49Z"/><path class="cls-1" d="M68.46,50.32v0S68.45,50.31,68.46,50.32Z"/><path class="cls-1" d="M67.39,48.7s0-.06,0-.06l0,0S67.41,48.65,67.39,48.7Z"/><path class="cls-1" d="M67,48.14l0,0h0Z"/><path class="cls-1" d="M56.17,40.84a1.6,1.6,0,0,1,.1-.23C56.18,40.78,56.06,40.79,56.17,40.84Z"/><path class="cls-1" d="M70.22,57.37l-.12,0h0Z"/><path class="cls-1" d="M65.56,50l0-.11A.2.2,0,0,0,65.56,50Z"/><path class="cls-1" d="M60,43.52h0S60,43.54,60,43.52Z"/><path class="cls-1" d="M65.32,49.62c.07-.08.11-.12.12-.16l-.06,0Z"/><path class="cls-1" d="M56.27,40.6h0Z"/><path class="cls-1" d="M55.35,40.83c.08.05.22-.29.35-.46s-.1.26-.16.44c.12-.05.34-.31.38-.27a.5.5,0,0,1-.08.14c.22-.21.2.11.47-.16a.2.2,0,0,1,0,.08c.09-.16.18-.32.26-.44s.19-.15.08.06c0,0-.07.07-.12.12l.09-.06c-.15.32-.12.07-.25.29.13,0,.38-.24.39-.12-.17.3-.2,0-.28.32l0-.17c-.21.5,0-.07-.27.46.07.16.22-.06.29.09.13-.14.14-.24.27-.38.35-.18-.33.8,0,.5.15-.17.4-.52.36-.27l-.23.3c.09.11.36-.42.34-.12-.1.11-.16,0-.17.09-.09.31.18-.14.24-.1l-.18.29c.16,0,.42-.08.59,0a.78.78,0,0,0-.17.26c.26,0,.33.28.37.56l.23-.2s0,.13-.09.16.11-.15.2-.22,0,.17-.12.23c.25-.13.63-.21.55.13l-.07,0c0,.16.46-.41.38-.13l0,0c.12.25.49.2.37.66.29-.31.07.3.44-.15-.07.31-.17.37-.14.64,0,.06.29-.23.38-.24l-.2.24.28-.2-.2.32.1,0a.4.4,0,0,1,.1-.2c.17,0,0,.31-.06.43l.34,0a.69.69,0,0,1-.21.14c.29-.17-.2.26.07.11a.73.73,0,0,1,.17-.18c-.08.18,0,.26.13.26l-.16.15c.09.14.33.14.47.27,0-.12.27-.39.33-.38l-.2.26c.16-.12,0-.13.26-.26,0,.07-.21.3-.31.36l.13,0c-.06.07-.11.1-.19.19.16-.13-.12.34.15.11l-.06.07c.13.13.27.1.39.19.2-.2.2-.12.38-.25,0,.14,0,.38.07.46s.18-.15.33-.24c-.17.19-.06.26-.24.34.14.09.18.11.47.1.06-.09.07-.14.15-.19s0,.14-.11.22h0c.44-.11-.17.9.34.65h0L63,46c0,.09-.18.09-.25.25.45-.15.17.27.49.2-.47.6.35.3.1.75l.13-.13c.16-.08,0,.11,0,.16s.09-.14.18-.18c.42.14.31.76.43,1.15,0,.14.76-.52.55-.11l-.29.17c.49,0,.34.46.78.48-.07,0-.15.09-.16.07-.16.19.12.18.28.06,0,.05-.14.11-.2.2s.33-.07.16.1-.07,0-.09,0,.08.16.28,0c0,.17.22.09.13.26.29-.14,0,.23.36,0-.37.25-.19.36,0,.29-.13.06-.09.13-.26.22,0,.06.16.07.34-.08-.36.42.52,0,0,.44a2.38,2.38,0,0,1,.78.25c-.38.24-.16-.16-.55.1.26.06.64-.06.66.16s-.18.09-.26.11c.26.07.16.34.46.36a.24.24,0,0,1-.12,0s0,.1.16,0H67c.23-.2.6-.21.74-.29-.53.26,0,.23-.72.54a.62.62,0,0,0,.26-.11s-.08.1-.23.15c.16,0,.32-.1.38,0-.09,0-.13,0-.24.1.19-.05.39-.1.36,0s-.11.08-.12.05.58,0,.51.22c-.4.17-.09.13-.41.32l.14,0,.14-.13c0,.08.31,0,.23.13l-.16,0,.14.11.08-.15c.21,0,.41-.24.37-.09s0,.08-.13.22h0c.13,0,.26,0,.21.06s-.37.18-.44.23c.3-.11.17.13.49,0a1,1,0,0,0-.28.14l.24-.09a.56.56,0,0,1-.23.16c0,.13.4-.25.29,0,0,0-.06,0-.1,0,0,.18.27.17.21.34-.31.2-.13-.06-.39.13.15.12.57.13.57.33l0,0c.48-.21-.18.24.08.21a.79.79,0,0,0-.22.08c0,.14.23.16.46.26l-.13,0c-.08.11,0,.2,0,.29.13,0,.13,0,.3-.09-.6.54.57.25.07.71,0,0-.14,0-.13,0l.19.11a1.26,1.26,0,0,0,.27-.18c.13,0,.25,0,.27,0-.18,0-.34.15-.45.23l.21-.08c-.34.25.43-.17.23.06l-.12,0c.08,0,.24,0,.23.06-.24.12-.13,0-.34.08,0,.06.53-.06.31.11-.08,0-.1,0-.18,0-.26.19-.19.17-.21.24h0l-.08.17.07-.06c.67-.18.18.12.65.07-.44,0-.24.07-.52.17a.54.54,0,0,1-.22.16c.25,0-.15.16.22.11-.09,0,0,.06-.22.14.1,0,.15-.08.27-.12.35,0-.28.4.2.39.23.07.55,0,.75.05a.62.62,0,0,1-.35.09c-.11.12-.06.16.07.19a.6.6,0,0,0-.25.11s.35-.09.24,0a2.7,2.7,0,0,1-.39.08c.11,0,.3,0,.41.07a1.13,1.13,0,0,1-.37.06.61.61,0,0,0,.47.07l.07-.08s-.21.09-.26.09c-.22,0,0-.12.15-.16l.07,0c.52-.23-.15-.15-.15-.25l.4-.1-.36,0A.82.82,0,0,1,71,57c.17-.13-.16,0,0-.14a.11.11,0,0,1,.07,0l-.14,0c.09,0,.27-.11.23-.05.18-.2-.36-.08-.08-.23h0c-.19-.11-.29.09-.67.1l.67-.35-.29.09s0-.06.13-.1c-.22,0-.12.06-.32.1.23-.19-.2-.18.24-.37-.23,0-.13.14-.32.11.48-.21-.12-.06.07-.22s.16,0,.35-.12c-.44.13,0-.18-.07-.21-.34.13-.19-.08-.35-.13.12,0,.1-.27.18-.42l.06,0c-.34.12-.32,0-.42,0a.89.89,0,0,1,.39-.11l0-.07a.33.33,0,0,1-.24,0l.26-.09c0-.09-.37,0-.26-.24-.23.1-.61.38-.82.33a1.39,1.39,0,0,1,.41-.15s-.13,0-.08,0l.23,0c.07-.09-.19.06-.19,0,.19-.09.12-.09.27-.15s-.06.07,0,0a.65.65,0,0,1,.22-.25c-.1.05-.24.11-.28.09s.21-.13.27-.22c-.13,0,0-.08-.3,0,0,0,.12-.09.18-.13-.14,0-.13-.2-.39,0l0,0h0c-.34,0,0-.38-.18-.48l.09,0c-.15,0-.16-.17-.38-.13,0,0,.13-.14.24-.19-.1,0-.2,0-.11-.16.19,0,.13-.09.15,0,0-.12.16-.22-.12-.19.24-.08.24-.21.16-.21l-.13.14c-.06,0-.06-.08-.06-.13l.3-.13c.27-.37-.78,0-.25-.46-.23.07-.09.18-.35.26,0-.1.37-.41.35-.44.1-.2-.48.13-.44,0-.09.07-.36.24-.51.21,0-.11.38-.35.49-.34s0,0,0,.06a.24.24,0,0,0,.21-.08l-.11,0c.09-.1,0-.21.2-.28a.21.21,0,0,0-.22.15c.09-.19-.08-.17,0-.33,0,.05-.16.13-.17.11,0-.22-.24.05-.34,0,.12-.15.38-.19.19-.22a.53.53,0,0,1,.36-.2c-.25,0,0-.26,0-.34h.11c-.07,0-.08,0-.09-.06l-.19.15s0-.07.09-.12a4.51,4.51,0,0,1-.54.27c.08-.1-.19,0,.07-.23,0,.18.27-.18.37-.1s0,0,0-.08l.08,0c.17-.26-.34.13-.41,0,.17-.08.27-.21.23-.21s-.24.18-.38.21c.07-.15-.14,0-.15-.08l0,.08c-.16.07-.17,0-.25,0,.12-.08.11,0,.15,0-.3.1.19-.31,0-.28.08-.11.28-.19.33-.26-.25,0,.14-.24-.09-.24-.18.16-.13.14-.37.19l.25.07-.36.09s.19,0,.18.07c-.2,0-.14,0-.3.16.26-.26-.26,0-.1-.23l.49-.32c.15-.26-.39,0-.36-.27l0,.11c-.21.11-.09-.08-.2-.07A1.57,1.57,0,0,0,68,49.1c-.12.09-.06-.11-.4.09l.17-.21c0-.18-.56.18-.58,0,.2-.08.28-.22.46-.23,0,0,0-.09-.13,0,.08-.1-.29,0-.16-.1-.09,0-.26.15-.28.1l.08-.06c-.08.06-.15,0-.3.17.42-.47-.27-.29.08-.7a.87.87,0,0,1-.3-.17s.08-.06.08,0c.07-.21-.5.28-.42,0s.18,0,.25-.15c.5-.41-.18-.09.06-.39h0c.13-.19-.31,0-.35-.12l.08-.05a.9.9,0,0,1-.63.05.9.9,0,0,0,.32-.23c-.06,0-.31.27-.43.24a1.66,1.66,0,0,1,.34-.43l.07.07c.25-.26-.09-.09-.07-.17l.12-.09c-.13-.09-.44.16-.52,0l-.08.08c-.36.18.12-.19-.16-.07l.29-.28a2,2,0,0,1-.55.06,2.08,2.08,0,0,1,.64-.2.23.23,0,0,0-.32,0s.14,0,.11,0c-.28.14-.46.17-.53.08.6-.48,0-.35.34-.8-.35,0-.18-.39-.37-.54-.39.47-.06,0-.5.38-.07,0-.08,0,0-.06l.15-.38c.11-.15.14,0,.24-.15s.15-.21.21-.38c-.14.16-.25.18-.24.08l-.14.26c-.36.1.27-.46-.08-.36l.17-.1c-.14,0-.22-.24-.63,0,0-.06.14-.19.2-.19-.09-.21-.7,0-.61-.3l.12-.1c-.06,0-.25.15-.17,0s.11-.09.1-.11-.25.11-.23,0l.15-.09c0-.28-.51.07-.71,0a.74.74,0,0,0,.28-.64l0-.05c-.14-.2-.55,0-.83,0,.22-.45-.21-.46-.2-.81a.67.67,0,0,1-.29.27c0-.11-.31.13,0-.17v0c.23-.33.08-.32,0-.38l-.35.39c.33-.73-.62-.14-.27-.75-.13.07-.18,0-.3.1l.18-.22c-.07-.15-.11-.23-.29-.29l.16-.13c-.07-.08-.61.56-.7.51l.24-.35c-.14-.1-.06-.5-.43-.31,0,0,.11-.14.15-.13s-.09-.43-.41.05c.22-.3-.13-.14-.3-.06l.17-.21c-.27.24-.33.31-.48.33,0,0,.11-.2.1-.12,0-.17-.21.18-.21,0l.13-.12c-.06-.07-.11,0-.27.15s-.1-.16,0-.37c-.1.12-.26.26-.26.17a.65.65,0,0,1,.12-.14c0-.24-.37.14-.3-.14a.76.76,0,0,0,.08-.15c.09.07.17.14.15.15.14-.21.09-.3.36-.55-.18.11-.53.39-.54.23l0-.08,0,0s0,0-.07,0,0-.09,0-.11c.11-.18,0-.16-.07-.19-.15.23-.18.16-.26.39a0,0,0,0,1,.06,0h0l0,0,.11,0c-.11.1-.21.18-.17,0l-.31.33c.16-.36.17-.6.29-.82-.21,0-.35-.1-.72.29-.07,0,0-.15.08-.23s.06,0,.12-.07c-.15.07-.24-.09-.46.21,0-.19.24-.25.08-.28l.08-.08c.06-.66-.89.55-.77-.26a.33.33,0,0,1,0,.13c-.14-.47-.79-.1-.85-.74,0-.14-.16.06-.3.19l.13-.28-.26.26c-.26.15.12-.78-.28-.44l-.07.19c0-.07-.25,0-.13-.2,0,0-.12.18-.09.07l.07-.14-.28.17c-.06-.16.31-.55.15-.67a1.06,1.06,0,0,0-.41.43s0,.12,0,.26l-.09,0a3.26,3.26,0,0,0-.49,1.17l.23-.2-.08.21-.08,0c0,.22.06.06.15,0a.64.64,0,0,0-.07.24l.29-.35c-.07.17-.2.3-.19.42.14-.16.15-.38.28-.47,0,.21-.14.36,0,.23a.42.42,0,0,1-.14.2c.12-.1.15,0,.29-.19-.07.25.19,0,0,.41a.85.85,0,0,1,.3-.26c-.33.43.14.12-.15.6.29-.38.31-.07.54-.24,0,0-.08.09-.07.06s0,.2,0,.3c.2-.34.33-.36.5-.55-.11.37-.27.38-.43.71.16-.28.28-.21.39-.45a1.26,1.26,0,0,1-.15.42c.26-.42.09-.05.29-.28-.05.25-.21.41-.05.33A.55.55,0,0,1,55.35,40.83Zm2.4.51h0l-.05,0Zm.16.11s0,0-.06-.06.11-.16.12-.14S57.93,41.37,57.91,41.45Zm.75-1.85c.05,0,0,0,0,.09h-.06l0,0Z"/><path class="cls-1" d="M58.4,39.87h0l0,.07.06-.07Z"/><path class="cls-1" d="M70,54h0l0,0Z"/><polygon class="cls-1" points="59.73 43.49 59.77 43.44 59.72 43.48 59.73 43.49"/><path class="cls-1" d="M69.59,55.39l-.06,0S69.57,55.41,69.59,55.39Z"/><path class="cls-1" d="M69.72,55.85l-.07.1Z"/><path class="cls-1" d="M69.72,56.23l.12,0h0Z"/><path class="cls-1" d="M66.87,51.33h0C66.79,51.33,66.82,51.33,66.87,51.33Z"/><path class="cls-1" d="M68.29,52.46l-.14,0S68.15,52.54,68.29,52.46Z"/><polygon class="cls-1" points="65.56 49.96 65.56 49.96 65.56 49.95 65.56 49.96"/><path class="cls-1" d="M68.12,52.41c0,.05,0,.07,0,.07S68.17,52.41,68.12,52.41Z"/><path class="cls-1" d="M70.15,57.73v0h0Z"/><path class="cls-1" d="M70.19,57.74h0S70.22,57.73,70.19,57.74Z"/><path class="cls-1" d="M70.31,57.76l-.08,0S70.23,57.78,70.31,57.76Z"/><path class="cls-1" d="M70.11,57.24l-.09,0Z"/><path class="cls-1" d="M70,57.11s-.18.16-.1.18l.08,0C69.87,57.3,70.21,57.09,70,57.11Z"/><path class="cls-1" d="M71,56.09l0,.15c.1-.06.22-.14.27-.1C71.47,55.88,71,56.26,71,56.09Z"/><path class="cls-1" d="M71,55.67c.07,0,.14-.06.2-.08C71.09,55.59,71.07,55.59,71,55.67Z"/><path class="cls-1" d="M69.84,53.1l.23-.11C70,53,70,53,69.84,53.1Z"/><polygon class="cls-1" points="68.42 53.24 68.3 53.35 68.52 53.27 68.42 53.24"/><polygon class="cls-1" points="69.88 52.11 69.92 52.11 69.8 52.08 69.88 52.11"/><path class="cls-1" d="M67.26,48.09l-.25.2C67.08,48.28,67.37,48.08,67.26,48.09Z"/><path class="cls-1" d="M65.74,46.66c.11-.12.15-.23,0-.16C65.76,46.55,65.69,46.67,65.74,46.66Z"/><polygon class="cls-1" points="61.76 41.89 61.86 41.84 61.74 41.85 61.76 41.89"/></svg>