<svg id="Layer_1" data-name="Layer 1" xmlns="http://www.w3.org/2000/svg" viewBox="0 0 100 100"><defs><style>.cls-1{fill:#bdbdbd;}</style></defs><title>Artboard 3</title><path class="cls-1" d="M39.37,47.59c.08,0,.28,0,.24-.1l-.33-.08Z"/><path class="cls-1" d="M40,46.86a.91.91,0,0,0-.75-.22c.32.14.19.17.56.31,0,.11-.11.19-.23.17.08,0-.08.17.13.23.26-.14.27-.31.07-.51C39.85,46.81,39.93,46.85,40,46.86Z"/><path class="cls-1" d="M43.67,37.41l-.07,0Z"/><path class="cls-1" d="M48.81,34.5a.06.06,0,0,0-.06.07S48.82,34.52,48.81,34.5Z"/><path class="cls-1" d="M49.79,34.82l0,0S49.78,34.84,49.79,34.82Z"/><path class="cls-1" d="M43.67,37.41l.18-.07C43.78,37.26,43.74,37.36,43.67,37.41Z"/><path class="cls-1" d="M39.29,45.34a.24.24,0,0,0,.08.1l0-.09Z"/><path class="cls-1" d="M42.44,39.85l0,0a.94.94,0,0,0,.1.1Z"/><path class="cls-1" d="M41.7,41.8s-.24-.15-.35-.21c.1.07.14.12.15.16Z"/><path class="cls-1" d="M40.47,45l0,.06Z"/><path class="cls-1" d="M43.23,38.59l.09,0Z"/><path class="cls-1" d="M38.92,50.3h0S38.92,50.28,38.92,50.3Z"/><polygon class="cls-1" points="40.1 47.58 40.12 47.61 40.28 47.62 40.1 47.58"/><path class="cls-1" d="M51.37,35.48h0S51.34,35.49,51.37,35.48Z"/><path class="cls-1" d="M58,49.72c.27-.17.29.37.59.1C58.47,49.83,58.17,49.49,58,49.72Z"/><path class="cls-1" d="M39.33,45.28a.28.28,0,0,1,0-.09S39.32,45.26,39.33,45.28Z"/><path class="cls-1" d="M58.58,49.82h0l0,0Z"/><path class="cls-1" d="M54.71,37.59a.67.67,0,0,0,.06-.12A.33.33,0,0,0,54.71,37.59Z"/><path class="cls-1" d="M52.53,35.35l0,.07A.18.18,0,0,0,52.53,35.35Z"/><path class="cls-1" d="M56,38.67s0,.08.05.11l0,0S56,38.74,56,38.67Z"/><polygon class="cls-1" points="56.89 40.21 56.92 40.16 56.89 40.11 56.89 40.21"/><path class="cls-1" d="M40.88,56.08a1.16,1.16,0,0,1,.18-.2C40.9,56,40.7,55.77,40.88,56.08Z"/><path class="cls-1" d="M39.45,45.35a.19.19,0,0,1-.12-.07v.07Z"/><path class="cls-1" d="M57.92,37.53l.14.3A1.14,1.14,0,0,0,57.92,37.53Z"/><path class="cls-1" d="M53.48,61.36l0,.07A.07.07,0,0,0,53.48,61.36Z"/><path class="cls-1" d="M58.58,38.66a.45.45,0,0,0-.09.25h.08Z"/><path class="cls-1" d="M41.07,55.88h0Z"/><path class="cls-1" d="M39.61,54.19c.1.3.39,0,.61,0,.22.3-.2.26-.33.45.18.17.57.2.62.36s-.06.08-.14.07c.37.1.29.66.76.73l-.06.08a1.38,1.38,0,0,1,.43-.27c.07.11.32.1.13.26,0-.07-.12,0-.21,0l.16.07c-.24.27-.19-.11-.42,0,.23.19.63.33.64.56-.27.21-.33-.38-.46,0l0-.35c-.35.48-.06-.2-.46.28.14.44.38.36.54.78.22,0,.22-.18.43-.2.62.32-.44.9.2,1,.26,0,.63-.27.65.12l-.38.15c.25.37.58-.15.66.36-.16,0-.3-.18-.3-.1,0,.42.29,0,.44.18l-.22.26a11,11,0,0,0,1.31.78c-.09.06-.23.08-.2.23a6.35,6.35,0,0,1,1.54,1.4l.36-.15a.12.12,0,0,1,0,.19c.17.22.09-.16.25-.21a.15.15,0,0,1,0,.28c.5,0,1.34,0,1.7.4l-.11.06c.34.2.53-.5.8-.17l-.07,0c.76.28,1.61,0,2.24.37.06-.4.82.07.75-.53.49.17.42.36,1.09.31.17,0,.11-.43.28-.56l.12.28.14-.4.29.27.14-.16a.22.22,0,0,1-.23-.14c.19-.26.74-.15.84,0a5.61,5.61,0,0,0,.47-.62c.05.12,0,.22-.06.34.14-.48.24.23.37-.21-.08,0-.08-.17-.11-.22a.85.85,0,0,0,.74-.45l.1.2a3.76,3.76,0,0,0,.61-.59c.18-.23.35-.48.55-.69-.22.09-.46-.2-.37-.34l.29.16c-.08-.21-.21,0-.25-.28.17-.13.38.14.38.3a2.29,2.29,0,0,0,.08-.28c.09,0,.09.13.17.23-.09-.22.54-.17.36-.51l.09,0a6.94,6.94,0,0,0,.64-1.17c-.23-.16-.08-.28-.21-.51a2.86,2.86,0,0,0,.78-.87c0-.31-.17-.17-.27-.36.25.09.38-.29.47,0a3.62,3.62,0,0,0,.23-1.25c-.11,0-.19.08-.25,0s.18-.2.29-.14l0,0c-.08-.39.22-.7.5-1s.49-.65.3-1v0c0-.21-.08-.41-.14-.62.09-.24.16.2.35,0-.32-.69.24-1,0-1.5.79-.31.09-1.39.56-1.89l-.18,0c-.17-.14.11-.16.15-.26-.14,0-.16.14-.26.06a26.93,26.93,0,0,1,.19-3.64c0-.44-1-.09-.64-.7l.35.09a4.1,4.1,0,0,1-.48-1.27,2.63,2.63,0,0,0-.51-1.23c.09,0,.18,0,.21.07.16-.25-.22-.65-.4-.58,0-.14.15-.09.22-.21s-.47-.31-.28-.49c0,0,.09,0,.12,0-.15-.07-.2-.53-.4-.31,0-.36-.36-.52-.35-.82-.35,0-.14-.57-.54-.4.41-.21,0-.69-.28-.75.16,0,0-.23.23-.26-.14-.2-.33-.34-.5-.17.2-.69-.88-.43-.48-1.06-.31-.22-.63-.39-.93-.58s-.56-.36-.84-.52c.32-.33.56.43.86.09-.59-.31-1.11-.23-1.51-.68-.1-.14.19-.11.28-.14-.62-.19-1-.72-1.61-.74a.22.22,0,0,1,.16-.05c-.11,0-.2-.18-.28,0h.12c0,.34-.64.37-.71.51.4-.48-.44-.31.1-.9a.27.27,0,0,0-.23.2c-.09-.07-.09-.16.06-.27-.41,0-.34.23-.67.11,0-.09.1-.11.17-.21-.22.12-.45.28-.71.14,0-.05,0-.14.1-.12a1.78,1.78,0,0,0-.73.11.94.94,0,0,1-.72,0c.18-.43-.18-.16-.21-.53l-.3.12.12.17c-.26,0-.47.3-.7.2l.18-.17-.48.11.29.12c-.23.21.08.46-.26.39.06,0-.23,0-.4-.14h0c-.1.15-.19.3-.39.25s-.07-.41-.12-.48c-.05.31-.56.27-.59.64a.55.55,0,0,0-.07-.31v.27c-.14,0-.17-.06-.21-.21-.35.08.29.39-.18.35,0,0,0-.06,0-.11-.43.07-.64.51-1,.58-.3-.27.25-.25,0-.45a3,3,0,0,0-.59.67,2.89,2.89,0,0,1-.58.62l.1,0c.3.45-.46.07-.5.43,0-.07-.14-.27-.11-.21-.34.18-.43.64-.68,1.14l0-.14c-.24.08-.4.4-.6.55.07.13,0,.22.18.28-.53,0-.63.41-.7.74s-.11.67-.53.8c0-.07,0-.22,0-.16l-.13.53c.22.07.15,0,.36,0a.42.42,0,0,1,.07.41c0-.28-.34-.17-.5-.13.07,0,.12.08.19.11-.49.07.4.23,0,.45l-.11-.06c0,.15.1.33,0,.45-.28,0-.06-.18-.26-.27-.07.2.31.57,0,.65,0-.11,0-.23,0-.34-.38.08-.31.13-.42.26v0l-.25.3.11-.06c.58.48,0,.56.28,1-.31-.45-.22-.12-.5-.23-.11.06-.25.17-.32.11.19.23-.26.23,0,.55-.1,0-.05.18-.28.08,0,.24.18,0,.29,0,.24.41-.6.7-.22,1.28.11.45.42.58.53,1-.17.11-.34-.15-.34-.15a.47.47,0,0,0-.07.57c-.08-.05-.15,0-.27,0s.35.14.18.34a1.68,1.68,0,0,1-.37-.2c.07.2.23.4.3.6-.17,0-.24-.13-.35-.21,0,.23.12.59.39.66l.1-.13c0,.08-.24,0-.28,0-.21-.2.1-.27.2-.27s0,.09.05.14c.58-.11,0-.56,0-.84l.41.16-.32-.32c.11-.05.35-.06.4.08.22-.17-.13-.19.11-.33,0,0,.06,0,.07,0l-.1-.21c.08.05.3,0,.22.12.29-.3-.22-.59.11-.66l0,0c-.06-.49-.29-.1-.58-.52l.78-.08-.29-.11s.06-.14.18-.09c-.16-.22-.14,0-.31-.15.33-.16,0-.66.52-.59-.21-.14-.23.17-.33-.11.53.07,0-.31.28-.45.24.14,0,.29.34.15-.4-.25.22-.36.19-.55-.34-.12,0-.42,0-.74.11.06.4-.44.62-.64l.06,0c-.32-.2-.14-.43-.11-.65.19.1.26.17.29.32l.09-.18a.32.32,0,0,1-.09-.3l.22.17c.11-.23-.07-.63.28-.81-.21-.15-.76-.13-.71-.53.12.06.33.17.33.28s0-.15,0-.17l.13.24c.17-.08-.13-.17,0-.26.16.1.17,0,.29.09s-.13,0-.08.13a.53.53,0,0,1,.44-.14c-.1-.05-.23-.14-.19-.24s.24.06.4,0c-.07-.13.14-.17-.1-.35,0-.06.17,0,.25,0,0-.18.34-.51,0-.59l0,0v0h0c0-.55.73-.57.93-1l.06.07c.12-.25.38-.43.39-.72.06-.05.25,0,.3.14.1-.18.06-.28.39-.31-.06.25.14.09-.09.22.25-.08.38,0,.45-.35.06.26.32.16.38.05l-.24-.07a.77.77,0,0,1,.32-.17l.11.32c.31.07.4-.19.54-.4s.29-.36.56-.11c.05-.26-.29-.06-.28-.35.24-.05.59.33.66.33.32.12.15-.53.5-.49-.06-.1-.17-.41.08-.56.25,0,.34.47.22.57a.06.06,0,0,1-.09-.06c-.07,0-.15.11,0,.23v-.12c.13.11.43.07.37.27.15-.12.06-.2-.07-.25.29.16.44-.06.73.09-.05-.06-.09-.21,0-.2.42.17.2-.21.51-.25.15.19-.11.42.21.3.15.16,0,.32-.09.4.28-.17.44.25.55.31l-.14.07a.26.26,0,0,1,.21,0l0-.25c.07.06.13.07.11.16.12-.13,0-.4.26-.55.06.15.36,0,.29.3-.28-.22-.06.31-.34.27a.16.16,0,0,1,.18.07s0,.05-.06.07c.2.36.25-.29.57-.18-.1.15-.06.34,0,.33-.11-.06.06-.3.23-.36.14.22.26,0,.36.08l-.09-.12c.12-.13.21-.06.39,0-.06.13-.18,0-.16.1.32-.2.19.47.5.43,0,.16-.18.28-.14.4.35,0,.1.34.42.37.09-.24,0-.21.34-.26a3.82,3.82,0,0,0-.48-.15c.15,0,.31-.08.46-.1-.11-.1-.35,0-.39-.14.23-.08.19,0,.24-.24,0,.4.46.08.49.42l-.38.46c.08.41.67.14.87.59l0-.18c.21-.12.22.18.39.22-.15.13-.14.24-.19.36.11-.1.2.26.53,0l-.08.32c.13.35.72,0,.87.33-.24,0-.26.25-.52.14.06.1.09.2.2.13-.06.12.41.13.31.32.1,0,.28-.1.34,0a.19.19,0,0,1-.08,0c.08,0,.23.11.35-.1-.34.63.56.91.23,1.44a4.69,4.69,0,0,1,.47.69c-.06,0-.09,0-.09,0,0,.37.61,0,.55.41-.24.3-.23-.13-.3,0-.6.27.23.4,0,.76l-.06,0c-.14.25.39.37.42.69a.19.19,0,0,0-.1,0,1.48,1.48,0,0,1,.76.78c-.27,0-.16-.11-.4,0,.06.13.4-.13.52.13-.12.12-.2.34-.47.42l-.06-.25c-.32.2.07.32,0,.47H58c.12.37.53.31.55.75l.11-.07c.41.19-.2.23.12.43l-.39.11a2.88,2.88,0,0,1,.54.78c-.3-.14-.48-.45-.68-.63,0,.15.09.51.28.57,0-.06-.14-.13-.08-.19a.79.79,0,0,1,.49.71c-.77,0-.15.81-.77,1,.27.54-.14,1-.17,1.65.62-.16,0,.18.62.2,0,.15,0,.21,0,.22l-.41.38c-.2.08-.12-.15-.25-.15-.1.29-.28.09-.48.26.23,0,.3.15.18.31l.32-.2c.25.49-.56.28-.32.77L57.46,51c.07.25-.2.78.23,1.12-.08,0-.25,0-.27-.08-.19.49.15,1.3-.27,1.59L57,53.55c0,.11.2.26,0,.32s-.12-.09-.15,0,.14.34,0,.43l-.11-.17c-.36.39,0,.88-.07,1.33a.78.78,0,0,0-.86.21l-.05,0a1.42,1.42,0,0,0-.26.77,4.19,4.19,0,0,1-.17.81,1.14,1.14,0,0,0-.74.38,1.55,1.55,0,0,1-.74.51c.11,0,.22.26.18.36s-.07.47-.31.14l0,0c-.32-.23-.45,0-.62.08l.28.45a.83.83,0,0,0-.9.27c-.23.23-.46.42-.71.14-.07.17-.21.22-.28.39l-.08-.27a2.07,2.07,0,0,0-.87.17l.05-.22c-.21,0-.16.84-.39.88L50.17,60c-.41.07-.77-.37-1.2,0,0-.06,0-.18.1-.19-.19,0-.63-.42-.7.16,0-.18,0-.21-.2-.18a2.39,2.39,0,0,0-.46.12l.12-.25c-.29.27-.34.36-.64.36,0-.06,0-.23.09-.13-.14-.22-.26.16-.44-.09l.16-.12c-.19-.12-.21,0-.42.1s-.36-.26-.25-.5c-.1.11-.32.21-.39.08a.21.21,0,0,1,.14-.13c-.2-.36-.66-.05-.7-.44a.27.27,0,0,0,.07-.16c.22.21.42.35.39.35.15-.21,0-.37.34-.56-.26.07-.76.17-.87-.07a.32.32,0,0,1,0-.09h0s-.07-.06-.14-.06a.44.44,0,0,0-.09-.18c.13-.18-.11-.28-.18-.37-.2.2-.27.05-.34.32,0,0,0,0,.11.05a.07.07,0,0,0,.06,0l0,0,.23.2c-.17,0-.33,0-.31-.16l-.45.19c.16-.4.1-.77.25-1-.34-.2-.62-.61-1.19-.51-.11-.05.06-.19.11-.27s.11.09.19.07c-.23-.1-.4-.5-.74-.35,0-.32.38,0,.12-.33l.12,0c.16-.91-1.44-.63-1.08-1.74a.22.22,0,0,1-.08.15c-.08-1-1-1.78-.71-2.83.05-.29-.18-.27-.39-.39l.29-.12-.4-.21c-.34-.36.61-.8.08-1.23l-.19.09c0-.18-.19-.56,0-.55,0,0-.21,0-.12-.12l.16,0-.29-.43c.1-.36.63,0,.64-.48-.07-.18-.49-.52-.59-.45a.26.26,0,0,1-.25.21l-.09-.18c-.47,0-.95-.17-1.25.3l.29.31-.22.11,0-.27c-.21.16,0,.26.12.36a.39.39,0,0,0-.24.14l.45.29c-.17,0-.36-.12-.45.1.21.13.4-.17.54.06-.19.17-.37.14-.17.3a.21.21,0,0,1-.25-.06c.16.15.11.42.36.47-.24.19.13.52-.31.57a1,1,0,0,1,.43.37c-.57-.18.07.54-.5.58.51.1.33.67.69.95,0,0-.12,0-.11-.06,0,.2-.11.29-.16.44.39-.08.55.2.83.29-.3.34-.48,0-.81.16.3-.1.41.32.65.16-.16.25-.06.19-.34.38.48-.12.14.14.48.19-.14.33-.41.22-.17.45C39.87,54.39,39.61,54.19,39.61,54.19Zm4.62,5.52h0l-.13-.08Zm.46.38a1.66,1.66,0,0,0-.19-.18c0-.09.12-.15.17-.11S44.67,60,44.69,60.09Zm.41-2.23c.08,0,.06.09,0,.14a.62.62,0,0,0-.12-.08l0,0Z"/><path class="cls-1" d="M44.74,58h0a.22.22,0,0,0,0,.08l.08,0Z"/><path class="cls-1" d="M43.59,37.44h0Z"/><polygon class="cls-1" points="52.89 61.79 52.86 61.72 52.83 61.8 52.89 61.79"/><path class="cls-1" d="M41.16,39.55h-.09S41.12,39.56,41.16,39.55Z"/><path class="cls-1" d="M40.56,40.8,40.4,41A.59.59,0,0,0,40.56,40.8Z"/><path class="cls-1" d="M40.1,41.76l.11.06h0Z"/><path class="cls-1" d="M53.33,33.65h0C53.49,33.66,53.42,33.64,53.33,33.65Z"/><path class="cls-1" d="M48.07,33.54a.7.7,0,0,1,.13-.16C48.11,33.37,48,33.39,48.07,33.54Z"/><polygon class="cls-1" points="57.9 37.5 57.9 37.5 57.92 37.53 57.9 37.5"/><path class="cls-1" d="M48.44,33.33a.21.21,0,0,0-.24.05A.34.34,0,0,0,48.44,33.33Z"/><path class="cls-1" d="M39.19,46.28l0,0h0Z"/><path class="cls-1" d="M39.22,46.34l0,.06S39.25,46.35,39.22,46.34Z"/><path class="cls-1" d="M39.32,46.52l-.07-.12S39.24,46.49,39.32,46.52Z"/><path class="cls-1" d="M39.44,44.89l-.1,0Z"/><path class="cls-1" d="M39.47,44.46c0,.1-.26.23-.21.38l.08,0C39.19,44.77,39.62,44.58,39.47,44.46Z"/><path class="cls-1" d="M41,43l-.16.31c.12,0,.28-.08.27.07C41.56,43.06,40.89,43.42,41,43Z"/><path class="cls-1" d="M41.46,42.06c0,.18.15,0,.21.07C41.61,42,41.6,42,41.46,42.06Z"/><path class="cls-1" d="M45.36,36l.14.21C45.58,36.09,45.44,36.11,45.36,36Z"/><polygon class="cls-1" points="45.88 34.08 45.67 34.01 45.72 34.25 45.88 34.08"/><polygon class="cls-1" points="47.41 35.37 47.37 35.42 47.52 35.27 47.41 35.37"/><path class="cls-1" d="M56.52,40l.27-.18C56.69,39.81,56.37,40,56.52,40Z"/><path class="cls-1" d="M58.36,45c-.14.08-.23.24-.06.31C58.3,45.18,58.41,45.05,58.36,45Z"/><polygon class="cls-1" points="53.03 58.87 53.06 58.73 52.96 58.9 53.03 58.87"/><path class="cls-1" d="M45.07,34.46c.07-.05.17-.23.08-.24l-.23.24Z"/><path class="cls-1" d="M45,33.65a1.23,1.23,0,0,0-.56.52c.27-.2.21-.08.51-.33.09,0,.06.16,0,.26.07-.06.06.13.21,0s0-.35-.27-.26A.45.45,0,0,1,45,33.65Z"/><path class="cls-1" d="M42,27.27l0,0A.05.05,0,0,0,42,27.27Z"/><path class="cls-1" d="M43.13,23.16a.06.06,0,0,0,0,.07S43.16,23.17,43.13,23.16Z"/><path class="cls-1" d="M43.81,22.74l-.05,0S43.82,22.76,43.81,22.74Z"/><path class="cls-1" d="M42,27.27l.1-.13C42,27.14,42,27.21,42,27.27Z"/><path class="cls-1" d="M43.64,33.58a.22.22,0,0,0,.11,0l-.07,0Z"/><path class="cls-1" d="M42.61,29.07v0l.14,0Z"/><path class="cls-1" d="M43.2,30.36s-.26.09-.37.13c.11,0,.17,0,.2,0A.94.94,0,0,0,43.2,30.36Z"/><path class="cls-1" d="M44.17,32.51h0Z"/><path class="cls-1" d="M42.44,28.07l.1,0Z"/><path class="cls-1" d="M46.6,35.93l0,0S46.59,35.93,46.6,35.93Z"/><polygon class="cls-1" points="45.47 33.84 45.5 33.84 45.59 33.71 45.47 33.84"/><path class="cls-1" d="M44.85,22h0S44.86,22,44.85,22Z"/><path class="cls-1" d="M54.94,21.71c.09-.28.38-.07.44-.42C55.31,21.38,55,21.47,54.94,21.71Z"/><path class="cls-1" d="M43.63,33.53l-.06-.05A.13.13,0,0,0,43.63,33.53Z"/><path class="cls-1" d="M55.38,21.29h0v0Z"/><path class="cls-1" d="M47.05,20.27a.39.39,0,0,0-.08-.1Z"/><path class="cls-1" d="M45,21.08h0Z"/><path class="cls-1" d="M48,19.53s.06,0,.09,0l0,0C48.05,19.55,48,19.57,48,19.53Z"/><path class="cls-1" d="M49.18,19.32l0-.05h0Z"/><path class="cls-1" d="M51.22,36.28a.87.87,0,0,1-.1-.24C51.17,36.24,51,36.35,51.22,36.28Z"/><path class="cls-1" d="M43.74,33.47c-.05,0-.08.06-.11.06l0,0S43.74,33.49,43.74,33.47Z"/><path class="cls-1" d="M47.5,17.37l.24,0A.67.67,0,0,0,47.5,17.37Z"/><path class="cls-1" d="M59,29.5v.06S59,29.52,59,29.5Z"/><path class="cls-1" d="M48.46,17.18a.53.53,0,0,0,.16.17.24.24,0,0,0,0-.08Z"/><path class="cls-1" d="M51.12,36Z"/><path class="cls-1" d="M49.54,36.78c.24,0,.12-.36.18-.57.27-.1.12.27.22.46.18-.09.3-.43.42-.43s0,.08,0,.16c.17-.31.55-.06.71-.44a.3.3,0,0,1,0,.08,2.1,2.1,0,0,1-.1-.5c.09,0,.14-.26.21,0-.06,0,0,.1-.06.18l.08-.13c.14.33-.12.15-.08.4.18-.15.36-.47.53-.4.1.33-.34.18-.08.44l-.26-.09c.27.5-.16,0,.11.53.35,0,.34-.23.68-.21,0-.2-.09-.27-.06-.47.34-.44.58.73.79.2,0-.24-.1-.66.2-.53l.05.39c.31-.08,0-.58.37-.46,0,.16-.18.21-.12.23.32.21.06-.25.21-.31l.17.3c.28-.21.51-.57.79-.82,0,.1,0,.23.16.27a1.3,1.3,0,0,1,.61-.41,6.54,6.54,0,0,1,.75-.24l0-.33s.14,0,.14.12c.21,0-.11-.15-.12-.29s.21,0,.22.14c.07-.4.27-1,.7-1l0,.1c.27-.12-.27-.6.09-.6v.06c.44-.36.55-1,1.12-1.14-.33-.27.44-.4-.09-.69.39-.16.45,0,.82-.38.07-.11-.28-.3-.3-.46l.3.1-.25-.3.39,0,0-.16c0,.05-.17.07-.25,0-.06-.24.36-.44.51-.42l-.15-.56c.12,0,.15.13.21.21-.25-.33.33,0,.1-.29-.08,0-.18-.05-.24-.07.22-.09.24-.38.19-.6l.21.06a5.37,5.37,0,0,0,0-1.26c-.11.16-.47.12-.51,0l.33-.06c-.2-.07-.12.13-.37,0,0-.16.36-.12.48,0l-.13-.19c.1,0,.15,0,.28,0-.21-.07.3-.37-.06-.46l.09,0a4.67,4.67,0,0,0-.27-1c-.27.05-.24-.1-.48-.15a1.89,1.89,0,0,0,.06-.89c-.2-.16-.25,0-.44,0,.24-.1.11-.38.34-.29a1.76,1.76,0,0,0-.6-.76c-.07.09-.09.15-.18.17s0-.22.13-.26h0c-.54-.27,0-1.44-.64-1.5h0l-.48-.18c-.09-.18.22,0,.25-.24-.6-.1-.45-.6-.91-.69.3-.76-.81-.69-.86-1.28l-.09.16c-.18.08,0-.16-.08-.24-.07.12,0,.2-.11.24-.82-.34-1.43-1.17-2.3-1.64-.32-.15-.46.82-.74.29l.21-.29a2,2,0,0,1-1.06-.05,1.86,1.86,0,0,0-1,0c.05-.08.05-.18.12-.17-.13-.25-.53,0-.53.17-.1,0,0-.18-.08-.28s-.35.3-.43.07c0,0,0-.09.06-.1s-.43,0-.33.27c-.25-.11-.45.15-.67,0-.08.32-.44-.08-.4.36-.06-.45-.51-.29-.6,0,0-.15-.16-.1-.15-.3-.18.05-.31.18-.22.39-.49-.43-.47.62-.88,0-.42.41-.76.79-1.11,1.1-.22-.41.43-.28.19-.69-.33.36-.32.85-.75,1-.13,0-.06-.19-.07-.28-.26.4-.73.48-.87.92a.16.16,0,0,1,0-.14c-.05.06-.18.07,0,.22l0-.1c.28.15.2.67.3.79-.31-.51-.37.15-.74-.52a.29.29,0,0,0,.12.26c-.09,0-.16,0-.22-.18-.12.27.12.36,0,.54-.08-.07-.07-.13-.14-.23.06.23.12.45-.07.55s-.12-.08-.08-.13c-.22.29,0,.79-.33,1-.29-.33-.19,0-.52-.16A2,2,0,0,0,42,22l.2,0c-.1.16.06.43-.12.51L42,22.3l-.11.34.22-.1c.08.24.42.2.22.36,0-.06-.09.14-.32.13h0c.07.13.15.27,0,.35s-.36-.2-.45-.21c.26.21-.09.43.19.65a1.07,1.07,0,0,0-.29-.14l.21.16c-.1.05-.14.05-.28,0-.12.22.47.08.19.29,0,0-.06,0-.08-.09-.19.26,0,.59-.19.83-.38,0,0-.26-.37-.25,0,.43.26.91.15,1.27l.05-.07c.52.11-.3.26-.06.48,0-.05-.29-.09-.24-.07-.09.26.12.56.29.94l-.14,0c-.11.16,0,.41-.09.58.14,0,.13.13.32.06-.38.29-.21.54-.05.74s.34.4.09.7c0-.05-.15-.1-.14-.05l.23.34c.21-.1.12-.09.27-.22a.34.34,0,0,1,.3.17c-.19-.12-.36.11-.45.22s.14,0,.21-.06c-.32.32.45-.12.28.22l-.12,0c.1.07.28.09.28.21-.23.14-.15-.06-.36,0,.08.14.57.08.39.31-.09,0-.14-.11-.22-.14-.24.27-.15.25-.14.37h0v.3l0-.1c.72-.14.28.31.82.3-.5,0-.23.09-.51.23,0,.1-.06.24-.15.25.28,0,0,.29.35.25-.07.06.07.13-.15.24.15.1.12-.13.23-.19.4,0,0,.73.62.74.35.11.63-.07.94,0-.05.18-.31.19-.31.19a.26.26,0,0,0,.28.3.39.39,0,0,0-.15.23c.11.06.3-.21.32,0a1.38,1.38,0,0,1-.35.22c.17,0,.39,0,.56,0-.08.15-.23.14-.34.19.17,0,.42.16.63,0l0-.14c.06,0-.12.21-.18.22-.24.07-.1-.21,0-.29l.12,0c.28-.51-.36-.19-.5-.35l.35-.26-.39.12c0-.11.18-.29.29-.27.05-.24-.18,0-.11-.23a.13.13,0,0,1,.06-.05H44c.08,0,.2-.22.21-.12,0-.33-.49-.06-.32-.34h0c-.31-.16-.25.18-.68.21l.48-.6-.26.16s0-.1.07-.17c-.24,0-.09.1-.29.16.11-.29-.38-.31,0-.61-.23.08-.07.24-.3.17.42-.32-.18-.12-.06-.38.26-.1.21.09.34-.16-.45.16-.07-.29-.19-.35-.32.16-.25-.17-.45-.31.1,0,0-.44.09-.66h0c-.35.09-.37-.12-.48-.24a.62.62,0,0,1,.42,0l0-.12a.29.29,0,0,1-.25-.09l.27-.05c0-.16-.41-.26-.28-.52-.25,0-.66.34-.88.12.14,0,.37-.1.43,0s-.12-.06-.07-.11l.24,0c.09-.12-.2,0-.19-.1.19,0,.13-.09.28-.11s-.06.09,0,.1a.44.44,0,0,1,.25-.29c-.11,0-.26,0-.3,0s.23-.1.31-.21c-.15,0,0-.15-.31-.12,0,0,.14-.08.22-.1-.14-.08-.07-.42-.38-.3l0,0v0h0c-.34-.3.16-.64,0-.94h.1c-.11-.19,0-.4-.23-.56,0,0,.2-.1.31-.06,0-.15-.17-.19,0-.35.14.16.16,0,.1.16.12-.16.28-.16.06-.41.23.12.34-.05.28-.15l-.2.08a.35.35,0,0,1,.06-.25l.31.13c.49-.2-.47-.82.27-.84-.18-.17-.23.11-.45-.06.11-.14.62-.11.63-.15.26-.11-.36-.39-.14-.55-.12,0-.42-.14-.43-.36s.54.06.57.2,0,0-.08,0,0,.15.17.16l-.1-.08c.15,0,.24-.2.39-.06,0-.16-.15-.15-.24-.1.25-.09.15-.28.37-.39-.07,0-.2-.06-.18-.09.3-.17-.11-.23,0-.45.21,0,.32.3.32,0,.17,0,.27.17.32.27-.08-.3.34-.18.43-.23v.14a.14.14,0,0,1,.06-.15l-.22-.12c.07,0,.1-.05.17,0-.07-.15-.32-.23-.4-.46.14,0,.07-.28.32-.08-.25.11.24.2.14.39,0-.06,0-.09.1-.11a.09.09,0,0,1,0,.08c.37,0-.18-.32,0-.49.1.15.27.21.27.16s-.24-.19-.26-.35c.21,0,.06-.19.13-.24l-.11,0c-.1-.16,0-.2,0-.31.09.1,0,.13,0,.16-.1-.32.42.08.43-.19.13,0,.2.26.3.28,0-.3.31.09.36-.17-.18-.17-.16-.11-.16-.39l-.19.32v-.4c-.09.05-.1.23-.17.24,0-.22,0-.17-.16-.3.33.22.13-.33.41-.22l.3.51c.32.1.21-.48.56-.48l-.13,0c-.07-.23.16-.12.21-.25.07.19.16.22.24.32-.06-.14.22-.07.1-.44l.22.19c.27,0,.08-.64.35-.64,0,.22.14.33,0,.51.08,0,.16,0,.12-.13.08.11.15-.32.27-.16,0-.09,0-.29.07-.3a.2.2,0,0,1,0,.09c0-.1.11-.16,0-.36.38.57.73-.19,1,.34a2.25,2.25,0,0,1,.55-.19c0,.06,0,.1,0,.08.22.19.13-.56.4-.35s-.14.17-.06.29c0,.65.31-.09.46.3l0,0c.1.23.33-.21.54-.14a.22.22,0,0,0,0,.1A.91.91,0,0,1,51.7,19c-.13.24-.13.11-.14.37.1,0,.06-.41.27-.44a1.06,1.06,0,0,1,.07.57l-.17,0c0,.36.22,0,.29.13l-.05.15c.25,0,.38-.34.66-.23V19.4c.29-.31,0,.26.3.05l-.11.38a2.3,2.3,0,0,1,.71-.18,3,3,0,0,1-.69.37.4.4,0,0,0,.46-.05c-.05,0-.14.09-.15,0,.25-.24.47-.28.65-.17-.41.65.39.43.17,1,.46,0,.49.5.8.72.29-.53.1.07.5-.39.1,0,.12.08.1.11l-.06.47c-.08.17-.16,0-.25.13.1.18-.13.24-.17.44.15-.17.28-.16.3,0l.1-.31c.45,0-.24.52.19.53l-.21,0c.18,0,.31.4.79.27,0,.06-.17.18-.24.15.13.3.85.42.7.81l-.15,0c.07,0,.32,0,.2.12s-.14,0-.14.07.3.06.25.17h-.18c-.06.37.57.35.75.62a.73.73,0,0,0-.54.55h-.06c0,.38.48.58.67,1-.44.26-.18.79-.48,1.14a.43.43,0,0,1,.38.11c-.1.07.27.28-.12.21v0c-.41,0-.31.2-.36.33l.52.12c-.43.11-.39.35-.38.58s0,.46-.32.43c.1.13.06.23.14.36l-.26-.11a1.12,1.12,0,0,0-.3.57L56,29.92c-.1.13.61.56.55.72l-.39-.17c-.14.28-.63.29-.48.76,0-.05-.14-.13-.13-.18-.07.12-.54.23-.07.57-.29-.25-.22.2-.22.44l-.18-.21c.16.34.22.42.14.63-.06,0-.18-.14-.09-.13-.21,0,.09.28-.15.3l-.07-.18c-.13.09-.05.16,0,.37s-.29.14-.46-.05c.07.14.13.36,0,.36A.27.27,0,0,1,54.4,33c-.31,0-.16.49-.46.36a.44.44,0,0,0-.11-.12.94.94,0,0,1,.33-.16c-.15-.21-.31-.16-.4-.52,0,.22,0,.7-.17.68a.17.17,0,0,1-.06-.06v0c-.05,0-.06,0-.07.09a.46.46,0,0,0-.16,0c-.11-.17-.21,0-.29,0,.13.25,0,.26.2.42,0,0,0,0,0-.07a.05.05,0,0,0,0,0v0l.18-.11c0,.16,0,.3-.15.2,0,.18.07.37.08.46-.28-.29-.56-.39-.69-.61-.17.23-.5.32-.51.86-.06.08-.13-.13-.18-.2s.08-.07.08-.14c-.11.16-.41.16-.36.53-.22-.11,0-.35-.21-.24v-.11c-.31-.25-.45,0-.64.27s-.42.44-.72.09a.19.19,0,0,1,.07.12c-.63-.31-1.41.29-2-.38-.15-.15-.22.08-.38.23l0-.3-.28.28c-.35.14-.22-.83-.69-.52l0,.2c-.1-.08-.42-.05-.3-.25,0,0-.13.17-.13.06l.06-.15a2.85,2.85,0,0,1-.39.11c-.16-.22.32-.54,0-.73-.13,0-.55.22-.57.33s.07.15,0,.29H45.5c-.26.38-.62.73-.49,1.18l.36-.13,0,.24L45.14,35c0,.24.15.12.29,0a.46.46,0,0,0,0,.27l.41-.28c-.05.18-.26.28-.16.44.2-.14.09-.41.31-.46,0,.23-.09.38.11.27a.26.26,0,0,1-.16.2c.17-.08.32.08.47-.13,0,.3.4.09.24.5a.79.79,0,0,1,.43-.25c-.36.44.38.16.18.69.27-.41.6-.08.92-.28,0,0-.07.11-.09.08.14.07.16.22.24.33.09-.39.33-.45.48-.67.14.39-.16.44-.15.81,0-.32.36-.28.32-.55.12.25.11.12.16.46.06-.49.14-.07.27-.37.19.25,0,.46.27.32C49.76,36.61,49.54,36.78,49.54,36.78Zm5-2.09h0l-.08.07Zm.36-.23-.16.09c-.06-.08-.1-.17-.06-.19S54.76,34.42,54.86,34.46Zm-1.68-1.27c0-.06.07,0,.11,0a.15.15,0,0,0-.07.07v0Z"/><path class="cls-1" d="M53.26,33.56a0,0,0,0,0,0,0l.06,0,0-.09Z"/><path class="cls-1" d="M42,27.32h0l0,0Z"/><polygon class="cls-1" points="58.99 30.02 58.93 30 58.97 30.06 58.99 30.02"/><path class="cls-1" d="M41.46,29.66s-.05,0-.06.05S41.43,29.69,41.46,29.66Z"/><path class="cls-1" d="M41.78,30.62l0,.18A.92.92,0,0,0,41.78,30.62Z"/><path class="cls-1" d="M42,31.39l.11-.05h0Z"/><path class="cls-1" d="M43.74,19.69s0,0,0,0S43.75,19.61,43.74,19.69Z"/><path class="cls-1" d="M42,23a.71.71,0,0,1-.07-.16C41.87,22.92,41.84,23,42,23Z"/><polygon class="cls-1" points="47.47 17.37 47.47 17.38 47.49 17.37 47.47 17.37"/><path class="cls-1" d="M42,22.72c-.08,0-.09.08-.08.15S42,22.79,42,22.72Z"/><path class="cls-1" d="M44.16,34.07l0,0,0,0Z"/><path class="cls-1" d="M44.21,34.07h.06S44.24,34.05,44.21,34.07Z"/><path class="cls-1" d="M44.39,34.07h-.12S44.32,34.12,44.39,34.07Z"/><path class="cls-1" d="M43.46,33.27l-.08.06Z"/><path class="cls-1" d="M43.22,33.06c0,.07,0,.29.1.32l.06-.05C43.24,33.4,43.39,33,43.22,33.06Z"/><path class="cls-1" d="M43.42,31.31l.07.23c.06-.09.15-.22.23-.15C43.81,31,43.56,31.58,43.42,31.31Z"/><path class="cls-1" d="M43.17,30.63c.11.07.14-.08.2-.11C43.24,30.51,43.21,30.5,43.17,30.63Z"/><path class="cls-1" d="M42.27,25.73l.25.05C42.49,25.68,42.42,25.76,42.27,25.73Z"/><path class="cls-1" d="M41.19,24.43l-.19.06.22.11A1,1,0,0,1,41.19,24.43Z"/><polygon class="cls-1" points="43.11 24.41 43.13 24.45 43.09 24.28 43.11 24.41"/><path class="cls-1" d="M49,19.58l-.07-.3C48.88,19.34,48.91,19.69,49,19.58Z"/><path class="cls-1" d="M52.53,19.68c0,.15,0,.29.15.17C52.62,19.8,52.59,19.65,52.53,19.68Z"/><polygon class="cls-1" points="56.85 28.32 56.76 28.23 56.82 28.38 56.85 28.32"/><path class="cls-1" d="M66.06,82.85c0-.08.08-.27,0-.25l-.13.31Z"/><path class="cls-1" d="M66,82.15a1.91,1.91,0,0,0-.39.65,3.06,3.06,0,0,0,.35-.46c.06,0,0,.13,0,.24,0-.08,0,.1.14-.09s0-.3-.18-.14A.72.72,0,0,1,66,82.15Z"/><path class="cls-1" d="M64.34,78.77l0,0Z"/><path class="cls-1" d="M63.89,76.41a.08.08,0,0,0,.08,0A.11.11,0,0,0,63.89,76.41Z"/><path class="cls-1" d="M64.16,75.93l0,0S64.18,75.93,64.16,75.93Z"/><path class="cls-1" d="M64.34,78.77l.08-.09C64.31,78.71,64.35,78.73,64.34,78.77Z"/><path class="cls-1" d="M65,82.5a.12.12,0,0,0,.09,0h0Z"/><path class="cls-1" d="M64.93,79.65v0l.13,0Z"/><path class="cls-1" d="M65.29,80.3a2.52,2.52,0,0,0-.36.16l.19-.06Z"/><path class="cls-1" d="M65.56,81.5h0Z"/><path class="cls-1" d="M64.8,79.11l.09,0A.19.19,0,0,0,64.8,79.11Z"/><path class="cls-1" d="M56.22,58l0,0S56.22,58,56.22,58Z"/><polygon class="cls-1" points="56.97 56.5 56.98 56.5 57.12 56.42 56.97 56.5"/><path class="cls-1" d="M64.34,75.12Z"/><path class="cls-1" d="M62.48,68.3c-.22.15-.34,0-.58.16C62,68.42,62.35,68.44,62.48,68.3Z"/><path class="cls-1" d="M65,82.45l0,0S65,82.46,65,82.45Z"/><path class="cls-1" d="M61.9,68.46h0l0,0Z"/><path class="cls-1" d="M63.8,73.44l-.12,0Z"/><path class="cls-1" d="M63.69,74.8l0,0Z"/><path class="cls-1" d="M63.26,72.86s.06,0,0,0l0,0S63.3,72.83,63.26,72.86Z"/><path class="cls-1" d="M63.1,72.17l-.05,0,0,0Z"/><path class="cls-1" d="M57.19,59.76l.22-.12C57.23,59.72,57.12,59.66,57.19,59.76Z"/><path class="cls-1" d="M65.09,82.38c0,.05-.08.07-.1.07h0Z"/><path class="cls-1" d="M61.09,73.32l0-.12A.25.25,0,0,0,61.09,73.32Z"/><path class="cls-1" d="M58.88,64.43h0S58.84,64.44,58.88,64.43Z"/><path class="cls-1" d="M61,72.89a.57.57,0,0,0,.17-.1H61.1Z"/><path class="cls-1" d="M57.41,59.63h0Z"/><path class="cls-1" d="M56.52,59.25c0,.09.35-.1.55-.17s-.22.16-.38.27c.12,0,.45-.05.46,0a.46.46,0,0,1-.14.07c.3,0,.1.21.48.16l-.08,0,.46-.2s.25,0,0,.1c0,0-.1,0-.17,0h.11c-.3.17-.14,0-.37.08.14,0,.45,0,.38.14-.31.14-.17-.11-.41.09l.08-.15c-.47.28,0-.08-.5.21,0,.17.23.08.19.26.19,0,.25-.11.44-.15.39.07-.73.46-.26.44.23,0,.64-.18.46,0l-.37.11c0,.14.55-.12.36.11-.15,0-.16-.06-.19,0-.25.2.22,0,.25.06l-.31.14c.1.12.39.2.51.34a.67.67,0,0,0-.3.1c.24.15.12.45,0,.72l.3,0a.27.27,0,0,1-.17.08c-.08.11.17-.06.3-.06s-.14.11-.24.12c.29,0,.64.21.4.45h-.1c-.07.15.62-.06.39.13h0c0,.28.3.47-.06.79.42-.09-.1.3.47.14-.23.23-.35.22-.47.48,0,.06.37,0,.45,0l-.29.09h.34l-.34.16.1,0a.43.43,0,0,1,.2-.12c.16,0-.13.3-.28.35l.32.15a.57.57,0,0,1-.26,0c.34,0-.3.12,0,.14a2.1,2.1,0,0,1,.24-.06c-.16.11-.13.24,0,.31l-.21,0c0,.19.21.33.26.52a.66.66,0,0,1,.49-.15l-.31.12c.2,0,.1-.1.36-.1,0,.09-.34.16-.45.15l.13.06c-.09,0-.15,0-.27.06.21,0-.26.24.09.19l-.09,0c.06.19.19.24.25.39.27-.08.23,0,.46,0,0,.14-.22.33-.16.46s.24,0,.41,0c-.24.09-.17.22-.37.2.09.15.11.19.38.34.09-.05.12-.09.21-.1s-.07.11-.19.14h0c.44.12-.55.76,0,.79h0l.32.1c0,.1-.2,0-.33.12.47.08,0,.34.35.43-.68.33.19.44-.22.75l.16-.06c.18,0-.08.08-.11.13.13,0,.14-.09.24-.09.31.33,0,.87-.09,1.3,0,.16.91-.14.55.15l-.34,0c.46.2.14.61.54.82-.08,0-.18,0-.18,0-.22.12,0,.23.23.19,0,0-.17,0-.26.1s.33.09.11.17c0,0-.08,0-.1,0s0,.19.27.09c-.1.14.17.18,0,.31.32,0-.1.22.33.14-.44.09-.31.27-.09.3-.14,0-.12.09-.31.1,0,.08.12.14.34.07-.49.27.49.2-.17.44a2.48,2.48,0,0,1,.65.56c-.44.09-.09-.23-.55-.12.22.16.63.2.57.43,0,.06-.2,0-.28,0,.23.16.05.4.33.53a.28.28,0,0,1-.13,0s0,.09.15,0l-.06,0c.28-.12.64,0,.79,0-.59.07-.1.21-.85.28a.68.68,0,0,0,.28,0s-.11.07-.27.07c.14.1.34,0,.36.13s-.14,0-.25,0c.2,0,.4,0,.34.15s-.13,0-.14,0c.07.16.57.18.43.4-.43,0-.12.1-.48.19l.13.08.16-.09c0,.09.3.11.2.21l-.17,0,.11.15.12-.13c.21,0,.46-.11.38,0,0,0,0,.08-.18.18h0c.12,0,.25,0,.18.12s-.41.08-.48.11c.31,0,.13.19.47.16a1.9,1.9,0,0,0-.31.06l.26,0a.45.45,0,0,1-.26.1c0,.14.45-.15.28,0a.32.32,0,0,1-.1,0c-.07.17.23.24.15.4-.36.14-.12-.09-.42,0,.12.18.54.29.51.5l0-.05c.52-.12-.22.21.05.24a.61.61,0,0,0-.23,0c0,.15.21.22.42.37h-.13c-.1.11,0,.22,0,.32.13,0,.13,0,.31,0-.65.5.56.33,0,.77,0,0-.13,0-.13,0l.19.14c.21-.1.12-.07.27-.18s.26,0,.28,0c-.18,0-.35.14-.45.23a1.31,1.31,0,0,1,.21-.08c-.34.25.43-.17.23.06l-.11,0c.08,0,.25,0,.24.06-.23.14-.14,0-.34.09,0,.07.52-.07.31.11-.08,0-.1,0-.18,0-.25.21-.17.18-.19.26h0l-.07.19.07-.07c.65-.22.21.13.68,0-.44.1-.23.1-.5.25,0,.07-.1.17-.18.2.24-.07-.1.21.25.1-.08.06,0,.07-.18.19.12,0,.13-.11.24-.17.33-.07-.13.53.37.41.27,0,.52-.18.73-.2a.59.59,0,0,1-.28.23c0,.15,0,.18.19.15a.53.53,0,0,0-.15.22c.08,0,.26-.25.24-.08a1.5,1.5,0,0,1-.29.27,3,3,0,0,0,.42-.14c-.07.16-.18.19-.27.26a.45.45,0,0,0,.47-.21v-.11s-.1.21-.15.24-.06-.14,0-.23l.08,0c.25-.52-.22,0-.31-.16l.29-.3-.3.2a.78.78,0,0,1,.26-.3c.08-.2-.14.07,0-.13l0-.06-.13,0c.07,0,.19-.21.18-.15.1-.24-.35.08-.14-.17h0c-.21,0-.24.2-.6.32.17-.18.35-.36.53-.53l-.25.17s0-.06.1-.13c-.21.08-.1.09-.28.18.17-.23-.24-.14.15-.42-.21.1-.1.17-.29.18.43-.3-.13,0,0-.24s.16,0,.33-.17c-.42.19,0-.17-.09-.18-.33.18-.2-.05-.35-.1.11,0,.09-.27.17-.41l.06,0c-.35.13-.33,0-.43,0a1,1,0,0,1,.4-.1l0-.06c-.12,0-.18,0-.24,0l.26-.09c0-.08-.36-.06-.24-.24-.24.08-.63.34-.84.27a1.24,1.24,0,0,1,.42-.12s-.13,0-.08,0l.24,0c.08-.09-.19,0-.19,0,.19-.06.12-.08.27-.12s-.06.06,0,0,.1-.15.24-.22c-.11,0-.26.09-.29.06s.21-.11.29-.19c-.14,0,0-.08-.31,0,0,0,.13-.08.2-.11-.14,0-.11-.22-.39-.07v0h0c-.33-.08.06-.39-.11-.51l.09,0c-.13-.07-.12-.2-.34-.21,0,0,.15-.12.27-.13-.09-.06-.2,0-.07-.19.18,0,.14-.06.14,0,.06-.12.2-.18-.09-.22.26,0,.29-.15.21-.17l-.16.11s0-.09,0-.14l.33-.06c.34-.29-.76-.19-.14-.5-.24,0-.13.15-.41.16,0-.1.47-.31.46-.33.15-.17-.5,0-.41-.17a.86.86,0,0,1-.55.07c0-.11.46-.23.57-.19s0,0-.06,0a.2.2,0,0,0,.22,0l-.12,0c.11-.07.07-.2.27-.21a.2.2,0,0,0-.25.08c.14-.16,0-.19,0-.33-.06,0-.19.08-.2.06.11-.21-.23,0-.31-.14.16-.1.43-.07.25-.15.1-.11.3-.09.41-.08-.25-.06.1-.24.12-.31l.11,0a.11.11,0,0,1-.08-.08l-.22.09s0-.07.12-.09c-.16,0-.38.11-.6.09.11-.08-.16-.11.15-.2-.07.17.3-.08.38,0s0,0,0-.09a.11.11,0,0,1,.08,0c.24-.2-.36,0-.39-.13.18,0,.33-.11.28-.13s-.28.1-.42.07c.11-.12-.13-.07-.12-.13l0,.07c-.18,0-.17,0-.24-.08.14,0,.11,0,.16,0-.32,0,.28-.23.06-.28.1-.07.32-.08.39-.14-.25-.06.21-.17,0-.24a.53.53,0,0,1-.41,0l.21.16-.37,0c0,.06.17.09.14.13a.48.48,0,0,0-.33,0c.33-.16-.24-.11,0-.26l.58-.12c.22-.19-.35-.18-.25-.39l-.09.08c-.23,0,0-.11-.16-.14a1.24,1.24,0,0,0,.37-.14c-.14,0,0-.14-.4-.07l.23-.14c.08-.16-.58,0-.55-.19.22,0,.34-.1.51,0,0,0,0-.1-.11-.07.11,0-.29-.07-.12-.15-.09,0-.29,0-.28,0a.2.2,0,0,1,.09,0c-.09,0-.15-.05-.35,0,.57-.28-.14-.39.35-.63a.88.88,0,0,1-.21-.29c.06,0,.09,0,.08,0,.15-.17-.57,0-.4-.14s.18,0,.29,0c.63-.17-.13-.16.22-.34h0c.2-.12-.28-.12-.27-.25l.1,0a.81.81,0,0,1-.61-.23c.26,0,.15,0,.39-.06,0,0-.4.11-.49,0a1.65,1.65,0,0,1,.49-.25l0,.09c.33-.13,0-.12,0-.19l.15,0c-.08-.14-.46,0-.48-.21l-.11,0c-.4,0,.19-.13-.11-.14l.38-.13a2.1,2.1,0,0,1-.53-.19,2.31,2.31,0,0,1,.67.1.24.24,0,0,0-.28-.17s.14,0,.09.06c-.32,0-.49,0-.51-.17.74-.17.1-.35.66-.59-.33-.13,0-.44-.12-.66-.54.24,0-.07-.62.11,0,0,0-.06,0-.08l.3-.27c.16-.09.15,0,.28,0s.23-.12.36-.25c-.2.08-.31,0-.25,0l-.24.18c-.36-.08.45-.29.09-.37h.2c-.14,0-.09-.32-.59-.26.06,0,.22-.1.27-.08,0-.23-.64-.3-.4-.55l.15,0c-.06,0-.29,0-.16-.08s.15,0,.15,0-.28,0-.22-.11H62c.12-.26-.49-.19-.64-.33.42-.13.51-.33.55-.43H62c0-.25-.47-.29-.7-.46.41-.27.05-.51.24-.81a.7.7,0,0,1-.39.08c.07-.08-.33,0,.06-.16v0c.37-.16.24-.23.22-.32l-.51.15c.67-.45-.44-.47.17-.8-.14,0-.16-.07-.3-.08l.27-.09a.4.4,0,0,0-.09-.4l.21,0c0-.1-.82.13-.87,0l.4-.15c-.07-.18.23-.47-.19-.52.06,0,.17-.05.2,0s.16-.4-.38-.19c.36-.12,0-.19-.21-.23l.27-.07c-.37,0-.46.06-.59,0,0,0,.2-.1.15,0,.11-.14-.27,0-.17-.14l.18,0c0-.09-.1,0-.31,0s0-.2.24-.29c-.15,0-.36.06-.31,0a.41.41,0,0,1,.18,0c.13-.21-.38-.11-.16-.31a.41.41,0,0,0,.15-.07c0,.12,0,.22,0,.22.24-.09.25-.2.61-.24-.21,0-.65,0-.57-.14l.08,0h0s0,0-.06-.05,0-.07,0-.1c.2-.08.07-.15.06-.2-.26.1-.24,0-.44.16t.06,0h0l.06.11c-.15,0-.27,0-.15-.09l-.45.09c.35-.2.5-.4.72-.5-.2-.09-.23-.31-.76-.21-.07,0,.13-.1.2-.15s.06,0,.14,0c-.16,0-.15-.23-.5-.11.12-.17.34-.07.23-.19l.11,0c.43-.51-1-.1-.49-.7a.22.22,0,0,1-.1.09c.16-.49-.6-.58-.29-1.15,0-.15-.17,0-.36,0l.26-.16-.36.06c-.29,0,.53-.59,0-.55l-.17.12c0-.08-.21-.14,0-.24,0,0-.19.08-.11,0l.13-.08-.32,0c0-.18.55-.3.46-.5a1,1,0,0,0-.57.14s-.05.12-.18.21l-.1,0a3.28,3.28,0,0,0-1,.76l.3-.06-.18.15,0-.07c-.16.15,0,.08.14,0a1.19,1.19,0,0,0-.19.17l.44-.14c-.15.1-.34.14-.39.25.2-.06.33-.25.49-.24-.16.15-.32.22-.13.18a.53.53,0,0,1-.23.1c.15,0,.12.09.35,0-.21.18.14.13-.25.33.1,0,.35-.08.39,0-.51.16.06.18-.46.41.45-.15.3.11.58.11,0,0-.11,0-.09,0s-.13.16-.19.23a2.14,2.14,0,0,1,.72-.15c-.3.23-.43.15-.75.32.28-.13.34,0,.57-.14a1.11,1.11,0,0,1-.36.26c.45-.19.1,0,.4,0-.19.18-.41.2-.24.23A.48.48,0,0,1,56.52,59.25Zm1.67,1.93h0l0,0Zm.08.19a.29.29,0,0,0,0-.09c.09,0,.19-.07.19,0S58.34,61.31,58.27,61.37ZM60,60.29s0,0-.05.07l-.06,0h0Z"/><path class="cls-1" d="M59.58,60.36h0l-.06,0,.09,0Z"/><path class="cls-1" d="M64.3,78.81h0l0,0Z"/><polygon class="cls-1" points="58.67 64.25 58.74 64.23 58.68 64.23 58.67 64.25"/><path class="cls-1" d="M63.79,80.24l-.06,0Z"/><path class="cls-1" d="M64,80.75l-.06.11A.41.41,0,0,0,64,80.75Z"/><path class="cls-1" d="M64,81.19l.1,0h0Z"/><path class="cls-1" d="M61.86,75.24l0,0C61.78,75.2,61.81,75.22,61.86,75.24Z"/><path class="cls-1" d="M62.91,76.87a.57.57,0,0,1-.15,0S62.75,76.91,62.91,76.87Z"/><polygon class="cls-1" points="61.09 73.33 61.1 73.33 61.09 73.32 61.09 73.33"/><path class="cls-1" d="M62.75,76.76s0,.07,0,.08S62.79,76.78,62.75,76.76Z"/><path class="cls-1" d="M65.37,82.79l0,0a.05.05,0,0,1,0,0Z"/><path class="cls-1" d="M65.41,82.78l0,0S65.43,82.75,65.41,82.78Z"/><path class="cls-1" d="M65.54,82.72l-.09,0S65.49,82.79,65.54,82.72Z"/><path class="cls-1" d="M64.88,82.28l-.07.07A.22.22,0,0,0,64.88,82.28Z"/><path class="cls-1" d="M64.72,82.17s-.08.24,0,.24l.06-.06C64.67,82.44,64.86,82.08,64.72,82.17Z"/><path class="cls-1" d="M65.27,80.85V81c.07-.08.18-.19.23-.16C65.69,80.54,65.31,81,65.27,80.85Z"/><path class="cls-1" d="M65.22,80.46c.08,0,.14-.08.19-.1S65.28,80.38,65.22,80.46Z"/><path class="cls-1" d="M64.27,77.9l.24-.06S64.42,77.87,64.27,77.9Z"/><polygon class="cls-1" points="62.85 77.71 62.71 77.8 62.94 77.76 62.85 77.71"/><polygon class="cls-1" points="64.53 76.94 64.57 76.96 64.46 76.89 64.53 76.94"/><path class="cls-1" d="M63.37,72.24l-.3.09C63.13,72.35,63.48,72.28,63.37,72.24Z"/><path class="cls-1" d="M62.57,70.25c.14-.06.23-.14.07-.14S62.52,70.24,62.57,70.25Z"/><polygon class="cls-1" points="61.25 64.02 61.36 64.02 61.26 63.97 61.25 64.02"/><path class="cls-1" d="M32.94,81.64c0,.07.17.21.17.16l-.19-.27Z"/><path class="cls-1" d="M33.51,81.93a2.18,2.18,0,0,0-.47-.59c.2.26.1.17.32.48,0,.05-.11,0-.19-.13,0,.07-.09,0,0,.15s.25.12.15-.07A.75.75,0,0,1,33.51,81.93Z"/><path class="cls-1" d="M35.84,79h0Z"/><path class="cls-1" d="M36.59,76.76s0,0,.06,0S36.62,76.76,36.59,76.76Z"/><path class="cls-1" d="M37,76.44l0,0S37.05,76.45,37,76.44Z"/><path class="cls-1" d="M35.84,79,36,79C35.86,78.92,35.88,79,35.84,79Z"/><path class="cls-1" d="M33.28,81.05s0,0,0,.07,0,0,0,0Z"/><path class="cls-1" d="M35.71,80.07v0l.11.07Z"/><path class="cls-1" d="M35.39,80.85a2.2,2.2,0,0,0-.33-.22.54.54,0,0,1,.15.13Z"/><path class="cls-1" d="M34.24,81.66v0Z"/><path class="cls-1" d="M36,79.54l.1,0Z"/><path class="cls-1" d="M40.49,58.12l0,0S40.5,58.11,40.49,58.12Z"/><polygon class="cls-1" points="42.16 58.2 42.16 58.21 42.29 58.31 42.16 58.2"/><path class="cls-1" d="M37.51,75.79h0S37.53,75.8,37.51,75.79Z"/><path class="cls-1" d="M38.42,69.36c-.27,0-.29-.18-.59-.13C37.94,69.24,38.24,69.41,38.42,69.36Z"/><path class="cls-1" d="M33.31,81.06l0,0S33.31,81.05,33.31,81.06Z"/><path class="cls-1" d="M37.83,69.23h0Z"/><path class="cls-1" d="M37.61,74.12h0Z"/><path class="cls-1" d="M37,75.27l0,0Z"/><path class="cls-1" d="M37.32,73.43s.06,0,0,0h0S37.37,73.42,37.32,73.43Z"/><path class="cls-1" d="M37.42,72.78h-.06l0,0Z"/><path class="cls-1" d="M39.47,60l.23.1C39.53,60,39.52,59.84,39.47,60Z"/><path class="cls-1" d="M33.39,81.15l-.08-.09v0Z"/><path class="cls-1" d="M35.13,73.06l.06-.1A.21.21,0,0,0,35.13,73.06Z"/><path class="cls-1" d="M37.39,64.44l0,0S37.36,64.43,37.39,64.44Z"/><path class="cls-1" d="M35.2,72.65l.2,0-.07,0Z"/><path class="cls-1" d="M39.71,60.06h0Z"/><path class="cls-1" d="M39.51,59.09c-.06.09.28.24.45.37s-.26-.09-.44-.16c0,.12.3.35.25.39a.66.66,0,0,1-.13-.08c.21.22-.12.22.15.49l-.08,0c.16.08.33.18.44.25s.16.19-.06.08c0,0-.06-.07-.12-.12l.07.09c-.33-.14-.07-.11-.3-.24,0,.13.25.37.13.39-.31-.16,0-.21-.33-.28l.17,0c-.51-.19.07,0-.47-.26-.16.08.07.23-.09.31.15.13.25.13.39.25.2.35-.82-.27-.5.09.17.14.54.36.29.35L39,60.72c-.1.11.45.34.15.35-.12-.1-.06-.16-.11-.17-.31,0,.16.17.13.23L38.87,61c0,.16.11.42.09.6a.67.67,0,0,0-.28-.14c.06.27-.24.39-.51.49l.23.2s-.14,0-.18-.07.17.09.26.17-.18,0-.25-.08c.16.23.32.59,0,.6l-.07-.07c-.15.06.5.37.2.35l0,0c-.22.18-.08.53-.56.54.37.2-.27.17.27.4-.32,0-.41-.05-.66.07-.05,0,.31.21.35.29l-.29-.1.27.19-.37-.08.06.09s.14,0,.23,0-.29.15-.43.1l.16.31a.69.69,0,0,1-.2-.15c.25.22-.32-.09-.08.12a.54.54,0,0,1,.22.09c-.19,0-.24.11-.19.23l-.2-.09c-.1.15,0,.39-.07.57a.66.66,0,0,1,.47.15L37,65.7c.18.09.13,0,.34.12-.05.06-.36-.06-.45-.13l.08.12-.26-.1c.19.09-.35.05,0,.2l-.09,0c-.06.19,0,.31,0,.46.27.08.2.13.4.23-.11.09-.36.15-.37.29s.22.09.37.18c-.25-.06-.26.08-.42,0a.68.68,0,0,0,.15.47c.11,0,.16,0,.24,0s-.12,0-.24,0l0,0c.32.32-.85.36-.37.66h0l.23.25c-.06.07-.17-.1-.34-.07.37.3-.13.31.11.54-.77,0,0,.47-.56.55l.18,0c.16.08-.11,0-.16.06.14,0,.17,0,.26,0,.14.43-.42.75-.64,1.12-.07.13.89.24.44.35l-.32-.11c.34.36-.12.59.17.93-.07,0-.17,0-.16-.07-.25,0-.05.22.14.25,0,0-.18,0-.28,0s.28.2,0,.2a.11.11,0,0,1-.09,0c.11.06-.06.18.22.19-.15.08.09.22-.09.28.3.1-.18.16.25.24-.44-.08-.39.13-.19.23-.13,0-.15,0-.33,0,0,.08.07.16.3.18-.56.06.39.35-.31.32a2.52,2.52,0,0,1,.4.72c-.44-.08,0-.23-.47-.3.15.22.51.4.37.57s-.18-.06-.26-.09c.15.22-.1.36.12.57a.33.33,0,0,1-.12-.05s-.08.06.13.09l0,0c.3,0,.59.24.74.27-.57-.16-.18.14-.89-.07a.65.65,0,0,0,.26.09.36.36,0,0,1-.27,0c.09.14.31.13.28.24s-.13,0-.24-.08c.18.09.36.18.26.25s-.13,0-.13,0c0,.16.47.36.25.49-.42-.13-.16,0-.52,0l.09.12h.18c0,.08.23.21.1.25l-.14-.09,0,.17.16-.06c.17.12.46.08.34.17s0,.08-.25.08h0c.11.06.22.13.12.17s-.4-.1-.48-.11c.3.11,0,.21.36.33a1.42,1.42,0,0,0-.31-.08l.24.09a.46.46,0,0,1-.27,0c-.08.1.47.07.24.16,0,0-.06,0-.09,0s.09.29-.06.38c-.37,0-.06-.13-.38-.16,0,.19.35.47.22.61l0,0c.5.16-.29,0-.07.2,0,0-.28-.11-.22-.08-.12.08.06.26.16.48l-.12-.06c-.13,0-.12.15-.21.19.12.07.09.1.28.14-.8,0,.25.57-.43.52,0,0-.09-.1-.1-.08l0,.2a1.16,1.16,0,0,0,.32.07c.11.07.19.16.17.2a.78.78,0,0,0-.47-.17c.07,0,.13.07.2.09-.41-.09.42.21.11.21l-.11-.06c0,.07.17.18.11.21-.24-.1-.09-.1-.28-.2,0,.07.39.35.13.29-.06-.06,0-.1-.09-.16-.31-.08-.24,0-.31,0h0l-.18,0h.09c.57.41,0,.21.36.54-.31-.32-.21-.14-.46-.3a.73.73,0,0,1-.26-.09c.18.17-.21,0,.06.22-.08-.05,0,0-.24-.1,0,.1.15.08.25.15.23.28-.46,0-.18.35.07.22.31.44.36.65a.6.6,0,0,1-.25-.25c-.16,0-.17,0-.12.14a.89.89,0,0,0-.21-.16c0,.05.24.26.08.21a3.61,3.61,0,0,1-.25-.3c0,.1.12.27.14.37a1.07,1.07,0,0,1-.23-.29.62.62,0,0,0,.16.43l.1,0s-.17-.16-.19-.21.12,0,.2.08v.07c.44.37.07-.19.15-.23l.28.31-.19-.3c.09,0,.28.19.3.27.19.08-.08-.15.13,0l.06,0-.06-.13c.06.07.24.18.17.17.26,0-.12-.35.16-.2v0c0-.23-.23-.2-.44-.52l.66.38-.24-.19s.06,0,.16,0c-.13-.17-.12-.07-.25-.21.27.08,0-.27.43,0-.18-.15-.2,0-.29-.19.46.26,0-.13.23-.07s0,.15.3.2c-.37-.27.17-.08.13-.19-.32-.18-.05-.2-.11-.36.1.06.26-.1.43-.14l0,0c-.32-.18-.21-.25-.25-.35a.85.85,0,0,1,.34.22l0-.07c-.1-.06-.15-.11-.17-.17l.24.12c0-.1-.21-.31,0-.36-.24-.1-.7-.17-.81-.35a1.6,1.6,0,0,1,.39.18s-.09-.08,0-.08l.2.13c.12,0-.17-.09-.13-.13s.14,0,.28.08-.09,0,0,.06a.46.46,0,0,1,.33,0c-.11,0-.25-.09-.26-.13s.23,0,.35,0c-.12-.06,0-.08-.24-.18,0,0,.14,0,.22,0-.11-.09,0-.24-.27-.28h0c-.22-.24.26-.27.19-.47l.09,0c-.08-.13,0-.23-.19-.35,0,0,.2,0,.31,0,0-.09-.16-.12,0-.19.14.12.15,0,.1.11.1-.07.26-.06,0-.22.23.09.32,0,.26-.06l-.19,0c0-.06,0-.1,0-.14l.32.11c.44-.11-.59-.51.1-.51-.21-.1-.18.07-.44,0,.07-.08.56-.07.56-.1.21-.09-.45-.22-.3-.32a1,1,0,0,1-.53-.17c.06-.08.51,0,.6.06s0,0-.08,0a.22.22,0,0,0,.21.08l-.11,0c.13,0,.14-.14.33-.08a.22.22,0,0,0-.26,0c.19-.08,0-.17.18-.27-.07,0-.21,0-.21,0,.18-.15-.2-.12-.23-.24.19,0,.42.1.29,0,.13-.05.31,0,.4.09-.2-.15.19-.17.24-.23l.08.08s0-.07,0-.1H37.3a.13.13,0,0,1,.15,0,3.19,3.19,0,0,1-.59-.15c.12,0-.11-.15.2-.11-.13.12.32,0,.35.16,0,0,0,0,0-.08a.19.19,0,0,1,.08,0c.3-.09-.34-.12-.31-.26.17,0,.34,0,.3,0s-.29,0-.42-.1c.15-.07-.08-.11-.06-.16l-.07,0c-.17,0-.14-.08-.19-.15.14,0,.09.07.15.06-.3-.12.34-.1.15-.23.13,0,.33.05.42,0-.21-.14.26-.07.09-.22a.52.52,0,0,1-.4-.1l.13.21L37,74.72c0,.06.13.14.08.17a.46.46,0,0,0-.32-.08c.36,0-.18-.18.07-.23l.58.1c.28-.09-.26-.28-.09-.43l-.11,0c-.23-.06,0-.11-.1-.18a1.38,1.38,0,0,0,.4,0c-.15,0,0-.12-.36-.2l.27,0c.13-.12-.53-.25-.44-.37.2.07.35,0,.49.15,0,0,0-.08-.08-.1.12,0-.25-.16-.06-.17-.08,0-.28-.08-.26-.12h.1c-.1,0-.12-.09-.34-.09.63,0,0-.38.55-.41a.87.87,0,0,1-.09-.32c.06,0,.1,0,.07,0,.21-.09-.54-.17-.32-.27s.16.1.29.08c.64.08-.06-.18.33-.21l0,0c.23,0-.22-.21-.15-.32l.1,0a.8.8,0,0,1-.47-.43c.24.08.12.08.38.1,0,0-.41-.06-.46-.17a2.11,2.11,0,0,1,.54,0v.1c.36,0,0-.12.08-.16l.15,0c0-.15-.41-.22-.35-.36h-.12c-.37-.15.23,0,0-.16l.39,0a1.71,1.71,0,0,1-.39-.37,2.5,2.5,0,0,1,.55.35s0-.18-.17-.25c0,0,.12.08.06.09-.3-.13-.43-.24-.4-.35.75.16.24-.24.84-.21-.24-.24.19-.35.19-.57-.6,0,0-.07-.6-.18,0-.06,0-.08,0-.08l.39-.07c.18,0,.12.07.26.1s.26,0,.43,0c-.21,0-.29-.11-.2-.15l-.29,0c-.29-.23.53,0,.25-.25l.17.09c-.09-.1.07-.29-.39-.48.07,0,.24,0,.28.07.11-.18-.41-.55-.08-.62l.14,0s-.25-.13-.1-.14a.5.5,0,0,0,.16,0c-.05,0-.23-.16-.14-.19l.16.08c.23-.13-.33-.38-.39-.56a.8.8,0,0,0,.69,0l.06,0c.11-.19-.25-.45-.36-.7.49,0,.32-.34.64-.45a.75.75,0,0,1-.36-.16c.1,0-.25-.23.13-.09h0c.39.1.32,0,.36-.09l-.5-.19c.79.07-.09-.59.6-.45-.11-.09-.09-.15-.19-.24l.26.1a.34.34,0,0,0,.17-.32l.17.11c0-.08-.71-.41-.69-.5l.4.13c0-.15.46-.15.17-.45,0,0,.16.08.17.11s.38-.15-.16-.36c.34.15.1-.14,0-.29l.25.13c-.29-.21-.38-.26-.43-.39s.22.07.14.07c.17,0-.21-.17,0-.2l.15.11c.05-.06,0-.1-.2-.23s.13-.12.36,0c-.13-.07-.29-.21-.21-.22a.55.55,0,0,1,.16.1c.23,0-.2-.33.09-.3a.46.46,0,0,0,.16.06c-.06.1-.11.17-.13.15.23.12.31.06.6.28-.14-.15-.46-.45-.32-.47l.09,0,0,0s0,0,0-.07a.13.13,0,0,0,.1,0c.19.09.15,0,.18-.07-.25-.13-.18-.16-.42-.22,0,0,0,0,0,.06a0,0,0,0,0,0,0l0,0a.61.61,0,0,1,0,.11c-.11-.1-.2-.18,0-.16l-.37-.26c.37.12.62.12.84.22-.07-.2.06-.33-.36-.67,0-.07.16,0,.24.06s0,.07.07.12c-.08-.14.07-.23-.24-.43.19,0,.27.22.28.07l.09.07c.64.07-.59-.86.21-.72a.28.28,0,0,1-.12,0c.46-.11.11-.77.74-.76.14,0-.05-.16-.17-.31l.27.15-.24-.27c-.12-.27.75.22.46-.21L42,59c.07,0,0-.24.21-.1,0,0-.16-.14-.06-.1l.13.1-.13-.29c.17,0,.5.38.63.26a1.17,1.17,0,0,0-.36-.47s-.12,0-.25-.1l0-.1a3,3,0,0,0-1.07-.68l.16.26-.2-.11.05-.08c-.21-.08-.08.06,0,.16a1.08,1.08,0,0,0-.23-.11l.29.35c-.15-.09-.26-.25-.39-.25.14.16.36.2.42.35-.2-.08-.33-.2-.22,0a.42.42,0,0,1-.18-.17c.08.13,0,.16.15.32-.25-.1-.06.19-.41-.06.07.07.22.27.21.33-.38-.38-.13.14-.59-.2.36.32,0,.32.19.57,0,0-.08-.08-.06-.08s-.2,0-.3,0a2.23,2.23,0,0,1,.51.54c-.36-.14-.36-.3-.68-.47.27.17.19.29.43.41a1.25,1.25,0,0,1-.42-.16c.41.27,0,.1.27.3-.26,0-.41-.22-.33-.06A.45.45,0,0,1,39.51,59.09ZM39,61.63h0v0Zm-.08.19a.56.56,0,0,0,0-.08c.09,0,.17.09.16.11S39,61.83,39,61.82Zm1.92.52s0,0-.09,0,0,0,0-.06l0,0Z"/><path class="cls-1" d="M40.58,62.12l0,0-.06,0,.07.05Z"/><path class="cls-1" d="M35.79,79h0Z"/><polygon class="cls-1" points="37.34 64.18 37.41 64.21 37.35 64.17 37.34 64.18"/><path class="cls-1" d="M34.5,79.65l-.07,0Z"/><path class="cls-1" d="M34.26,80h-.12A.44.44,0,0,0,34.26,80Z"/><path class="cls-1" d="M34,80.23l.1.07h0Z"/><path class="cls-1" d="M35.16,75v0S35.12,75,35.16,75Z"/><path class="cls-1" d="M35.5,76.75l-.12-.08S35.35,76.71,35.5,76.75Z"/><polygon class="cls-1" points="35.13 73.07 35.13 73.07 35.13 73.06 35.13 73.07"/><path class="cls-1" d="M35.4,76.59c-.06,0,0,0,0,.08S35.44,76.63,35.4,76.59Z"/><path class="cls-1" d="M33.06,81.22h0l0,0Z"/><path class="cls-1" d="M33.07,81.25l0,0S33.09,81.27,33.07,81.25Z"/><path class="cls-1" d="M33.11,81.36l0-.07S33.06,81.3,33.11,81.36Z"/><path class="cls-1" d="M33.44,81l-.08-.07Z"/><path class="cls-1" d="M33.49,80.89s-.21-.08-.19,0l.06.06C33.26,80.83,33.6,81,33.49,80.89Z"/><path class="cls-1" d="M34.86,81.16l-.14.06c.1,0,.24.1.23.17C35.31,81.42,34.73,81.28,34.86,81.16Z"/><path class="cls-1" d="M35.2,80.89c0,.09.14.08.19.11S35.31,80.89,35.2,80.89Z"/><path class="cls-1" d="M36.25,78.22l.25.07C36.48,78.23,36.4,78.27,36.25,78.22Z"/><polygon class="cls-1" points="35.09 77.39 34.93 77.4 35.15 77.48 35.09 77.39"/><polygon class="cls-1" points="36.94 77.51 36.97 77.54 36.9 77.43 36.94 77.51"/><path class="cls-1" d="M37.65,72.94l-.31,0S37.73,73,37.65,72.94Z"/><path class="cls-1" d="M37.66,71c.16,0,.27,0,.12-.08S37.62,70.94,37.66,71Z"/><polygon class="cls-1" points="39.54 65.53 39.63 65.6 39.57 65.51 39.54 65.53"/><path class="cls-1" d="M39.39,56.22c.06-.07.15-.24.09-.23l-.19.27Z"/><path class="cls-1" d="M39.47,55.55a2,2,0,0,0-.45.6c.21-.25.15-.13.39-.43.05,0,0,.13-.07.23.06-.06,0,.1.14-.07s0-.29-.13-.14A1.57,1.57,0,0,1,39.47,55.55Z"/><path class="cls-1" d="M36.86,52.87v0A.08.08,0,0,0,36.86,52.87Z"/><path class="cls-1" d="M35.5,51.08l.08,0A.09.09,0,0,0,35.5,51.08Z"/><path class="cls-1" d="M35.59,50.56v0S35.61,50.55,35.59,50.56Z"/><path class="cls-1" d="M36.86,52.87l0-.12C36.81,52.82,36.85,52.83,36.86,52.87Z"/><path class="cls-1" d="M38.59,55.94l.08-.06h-.05Z"/><path class="cls-1" d="M37.77,53.33v0l.1-.1Z"/><path class="cls-1" d="M38.39,53.77s-.19.2-.27.29c.08-.08.12-.12.15-.12Z"/><path class="cls-1" d="M39.07,54.89l0,0Z"/><path class="cls-1" d="M37.41,52.93l.06-.08Z"/><path class="cls-1" d="M41.88,36.17v0A.12.12,0,0,0,41.88,36.17Z"/><polygon class="cls-1" points="43.07 37.36 43.06 37.38 43.08 37.53 43.07 37.36"/><path class="cls-1" d="M35.54,49.82Z"/><path class="cls-1" d="M34.58,44.48c-.26,0-.28-.21-.57-.2C34.11,44.31,34.4,44.5,34.58,44.48Z"/><path class="cls-1" d="M38.59,55.89h0S38.58,55.9,38.59,55.89Z"/><path class="cls-1" d="M34,44.28Z"/><path class="cls-1" d="M34.74,48.59l-.11.06A.3.3,0,0,0,34.74,48.59Z"/><path class="cls-1" d="M34.86,49.77l0,0S34.86,49.76,34.86,49.77Z"/><path class="cls-1" d="M34.2,48.18s0,0,0,0l0,0S34.24,48.15,34.2,48.18Z"/><path class="cls-1" d="M34.05,47.59l0,0,0,0Z"/><path class="cls-1" d="M39.79,36.91l.12.22C39.83,37,39.91,36.85,39.79,36.91Z"/><path class="cls-1" d="M38.68,55.8q-.06.09-.09.09h0A.24.24,0,0,0,38.68,55.8Z"/><path class="cls-1" d="M32.06,48.77v-.13A.28.28,0,0,0,32.06,48.77Z"/><path class="cls-1" d="M35.24,39.54v0S35.23,39.51,35.24,39.54Z"/><path class="cls-1" d="M31.93,48.28a.55.55,0,0,0,.17-.11H32Z"/><path class="cls-1" d="M39.91,37.14h0Z"/><path class="cls-1" d="M40.43,36.26c-.11,0,0,.37.09.58s-.14-.25-.24-.41c-.05.12,0,.46-.06.47a.38.38,0,0,1,0-.15c0,.3-.25.09-.22.47l0-.08a3.65,3.65,0,0,1,.18.47s0,.25-.1,0c0,0,0-.1,0-.17l0,.11c-.16-.31,0-.13-.06-.38,0,.14-.06.44-.17.38-.13-.31.13-.17-.07-.42l.16.09c-.27-.48.08,0-.2-.5-.18,0-.1.22-.29.19,0,.19.12.25.15.44-.08.4-.48-.72-.46-.24,0,.22.2.63,0,.46l-.11-.37c-.16,0,.14.54-.11.36,0-.15.06-.16,0-.19-.22-.24,0,.23,0,.26l-.16-.31c-.13.12-.18.42-.31.55a.82.82,0,0,0-.14-.28c-.13.26-.46.17-.75.11l.07.3s-.1-.1-.1-.16.08.17.1.29-.14-.11-.15-.21c0,.3-.1.68-.4.49l0-.09c-.17,0,.2.58,0,.42v-.06c-.29,0-.38.43-.81.19.22.36-.33,0,0,.49-.3-.13-.33-.24-.63-.25-.06,0,.17.34.15.43l-.2-.24.14.31-.29-.24v.1a.37.37,0,0,1,.19.14c0,.16-.33,0-.44-.11v.37a.53.53,0,0,1-.11-.23c.12.32-.24-.22-.13.08.06,0,.12.13.16.18a.19.19,0,0,0-.3.14l-.14-.17c-.18.1-.2.37-.35.53.13,0,.39.27.38.34l-.27-.2c.13.16.14,0,.27.26-.08,0-.31-.21-.36-.31l0,.15a1.88,1.88,0,0,1-.19-.2c.13.16-.37-.08-.14.19l-.07,0c-.15.16-.12.32-.21.47.22.17.13.19.29.36-.15.05-.41.05-.49.19s.19.15.3.28c-.22-.13-.28,0-.39-.15a.82.82,0,0,0,0,.55.42.42,0,0,1,.23.08s-.14,0-.25,0l0,0c.21.39-.94.22-.55.65l0,0,.17.31c-.09.07-.16-.13-.34-.12.3.37-.18.34,0,.62-.77-.08-.12.53-.62.62l.17,0c.16.09-.11,0-.16.07.14,0,.17,0,.26,0,.1.48-.42.89-.62,1.38-.06.19.92.14.5.34l-.33-.07c.4.35,0,.73.36,1-.08,0-.18,0-.18,0-.24.1,0,.27.22.24,0,.06-.17,0-.26.08s.33.14.1.21a.09.09,0,0,1-.1,0c.12,0,0,.23.27.14-.11.15.16.21,0,.34.32,0-.11.25.33.16-.44.1-.29.31-.06.32-.14,0-.12.11-.31.13,0,.09.14.14.36.06-.47.33.51.18-.12.49a4.35,4.35,0,0,1,.76.5c-.41.17-.14-.22-.57,0,.26.14.66.1.65.34,0,.08-.19.06-.26.07.25.13.16.4.47.46a.3.3,0,0,1-.13,0s0,.11.16,0h-.06c.23-.19.61-.17.75-.24-.54.23,0,.23-.73.52a.47.47,0,0,0,.26-.1c0,.05-.08.11-.23.15.16.07.33-.09.38,0s-.13.05-.23.1c.2,0,.38-.09.37,0s-.11.08-.13.06c.13.13.6,0,.56.22-.39.2-.08.13-.38.35l.15,0,.12-.14c0,.08.31,0,.26.12l-.16,0,.15.1.06-.16c.21,0,.37-.29.36-.14s0,.07-.1.24h0c.12,0,.25-.08.22,0s-.34.24-.39.3c.27-.16.2.11.49-.06a2,2,0,0,0-.25.19l.22-.13a.57.57,0,0,1-.19.21c0,.12.34-.34.27-.09l-.09,0c0,.18.3.11.3.29-.25.28-.15,0-.36.22.19.1.61,0,.67.19v0c.4-.35-.09.28.15.18a1,1,0,0,0-.18.14c0,.16.28.1.53.11l-.11.09c0,.13.1.18.11.29.11-.09.13,0,.25-.2-.35.75.63,0,.36.64,0,0-.12,0-.11.06l.23,0c.14-.18.07-.12.16-.28s.21-.14.25-.11c-.16.06-.24.29-.3.41,0-.06.1-.11.15-.17-.19.38.31-.34.23-.05l-.08.09c.08,0,.22-.11.23,0-.15.22-.12.06-.26.23.07,0,.44-.3.32,0-.07,0-.11,0-.18,0-.14.29-.08.23-.07.31h0l0,.19,0-.09c.51-.48.23,0,.62-.26-.37.27-.17.19-.36.42a.58.58,0,0,1-.11.25c.2-.15,0,.22.25,0,0,.08.05,0-.11.23.11,0,.09-.14.17-.24.29-.19,0,.5.41.23.23-.06.44-.32.64-.38a.64.64,0,0,1-.23.28c0,.16,0,.17.17.12a.63.63,0,0,0-.13.23c.06,0,.23-.28.21-.11a3.58,3.58,0,0,1-.26.29c.11,0,.26-.15.37-.19a.89.89,0,0,1-.26.28.54.54,0,0,0,.42-.23v-.11s-.11.2-.15.23,0-.13,0-.22l.08,0c.27-.51-.22,0-.28-.12l.26-.32-.28.23c0-.1.16-.3.24-.33,0-.21-.14.09-.06-.13a.19.19,0,0,1,0-.06L39,55c.06-.06.16-.25.16-.17,0-.27-.34.14-.2-.14l0,0c-.22,0-.19.24-.5.46l.37-.66-.19.24s0-.06,0-.16c-.17.13-.07.12-.21.25.09-.27-.27,0,0-.43-.17.16-.05.19-.21.26.29-.43-.14,0-.06-.22s.15,0,.24-.29c-.32.34-.06-.16-.16-.13-.23.28-.2,0-.36.05.08-.09,0-.28,0-.44l0,0c-.25.27-.28.15-.39.16a1.09,1.09,0,0,1,.31-.27l-.06,0a.34.34,0,0,1-.2.11l.19-.2c-.08,0-.35.12-.32-.09-.18.18-.4.59-.62.63a1.67,1.67,0,0,1,.31-.3s-.11.06-.08,0l.19-.14c0-.11-.15.13-.17.08.13-.15.07-.13.18-.24s0,.09,0,0a.44.44,0,0,1,.11-.31c-.08.09-.18.2-.23.19s.14-.19.17-.3c-.11.08-.06-.06-.26.15,0,0,.07-.12.12-.19-.12.06-.19-.13-.36.14v0h0c-.32.1-.13-.35-.33-.37l.07-.06c-.14,0-.19-.11-.39,0,0,0,.09-.17.18-.24-.1,0-.19.07-.14-.12s.1-.12.15,0c0-.12.1-.24-.17-.14.21-.14.2-.26.11-.24l-.09.17a.13.13,0,0,1-.09-.11l.27-.2c.19-.4-.74.19-.31-.35-.21.1-.06.18-.3.32,0-.1.3-.47.28-.49.08-.2-.45.22-.43,0a.92.92,0,0,1-.47.29c0-.1.34-.39.44-.4s0,0,0,.06.11,0,.19-.11l-.1.07c.07-.11,0-.2.17-.29a.22.22,0,0,0-.2.17c.08-.19-.09-.14,0-.3-.05,0-.15.14-.16.13,0-.22-.23.07-.34,0,.12-.15.38-.22.19-.23.06-.12.25-.18.35-.21-.25,0,0-.24,0-.3h.11c-.06,0-.08,0-.09,0l-.18.15s0-.07.09-.12c-.15,0-.32.23-.54.29.09-.1-.17,0,.09-.22,0,.16.27-.18.36-.11s-.05,0,0-.07l.08,0c.18-.25-.33.13-.39,0,.16-.08.28-.19.24-.19s-.25.17-.39.19c.08-.14-.14,0-.14-.07l0,.07c-.16.07-.16,0-.24,0,.12-.07.11,0,.15-.05-.3.09.22-.27,0-.25.09-.09.29-.16.35-.23-.24,0,.18-.2,0-.2a.57.57,0,0,1-.39.14l.22.08-.36.05s.18,0,.16.08a.51.51,0,0,0-.31.13c.29-.22-.25,0-.06-.23l.53-.24c.2-.21-.36-.07-.29-.28l-.07.09c-.23.07-.07-.08-.18-.09a1.28,1.28,0,0,0,.34-.19c-.14.06,0-.11-.39,0l.22-.15c.06-.15-.58,0-.55-.1.22,0,.33-.13.5-.1,0,0,0-.08-.11,0,.11-.06-.29,0-.12-.12-.09,0-.29.06-.29,0l.09,0c-.09,0-.15,0-.35.06.55-.28-.13-.35.37-.58a.72.72,0,0,1-.19-.25c.06,0,.1,0,.08,0,.16-.14-.57,0-.4-.15s.19.05.3,0c.65-.1-.12-.14.25-.27l0,0c.22-.09-.25-.14-.2-.25H34a.77.77,0,0,1-.54-.3,1.08,1.08,0,0,0,.4,0s-.42,0-.49-.08a1.58,1.58,0,0,1,.53-.11l0,.09c.35,0,0-.11,0-.16h.16c-.06-.13-.44-.15-.41-.29h-.11c-.38-.11.22-.06-.06-.16h.39a1.65,1.65,0,0,1-.42-.33,4.5,4.5,0,0,1,.59.3s0-.17-.21-.22c0,0,.13.06.07.08-.3-.1-.45-.21-.42-.32.75.14.25-.24.84-.19-.24-.23.18-.3.21-.49-.59-.11,0-.06-.59-.23,0-.06,0-.08,0-.07l.39,0c.17,0,.11.09.24.13s.26,0,.43,0c-.21-.06-.28-.14-.19-.16l-.29,0c-.26-.25.52.07.28-.17l.16.11c-.08-.11.1-.22-.31-.5.07,0,.23.07.25.12.13-.12-.29-.59.05-.56l.12.08s-.21-.19-.06-.15.12.09.14.08-.18-.21-.09-.2l.13.12c.24-.05-.22-.45-.21-.63a.88.88,0,0,0,.66.21l0,0c.15-.13-.1-.5-.1-.75.45.22.41-.18.74-.13a.71.71,0,0,1-.25-.3c.1,0-.12-.3.16,0h0c.3.25.29.12.35.08l-.36-.39c.65.43.19-.56.72-.1,0-.13,0-.17,0-.3l.18.22c.14,0,.21,0,.29-.18l.1.18c.07,0-.4-.72-.34-.78l.27.33c.13-.1.46.12.37-.29,0,.06.1.16.09.19s.38.08.05-.39c.2.32.16,0,.15-.24l.13.25c-.12-.34-.16-.43-.12-.57,0,0,.13.19.06.14.15.09-.07-.26.09-.18l0,.17c.09,0,0-.1,0-.31s.18,0,.31.2c-.07-.14-.12-.34,0-.3a.34.34,0,0,1,.06.17c.22.11.05-.38.26-.18a.55.55,0,0,0,.09.14c-.11,0-.19.07-.2.05.12.23.22.23.32.57,0-.2-.1-.63,0-.56l.05.08v0s0,0,0-.07.07,0,.1,0c.1.19.14.06.18,0-.12-.25,0-.24-.19-.42,0,0,0,0,0,.06s0,0,0,0v0l-.09.06c0-.14-.05-.27.06-.15l-.13-.44c.22.33.41.48.52.69.07-.19.26-.21.14-.74,0-.07.1.13.14.2s0,.06,0,.13c0-.15.2-.13.08-.48.15.11.07.34.18.23l0,.11c.44.46.1-1,.63-.41a.35.35,0,0,1-.07-.12c.42.21.6-.5,1.06-.08.12.08.07-.15.09-.34l.09.29,0-.37c.08-.28.4.68.48.17l-.07-.2c.07,0,.18-.16.22.08,0,0,0-.22,0-.12l0,.16.1-.3c.15.09.1.62.28.62a1.17,1.17,0,0,0,.06-.59s-.08-.09-.11-.24l.05-.09a2.9,2.9,0,0,0-.31-1.24l-.06.31-.08-.22.09,0c-.09-.2-.09,0-.11.13a.75.75,0,0,0-.09-.24l0,.46c0-.18,0-.36-.11-.45,0,.21.13.39.07.54-.1-.19-.11-.37-.14-.18a.45.45,0,0,1,0-.25c0,.16-.14.09-.12.34-.11-.24-.17.1-.26-.33a1,1,0,0,1-.07.39c0-.54-.2,0-.31-.54,0,.48-.2.27-.26.56,0,0,0-.12,0-.1s-.14-.15-.21-.22a2.36,2.36,0,0,1,0,.74c-.19-.34-.07-.46-.2-.8.09.3-.06.34,0,.59a1.22,1.22,0,0,1-.21-.4c.12.48,0,.1,0,.4-.16-.2-.15-.43-.21-.25A.44.44,0,0,1,40.43,36.26ZM38.34,38h0l0,0Zm-.19.1.09,0c0,.09.09.18.06.19S38.22,38.14,38.15,38.09Zm1.23,1.56c0,.05,0,0-.07,0l0-.06v0Z"/><path class="cls-1" d="M39.27,39.3v0l0-.05,0,.09Z"/><path class="cls-1" d="M36.85,52.92h0l0,0Z"/><polygon class="cls-1" points="35.35 39.28 35.39 39.33 35.37 39.27 35.35 39.28"/><path class="cls-1" d="M37,54.38s0,0,0,.06Z"/><path class="cls-1" d="M37.36,54.74v.12A.23.23,0,0,0,37.36,54.74Z"/><path class="cls-1" d="M37.58,55.08l.08-.09h0Z"/><path class="cls-1" d="M33.22,50.69h0C33.13,50.68,33.17,50.69,33.22,50.69Z"/><path class="cls-1" d="M34.78,51.88l-.14,0S34.65,52,34.78,51.88Z"/><path class="cls-1" d="M32.06,48.78Z"/><path class="cls-1" d="M34.59,51.85c0,.06,0,.07,0,.07S34.64,51.85,34.59,51.85Z"/><path class="cls-1" d="M38.87,56.15v0l0,0Z"/><path class="cls-1" d="M38.9,56.13l0,0S38.92,56.1,38.9,56.13Z"/><path class="cls-1" d="M39,56.07l-.07,0S39,56.14,39,56.07Z"/><path class="cls-1" d="M38.51,55.76l-.06.08Z"/><path class="cls-1" d="M38.37,55.69s0,.24,0,.21l.05-.06C38.34,56,38.49,55.57,38.37,55.69Z"/><path class="cls-1" d="M38.59,54.31l0,.13c0-.1.11-.23.17-.22C38.88,53.87,38.69,54.44,38.59,54.31Z"/><path class="cls-1" d="M38.39,54c.08,0,.1-.13.14-.17S38.41,53.85,38.39,54Z"/><path class="cls-1" d="M36.42,52.16l.19-.17C36.55,52,36.54,52.06,36.42,52.16Z"/><polygon class="cls-1" points="35.08 52.66 34.99 52.8 35.19 52.66 35.08 52.66"/><polygon class="cls-1" points="36.27 51.24 36.31 51.23 36.19 51.23 36.27 51.24"/><path class="cls-1" d="M34.31,47.65l-.3.08C34.07,47.74,34.41,47.67,34.31,47.65Z"/><path class="cls-1" d="M33.86,45.92c.16,0,.26-.05.11-.1S33.82,45.89,33.86,45.92Z"/><polygon class="cls-1" points="36.62 41.52 36.67 41.63 36.66 41.52 36.62 41.52"/><path class="cls-1" d="M57,18.93c0,.07-.09.26,0,.24l.13-.31Z"/><path class="cls-1" d="M57.08,19.6a2,2,0,0,0,.32-.68c-.15.28-.12.15-.29.49,0,0,0-.12,0-.23-.05.07,0-.09-.13.1s0,.29.16.11A1.31,1.31,0,0,1,57.08,19.6Z"/><path class="cls-1" d="M60.17,21.71v-.05A.11.11,0,0,0,60.17,21.71Z"/><path class="cls-1" d="M61.86,23.19a.13.13,0,0,0-.07,0S61.84,23.22,61.86,23.19Z"/><path class="cls-1" d="M61.87,23.72v0S61.85,23.73,61.87,23.72Z"/><path class="cls-1" d="M60.17,21.71v.12C60.23,21.74,60.19,21.74,60.17,21.71Z"/><path class="cls-1" d="M57.87,19l-.07.07,0,0Z"/><path class="cls-1" d="M59.19,21.43h0l-.08.11Z"/><path class="cls-1" d="M58.5,21.12a3.39,3.39,0,0,0,.2-.34.53.53,0,0,1-.12.16Z"/><path class="cls-1" d="M57.6,20.17l0,0Z"/><path class="cls-1" d="M59.62,21.75l0,.09A.36.36,0,0,0,59.62,21.75Z"/><path class="cls-1" d="M58.58,39.06l0,0S58.57,39.06,58.58,39.06Z"/><polygon class="cls-1" points="57.17 38.14 57.18 38.12 57.13 37.97 57.17 38.14"/><path class="cls-1" d="M62.07,24.43h0S62.05,24.44,62.07,24.43Z"/><path class="cls-1" d="M64.08,29.47c.26,0,.31.15.6.08C64.57,29.55,64.25,29.41,64.08,29.47Z"/><path class="cls-1" d="M57.87,19.09h0S57.88,19.08,57.87,19.09Z"/><path class="cls-1" d="M64.68,29.55Z"/><path class="cls-1" d="M63.1,25.47a.36.36,0,0,0,.09-.08Z"/><path class="cls-1" d="M62.75,24.34v.05A.13.13,0,0,0,62.75,24.34Z"/><path class="cls-1" d="M63.71,25.77s0,.05,0,.05l0,0S63.68,25.81,63.71,25.77Z"/><path class="cls-1" d="M64,26.32l0,0h0Z"/><path class="cls-1" d="M60.47,37.93l-.15-.2C60.43,37.9,60.37,38,60.47,37.93Z"/><path class="cls-1" d="M57.81,19.19l.06-.1h0A.93.93,0,0,0,57.81,19.19Z"/><path class="cls-1" d="M65.69,24.77l0,.13A.28.28,0,0,0,65.69,24.77Z"/><path class="cls-1" d="M64.41,34.44v0S64.43,34.47,64.41,34.44Z"/><path class="cls-1" d="M65.92,25.22a.52.52,0,0,0-.15.14h.07Z"/><path class="cls-1" d="M60.31,37.73h0Z"/><path class="cls-1" d="M60,38.69c.1,0-.13-.35-.21-.54s.19.2.32.35c0-.13-.09-.46,0-.47a.74.74,0,0,1,.08.13c-.07-.29.22-.14.12-.5a.18.18,0,0,1,.05.07A4.78,4.78,0,0,1,60,37.3s0-.24.1,0c0,0,0,.1,0,.17V37.3c.22.28,0,.14.14.36,0-.15,0-.44.09-.4.19.28-.09.19.15.39l-.17,0c.36.41-.08,0,.29.45.19,0,.06-.24.25-.24-.08-.18-.16-.23-.24-.41,0-.4.62.62.51.15-.09-.21-.32-.58-.1-.45l.18.34c.15-.06-.24-.5,0-.38.06.14,0,.17,0,.2.26.19-.06-.22,0-.27l.21.27c.1-.14.1-.45.2-.6,0,.08.09.19.19.24.07-.27.41-.25.71-.25l-.13-.28s.12.07.14.13-.12-.14-.16-.26.16.09.19.17c0-.29,0-.68.29-.56l0,.09c.18,0-.31-.53,0-.41l0,0c.28-.1.28-.5.75-.35-.28-.3.32-.08-.11-.48.32.07.37.18.66.13.06,0-.23-.3-.23-.39l.24.19-.19-.28.32.19v-.11a.42.42,0,0,1-.22-.09c0-.16.33-.08.46,0L64.59,34a.51.51,0,0,1,.16.21c-.18-.3.28.16.11-.11-.07,0-.14-.11-.19-.15a.18.18,0,0,0,.26-.19l.17.13c.16-.12.13-.4.24-.58-.12,0-.43-.19-.43-.26l.29.14c-.15-.13-.14,0-.31-.19.07,0,.35.13.42.22l0-.14.22.16c-.15-.14.38,0,.1-.22l.08,0c.12-.19,0-.34.11-.5-.25-.13-.17-.16-.35-.3.13-.08.39-.12.43-.28s-.2-.11-.34-.22c.24.09.27-.07.41.07a.82.82,0,0,0-.09-.54.45.45,0,0,1-.24,0c0-.05.13-.06.25,0l0,0c-.28-.34.88-.4.42-.74h0l-.23-.27c.07-.09.18.1.35.05-.36-.3.12-.37-.14-.6.77-.08,0-.55.49-.73h-.18c-.17-.06.1-.06.14-.1-.13,0-.16,0-.25,0-.2-.45.23-1,.33-1.48,0-.19-.93.06-.56-.23h.34c-.46-.26-.15-.71-.56-.95.08,0,.18,0,.18,0,.21-.14-.08-.26-.26-.19,0-.06.16-.07.24-.13s-.35-.07-.14-.19a.12.12,0,0,1,.1,0c-.12,0-.05-.22-.29-.07.07-.17-.2-.18-.09-.34-.31.07,0-.26-.36-.09.42-.19.23-.36,0-.33.13,0,.09-.12.28-.18,0-.08-.17-.12-.36,0,.39-.41-.54-.07,0-.51a4.08,4.08,0,0,1-.84-.33c.37-.25.18.18.57-.09-.29-.09-.67,0-.71-.2,0-.08.17-.09.24-.12-.27-.08-.23-.37-.55-.36a.26.26,0,0,1,.12-.05s0-.11-.16,0h.07c-.19.24-.57.29-.69.39.48-.34,0-.23.61-.65a.57.57,0,0,0-.24.14c0-.05.06-.11.2-.19-.18,0-.3.16-.38.06a1.1,1.1,0,0,1,.21-.14c-.18.08-.36.16-.37,0s.09-.1.11-.08c-.15-.11-.58.16-.58-.11.34-.27,0-.15.3-.42H63.1l-.1.16c-.06-.06-.3.08-.27-.06l.15-.07-.17-.06,0,.17c-.19.08-.3.35-.32.2s-.06-.06,0-.25h0c-.11.06-.22.13-.21,0s.28-.3.32-.37c-.24.21-.22-.07-.47.16a1.44,1.44,0,0,0,.21-.24l-.19.17a.51.51,0,0,1,.14-.24c-.06-.11-.26.4-.25.15,0,0,0,0,.08-.06,0-.18-.31-.05-.35-.23.2-.32.15,0,.31-.28-.2-.07-.6.12-.7-.06v.05c-.33.42,0-.29-.19-.14a.82.82,0,0,0,.16-.18c-.06-.15-.3,0-.55,0l.09-.11c0-.14-.13-.16-.16-.26-.1.1-.12.06-.2.24.19-.8-.63.12-.49-.55,0,0,.11-.07.09-.08h-.22a.92.92,0,0,0-.1.31c-.09.11-.19.18-.23.15.15-.09.18-.32.21-.45l-.11.19c.11-.41-.23.4-.22.09l.07-.1c-.08,0-.19.15-.22.1.1-.25.1-.09.21-.28-.08,0-.37.38-.31.11.06-.05.11,0,.17-.08.08-.31,0-.25,0-.32h0l-.05-.19v.1c-.4.57-.23,0-.55.37.3-.33.13-.21.27-.48a.59.59,0,0,1,.05-.27c-.16.2,0-.22-.24.07,0-.09-.06,0,.06-.25-.11,0-.06.16-.11.27-.25.25-.1-.5-.45-.15-.22.11-.37.4-.56.5a.64.64,0,0,1,.17-.31c0-.16-.07-.16-.18-.08a.88.88,0,0,0,.08-.26c-.07,0-.17.31-.19.15a3,3,0,0,1,.2-.34c-.1.06-.23.2-.33.26a.93.93,0,0,1,.2-.32.55.55,0,0,0-.37.31l0,.11s.06-.22.1-.26.06.12,0,.21l-.07,0c-.16.56.22,0,.3.06l-.19.37.22-.28a.74.74,0,0,1-.16.37c0,.21.11-.12.08.12l0,.07.11-.09c-.05.07-.1.27-.12.2,0,.27.3-.21.22.1l0,0c.21-.06.14-.27.4-.55l-.23.72.14-.27s0,.05,0,.16c.15-.16,0-.12.16-.29,0,.29.27,0,.08.43.13-.19,0-.19.15-.3-.2.48.14,0,.1.21s-.14.08-.18.32c.25-.39.09.16.19.11.16-.32.19-.07.34-.13-.06.11.09.27.11.43l0,.05c.19-.31.25-.2.35-.23a1,1,0,0,1-.24.33l.06,0c.07-.09.12-.14.18-.15l-.15.23c.09,0,.32-.19.34,0,.13-.22.27-.67.47-.75a1.48,1.48,0,0,1-.24.36s.09-.08.08,0l-.16.17c0,.12.12-.15.15-.11s0,.14-.13.27,0-.09,0,0a.52.52,0,0,1-.05.32c.06-.1.14-.23.19-.23s-.1.22-.11.33c.09-.1.07,0,.22-.2,0,0,0,.14-.07.21.1-.09.2.09.33-.21v0h0c.29-.16.19.32.39.3l-.06.08c.14,0,.21.07.39-.06,0,0,0,.18-.13.27.1,0,.17-.1.16.09s-.07.14-.13.06c0,.12-.06.26.18.1-.17.19-.13.3-.05.26l.06-.18c.06,0,.08,0,.1.08l-.22.26c-.11.42.69-.33.37.28.19-.15,0-.19.23-.37,0,.09-.2.51-.18.53,0,.21.4-.3.41-.13.07-.1.27-.35.41-.37s-.25.45-.35.48,0,0,0-.07-.11,0-.17.15l.09-.09c-.05.12,0,.19-.11.32a.23.23,0,0,0,.16-.21c0,.21.11.13.11.29,0-.06.12-.18.13-.16,0,.22.21-.12.33-.07-.08.17-.32.29-.13.26,0,.13-.22.23-.3.28.23-.09,0,.23,0,.3l-.1,0c.06,0,.08,0,.09,0l.15-.19c0,.05,0,.07-.06.14.13-.08.27-.29.46-.39-.06.12.18,0,0,.24,0-.17-.23.22-.33.17s0,0,0,.06a.15.15,0,0,1-.07.05c-.13.28.3-.2.38-.1-.14.11-.23.25-.19.24s.2-.22.34-.27c-.05.15.14,0,.15,0l0-.08c.14-.1.16-.05.24,0-.11.09-.11,0-.14.07.28-.14-.16.32.06.25-.06.11-.25.21-.3.29.24-.06-.13.23.07.2a.6.6,0,0,1,.36-.22l-.23,0,.34-.13s-.19,0-.17,0a.52.52,0,0,0,.27-.19c-.24.28.26,0,.11.21L62.9,25c-.14.25.37,0,.34.22l.06-.1c.21-.11.08.06.19.05a1.77,1.77,0,0,0-.3.25c.13-.08.05.11.39-.09l-.19.2c0,.16.56-.16.56,0-.21.07-.3.19-.47.19,0,0,0,.09.12,0-.1.08.29,0,.14.1.09,0,.27-.12.28-.07l-.09.05c.09-.05.16,0,.33-.13-.48.38.21.32-.24.63a1,1,0,0,1,.24.21c-.06,0-.09,0-.08,0-.13.16.56-.13.41.06s-.19,0-.28.07c-.62.23.14.12-.2.32h0c-.2.12.27.08.25.2l-.09,0a.8.8,0,0,1,.59.19.86.86,0,0,0-.39.06s.4-.11.49,0a1.76,1.76,0,0,1-.5.21l0-.08c-.34.11,0,.11,0,.16l-.16,0c.08.11.46.05.45.2l.12,0c.39,0-.21.1.08.14l-.39.07a2,2,0,0,1,.49.24,3.45,3.45,0,0,1-.64-.18c0,.05,0,.17.24.18,0,0-.14,0-.08-.06.32,0,.49.11.48.22-.77,0-.2.28-.79.35.28.18-.12.34-.1.53.6,0,0,.06.62.11,0,.05,0,.07,0,.07l-.38.1c-.18,0-.13-.06-.27-.07s-.26,0-.42,0c.21,0,.3.08.21.12l.29,0c.31.19-.52,0-.23.22l-.18-.08c.09.09-.06.25.4.43-.07,0-.24,0-.28-.07-.09.15.41.52.07.57l-.14-.06s.25.14.1.13-.14-.06-.15-.05.22.17.12.19l-.15-.1c-.23.09.3.4.33.58a.9.9,0,0,0-.69-.08l-.05,0c-.13.15.19.46.24.71-.48-.13-.36.26-.7.27a.78.78,0,0,1,.31.24c-.1,0,.18.27-.15,0h0c-.35-.2-.31-.06-.36,0l.43.31c-.72-.29-.07.58-.69.24.08.12,0,.16.11.28l-.22-.18c-.13,0-.2.07-.24.24l-.13-.16c-.07,0,.53.62.48.7L62,33.78c-.1.12-.47,0-.31.35,0,0-.12-.13-.12-.16s-.39,0,0,.39c-.27-.27-.15.08-.1.26l-.18-.21c.19.31.25.38.24.53,0,0-.17-.16-.1-.13-.15-.05.13.24,0,.2l-.09-.16c-.08,0,0,.11.09.3s-.17.05-.34-.13c.09.12.19.31.1.28a.37.37,0,0,1-.1-.15c-.23-.06,0,.38-.21.23a.52.52,0,0,0-.12-.13c.1-.06.18-.1.18-.08-.16-.2-.26-.18-.42-.5.06.19.23.6.08.55l-.06-.06v0s0,0,0,.07-.08,0-.1,0c-.14-.16-.15,0-.19,0,.17.22.1.22.28.38a0,0,0,0,1,0-.06v0l.08-.08c.06.14.1.25,0,.16l.22.41c-.28-.28-.5-.39-.65-.58,0,.21-.21.26,0,.75,0,.08-.12-.1-.18-.16s0-.06,0-.13c0,.15-.17.17,0,.49-.18-.09-.14-.32-.22-.19l0-.11c-.52-.36.11,1-.53.53a.29.29,0,0,1,.09.1c-.45-.12-.49.62-1,.29-.13-.05,0,.17,0,.35L58.07,37l0,.36c0,.3-.53-.58-.5-.06l.11.17c-.08,0-.15.19-.23,0,0,0,.06.21,0,.12l-.07-.15,0,.32c-.16-.06-.22-.59-.39-.55a1.2,1.2,0,0,0,0,.59s.1.06.16.21l0,.1a2.94,2.94,0,0,0,.55,1.15V39l.12.19-.09.05c.13.18.09,0,.08-.14a.92.92,0,0,0,.14.21l-.06-.46c.08.17.09.36.2.42,0-.21-.21-.36-.18-.52.13.18.19.34.18.15a.44.44,0,0,1,.06.24c0-.15.12-.11,0-.35.16.22.15-.14.33.27,0-.11-.05-.36,0-.39.13.52.19-.06.4.46-.13-.46.15-.3.15-.6,0,0,0,.11,0,.1s.17.12.25.18A1.93,1.93,0,0,1,59.2,38c.25.3.16.44.35.75-.15-.28,0-.35-.16-.57a1.22,1.22,0,0,1,.29.35c-.22-.44,0-.11-.08-.4.2.17.24.4.27.21A.5.5,0,0,1,60,38.69Zm1.7-2.11h0l0,0Zm.17-.13a.14.14,0,0,0-.08,0c-.07-.08-.12-.16-.1-.17S61.77,36.4,61.85,36.45Zm-1.52-1.29s0,0,.08,0,0,0,0,.06l0,0Z"/><path class="cls-1" d="M60.51,35.49a0,0,0,0,1,0,0l.05,0,0-.08Z"/><path class="cls-1" d="M60.18,21.65h0a.08.08,0,0,1,0,0Z"/><polygon class="cls-1" points="64.36 34.72 64.3 34.68 64.34 34.73 64.36 34.72"/><path class="cls-1" d="M59.71,20.26a.25.25,0,0,0,0-.07Z"/><path class="cls-1" d="M59.31,20l0-.12A.25.25,0,0,0,59.31,20Z"/><path class="cls-1" d="M59,19.67l-.06.11h0Z"/><path class="cls-1" d="M64.17,23.11h0C64.26,23.11,64.23,23.1,64.17,23.11Z"/><path class="cls-1" d="M62.4,22.26a.61.61,0,0,1,.14-.07S62.51,22.14,62.4,22.26Z"/><path class="cls-1" d="M65.69,24.75h0Z"/><path class="cls-1" d="M62.6,22.25c0-.06,0-.07-.06-.06S62.55,22.27,62.6,22.25Z"/><path class="cls-1" d="M57.55,18.89v0l0,.05Z"/><path class="cls-1" d="M57.52,18.92l0,0S57.51,18.94,57.52,18.92Z"/><path class="cls-1" d="M57.42,19l.07,0S57.46,18.92,57.42,19Z"/><path class="cls-1" d="M58,19.2l0-.09Z"/><path class="cls-1" d="M58.13,19.24s0-.24-.07-.2l0,.07C58.11,19,58,19.38,58.13,19.24Z"/><path class="cls-1" d="M58.19,20.64l-.08-.12c0,.1-.06.25-.12.25C58,21.13,58.06,20.53,58.19,20.64Z"/><path class="cls-1" d="M58.46,20.94c-.09,0-.07.14-.1.2S58.46,21.05,58.46,20.94Z"/><path class="cls-1" d="M60.74,22.31l-.15.2C60.65,22.51,60.65,22.43,60.74,22.31Z"/><polygon class="cls-1" points="61.96 21.56 62.02 21.4 61.85 21.57 61.96 21.56"/><polygon class="cls-1" points="61.07 23.18 61.03 23.2 61.15 23.18 61.07 23.18"/><path class="cls-1" d="M63.71,26.32l.28-.14C63.93,26.17,63.6,26.31,63.71,26.32Z"/><path class="cls-1" d="M64.49,27.92c-.15,0-.24.1-.09.11S64.54,27.94,64.49,27.92Z"/><polygon class="cls-1" points="62.66 32.77 62.6 32.68 62.63 32.79 62.66 32.77"/></svg>