<svg id="Layer_1" data-name="Layer 1" xmlns="http://www.w3.org/2000/svg" viewBox="0 0 606.39 196.76"><defs><style>.cls-1{fill:#e9ebeb;}.cls-2{fill:#ced5cb;}</style></defs><title>Artboard 1</title><path class="cls-1" d="M191,146.71c.19-3,.38-8.65.38-13.87V79.26H205.8v26.5H206c2.75-4,7.6-6.55,14.06-6.55,11.11,0,19.28,9.21,19.19,23.46,0,16.72-10.64,25.08-21.28,25.08-5.42,0-10.64-2-14-7.5h-.19l-.57,6.46ZM205.8,127a10.56,10.56,0,0,0,.28,2.56,8.74,8.74,0,0,0,8.46,6.84c6.17,0,10-4.75,10-13.1,0-7.23-3.23-12.93-10-12.93a9,9,0,0,0-8.46,7.13,12,12,0,0,0-.28,2.66Z"/><path class="cls-1" d="M254.71,129.46c.44,5.55,5.9,8.19,12.15,8.19a38.05,38.05,0,0,0,11.88-1.76L280.5,145a42.49,42.49,0,0,1-15.58,2.64c-14.61,0-23-8.45-23-21.91,0-10.91,6.78-23,21.74-23,13.9,0,19.18,10.83,19.18,21.47a31.34,31.34,0,0,1-.44,5.28Zm15.75-9.15c0-3.26-1.4-8.71-7.56-8.71-5.64,0-7.92,5.1-8.28,8.71Z"/><path class="cls-1" d="M312.26,146.71l-.79-4.31h-.26c-2.82,3.43-7.22,5.28-12.32,5.28-8.71,0-13.91-6.34-13.91-13.2,0-11.18,10-16.55,25.26-16.46v-.61c0-2.29-1.23-5.55-7.83-5.55a24.18,24.18,0,0,0-11.88,3.26l-2.47-8.62a35.44,35.44,0,0,1,16.72-3.79c14.35,0,18.92,8.45,18.92,18.57v15a66.65,66.65,0,0,0,.62,10.47Zm-1.58-20.33c-7-.08-12.5,1.59-12.5,6.78,0,3.43,2.29,5.1,5.28,5.1a7.31,7.31,0,0,0,7-4.93,9.83,9.83,0,0,0,.26-2.28Z"/><path class="cls-1" d="M345.44,91.36v12.32H355v9.86h-9.59v15.57c0,5.19,1.23,7.57,5.28,7.57a22.48,22.48,0,0,0,4-.35l.09,10.12a26.37,26.37,0,0,1-8.71,1.14c-4.32,0-7.92-1.5-10-3.7-2.46-2.55-3.69-6.68-3.69-12.76V113.54h-5.72v-9.86h5.72V94.35Z"/><path class="cls-1" d="M374.82,79.26h14.44v67.45H374.82Z"/><path class="cls-1" d="M439.69,124.71c0,15.75-11.17,23-22.7,23-12.58,0-22.26-8.27-22.26-22.18s9.15-22.79,23-22.79C430.89,102.71,439.69,111.78,439.69,124.71Zm-31.15.44c0,7.39,3.08,12.94,8.8,12.94,5.19,0,8.54-5.2,8.54-12.94,0-6.42-2.47-12.94-8.54-12.94C410.92,112.21,408.54,118.81,408.54,125.15Z"/><path class="cls-1" d="M477.44,145.65c-2.37,1.06-6.86,1.94-12,1.94-13.91,0-22.79-8.45-22.79-22,0-12.58,8.62-22.88,24.63-22.88a31.17,31.17,0,0,1,10.21,1.67l-2.11,10a18.19,18.19,0,0,0-7.48-1.32c-7,0-11.61,5-11.53,12,0,7.92,5.28,12.06,11.8,12.06a20.66,20.66,0,0,0,7.65-1.32Z"/><path class="cls-1" d="M495.13,121.81h.18c1-1.76,2-3.52,3.08-5.19l8.71-12.94h16.1L507.8,121.1l17.6,25.61H509L498.56,129l-3.43,4.23v13.46H481.76V84.23h13.37Z"/><path class="cls-1" d="M535.44,129.46c.44,5.55,5.89,8.19,12.14,8.19a38,38,0,0,0,11.88-1.76l1.76,9.06a42.49,42.49,0,0,1-15.58,2.64c-14.6,0-23-8.45-23-21.91,0-10.91,6.77-23,21.73-23,13.91,0,19.19,10.83,19.19,21.47a32.45,32.45,0,0,1-.44,5.28Zm15.75-9.15c0-3.26-1.41-8.71-7.57-8.71-5.63,0-7.92,5.1-8.27,8.71Z"/><path class="cls-1" d="M568.52,117.85c0-6.34-.17-10.47-.35-14.17H579.7l.44,7.92h.35c2.2-6.25,7.48-8.89,11.62-8.89a13.4,13.4,0,0,1,2.81.18v12.58a19.6,19.6,0,0,0-3.6-.35c-4.93,0-8.28,2.64-9.16,6.77a16.35,16.35,0,0,0-.26,3v21.82H568.52Z"/><ellipse class="cls-2" cx="38.85" cy="157.89" rx="27.5" ry="20.5" transform="translate(-21.65 6.97) rotate(-8.02)"/><path class="cls-2" d="M62.56,154.71a3,3,0,0,1-3-3v-101a3,3,0,0,1,6,0v101A3,3,0,0,1,62.56,154.71Z"/><ellipse class="cls-2" cx="126.28" cy="128.53" rx="27.5" ry="20.5" transform="translate(-16.7 18.88) rotate(-8.02)"/><path class="cls-2" d="M150.56,130.71a3,3,0,0,1-3-3v-101a3,3,0,0,1,6,0v101A3,3,0,0,1,150.56,130.71Z"/><path class="cls-2" d="M68.56,59.21A8.5,8.5,0,0,1,66,42.6l76-24a8.5,8.5,0,1,1,5.12,16.22l-76,24A8.74,8.74,0,0,1,68.56,59.21Z"/></svg>