<svg id="Layer_1" data-name="Layer 1" xmlns="http://www.w3.org/2000/svg" viewBox="0 0 340.39 196.76"><defs><style>.cls-1{fill:#e9ebeb;}</style></defs><title>Artboard 1</title><path class="cls-1" d="M92.93,69.88A18.06,18.06,0,0,1,103.31,86.4a24.59,24.59,0,0,1-1.48,8.1c-4.45,12.43-16.08,17.56-25.54,17.56a29.1,29.1,0,0,1-4.56-.46c-10.6-2-13.68-9.58-12.2-16.3-6.61,10.83-15.16,14.59-22,14.59a14.88,14.88,0,0,1-6.61-1.37,9.39,9.39,0,0,1-5.7-9.12,20.91,20.91,0,0,1,.57-4.22,2.2,2.2,0,0,1,1.71-1.71,1.12,1.12,0,0,1,1.14,1.26,5.6,5.6,0,0,0,4.56,5.13c4.44.68,11.63-3,16.87-15.39L61.13,58.13C67.74,42.4,78,34.54,83.13,31.57a35,35,0,0,1,4-2.05,36.35,36.35,0,0,0-3.65-.46c-13.56-.68-25,5.59-29.75,13.34a18.08,18.08,0,0,0-2.51,9.12c0,3.42,1,6,2,6.5s.91,1.71-.11,2.28a4,4,0,0,1-2.4.11c-2-.45-11.62-5-9.91-15.16C43.46,30.66,66.6,20.51,86,21.31c18.58.8,31.46,11.29,31.46,23.94a20.56,20.56,0,0,1-.68,5.25C114,61,102.85,68.05,92.93,69.88ZM89.63,84.7C89.63,78.77,85.41,74,75.15,72c0,0-4.56-.8-5-.91,0,0,.23-.8-6.84,16.64-.34.69-.57,1.37-.91,1.94,1.94-1.25,5-2.16,6.39-1.71,1,.34,1.25,1.37-.12,3.19-1.37,2.17-.11,10.83,5.59,11.63,7,.91,12.31-5,14.82-14.25A16,16,0,0,0,89.63,84.7Zm14.25-39.22c0-5.7-3.76-11.06-10.15-14a41.62,41.62,0,0,0-7.64,6.84c-3.53,4-6.38,9.46-10.37,19L73.9,61.9a32,32,0,0,0,7.63.79,29.18,29.18,0,0,0,9.35-1.36c5.36-1.71,10-5.13,12.09-10.95A12.87,12.87,0,0,0,103.88,45.48Z"/><path class="cls-1" d="M139.54,75.44a8.33,8.33,0,0,1-5.51,2,10.29,10.29,0,0,1-5.85-1.83c-3.6,3.33-7.75,5.5-11.22,5.5-3.94,0-6-2.65-6-6.66a17.58,17.58,0,0,1,2-7.55c3.74-7.81,11.63-14.21,17.68-14.21,3.88,0,6.05,2.72,6.05,6.74a18.05,18.05,0,0,1-2,7.47A30.86,30.86,0,0,1,131.45,72a4.89,4.89,0,0,0,3.4.95c2.65-.4,4.69-4.14,6.12-7.2a1,1,0,0,1,1.42-.55A2.75,2.75,0,0,1,144,68,20,20,0,0,1,139.54,75.44Zm-19.92-8.7A12.55,12.55,0,0,0,118.19,72c0,1.91.81,3.13,2.38,3.13s3.19-1,4.89-2.65a11,11,0,0,1-1.36-6.39,19,19,0,0,1,2-6.94A19.18,19.18,0,0,0,119.62,66.74Zm8.56-.75a7.11,7.11,0,0,0,.48,2.38c.27-.54.61-1.09.88-1.63a13.26,13.26,0,0,0,1.43-5.3,3.62,3.62,0,0,0-.88-2.59A14.62,14.62,0,0,0,128.18,66Z"/><path class="cls-1" d="M153.41,80.54a5,5,0,0,1-5.51-5.23c-1.56,2.1-5.64,5.09-9,5.09a4.5,4.5,0,0,1-2.45-.67c-1.22-.82-1.7-2.38-1.7-4.22a23,23,0,0,1,2.72-9.72c3.47-6.53,10.13-12.92,15.91-12.85,2.72,0,3.13,1.49,3.13,1.49l.34-.61a.78.78,0,0,1,.68-.48h4.83c.41,0,.34.28.2.68l-7,15.64c-1.29,2.86-1,4.35-.07,4.76,3.81,1.84,8.09-6,9.52-8.84.27-.75,1.43-.41,2.11.21a2.59,2.59,0,0,1,.61,2.78C165.65,73.4,161,80.27,153.41,80.54Zm.88-21.82c.68-1.57.14-2.52-1-2.52-2.38,0-6.53,2.52-9.46,8.5a16.29,16.29,0,0,0-1.9,6.46c0,1.36.48,2.24,1.36,2.51,1.56.48,4.28-.34,5.58-3.12Z"/><path class="cls-1" d="M175.58,80.4c-4.83,0-6.8-2.78-6.8-6.05a9.4,9.4,0,0,1,.95-4L174,61c.34-.82.75-1.91.14-2.45s-1-.68-2-.34a4.3,4.3,0,0,0-2.79,2.31s-1.15,2.65-2.17,4.69a55.82,55.82,0,0,1-4.69,8.37.63.63,0,0,1-.41.2,2.81,2.81,0,0,1-1.29-1.36,4.84,4.84,0,0,1-.41-2.65,2.3,2.3,0,0,1,.2-.61c.21-.55,1.57-2.86,3.54-6.94.75-1.5,1.63-3.53,2.17-5a2.48,2.48,0,0,1-.47-1.5,5,5,0,0,1,4-5.17A3.37,3.37,0,0,1,174,53.68a1.6,1.6,0,0,0,0,.82,1.05,1.05,0,0,0,1.36.34,4.93,4.93,0,0,0,1.08-.82,2.46,2.46,0,0,1,2.52-.27l3.2,1.63a1,1,0,0,1,.54,1.43l-4.9,10.61a15.46,15.46,0,0,0-1.63,5.44c0,1,.27,1.56,1.16,1.77,4.55,1,8.29-7.55,9.38-9.46.27-.47,1.29,0,1.91.68a2.71,2.71,0,0,1,.61,2.86C187.27,73.27,181.9,80.4,175.58,80.4Z"/><path class="cls-1" d="M200.74,69.66c-1.29,2.86-1,4.35-.07,4.76,3.81,1.84,8.09-6,9.52-8.84.27-.75,1.43-.41,2.11.21a2.61,2.61,0,0,1,.61,2.78c-2,4.83-6.66,11.7-14.28,12a5,5,0,0,1-5.51-5.23c-1.56,2.1-5.64,5.09-9,5.09a4.5,4.5,0,0,1-2.45-.67c-1.22-.82-1.7-2.38-1.7-4.22a23,23,0,0,1,2.72-9.72c3.47-6.53,10.13-12.92,15.91-12.85,2.72,0,3.13,1.49,3.13,1.49l11.15-24.82a.86.86,0,0,1,.68-.4h4.83c.41,0,.41.27.2.61Zm-1.23-10.94c.68-1.57.14-2.52-1-2.52-2.38,0-6.52,2.52-9.45,8.5a16.29,16.29,0,0,0-1.9,6.46c0,1.36.48,2.24,1.36,2.51,1.56.48,4.28-.34,5.57-3.12Z"/><path class="cls-1" d="M137.74,147.46a19.76,19.76,0,0,1-8.55-1.61l-6.37,15.48c-4.18,10.07-13,14.16-19.76,14.16a13.48,13.48,0,0,1-5.41-1,7.84,7.84,0,0,1-4.75-7.6,17.6,17.6,0,0,1,.47-3.52,1.84,1.84,0,0,1,1.43-1.43.93.93,0,0,1,1,1,4.66,4.66,0,0,0,3.8,4.28c3.7.56,9.69-2.48,14.06-12.83l9.21-22c5.51-13.11,14.06-19.66,18.34-22.13a28.11,28.11,0,0,1,3.32-1.71,28,28,0,0,0-3-.38c-11.3-.57-20.8,4.65-24.79,11.11a15.11,15.11,0,0,0-2.09,7.6c0,2.85.85,5,1.71,5.42s.76,1.42-.1,1.9a3.35,3.35,0,0,1-2,.09c-1.71-.38-9.69-4.18-8.27-12.63,2.19-12.16,21.47-20.62,37.62-20,16,.66,26,9.4,26,20.71a24.63,24.63,0,0,1-.38,3.61C167,138.82,150.56,147.37,137.74,147.46Zm20.61-25.55c0-4.85-3-9.22-8.36-11.69a34.76,34.76,0,0,0-6.36,5.7c-2.95,3.33-4.85,6.75-9.79,18.72l-1.61,3.8a26.43,26.43,0,0,0,7.12.47C147,138.44,155,134,157.69,126A12.36,12.36,0,0,0,158.35,121.91Z"/><path class="cls-1" d="M193.89,118.22c0,5.38-4.29,15-8.34,21.21-4.84,7.33-8.43,11-12.72,14.35-1.25.94-1.87.55-2.1-.31s.07-2.65.78-3.12c3.27-2.42,6.39-5.15,10.92-12,5.46-8.11,7.95-17,5.85-17.47-1.72-.39-7.88,7.56-14.2,20.28-4.21,8.58-8.42,19.11-8.42,24.72,0,1.95.46,3.28,1.63,3.75,2,.86,4.68,0,8.27-4.13a24.81,24.81,0,0,0,4-5.93c.47-1,1.64-.78,2.5,0a2.27,2.27,0,0,1,.62,2.88,18.54,18.54,0,0,1-3.51,6.24c-3.9,4.37-8.89,6.56-13.18,6.56a9.87,9.87,0,0,1-4.06-.79c-2.5-1-3.82-3.82-3.82-8,0-5.77,2.49-14.27,8-24.73,9.44-17.7,21.38-28.94,25.9-27.3C193.35,114.86,193.89,116.27,193.89,118.22Z"/><path class="cls-1" d="M194.75,174.61a5.78,5.78,0,0,1-6.32-6c-1.79,2.41-6.47,5.84-10.37,5.84a5.13,5.13,0,0,1-2.81-.77c-1.41-.94-1.95-2.73-1.95-4.84a26.45,26.45,0,0,1,3.12-11.16c4-7.48,11.62-14.82,18.25-14.74,3.12,0,3.59,1.72,3.59,1.72l.39-.7a.87.87,0,0,1,.78-.55H205c.47,0,.39.31.23.78l-8,17.94c-1.48,3.28-1.17,5-.08,5.46,4.37,2.11,9.28-6.86,10.92-10.14.31-.86,1.64-.47,2.42.23a3,3,0,0,1,.7,3.2C208.79,166.42,203.49,174.3,194.75,174.61Zm1-25c.78-1.79.16-2.88-1.17-2.88-2.73,0-7.49,2.88-10.84,9.75a18.69,18.69,0,0,0-2.18,7.41c0,1.56.54,2.57,1.56,2.88,1.79.55,4.91-.39,6.39-3.58Z"/><path class="cls-1" d="M223.06,174.53a11.18,11.18,0,0,1-2.34-.23,6.15,6.15,0,0,1-4.76-6.24,11.38,11.38,0,0,1,1.25-4.84l3.36-6.94c1.71-3.43,2-6.79.7-7.25-1.48-.63-3.51,1.09-5.38,3.58a35.48,35.48,0,0,0-4,6.79l-6.48,14c-.23.55-.39.71-1,.71h-6.16c-.63,0-.55-.39-.39-.71l13.49-29.25c.16-.47.47-.7,1.17-.7H217c.31,0,.93.39.7.94l-1.4,3.35c1.87-2.18,5.14-4.6,8.81-4.45,3.43.08,5.54,2.81,5,6.95s-5.61,12-5.61,15.67c0,.94.31,1.64,1.17,1.88,4,1.24,7.87-4.53,10.76-10.53.31-.55,1.48-.24,2.34.54a2.86,2.86,0,0,1,.78,3.28C235,171.26,228.05,174.53,223.06,174.53Z"/><path class="cls-1" d="M251.38,174.53a11.18,11.18,0,0,1-2.34-.23,6.14,6.14,0,0,1-4.76-6.24,11.38,11.38,0,0,1,1.25-4.84l3.35-6.94c1.72-3.43,2-6.79.7-7.25-1.48-.63-3.51,1.09-5.38,3.58a36.55,36.55,0,0,0-4,6.79l-6.47,14c-.24.55-.39.71-1,.71h-6.16c-.62,0-.54-.39-.39-.71l13.5-29.25c.15-.47.46-.7,1.17-.7h4.44c.31,0,.94.39.7.94l-1.4,3.35c1.87-2.18,5.15-4.6,8.81-4.45,3.44.08,5.54,2.81,5,6.95s-5.62,12-5.62,15.67c0,.94.31,1.64,1.17,1.88,4,1.24,7.88-4.53,10.76-10.53.32-.55,1.49-.24,2.34.54a2.86,2.86,0,0,1,.78,3.28C263.31,171.26,256.37,174.53,251.38,174.53Z"/><path class="cls-1" d="M285.46,168.68c-3.74,4.37-9.44,6.4-15.13,6.4-6.09,0-11.16-2.89-11.16-9.83,0-9.83,11.39-22.46,21.38-22.46,2.65,0,5.07.85,5.07,3.9,0,7.8-11,15.67-17.71,17.7l-.08.86c-.15,3.28,1.72,4.68,4.92,4.68,3.59,0,6.78-2,9.12-4.52,1.8-1.8,2.73-3.75,4.06-5.85a1.11,1.11,0,0,1,1-.71,2.72,2.72,0,0,1,2.42,2.73C289.36,163.77,286.79,167,285.46,168.68Zm-4.68-22.31c-4.13,0-10.69,10.77-11.93,14.2,4.21-1.95,13.26-7.8,13.26-12.95A1.18,1.18,0,0,0,280.78,146.37Z"/><path class="cls-1" d="M299.34,174.45c-5.53,0-7.8-3.19-7.8-6.94a10.65,10.65,0,0,1,1.1-4.6l4.91-10.69c.39-.93.86-2.18.16-2.8s-1.1-.78-2.34-.39a4.88,4.88,0,0,0-3.2,2.65s-1.33,3-2.5,5.38c-1.79,3.82-4.44,8.58-5.38,9.59a.67.67,0,0,1-.47.24,3.27,3.27,0,0,1-1.48-1.56,5.65,5.65,0,0,1-.47-3,2.48,2.48,0,0,1,.24-.71c.23-.62,1.79-3.27,4.05-8,.86-1.72,1.87-4.06,2.5-5.7a2.81,2.81,0,0,1-.55-1.71,5.7,5.7,0,0,1,4.6-5.93,3.86,3.86,0,0,1,4.76,3.51,1.85,1.85,0,0,0,0,.94,1.21,1.21,0,0,0,1.56.39,5.92,5.92,0,0,0,1.25-.94,2.81,2.81,0,0,1,2.89-.31l3.66,1.87a1.17,1.17,0,0,1,.63,1.64l-5.62,12.17A17.66,17.66,0,0,0,300,165.8c0,1.09.31,1.79,1.32,2,5.23,1.17,9.52-8.65,10.77-10.84.31-.54,1.48,0,2.18.78A3.08,3.08,0,0,1,315,161C312.76,166.26,306.6,174.45,299.34,174.45Z"/></svg>