<svg id="Layer_1" data-name="Layer 1" xmlns="http://www.w3.org/2000/svg" viewBox="0 0 250 250"><defs><style>.cls-1{fill:#f2f2f2;}</style></defs><title>Artboard 1</title><path class="cls-1" d="M237.5,136.44c-1.64,8.11-2.51,16.48-5.07,24.29-11.65,35.58-34.94,60.26-70.37,73.06-5.94,2.15-8.84.05-8.92-6.37-.1-8.5-.06-17,0-25.5s-.53-17-7.1-24.3c4.17-.81,7.69-1.48,11.21-2.2,23.18-4.76,37-20.14,39.13-43.66,1.28-14,0-27.3-9.65-38.59-.79-.91-.7-3-.34-4.41,2.09-8,1.27-15.79-1-23.63-1-3.64-3.53-4.58-6.37-3.53a223.53,223.53,0,0,0-21.47,9.05c-3.14,1.56-5.73,2.43-9.29,1.57a99,99,0,0,0-47,.06c-3.12.75-5.52.15-8.38-1.32a158.36,158.36,0,0,0-20.46-9c-5.75-2-6.71-1-8.42,4.92a41.15,41.15,0,0,0-.35,22.18,5.87,5.87,0,0,1-.61,4.37c-24.14,33.41-5.73,77.35,34.84,83,1.79.26,3.57.66,4.92.91-1.82,4.58-3.48,9-5.37,13.38a4.94,4.94,0,0,1-2.62,2.57c-11.79,3.62-21.4,3.3-29.17-8.8-3.74-5.81-8.24-10.57-15-12.35-2.51-.66-5.33-.11-8-.11L42,173.44c1.47,1.61,3,3.18,4.41,4.83,3.66,4.21,9,7.88,10.61,12.77,5.45,16.33,19,19.1,34.86,18,1.45-.1,2.88-.4,5.18-.74,0,7.37.3,14.33-.1,21.24-.27,4.63-3.75,6.07-9,4.27C65.12,226,47,212,33.07,192.38c-11.19-15.8-18-33.25-19.74-52.62a22.08,22.08,0,0,0-.83-3.32v-18c.37-2.25.79-4.49,1.11-6.74C22.12,51.29,77.53,8.41,138.41,16.34c47.46,6.18,78.58,33.34,94,78.4,2.6,7.6,3.45,15.79,5.1,23.7Z"/></svg>