<svg id="Layer_1" data-name="Layer 1" xmlns="http://www.w3.org/2000/svg" viewBox="0 0 362.39 123.76"><defs><style>.cls-1{fill:#f2f2f2;}.cls-2{fill:#123034;}</style></defs><title>Artboard 1</title><rect class="cls-1" x="145.19" y="23.88" width="203" height="76"/><path class="cls-1" d="M78.33,54.07l-1,4.48c4.42-3.85,7.78-5.39,11.56-5.39,4.41,0,7.14,2.1,7.77,6.09,3.64-4,7.7-6.09,11.83-6.09,5,0,8.4,3,8.4,7.63a26.48,26.48,0,0,1-.63,5l-4.76,22.12h-6.37l4.48-21.28a17,17,0,0,0,.7-4.34,3.51,3.51,0,0,0-3.78-3.71c-5.25,0-9.8,4.62-11.27,11.48L91.5,87.88H85.06L89.61,66.6a20.19,20.19,0,0,0,.63-4.27c0-2.45-1.26-3.78-3.64-3.78a10.34,10.34,0,0,0-7.85,4.2c-1.75,2.31-2.94,5.39-3.92,9.8L71.61,87.88H65.17l7.21-33.81Z"/><path class="cls-1" d="M150.58,54.07l-21,39.55c-2.59,4.83-4.48,5.95-10.3,5.95h-3.92l1.12-5.11h2.24c3.5,0,4.06-.42,6-4.2l1-1.89-5.68-34.3h6.66l2.45,16.8c.35,2,.7,6.65.91,10.71,1-2.45,2.73-6.09,4.62-9.73l9-17.78Z"/><path class="cls-2" d="M173,87.88H161.42V46.38H145.86V36.52h42.66v9.86H173Z"/><path class="cls-2" d="M219.78,87.88H209.39V83.8c-2.62,3.69-5.32,5.08-9.86,5.08A13.84,13.84,0,0,1,189.68,85c-2.55-2.54-3.55-5.7-3.55-11V50.69h10.94V71.63c0,3.62.15,4.55,1.15,5.85A5.75,5.75,0,0,0,203,79.64a5.59,5.59,0,0,0,4.69-2.16c1-1.3,1.16-2.15,1.16-5.85V50.69h10.93Z"/><path class="cls-2" d="M237.41,50.69v3.62c4-3.7,6.32-4.7,10.17-4.7,8.08,0,13,5.39,13,14.17v24.1H249.66V67.63c0-3.77-.24-5.24-1.16-6.62A5.16,5.16,0,0,0,244,58.85a6.19,6.19,0,0,0-4.7,2c-1.23,1.39-1.62,2.93-1.62,6.16V87.88H226.79V50.69Z"/><path class="cls-2" d="M276.68,72.48c.7,5.08,3.7,7.85,8.4,7.85A7,7,0,0,0,291.54,77h11.09c-2.08,7.24-9,11.86-17.86,11.86-11.47,0-19.1-7.85-19.1-19.56s7.78-19.63,19-19.63c7.85,0,13.78,3.93,16.56,10.93,1.3,3.24,1.84,6.7,1.84,11.86Zm15.17-7.7c-.46-4.39-3-6.77-7.24-6.77s-7,2.38-7.85,6.77Z"/><path class="cls-2" d="M328.66,61.85c-.46-2.77-2.7-4.23-6.32-4.23-3.15,0-5.23,1.23-5.23,3.08,0,1.39,1.08,2.08,4.54,2.85L328.5,65c4.55.93,6.86,1.93,8.47,3.62a10.37,10.37,0,0,1,2.77,7.47c0,7.85-6.39,12.78-16.7,12.78S306.33,84,305.71,75.79H316c.62,3.54,2.93,5.16,7.32,5.16,3.46,0,5.7-1.39,5.7-3.62,0-1.77-1.24-2.69-4.16-3.39L318,72.4c-8.16-1.77-11.32-4.77-11.32-10.7,0-7.47,5.93-12,15.86-12,9.55,0,15.33,4.31,16.33,12.16Z"/><rect class="cls-2" x="14.19" y="23.88" width="38" height="76"/></svg>