<svg id="Layer_1" data-name="Layer 1" xmlns="http://www.w3.org/2000/svg" viewBox="0 0 324.65 125.49"><defs><style>.cls-1{fill:#e9ebeb;}</style></defs><title>Artboard 1</title><path class="cls-1" d="M5.3,68V64.12l5.9-.91V19.3l-5.48-.95V14.48h9.53c1.17,0,2.18,0,3-.07s1.7-.1,2.57-.17,1.82-.13,2.86-.18S26,14,27.59,14a32.85,32.85,0,0,1,8.94,1,14.37,14.37,0,0,1,5.77,3,10.79,10.79,0,0,1,3.08,4.8,21.35,21.35,0,0,1,.91,6.46,19.09,19.09,0,0,1-1.58,7.95,16.79,16.79,0,0,1-4.38,5.87,19.11,19.11,0,0,1-6.59,3.64A26.24,26.24,0,0,1,25.51,48c-.68,0-1.36,0-2,0l-1.88-.07c-.57,0-1.07-.06-1.49-.1l-.88-.11V63.18l9.28.94V68ZM19.22,43.45a9.21,9.21,0,0,0,1.09.16c.37,0,.81.07,1.3.09l1.7,0,2.27,0a15.09,15.09,0,0,0,4.5-.67A9.53,9.53,0,0,0,34,40.78a11.62,11.62,0,0,0,2.76-4.46,20.35,20.35,0,0,0,1-7A14.89,14.89,0,0,0,37,24.12a8.31,8.31,0,0,0-2.34-3.48,9.53,9.53,0,0,0-3.88-1.95,21.62,21.62,0,0,0-5.47-.62c-.84,0-1.55,0-2.13.05s-1.08.08-1.53.14l-1.23.16a9,9,0,0,1-1.19.07Z"/><path class="cls-1" d="M98.67,68H88.55c-.61,0-1.28-.5-2-1.51a29.14,29.14,0,0,1-2.26-3.85c-.79-1.56-1.6-3.28-2.45-5.17s-1.7-3.7-2.58-5.45a47.94,47.94,0,0,0-2.67-4.67,9.3,9.3,0,0,0-2.69-2.87H71.64c-.85,0-1.67,0-2.46,0l-2.17,0c-.64,0-1.1,0-1.38-.05V63.25l6.85.87V68H51.7V64.12l5.91-.91V19.3l-5.48-.95V14.48h9.56c1,0,1.88,0,2.76-.08l2.63-.18L69.74,14c.89,0,1.83-.08,2.81-.08a38.93,38.93,0,0,1,9,.89,15.7,15.7,0,0,1,5.94,2.66,10,10,0,0,1,3.29,4.39,16.92,16.92,0,0,1,1,6.12,16.38,16.38,0,0,1-.7,4.76,16.81,16.81,0,0,1-2,4.36,15,15,0,0,1-3.25,3.55A14.32,14.32,0,0,1,81.45,43a10.5,10.5,0,0,1,2.79,2.67,45.39,45.39,0,0,1,2.65,4q1.31,2.16,2.5,4.45t2.32,4.23a29.51,29.51,0,0,0,2.15,3.27,4,4,0,0,0,2,1.57l2.85.94Zm-33-27.77a14.72,14.72,0,0,0,1.54.09h2.25l2.3,0,1.75,0a9.14,9.14,0,0,0,7.13-2.86c1.74-1.91,2.6-4.82,2.6-8.74a15.64,15.64,0,0,0-.52-4.11,8,8,0,0,0-1.85-3.36,9,9,0,0,0-3.57-2.25,16.75,16.75,0,0,0-5.69-.82c-.92,0-1.7,0-2.34.05s-1.19.07-1.64.12-.82.09-1.12.14l-.84.11Z"/><path class="cls-1" d="M123.91,68.8A23.13,23.13,0,0,1,114,67a19.31,19.31,0,0,1-7.26-5.52,24.65,24.65,0,0,1-4.43-8.63,38.54,38.54,0,0,1-1.51-11.12,33.7,33.7,0,0,1,1.86-11.52,26.17,26.17,0,0,1,5.13-8.77,22.41,22.41,0,0,1,7.74-5.57,23.75,23.75,0,0,1,9.63-1.95,24.46,24.46,0,0,1,10,1.91,19.42,19.42,0,0,1,7.19,5.43,23.79,23.79,0,0,1,4.34,8.48,39.08,39.08,0,0,1,1.46,11,33.93,33.93,0,0,1-1.85,11.51,26.54,26.54,0,0,1-5.08,8.79,22.62,22.62,0,0,1-7.65,5.64A24,24,0,0,1,123.91,68.8Zm.46-50.69a13.08,13.08,0,0,0-6.1,1.4,12.42,12.42,0,0,0-4.64,4.31,22.65,22.65,0,0,0-3,7.35,46.05,46.05,0,0,0-1,10.49,40.7,40.7,0,0,0,1,9.4,23.69,23.69,0,0,0,2.9,7.25A13.86,13.86,0,0,0,118.17,63a12.06,12.06,0,0,0,6.27,1.63,12.17,12.17,0,0,0,10.72-5.83,23.17,23.17,0,0,0,3-7.44,47.28,47.28,0,0,0,1-10.53,41.3,41.3,0,0,0-1-9.33,23,23,0,0,0-2.88-7.16,13.91,13.91,0,0,0-4.66-4.57A12.18,12.18,0,0,0,124.37,18.11Z"/><path class="cls-1" d="M152.18,80.86l-1.93-3.27a13.84,13.84,0,0,0,5.27-3.45A14.57,14.57,0,0,0,159,67.89c.28-1,.51-2,.7-3a32.85,32.85,0,0,0,.44-3.42c.1-1.31.18-2.83.23-4.59s.07-3.89.07-6.4V19.3l-6.4-.95V14.48h20.67v3.87l-6.19.95V53.35c0,1.68,0,3.28-.07,4.82s-.13,3-.24,4.34a32.93,32.93,0,0,1-.53,3.72,16.46,16.46,0,0,1-2.3,5.66,19.86,19.86,0,0,1-3.8,4.33,20.4,20.4,0,0,1-4.62,3A23.84,23.84,0,0,1,152.18,80.86Z"/><path class="cls-1" d="M181.15,68V64.12l5.91-.94V19.3l-5.77-.95V14.48h36.25l.94,10.9H214L211.7,19l-16.56-.42v19.9l11.39-.25,1.09-5.73h4.78V48.66h-4.78l-1.05-5.8-11.43-.22V63.49l19.2-.77,4-8.61,4.5,1.33L220.73,68Z"/><path class="cls-1" d="M251.92,68.8a26.5,26.5,0,0,1-10.57-2,21.49,21.49,0,0,1-7.78-5.65,24.65,24.65,0,0,1-4.82-8.73A36.62,36.62,0,0,1,227.1,41.1a28.55,28.55,0,0,1,2-11,26.36,26.36,0,0,1,5.59-8.6A25.13,25.13,0,0,1,243,15.93a26,26,0,0,1,10.21-2,39.81,39.81,0,0,1,4.63.27q2.3.26,4.32.63c1.35.24,2.57.5,3.68.75s2,.45,2.63.57l-.63,12.41h-5.1l-2-8.12a6.65,6.65,0,0,0-3.13-1.66,23.26,23.26,0,0,0-6.11-.63,12.77,12.77,0,0,0-6,1.44,13.45,13.45,0,0,0-4.72,4.24,21.36,21.36,0,0,0-3.1,6.89,36.26,36.26,0,0,0-1.1,9.44,46.24,46.24,0,0,0,.87,9A27.45,27.45,0,0,0,240.19,57a16,16,0,0,0,4.86,5.52,12.12,12.12,0,0,0,7.15,2.09,25.23,25.23,0,0,0,3.36-.19,15.48,15.48,0,0,0,2.48-.53,6.61,6.61,0,0,0,1.79-.84,7.18,7.18,0,0,0,1.3-1.15L264.4,55l4.53.7L267.21,66a10.91,10.91,0,0,0-2.79.51c-.91.3-1.93.61-3.06,1a36.7,36.7,0,0,1-4,.92A31.61,31.61,0,0,1,251.92,68.8Z"/><path class="cls-1" d="M283,68V64.12l9-1V18.7l-11.6.35-2.6,14.24h-5.1l1.16-18.81h44.58l.88,18.81h-5.1l-2.36-14.24-11.56-.35V63.14l9.74,1V68Z"/><path class="cls-1" d="M186.5,111.19v-1.93l2.83-.48V86.85l-3-.48V84.44h19.2l.35,6.06H203.2l-1.14-3.81-8.68-.2V96.64l6.15-.06.72-2.84h2.21v8.15h-2.21l-.72-2.9-6.15-.16v10l5.11.48v1.93Z"/><path class="cls-1" d="M223.29,111.6a11.57,11.57,0,0,1-5-.92,9.55,9.55,0,0,1-3.63-2.76,12.31,12.31,0,0,1-2.22-4.31,19.49,19.49,0,0,1-.75-5.57,16.79,16.79,0,0,1,.93-5.75,13.1,13.1,0,0,1,2.56-4.39,11.28,11.28,0,0,1,3.87-2.79,11.93,11.93,0,0,1,4.82-1,12.12,12.12,0,0,1,5,1,9.64,9.64,0,0,1,3.6,2.71,12.06,12.06,0,0,1,2.17,4.24,19.72,19.72,0,0,1,.73,5.52,16.89,16.89,0,0,1-.93,5.76,13.16,13.16,0,0,1-2.54,4.39,11.31,11.31,0,0,1-3.82,2.82A12.11,12.11,0,0,1,223.29,111.6Zm.23-25.35a6.53,6.53,0,0,0-3.05.7,6.19,6.19,0,0,0-2.32,2.16,11.52,11.52,0,0,0-1.49,3.67,23.06,23.06,0,0,0-.52,5.25,20.11,20.11,0,0,0,.5,4.7,11.57,11.57,0,0,0,1.45,3.62,7,7,0,0,0,2.33,2.32,6.06,6.06,0,0,0,3.13.82,6.08,6.08,0,0,0,5.37-2.92,11.47,11.47,0,0,0,1.48-3.72,23.28,23.28,0,0,0,.52-5.26,20.41,20.41,0,0,0-.49-4.67A11.56,11.56,0,0,0,229,89.34a7,7,0,0,0-2.33-2.28A6.09,6.09,0,0,0,223.52,86.25Z"/><path class="cls-1" d="M253.93,111.47a13.83,13.83,0,0,1-4.67-.7,7.67,7.67,0,0,1-3.23-2.14,9.18,9.18,0,0,1-1.86-3.63,19.66,19.66,0,0,1-.6-5.16v-13L241,86.37V84.44h9.58v1.93l-2.89.48v13.39a16.55,16.55,0,0,0,.5,4.4,7.85,7.85,0,0,0,1.38,2.81,4.74,4.74,0,0,0,2.09,1.48,7.6,7.6,0,0,0,2.61.43A5.45,5.45,0,0,0,259,107.1c1.09-1.52,1.63-3.73,1.63-6.65V86.86l-2.79-.49V84.44h8.29v1.93l-2.58.48v13.44a15.05,15.05,0,0,1-.75,5,9.71,9.71,0,0,1-2,3.48,7.8,7.8,0,0,1-3,2A10.66,10.66,0,0,1,253.93,111.47Z"/><path class="cls-1" d="M295.6,111.19h-5.06c-.31,0-.64-.25-1-.75a13.88,13.88,0,0,1-1.14-1.93c-.39-.78-.8-1.64-1.22-2.58s-.85-1.85-1.29-2.73a24.67,24.67,0,0,0-1.34-2.34,4.68,4.68,0,0,0-1.34-1.43h-3.44l-.69,0v9.44l3.42.44v1.93H272.12v-1.93l2.95-.46v-22l-2.74-.48V84.44h4.78c.48,0,.94,0,1.38,0l1.32-.08,1.32-.09c.45,0,.92,0,1.41,0a19.13,19.13,0,0,1,4.49.45A7.71,7.71,0,0,1,290,86a4.94,4.94,0,0,1,1.64,2.2,8.46,8.46,0,0,1,.51,3.06,8.07,8.07,0,0,1-.35,2.38,8.32,8.32,0,0,1-1,2.18,7.56,7.56,0,0,1-1.62,1.77A7.16,7.16,0,0,1,287,98.71a5.11,5.11,0,0,1,1.39,1.34,19.47,19.47,0,0,1,1.33,2c.43.72.85,1.46,1.25,2.22s.78,1.47,1.16,2.12a14,14,0,0,0,1.07,1.63,2,2,0,0,0,1,.78l1.42.48ZM279.08,97.31c.16,0,.42,0,.77,0s.73,0,1.12,0l1.16,0H283a4.53,4.53,0,0,0,3.56-1.43,6.31,6.31,0,0,0,1.31-4.37,7.58,7.58,0,0,0-.27-2,3.84,3.84,0,0,0-.92-1.68,4.51,4.51,0,0,0-1.79-1.13,8.45,8.45,0,0,0-2.84-.41q-.69,0-1.17,0a8.21,8.21,0,0,0-.82.06c-.22,0-.41,0-.56.07l-.42,0Z"/></svg>