<svg id="Layer_1" data-name="Layer 1" xmlns="http://www.w3.org/2000/svg" viewBox="0 0 245.34 113.6"><defs><style>.cls-1{fill:#ced5cb;}.cls-2{fill:#e9ebeb;}</style></defs><title>Artboard 1</title><path class="cls-1" d="M81.49,27.52l-.2,2.73c2-2.44,3.65-3.36,6.53-3.36,6.1,0,10.23,4.9,10.23,12.15S94,51.33,87.87,51.33a8.35,8.35,0,0,1-6.24-2.5v9.22H74.81V27.52Zm-.1,11.57c0,4.13,1.92,6.72,5,6.72s5-2.59,5-6.63-1.88-6.76-5-6.76S81.39,35,81.39,39.09Z"/><path class="cls-1" d="M109.57,27.52l-.2,4.13c1.35-3.75,3.08-4.8,8-4.76v6.44a11.53,11.53,0,0,0-1.73-.1,5.26,5.26,0,0,0-5,2.79c-.67,1.53-.91,3.69-.91,8.16v6.53h-6.82V27.52Z"/><path class="cls-1" d="M144.56,39.28c0,7-5.19,12-12.34,12s-12.29-5-12.29-12.24,5.09-12.2,12.29-12.2S144.56,31.89,144.56,39.28Zm-17.76-.19c0,4.37,2,6.81,5.47,6.81s5.42-2.44,5.42-6.67c0-4.46-1.92-6.91-5.47-6.91S126.8,34.77,126.8,39.09Z"/><path class="cls-1" d="M156.32,27.52V50.18c0,3.4-.24,4.51-1.35,5.85s-2.93,2-5.52,2h-3.69V52.62H147c1.73,0,2.5-.86,2.5-2.78V27.52Zm0-3.22H149.5V18.69h6.82Z"/><path class="cls-1" d="M168,41.1c.43,3.17,2.3,4.9,5.23,4.9a4.33,4.33,0,0,0,4-2.06h6.92c-1.3,4.51-5.62,7.39-11.14,7.39-7.15,0-11.91-4.9-11.91-12.19S166,26.89,173,26.89a10.47,10.47,0,0,1,10.32,6.82,18.75,18.75,0,0,1,1.15,7.39Zm9.46-4.8c-.29-2.73-1.88-4.22-4.52-4.22s-4.37,1.49-4.89,4.22Z"/><path class="cls-1" d="M204.13,35.87a3.94,3.94,0,0,0-4.23-3.45c-3.12,0-4.8,2.35-4.8,6.57,0,4.47,1.68,6.82,4.85,6.82,2.45,0,3.79-1.25,4.32-4l6.62.34c-1,5.86-5,9.17-11.13,9.17-7.06,0-11.52-4.71-11.52-12.15,0-7.68,4.41-12.29,11.76-12.29,6.05,0,10.17,3.46,10.61,9Z"/><path class="cls-1" d="M227.26,32.61h-4.18v9c0,3.65.15,3.94,1.73,3.94h2.45v5.14h-4.18c-3,0-4.46-.44-5.47-1.54s-1.34-2.4-1.34-6V32.61H213v-4.8h3.27V20.46h6.81v7.35h4.18Z"/><path class="cls-1" d="M82.88,80.33H79.74V87.1c0,2.74.11,3,1.3,3h1.84v3.86H79.74c-2.23,0-3.34-.33-4.1-1.16s-1-1.8-1-4.5V80.33H72.19V76.74h2.44V71.23h5.11v5.51h3.14Z"/><path class="cls-1" d="M98.64,78a6.21,6.21,0,0,1,4.61-2,5.9,5.9,0,0,1,4.46,1.87c1.12,1.23,1.55,2.7,1.55,5.29v10.7h-5.11V84.15c0-1.62-.14-2.27-.57-2.88a2.48,2.48,0,0,0-2-.9,3.23,3.23,0,0,0-2.23.86c-.58.62-.69,1.12-.69,2.92v9.76H93.53v-24h5.11Z"/><path class="cls-1" d="M126,76.52l-.15,3.1c1-2.81,2.31-3.6,6-3.57v4.82a9.16,9.16,0,0,0-1.29-.07,3.93,3.93,0,0,0-3.78,2.09c-.5,1.15-.68,2.77-.68,6.12v4.9H121V76.52Z"/><path class="cls-1" d="M146.09,86.71c.33,2.37,1.73,3.67,3.93,3.67a3.27,3.27,0,0,0,3-1.55h5.18c-1,3.38-4.21,5.54-8.35,5.54-5.36,0-8.93-3.67-8.93-9.14s3.64-9.18,8.9-9.18a7.84,7.84,0,0,1,7.73,5.11,14,14,0,0,1,.87,5.55Zm7.09-3.6a3.15,3.15,0,0,0-3.38-3.17,3.5,3.5,0,0,0-3.67,3.17Z"/><path class="cls-1" d="M173.6,86.71c.32,2.37,1.72,3.67,3.92,3.67a3.25,3.25,0,0,0,3-1.55h5.19c-1,3.38-4.22,5.54-8.36,5.54-5.36,0-8.92-3.67-8.92-9.14s3.63-9.18,8.89-9.18a7.86,7.86,0,0,1,7.74,5.11,14.15,14.15,0,0,1,.86,5.55Zm7.09-3.6a3.16,3.16,0,0,0-3.39-3.17,3.51,3.51,0,0,0-3.67,3.17Z"/><rect class="cls-2" x="17.16" y="17.47" width="38" height="76"/></svg>