<svg id="Layer_1" data-name="Layer 1" xmlns="http://www.w3.org/2000/svg" viewBox="0 0 241.4 126.53"><defs><style>.cls-1{fill:#e9ebeb;}</style></defs><title>Artboard 1</title><path class="cls-1" d="M59.27,36.1c-5.7,4-11.9,7.9-17.3,12.3-3.2,2.6-6.9,4.6-10.1,7.3-.5.4-1.4,1.1-1.4,1.9,0,1,.7,1.4,1.6,1.4,3.1,0,7.9-1.6,12.1-1.6,2.7,0,10.2,1.2,10.2,4.8,0,3.3-3.3,8.2-5.1,8.4-1.3.1-4.4-1.6-7.7-1.6a76.9,76.9,0,0,0-25.4,4.5c-1.7.6-3.5-1.9-4.6-4.6a13.75,13.75,0,0,1-1.4-4.9c0-10,47.3-34.9,50.4-46.9a4.51,4.51,0,0,0-3.7-5.6c-6.5-.4-10.6,2.4-14.1,6.5-1.6,1.9-3,7.3-5.8,7.3-1.1,0-3.9-5.2-3.9-6.3,0-1.3,1.2-3.4,1.9-4.4C40,7.7,51,3.7,59.27,3.7c9,0,14.5,5.2,14.5,14.3C73.77,25.3,64.57,32.3,59.27,36.1Z"/><path class="cls-1" d="M92.47,29.49a5.2,5.2,0,0,1-1.08-.11A2.84,2.84,0,0,1,89.2,26.5a5.32,5.32,0,0,1,.57-2.23l1.55-3.21c.79-1.58.94-3.13.32-3.34s-1.62.5-2.48,1.65a17.6,17.6,0,0,0-1.84,3.13l-3,6.45c-.11.25-.18.32-.47.32H81c-.29,0-.26-.18-.18-.32l6.22-13.5c.07-.22.22-.32.54-.32h2c.15,0,.44.18.33.43l-.65,1.55a5.43,5.43,0,0,1,4.07-2.06c1.58,0,2.55,1.3,2.3,3.21s-2.59,5.54-2.59,7.23c0,.43.14.76.54.87,1.84.57,3.64-2.09,5-4.86.14-.26.68-.11,1.08.25a1.32,1.32,0,0,1,.36,1.51C98,28,94.78,29.49,92.47,29.49Z"/><path class="cls-1" d="M107.41,23.77c-.68,1.51-.54,2.3,0,2.51,2,1,4.28-3.16,5-4.68.15-.39.76-.21,1.12.11a1.37,1.37,0,0,1,.32,1.48c-1.08,2.55-3.52,6.19-7.55,6.33a2.66,2.66,0,0,1-2.92-2.77c-.83,1.12-3,2.7-4.79,2.7a2.35,2.35,0,0,1-1.29-.36,2.53,2.53,0,0,1-.9-2.23,12.2,12.2,0,0,1,1.44-5.15c1.83-3.45,5.36-6.84,8.42-6.8,1.44,0,1.66.79,1.66.79l5.9-13.14a.44.44,0,0,1,.36-.21h2.55c.22,0,.22.14.11.32Zm-.65-5.8c.36-.83.08-1.33-.54-1.33-1.26,0-3.45,1.33-5,4.5a8.7,8.7,0,0,0-1,3.42c0,.72.25,1.18.72,1.33a2.66,2.66,0,0,0,2.95-1.66Z"/><path class="cls-1" d="M96.25,88.08A13.1,13.1,0,0,1,90.58,87L86.35,97.28a14.54,14.54,0,0,1-13.1,9.39,8.9,8.9,0,0,1-3.59-.7,5.2,5.2,0,0,1-3.15-5,11.7,11.7,0,0,1,.31-2.33,1.2,1.2,0,0,1,1-.94.61.61,0,0,1,.63.69,3.1,3.1,0,0,0,2.52,2.84c2.46.37,6.42-1.64,9.32-8.51l6.11-14.55c3.66-8.7,9.33-13,12.16-14.68a18.24,18.24,0,0,1,2.21-1.14,20.27,20.27,0,0,0-2-.25c-7.49-.38-13.79,3.09-16.44,7.37a10,10,0,0,0-1.39,5c0,1.89.57,3.34,1.14,3.59s.5,1-.07,1.26a2.22,2.22,0,0,1-1.32.07c-1.13-.26-6.42-2.78-5.48-8.38,1.45-8.07,14.24-13.68,25-13.23S117.35,64,117.35,71.51a15.53,15.53,0,0,1-.25,2.39C115.65,82.35,104.75,88,96.25,88.08Zm13.67-17c0-3.21-2-6.11-5.55-7.75a23.52,23.52,0,0,0-4.22,3.78c-2,2.21-3.21,4.48-6.49,12.41L92.59,82.1a17.54,17.54,0,0,0,4.73.31c5-.31,10.39-3.28,12.16-8.57A8.27,8.27,0,0,0,109.92,71.13Z"/><path class="cls-1" d="M124.34,106c-4.47,0-6.3-2.59-6.3-5.61a8.82,8.82,0,0,1,.88-3.72l4-8.63c.32-.76.7-1.76.13-2.27s-.88-.63-1.89-.31a4,4,0,0,0-2.58,2.14s-1.07,2.46-2,4.35a50.31,50.31,0,0,1-4.35,7.75.56.56,0,0,1-.38.19,2.6,2.6,0,0,1-1.19-1.27,4.41,4.41,0,0,1-.38-2.45,1.82,1.82,0,0,1,.19-.57c.19-.5,1.45-2.65,3.28-6.43.69-1.38,1.51-3.27,2-4.6a2.25,2.25,0,0,1-.44-1.38A4.6,4.6,0,0,1,119,78.44a3.12,3.12,0,0,1,3.84,2.84,1.56,1.56,0,0,0,0,.75,1,1,0,0,0,1.26.32,4.74,4.74,0,0,0,1-.76,2.27,2.27,0,0,1,2.33-.25l3,1.51a.94.94,0,0,1,.51,1.32L126.36,94a14.18,14.18,0,0,0-1.51,5c0,.89.25,1.45,1.07,1.64,4.22.95,7.68-7,8.69-8.76.25-.44,1.2,0,1.77.63a2.51,2.51,0,0,1,.56,2.65C135.18,99.42,130.2,106,124.34,106Z"/><path class="cls-1" d="M158.24,101.44a7.71,7.71,0,0,1-5.11,1.82,9.56,9.56,0,0,1-5.42-1.7c-3.33,3.09-7.18,5.11-10.39,5.11-3.65,0-5.61-2.46-5.61-6.18a16.27,16.27,0,0,1,1.83-7c3.47-7.25,10.77-13.17,16.38-13.17,3.59,0,5.61,2.52,5.61,6.24a16.71,16.71,0,0,1-1.83,6.93,29.56,29.56,0,0,1-3,4.79,4.62,4.62,0,0,0,3.15.88c2.46-.38,4.35-3.84,5.67-6.68a1,1,0,0,1,1.32-.5,2.52,2.52,0,0,1,1.51,2.58A18.47,18.47,0,0,1,158.24,101.44Zm-18.46-8.07a11.66,11.66,0,0,0-1.33,4.85c0,1.77.76,2.9,2.21,2.9s3-.94,4.54-2.46a10.14,10.14,0,0,1-1.27-5.92,17.71,17.71,0,0,1,1.83-6.42A17.8,17.8,0,0,0,139.78,93.37Zm7.93-.69a6.3,6.3,0,0,0,.45,2.2c.25-.5.56-1,.82-1.51a12.25,12.25,0,0,0,1.32-4.91,3.36,3.36,0,0,0-.82-2.4A13.69,13.69,0,0,0,147.71,92.68Z"/><path class="cls-1" d="M168.69,105a28,28,0,0,1-11.4,6.36l-1.57,3.27a17.84,17.84,0,0,1-6.68,7.69,13.48,13.48,0,0,1-6.3,1.89,5,5,0,0,1-4.41-2,3.44,3.44,0,0,1-.51-1.83c0-2.71,2.27-6.55,5.36-9.07a19.46,19.46,0,0,1,10.14-4.35l11.15-25.39c.13-.19.32-.57.76-.57h5.86c.38,0,.44.38.25.76l-11.65,24.76a25.14,25.14,0,0,0,7.93-5.74,29.6,29.6,0,0,0,5.74-8.31.94.94,0,0,1,1.26-.44,2.39,2.39,0,0,1,1.45,3A27.65,27.65,0,0,1,168.69,105Zm-16.94,6.3a11.63,11.63,0,0,0-7.31,3c-1.95,1.7-3.66,4.22-2.71,5.67s6.05.19,7.94-4.1Zm18.71-35.92c-1,0-1.51-.69-1.51-1.82a6.64,6.64,0,0,1,.75-2.78c1.33-2.52,3.78-4.6,5.48-4.6,1,0,1.58.76,1.58,1.83a6.07,6.07,0,0,1-.82,2.77C174.68,73.27,172.22,75.35,170.46,75.35Z"/><path class="cls-1" d="M192.51,101.37a15.93,15.93,0,0,1-12.22,5.17c-4.92,0-9-2.33-9-7.94,0-7.94,9.19-18.14,17.26-18.14,2.14,0,4.09.69,4.09,3.15,0,6.3-8.88,12.66-14.3,14.3l-.06.69c-.13,2.65,1.39,3.78,4,3.78a10.44,10.44,0,0,0,7.37-3.65A24.37,24.37,0,0,0,192.89,94a.89.89,0,0,1,.82-.56,2.19,2.19,0,0,1,1.95,2.2C195.66,97.4,193.58,100.05,192.51,101.37Zm-3.78-18c-3.34,0-8.63,8.7-9.64,11.47,3.4-1.57,10.71-6.3,10.71-10.46A1,1,0,0,0,188.73,83.35Z"/><path class="cls-1" d="M212.86,101.37a15.79,15.79,0,0,1-12.16,5.17c-5,0-9.07-2.65-9.07-8.25,0-7.94,9.32-17.83,17.32-17.83,2.21,0,4.22,1.26,4.22,3.65,0,2.21-2,6-4.47,6a1.73,1.73,0,0,1-1.83-1.7c0-2.08,2.14-4.29,4.22-3.91,0-1-1-1.14-1.76-1.14-4.6,0-10.65,11.09-10.65,15.25,0,2.65,1.39,3.78,4,3.78,2.84,0,5.42-1.64,7.37-3.65A30.12,30.12,0,0,0,213.24,94a1,1,0,0,1,.81-.56,2.24,2.24,0,0,1,2,2.2C216.07,97.4,214,100.05,212.86,101.37Z"/><path class="cls-1" d="M216.51,106.16c-3.46,0-5.73-2.08-5.73-5.23a9.29,9.29,0,0,1,1-4l5.36-11.34h-1.2c-.94,0-1-2.27.26-3.59a3,3,0,0,1,2.33-1h.81l3.79-8c1.13-2.33,4.34-3.21,6-3,.76.13,1.2.63.76,1.58L225.58,81h3.22c.5,0,.56.51.44,1.2-.32,1.32-1.77,3.4-3.34,3.4h-2.4l-4.79,10.46c-1.25,2.65-.94,3.85-.18,4.41,1.13.88,3,.63,4.6-.63,2-1.51,4-4.53,5.35-7.56.32-.69,1.39-.38,2,.19a2.4,2.4,0,0,1,.56,2.58C228,102,223.5,106.16,216.51,106.16Z"/><rect class="cls-1" x="77.21" y="39.12" width="40" height="1"/></svg>