<svg id="Layer_1" data-name="Layer 1" xmlns="http://www.w3.org/2000/svg" viewBox="0 0 209.39 135.76"><defs><style>.cls-1{fill:#ced5cb;}.cls-2{fill:#e9ebeb;}</style></defs><title>Artboard 1</title><path class="cls-1" d="M144.08,108.71c0,13.4-14.54,18.58-41.33,18.58-28,0-40.75-7.42-40.75-15.63,0-5,4.39-8.49,12.88-8.49,7.49,0,12.53,2.66,12.53,6.91,0,4-4.32,6-9.07,6-1.08.07-1.22.43-.07.72A86.1,86.1,0,0,0,99.37,119c11,0,18.57-3.46,18.57-10.23S110.46,99,99.51,99c-6.84,0-13.1,1.15-20.88,2.67a5,5,0,0,1-2.31-.08L68,99.42a1.78,1.78,0,0,1-1.44-2.16l2.52-22a1.54,1.54,0,0,1,2.09-1.51C78.41,75.09,94,76,109.16,76c11.66,0,22.11-.5,28.73-1.44A1.84,1.84,0,0,1,140.12,76l.43,1.51a1.87,1.87,0,0,1-1,2.38c-7.56,4-19.73,6.41-33.27,6.41a149.17,149.17,0,0,1-21.89-1.59,1.54,1.54,0,0,0-2.09,1.51l-.72,6c-.22,1.51.36,2.23,1.37,1.8,6.48-2.74,15-3.89,24.91-3.89C129.68,90.06,144.08,95.32,144.08,108.71Z"/><path class="cls-2" d="M19.74,58.25c3.37-7,6.6-9.58,9.86-8s3.22,5.71-.15,12.69l-3.08,6.4a.54.54,0,0,0,.22.81l.89.42c1.21.59,1.62.35,2.13-.7L30.49,68a.56.56,0,0,1,.84-.29l1.47.71a.56.56,0,0,1,.29.83L26.46,83a.55.55,0,0,1-.83.29l-1.48-.71a.56.56,0,0,1-.29-.83l.89-1.84c.51-1.06.44-1.52-.77-2.1l-7-3.4c-1.21-.58-1.62-.35-2.13.71L13.92,77a.57.57,0,0,1-.84.29l-1.47-.71a.57.57,0,0,1-.29-.84Zm2.16,2.16L19.25,65.9a.57.57,0,0,0,.3.84L23,68.38a.55.55,0,0,0,.83-.29l2.65-5.49c1.16-2.4,1.13-3.93-.52-4.73S23.06,58,21.9,60.41Z"/><path class="cls-2" d="M61.66,32.26a.55.55,0,0,1,.88.06l1.08,1.22a.56.56,0,0,1-.06.88L56.8,40.36a.84.84,0,0,1-.8.22l-7-1.23a.82.82,0,0,0-.81.2L45.38,42a.56.56,0,0,0-.05.88l.79.9c.89,1,1.35.95,2.23.18l1.54-1.35a.56.56,0,0,1,.88.06l1.07,1.23a.56.56,0,0,1-.05.88L40.32,54.84a.55.55,0,0,1-.88-.06l-1.08-1.22a.55.55,0,0,1,.06-.88L40,51.33c.88-.78,1-1.23.11-2.24L34.9,43.21c-.89-1-1.35-1-2.24-.18l-1.53,1.35a.56.56,0,0,1-.88-.06L29.17,43.1a.57.57,0,0,1,.06-.89L44,29.27c6.08-5.33,9.77-6.34,12-3.76,1.64,1.88,1.33,4.29-1.27,7.44-.35.4-.24.75.29.8l2.23.28a4.51,4.51,0,0,0,3.8-1.23Zm-19,7.52a.56.56,0,0,0,.88.06l4.74-4.17c2-1.72,2.65-3.09,1.47-4.44s-2.64-.85-4.6.87l-4.75,4.17a.56.56,0,0,0,0,.88Z"/><path class="cls-2" d="M61.8,25.78c-2-6.22,3.51-10.64,12.71-13.58s16.23-2.5,18.22,3.72S89.22,26.56,80,29.5,63.79,32,61.8,25.78Zm17.35,1c5-1.58,6.49-4.29,5.25-8.18s-4-5.23-9-3.62-6.49,4.29-5.25,8.17S74.18,28.33,79.15,26.75Z"/><path class="cls-2" d="M99.32,19.67a7.61,7.61,0,0,0,5.75,3.06c3.08.22,6.2-1.34,6.49-5.38l.29-4c.09-1.34-.25-1.63-1.42-1.72l-2.06-.14a.56.56,0,0,1-.58-.67l.13-1.77a.56.56,0,0,1,.67-.58l15.2,1.09a.56.56,0,0,1,.58.66L124.24,12a.56.56,0,0,1-.66.58l-2-.12c-1.17-.08-1.57.15-1.67,1.49l-.33,4.67c-.4,5.58-6.5,7.74-12.44,7.32s-11.59-3.48-11.25-8.22a4.43,4.43,0,0,1,5-4.19c2,.14,3.8,1.43,3.64,3.63-.19,2.61-2.91,3.38-4.88,2.3C99.18,19.21,99.06,19.27,99.32,19.67Z"/><path class="cls-2" d="M141.3,19.19a.56.56,0,0,0-.83.3l-1.18,2.44a.56.56,0,0,0,.3.83l3.55,1.71c1.68.81,2.34.54,2.93-.67.15-.33.41-.36.78-.19l2,1a.55.55,0,0,1,.29.83l-2.76,5.76a.56.56,0,0,1-.84.29l-2-1a.55.55,0,0,1-.28-.85c.5-1,.34-1.75-1.37-2.58l-3.55-1.7a.55.55,0,0,0-.83.29l-1.28,2.66a.56.56,0,0,0,.29.84l9.11,4.37c2.25,1.08,3.45.35,4.7-1.52a.56.56,0,0,1,.83-.24l2.36,1.13a.55.55,0,0,1,.29.83l-2.43,5.07a.56.56,0,0,1-.83.29L124.2,26.42a.56.56,0,0,1-.3-.83l.71-1.47a.55.55,0,0,1,.83-.29l1.84.88c1.06.51,1.52.44,2.1-.77l3.39-7.06c.58-1.21.35-1.61-.71-2.12l-1.84-.89a.56.56,0,0,1-.29-.83l.71-1.47a.55.55,0,0,1,.83-.29l26.14,12.55a.55.55,0,0,1,.29.83l-2.31,4.81a.56.56,0,0,1-.83.29l-2.36-1.13a.56.56,0,0,1-.33-.8c.61-2,.35-3.3-1.88-4.37Z"/><path class="cls-2" d="M176.45,51.32a.76.76,0,0,1-.15-.84c1-2.48.18-5.12-2.32-7.87-3.47-3.82-6.88-4.39-9.88-1.66s-2.76,6.17.76,10c2.58,2.84,5.17,3.93,7.69,3.07a.75.75,0,0,1,.87.21l2.28,2.5c.3.34.24.7-.18.84-3.45,1.39-8,.54-13.55-5.52-5.94-6.53-8.58-13.22-3.75-17.61s11.29-1.08,17,5.21c2.46,2.7,3.85,5.2,4.27,7.34a.56.56,0,0,0,.74.5l.52-.12a.84.84,0,0,1,.84.28l1.79,2a.57.57,0,0,1,0,.89l-3.7,3.35a.55.55,0,0,1-.88,0Z"/><path class="cls-2" d="M198.09,84.05a.56.56,0,0,1-.36.8L192.06,87a.55.55,0,0,1-.8-.37l-.92-2.45a.58.58,0,0,1,.34-.81c2.46-1.23,3.2-2.33,2.39-4.51l-1.18-3.14a.55.55,0,0,0-.8-.37l-8.25,3.08c-1.26.47-1.37.92-1,2l.72,1.91a.57.57,0,0,1-.37.81l-1.53.57a.56.56,0,0,1-.8-.37l-5.34-14.29a.57.57,0,0,1,.37-.81l1.53-.57a.56.56,0,0,1,.8.37L178,70c.41,1.1.79,1.37,2.05.9l8.25-3.08a.56.56,0,0,0,.37-.8l-1.18-3.15c-.82-2.2-2.09-2.52-4.75-1.84a.59.59,0,0,1-.79-.39L181,59.14a.57.57,0,0,1,.37-.81L187,56.22a.56.56,0,0,1,.81.37Z"/></svg>