<svg id="Layer_1" data-name="Layer 1" xmlns="http://www.w3.org/2000/svg" viewBox="0 0 440 106.43"><defs><style>.cls-1{fill:#e9ebeb;}.cls-2{fill:#ced5cb;}.cls-3{fill:#5c9ea8;}</style></defs><title>Artboard 1</title><path class="cls-1" d="M137.67,37.4c2.73-2.88,7.34-4.75,12.17-4.75,11.37,0,19,8.35,19,20.88s-7.63,20.81-19,20.81a14.34,14.34,0,0,1-8.79-2.74V85.72a1.1,1.1,0,0,1-1.08,1H127.3a1.1,1.1,0,0,1-1.08-1V34.81a1.1,1.1,0,0,1,1.08-1.08h8.13c.51,0,.87.43,1.16,1.08ZM141.05,58a6.08,6.08,0,0,0,5.69,4c4,0,6.62-3.32,6.62-8.36S150.7,45,146.74,45a6.08,6.08,0,0,0-5.69,4Z"/><path class="cls-1" d="M195.7,33.73a1,1,0,0,1,1,1V44.1a1,1,0,0,1-1,1h-1.87c-2.74,0-5.19,1.22-6.12,3V72.25a1.11,1.11,0,0,1-1.08,1.08H174a1.11,1.11,0,0,1-1.08-1.08V34.81a1.1,1.1,0,0,1,1.08-1h8.14c.58,0,.94.5,1.15,1.08l1.08,3.17a12.24,12.24,0,0,1,9.51-4.32Z"/><path class="cls-1" d="M239,53.53c0,12.53-8.49,20.88-21.17,20.88S196.7,66.06,196.7,53.6s8.5-20.88,21.17-20.88S239,41.07,239,53.53Zm-28.29.07c0,4.68,2.88,7.85,7.12,7.85S225,58.28,225,53.53s-2.88-7.85-7.13-7.85S210.75,48.85,210.75,53.6Z"/><path class="cls-1" d="M257,33.66a1.1,1.1,0,0,1,1.08,1.08V68.8c0,8.85-4.54,16.12-12.24,19.58a.91.91,0,0,1-1.37-.36l-5.83-9.14c-.36-.51-.15-1.08.43-1.66,2.59-2.45,4.18-5.47,4.18-8.21V34.74a1.1,1.1,0,0,1,1.08-1.08Zm1.51-8.36c0,4.25-3.17,7.13-7.92,7.13s-7.92-2.88-7.92-7.13c0-4.46,3.17-7.41,7.92-7.41S258.48,20.84,258.48,25.3Z"/><path class="cls-1" d="M298.73,69.3c.15.5,0,.79-.5,1.08a28,28,0,0,1-14.91,4c-12.74,0-21.24-8.35-21.24-20.81S270.43,32.72,283,32.72c12,0,19,7.7,19,20.81a16.14,16.14,0,0,1-.29,3.24c-.07.58-.43.86-1.08.86H277.49s0,4.54,6.05,4.54a27.2,27.2,0,0,0,11-2.38.78.78,0,0,1,1.08.58ZM287.64,50.07c0-3.16-1.94-5.25-4.82-5.25a5,5,0,0,0-5.4,5.25Z"/><path class="cls-1" d="M340.27,69.16c.22.36,0,.86-.43,1.22a27.34,27.34,0,0,1-13.32,4.1c-13,0-21.67-8.35-21.67-20.88s8.64-20.88,21.67-20.88a27.35,27.35,0,0,1,13.32,4.11c.43.35.65.86.43,1.22l-4.17,8.78c-.29.58-.79.8-1.3.44a12.62,12.62,0,0,0-6.91-2.16c-5.26,0-8.71,3.38-8.71,8.49s3.45,8.5,8.71,8.5a12.62,12.62,0,0,0,6.91-2.16c.51-.36,1-.15,1.3.43Z"/><path class="cls-1" d="M367.85,33.73a1,1,0,0,1,1.08,1l-.79,7a1.17,1.17,0,0,1-1.08,1.08h-4.61V72.25a1.11,1.11,0,0,1-1.08,1.08H348.7a1.1,1.1,0,0,1-1.08-1.08V42.8h-4.11a1,1,0,0,1-1-1v-7a1,1,0,0,1,1-1.08h4.11V25.88a1.16,1.16,0,0,1,1.08-1l12.67-1.22a1,1,0,0,1,1.08,1v9.07Z"/><path class="cls-1" d="M404.93,57.35a1.06,1.06,0,0,1-1.08,1.08H382.61a1,1,0,0,1-1-1.08V49.43a1,1,0,0,1,1-1h21.24a1,1,0,0,1,1.08,1Z"/><path class="cls-1" d="M408.89,36.75c-.51,0-1-.29-.94-.86V27A1.12,1.12,0,0,1,409.1,26l18.58-2.88c.65-.07,1,.22,1,.72V72.25a1,1,0,0,1-1,1.08H414.93a1.06,1.06,0,0,1-1.08-1.08V36.75Z"/><circle class="cls-2" cx="54.31" cy="53.22" r="43"/><circle class="cls-3" cx="54.31" cy="53.22" r="25"/><circle class="cls-2" cx="54.31" cy="53.22" r="12"/></svg>