<svg id="Layer_1" data-name="Layer 1" xmlns="http://www.w3.org/2000/svg" viewBox="0 0 362.39 181.76"><defs><style>.cls-1{fill:#e9ebeb;}.cls-2{fill:#f2f2f2;}.cls-3{fill:#fff;}.cls-4{fill:#ccc;}.cls-5{fill:#e6e6e6;}.cls-6{fill:#333;}.cls-7{fill:#4d4d4d;}.cls-8{fill:#ffffa7;}.cls-9{fill:#fff058;}</style></defs><title>Artboard 1</title><path class="cls-1" d="M142.1,56.09a14.56,14.56,0,0,1-6.3-1.19l-4.69,11.41c-3.08,7.42-9.59,10.43-14.56,10.43a9.89,9.89,0,0,1-4-.77,5.77,5.77,0,0,1-3.5-5.6,12.62,12.62,0,0,1,.35-2.59,1.34,1.34,0,0,1,1-1,.68.68,0,0,1,.7.77,3.44,3.44,0,0,0,2.8,3.15c2.73.42,7.14-1.82,10.36-9.45L131.11,45c4.06-9.66,10.36-14.49,13.51-16.31a20.72,20.72,0,0,1,2.45-1.26,21.74,21.74,0,0,0-2.24-.28c-8.33-.42-15.33,3.43-18.27,8.19A11.13,11.13,0,0,0,125,41c0,2.1.63,3.71,1.26,4s.56,1-.07,1.4a2.48,2.48,0,0,1-1.47.07c-1.26-.28-7.14-3.08-6.09-9.31,1.61-9,15.82-15.19,27.72-14.7s19.18,6.93,19.18,15.26a18.09,18.09,0,0,1-.28,2.66C163.66,49.72,151.55,56,142.1,56.09Zm15.19-18.83c0-3.57-2.24-6.79-6.16-8.61a25.36,25.36,0,0,0-4.69,4.2c-2.17,2.45-3.57,5-7.21,13.79L138,49.44a19.49,19.49,0,0,0,5.25.35c5.6-.35,11.55-3.64,13.51-9.52A9,9,0,0,0,157.29,37.26Z"/><path class="cls-1" d="M170.87,76c-5,0-7-2.87-7-6.23a9.66,9.66,0,0,1,1-4.13l4.41-9.59c.35-.84.77-2,.14-2.52s-1-.7-2.1-.35a4.41,4.41,0,0,0-2.87,2.38s-1.19,2.73-2.24,4.83A55.77,55.77,0,0,1,157.36,69a.61.61,0,0,1-.42.21,2.89,2.89,0,0,1-1.33-1.4,4.93,4.93,0,0,1-.42-2.73,1.74,1.74,0,0,1,.21-.63c.21-.56,1.61-2.94,3.64-7.14.77-1.54,1.68-3.64,2.24-5.11a2.52,2.52,0,0,1-.49-1.54,5.11,5.11,0,0,1,4.13-5.32,3.46,3.46,0,0,1,4.27,3.15,1.68,1.68,0,0,0,0,.84,1.08,1.08,0,0,0,1.4.35,5.22,5.22,0,0,0,1.12-.84,2.52,2.52,0,0,1,2.59-.28l3.29,1.68a1,1,0,0,1,.56,1.47l-5,10.92a15.8,15.8,0,0,0-1.68,5.6c0,1,.28,1.61,1.19,1.82,4.69,1,8.54-7.77,9.66-9.73.28-.49,1.33,0,2,.7a2.76,2.76,0,0,1,.63,2.94C182.91,68.69,177.38,76,170.87,76Z"/><path class="cls-1" d="M194.25,76.18c-4.2-.07-5.32-2.66-5.81-4.83-2,2.24-5.6,5.32-9.73,4.69a4.88,4.88,0,0,1-3.92-5,8.73,8.73,0,0,1,.84-3.43l8-17.92c.63-1.4,3.57-2.59,5.39-2.66,1.19,0,2,.56,1.4,1.89l-7.07,16.94a7.23,7.23,0,0,0-.63,2.59c0,1,.42,1.54,1.05,1.68,2,.49,4.62-1.61,5.67-4.06l7-15.89c.56-1.33,4.27-2.8,6.23-2.73.91.07,1.47.49,1,1.54L197,63.79a11.84,11.84,0,0,0-1.26,4.48c0,1,.35,1.68,1.33,1.82,4.34.63,8-6.79,9.17-9.1.56-1,1.61-.7,2.31.07a3,3,0,0,1,.63,2.94C206.36,70.93,200.41,76.32,194.25,76.18Z"/><path class="cls-1" d="M219.94,76.11a9.7,9.7,0,0,1-2.1-.21,5.52,5.52,0,0,1-4.27-5.6A10.22,10.22,0,0,1,214.69,66l3-6.23c1.54-3.08,1.82-6.09.63-6.51s-3.15,1-4.83,3.22a32.53,32.53,0,0,0-3.57,6.09l-5.81,12.53c-.21.49-.36.63-.91.63h-5.54c-.56,0-.49-.35-.35-.63l12.12-26.25c.14-.42.42-.63,1.05-.63h4c.28,0,.84.35.63.84l-1.26,3c1.68-2,4.62-4.13,7.91-4,3.08.07,5,2.52,4.48,6.23s-5,10.78-5,14.07c0,.84.28,1.47,1.05,1.68,3.57,1.12,7.07-4.06,9.66-9.45.28-.49,1.33-.21,2.1.49a2.57,2.57,0,0,1,.7,2.94C230.65,73.17,224.42,76.11,219.94,76.11Z"/><path class="cls-1" d="M250.53,70.86c-3.36,3.92-8.47,5.74-13.58,5.74-5.46,0-10-2.59-10-8.82,0-8.82,10.23-20.16,19.19-20.16,2.38,0,4.55.77,4.55,3.5,0,7-9.87,14.07-15.89,15.89l-.07.77c-.14,2.94,1.54,4.2,4.41,4.2,3.22,0,6.09-1.82,8.19-4.06A27,27,0,0,0,251,62.67a1,1,0,0,1,.91-.63A2.44,2.44,0,0,1,254,64.49C254,66.45,251.72,69.39,250.53,70.86Zm-4.2-20c-3.71,0-9.59,9.66-10.71,12.74,3.78-1.75,11.9-7,11.9-11.62A1.05,1.05,0,0,0,246.33,50.84Z"/><path class="cls-2" d="M154.3,135.25c-3.22,4.41-8.68,7-15.19,8.61l-4.2,9c-2.52,5.25-8.89,7-12.53,6.44-2.94-.42-4.76-2.31-4.76-4.9a8.68,8.68,0,0,1,1-3.58c2.59-4.9,12.46-8,15.33-9.38l1.68-3.43c-1.68,1.82-5.32,4-8.26,4a4.23,4.23,0,0,1-2.31-.63c-1.26-.84-1.75-2.45-1.75-4.34a23.71,23.71,0,0,1,2.8-10c3.57-6.72,10.43-13.3,16.38-13.23,2.8,0,3.22,1.54,3.22,1.54l.35-.63a.79.79,0,0,1,.7-.49h5c.42,0,.35.28.21.7l-10.29,23.73c2-1,6.37-1.89,9.45-6.16a41.53,41.53,0,0,0,3.29-5.67c.35-.77,1.54-.42,2.24.21a2.77,2.77,0,0,1,.7,2.94A31.8,31.8,0,0,1,154.3,135.25Zm-22.61,11.13c-3.85,1.2-9,3.37-9.73,5.54-1,2.66,1.47,3.29,3.5,2.73a6.07,6.07,0,0,0,4-3.65Zm11.76-26.67c.7-1.61.14-2.59-1-2.59-2.45,0-6.72,2.59-9.73,8.75a15.48,15.48,0,0,0-2,6.58c0,1.4.49,2.38,1.47,2.66,1.61.49,4.34-.35,5.74-3.22Z"/><path class="cls-2" d="M167,142.18a5.19,5.19,0,0,1-5.67-5.39C159.69,139,155.49,142,152,142a4.57,4.57,0,0,1-2.52-.7c-1.26-.84-1.75-2.45-1.75-4.34a23.71,23.71,0,0,1,2.8-10c3.57-6.72,10.43-13.3,16.38-13.23,2.8,0,3.22,1.54,3.22,1.54l.35-.63a.79.79,0,0,1,.7-.49h5c.42,0,.35.28.21.7L169.14,131c-1.33,2.94-1,4.48-.07,4.9,3.92,1.89,8.33-6.16,9.8-9.1.28-.77,1.47-.42,2.17.21a2.68,2.68,0,0,1,.63,2.87C179.57,134.83,174.81,141.9,167,142.18Zm.91-22.47c.7-1.61.14-2.59-1-2.59-2.45,0-6.72,2.59-9.73,8.75a16.78,16.78,0,0,0-2,6.65c0,1.4.49,2.31,1.4,2.59,1.61.49,4.41-.35,5.74-3.22Z"/><path class="cls-2" d="M204.35,142.11a10.82,10.82,0,0,1-2.17-.28,5,5,0,0,1-3.92-5.32,12.38,12.38,0,0,1,1.05-4.55l2.59-6.16c1.47-3.57,2-6.09.77-6.65s-2.59.91-4.2,3.43a37.92,37.92,0,0,0-3.15,5.88l-5.67,12.39c-.14.35-.35.84-1,.84h-5.53c-.49,0-.63-.35-.42-.77l7.14-15.19c1.47-3.08,1.89-6.09.63-6.51s-3,1.12-4.69,3.43a49.6,49.6,0,0,0-3.36,5.81l-6.17,12.6c-.2.49-.35.63-.9.63H169.9c-.63,0-.56-.35-.42-.63l12.33-26.32c.14-.42.35-.56,1-.56h4c.49,0,.7.49.42,1L186,118c2.38-2.45,4.62-4,7.91-3.92a4.37,4.37,0,0,1,4.41,3.64c2-2.1,4.69-3.78,7.77-3.71s5,2.52,4.48,6.3c-.42,3.08-3.64,8.54-4.69,12.18-.56,1.82-.49,3.15.7,3.5,3.57,1.12,7.07-4.06,9.66-9.38.28-.49,1.33-.28,2.1.42a2.6,2.6,0,0,1,.7,2.94C215,139.1,208.83,142.11,204.35,142.11Z"/><path class="cls-2" d="M234.94,136.86c-3.36,3.92-8.47,5.74-13.59,5.74-5.46,0-10-2.59-10-8.82,0-8.82,10.23-20.16,19.19-20.16,2.38,0,4.55.77,4.55,3.5,0,7-9.87,14.07-15.9,15.89l-.07.77c-.14,2.94,1.55,4.2,4.41,4.2,3.23,0,6.1-1.82,8.2-4.06a27,27,0,0,0,3.64-5.25,1,1,0,0,1,.91-.63,2.44,2.44,0,0,1,2.17,2.45C238.44,132.45,236.13,135.39,234.94,136.86Zm-4.2-20c-3.71,0-9.6,9.66-10.72,12.74,3.79-1.75,11.91-7,11.91-11.62A1.05,1.05,0,0,0,230.74,116.84Z"/><path class="cls-3" d="M288.45,110.74a4.4,4.4,0,0,1,1.74-.35,4.45,4.45,0,0,1,1.75.35c.67-3.37,3.59-6.76,7.86-9.08a23.65,23.65,0,0,0,.39-4.28c0-8.56-4.47-15.5-10-15.5s-10,6.94-10,15.5a23.64,23.64,0,0,0,.4,4.28C284.86,104,287.78,107.37,288.45,110.74Z"/><path class="cls-4" d="M292.68,112.14l-1.13-.48a3.54,3.54,0,0,0-2.71,0l-1.13.48-.24-1.2c-.62-3.1-3.37-6.23-7.36-8.4l-.42-.23-.09-.47a24.75,24.75,0,0,1-.41-4.46c0-9.1,4.94-16.5,11-16.5s11,7.4,11,16.5a24.75,24.75,0,0,1-.41,4.46l-.08.47-.42.23c-4,2.17-6.74,5.3-7.36,8.4Zm-2.49-2.75a5.1,5.1,0,0,1,1,.1c1-3.19,3.81-6.27,7.67-8.47a23.5,23.5,0,0,0,.29-3.64c0-8-4-14.5-9-14.5s-9,6.51-9,14.5a22.35,22.35,0,0,0,.3,3.64c3.85,2.2,6.63,5.28,7.66,8.47A5.16,5.16,0,0,1,290.19,109.39Z"/><path class="cls-3" d="M285.73,115.26c0-.12,0-.24,0-.37a4.45,4.45,0,0,1,1.12-2.94c-3-1.67-5.34-5.5-6.22-10.29a23.86,23.86,0,0,0-3.95-1.7c-8.14-2.64-16.13-.53-17.83,4.72s3.51,11.66,11.65,14.3a23.33,23.33,0,0,0,4.19,1C278.18,116.58,282.32,114.86,285.73,115.26Z"/><path class="cls-4" d="M275,121l-.48-.07a23.85,23.85,0,0,1-4.37-1,21.42,21.42,0,0,1-10-6.5c-2.43-3-3.25-6.19-2.31-9.06s3.49-5,7.19-6A21.43,21.43,0,0,1,277,99a25.32,25.32,0,0,1,4.12,1.77l.41.23.09.47c.83,4.47,3,8.06,5.73,9.6l1.07.6-.81.93a3.49,3.49,0,0,0-.87,2.28c0,.16,0,.23,0,.29l.09,1.22-1.21-.14c-3.14-.38-7,1.27-10.27,4.4Zm-5.31-21.17a16.09,16.09,0,0,0-4.12.51c-3,.8-5.09,2.46-5.81,4.66s0,4.76,2,7.19a19.42,19.42,0,0,0,9,5.85,22.39,22.39,0,0,0,3.55.85c3.28-3,7.07-4.67,10.41-4.67h0a5.5,5.5,0,0,1,.65-2c-2.71-2-4.79-5.56-5.69-9.91a22.4,22.4,0,0,0-3.37-1.4A21.57,21.57,0,0,0,269.69,99.82Z"/><path class="cls-3" d="M289.17,119.26a4.47,4.47,0,0,1-2.82-2.06c-2.52,2.33-6.88,3.37-11.7,2.73a23.46,23.46,0,0,0-2.83,3.23c-5,6.93-5.49,15.17-1,18.42s12.17.26,17.2-6.66a23.17,23.17,0,0,0,2.19-3.7C288.1,126.84,287.74,122.38,289.17,119.26Z"/><path class="cls-4" d="M275,143.87a8,8,0,0,1-4.83-1.48c-4.91-3.57-4.55-12.46.8-19.82a24.73,24.73,0,0,1,2.95-3.36l.35-.33.47.06c4.51.59,8.58-.33,10.89-2.47l.91-.83.63,1a3.5,3.5,0,0,0,2.19,1.6l1.19.28-.51,1.11c-1.32,2.86-.94,7,1,11.11l.2.43-.2.43a25.32,25.32,0,0,1-2.29,3.86C285,140.79,279.59,143.87,275,143.87ZM275,121a23.28,23.28,0,0,0-2.39,2.77c-4.69,6.47-5.25,14.1-1.24,17s11.11,0,15.81-6.44a23,23,0,0,0,1.9-3.12c-1.83-4-2.26-8.17-1.23-11.35a5.48,5.48,0,0,1-1.67-1.23C283.48,120.6,279.42,121.47,275,121Z"/><path class="cls-3" d="M294,117.2a4.45,4.45,0,0,1-2.81,2.06c1.43,3.12,1.07,7.58-1,12a24,24,0,0,0,2.2,3.7c5,6.92,12.73,9.91,17.2,6.66s4-11.49-1-18.42a22.86,22.86,0,0,0-2.84-3.23C300.91,120.57,296.56,119.53,294,117.2Z"/><path class="cls-4" d="M305.31,143.9a12.49,12.49,0,0,1-4.47-.9,21.49,21.49,0,0,1-9.26-7.49,25.32,25.32,0,0,1-2.29-3.86l-.21-.43.21-.43c1.95-4.09,2.33-8.25,1-11.11l-.51-1.11,1.19-.28a3.52,3.52,0,0,0,2.19-1.6l.63-1,.9.83c2.32,2.14,6.4,3.06,10.89,2.47l.48-.06.34.33a24.14,24.14,0,0,1,3,3.36c5.35,7.36,5.7,16.25.8,19.82A8.16,8.16,0,0,1,305.31,143.9Zm-14-12.69a23,23,0,0,0,1.9,3.12,19.38,19.38,0,0,0,8.36,6.8c2.92,1.13,5.56,1,7.44-.36,4-2.92,3.46-10.55-1.24-17a22.32,22.32,0,0,0-2.38-2.77c-4.41.49-8.47-.38-11.18-2.35a5.65,5.65,0,0,1-1.68,1.23C293.56,123,293.12,127.17,291.3,131.21Z"/><path class="cls-3" d="M321.58,104.68c-1.71-5.25-9.69-7.36-17.83-4.72a23.15,23.15,0,0,0-3.95,1.7c-.89,4.79-3.22,8.62-6.22,10.29a4.49,4.49,0,0,1,1.11,2.94c0,.13,0,.25,0,.37,3.41-.4,7.54,1.32,11.07,4.67a23.43,23.43,0,0,0,4.2-1C318.07,116.34,323.28,109.94,321.58,104.68Z"/><path class="cls-4" d="M305.39,121l-.34-.33c-3.3-3.13-7.14-4.77-10.28-4.4l-1.22.14.13-1.41a3.47,3.47,0,0,0-.86-2.38l-.81-.93,1.08-.6c2.76-1.54,4.9-5.13,5.73-9.6l.08-.47.42-.23A25.32,25.32,0,0,1,303.44,99a21.4,21.4,0,0,1,11.89-.61c3.71,1,6.26,3.1,7.2,6s.11,6.09-2.31,9.06a21.47,21.47,0,0,1-10,6.5,24.22,24.22,0,0,1-4.37,1Zm-9.74-6.78c3.35,0,7.14,1.68,10.42,4.67a22.65,22.65,0,0,0,3.55-.85,19.47,19.47,0,0,0,9.05-5.85c2-2.43,2.67-5,2-7.19s-2.78-3.86-5.81-4.66a19.26,19.26,0,0,0-10.76.59,22.4,22.4,0,0,0-3.37,1.4c-.9,4.35-3,8-5.7,9.91a5.33,5.33,0,0,1,.66,2Z"/><path class="cls-5" d="M286.81,112a4.58,4.58,0,0,1,1.64-1.21c-.67-3.37-3.59-6.76-7.86-9.08C281.47,106.45,283.81,110.28,286.81,112Z"/><path class="cls-4" d="M287,113.22l-.71-.39c-3.27-1.83-5.78-5.94-6.72-11l-.38-2.06,1.84,1c4.51,2.45,7.64,6.1,8.37,9.76l.16.8-.75.32a3.6,3.6,0,0,0-1.28,1Zm-4.89-9.42a12.9,12.9,0,0,0,4.53,6.88,5.52,5.52,0,0,1,.62-.46A13,13,0,0,0,282.14,103.8Z"/><path class="cls-5" d="M286.35,117.2a4.39,4.39,0,0,1-.62-1.94c-3.41-.4-7.55,1.32-11.08,4.67C279.47,120.57,283.83,119.53,286.35,117.2Z"/><path class="cls-4" d="M277.38,121.11a21.68,21.68,0,0,1-2.86-.19l-2.08-.27,1.52-1.44c3.73-3.54,8.16-5.38,11.89-4.94l.81.1.07.81a3.24,3.24,0,0,0,.48,1.5l.42.7-.6.56C284.81,120,281.33,121.11,277.38,121.11Zm-.22-2a13,13,0,0,0,7.95-2.18,4.79,4.79,0,0,1-.24-.73A13,13,0,0,0,277.16,119.12Z"/><path class="cls-5" d="M291.22,119.26a4.11,4.11,0,0,1-2.05,0c-1.43,3.12-1.07,7.58,1,12C292.29,126.84,292.65,122.38,291.22,119.26Z"/><path class="cls-4" d="M290.19,133.55l-.9-1.9c-2.21-4.62-2.59-9.41-1-12.81l.34-.74.8.19a3.29,3.29,0,0,0,1.59,0l.8-.19.34.74c1.56,3.4,1.17,8.19-1,12.81Zm-.39-13.18a13,13,0,0,0,.39,8.21,13,13,0,0,0,.4-8.21A3.48,3.48,0,0,1,289.8,120.37Z"/><path class="cls-5" d="M291.94,110.74a4.58,4.58,0,0,1,1.64,1.21c3-1.67,5.33-5.5,6.22-10.29C295.53,104,292.61,107.37,291.94,110.74Z"/><path class="cls-4" d="M293.35,113.22l-.53-.61a3.48,3.48,0,0,0-1.27-1l-.75-.32.16-.8c.73-3.66,3.86-7.31,8.36-9.76l1.84-1-.38,2.06c-.93,5-3.44,9.16-6.72,11Zm-.25-3a6.62,6.62,0,0,1,.62.46,13,13,0,0,0,4.53-6.88A12.91,12.91,0,0,0,293.1,110.22Z"/><path class="cls-5" d="M294.66,115.26a4.41,4.41,0,0,1-.63,1.94c2.53,2.33,6.88,3.37,11.7,2.73C302.2,116.58,298.07,114.86,294.66,115.26Z"/><path class="cls-4" d="M303,121.11c-3.94,0-7.42-1.12-9.64-3.17l-.6-.56.42-.69a3.58,3.58,0,0,0,.48-1.51l.07-.81.81-.1c3.7-.44,8.16,1.4,11.88,4.94l1.52,1.44-2.07.27A21.83,21.83,0,0,1,303,121.11Zm-7.72-4.17a13.18,13.18,0,0,0,7.94,2.18,13,13,0,0,0-7.71-2.91A6.18,6.18,0,0,1,295.28,116.94Z"/><path class="cls-6" d="M288.58,112.66a6.73,6.73,0,0,1-.29,1.6,6.44,6.44,0,0,1-.71,1.47,6.65,6.65,0,0,1,1.44.77,6.26,6.26,0,0,1,1.17,1.13,6.32,6.32,0,0,1,1.18-1.13,6.58,6.58,0,0,1,1.43-.77,6.41,6.41,0,0,1-.7-1.47,6.26,6.26,0,0,1-.29-1.6,6.33,6.33,0,0,1-1.62.22A6.25,6.25,0,0,1,288.58,112.66Z"/><path class="cls-6" d="M290.19,118.41l-.38-.46a5.91,5.91,0,0,0-1.09-1,5.64,5.64,0,0,0-1.32-.7l-.56-.23.32-.51a6.43,6.43,0,0,0,.66-1.35,6.32,6.32,0,0,0,.26-1.48l0-.6.58.15a5.58,5.58,0,0,0,3,0l.58-.15,0,.6a6.3,6.3,0,0,0,.27,1.48,6,6,0,0,0,.66,1.35l.31.51-.55.23a5.26,5.26,0,0,0-2.41,1.75Zm-1.89-2.91a6.57,6.57,0,0,1,1,.6,6.22,6.22,0,0,1,.88.77,6.28,6.28,0,0,1,.89-.77,6.12,6.12,0,0,1,1-.6,7.08,7.08,0,0,1-.47-1.08,6.67,6.67,0,0,1-.26-1.15,6.14,6.14,0,0,1-2.34,0,6.68,6.68,0,0,1-.25,1.15A7.08,7.08,0,0,1,288.3,115.5Z"/><path class="cls-7" d="M288.58,112.66a6.25,6.25,0,0,0,1.61.22,6.33,6.33,0,0,0,1.62-.22,7,7,0,0,1,.13-1.92,4.45,4.45,0,0,0-1.75-.35,4.4,4.4,0,0,0-1.74.35A7.37,7.37,0,0,1,288.58,112.66Z"/><path class="cls-4" d="M290.19,113.38a7.36,7.36,0,0,1-1.73-.23l-.41-.11,0-.41a6.78,6.78,0,0,0-.12-1.79l-.08-.4.37-.16a5,5,0,0,1,3.88,0l.38.16-.08.4a7.31,7.31,0,0,0-.13,1.79l0,.41-.4.11A7.51,7.51,0,0,1,290.19,113.38Zm-1.09-1.11a5.39,5.39,0,0,0,2.19,0,8.06,8.06,0,0,1,.08-1.2,4,4,0,0,0-2.36,0A8.08,8.08,0,0,1,289.1,112.27Z"/><path class="cls-7" d="M288.29,114.26a6.73,6.73,0,0,0,.29-1.6,7.05,7.05,0,0,1-1.77-.71,4.45,4.45,0,0,0-1.12,2.94c0,.13,0,.25,0,.37a7.08,7.08,0,0,1,1.85.47A6.44,6.44,0,0,0,288.29,114.26Z"/><path class="cls-4" d="M287.79,116.35l-.39-.16a7,7,0,0,0-1.73-.43l-.41-.05,0-.53a2.58,2.58,0,0,1,0-.29,5,5,0,0,1,1.24-3.27l.27-.3.35.2a7,7,0,0,0,1.65.66l.41.1,0,.42a7.32,7.32,0,0,1-.31,1.72A7.55,7.55,0,0,1,288,116Zm-1.6-1.53a7.55,7.55,0,0,1,1.18.3,6.28,6.28,0,0,0,.45-1A5.57,5.57,0,0,0,288,113a9.34,9.34,0,0,1-1.1-.44A3.93,3.93,0,0,0,286.19,114.82Z"/><path class="cls-7" d="M289,116.5a6.65,6.65,0,0,0-1.44-.77,6.87,6.87,0,0,1-1.23,1.47,4.47,4.47,0,0,0,2.82,2.06,7,7,0,0,1,1-1.63A6.26,6.26,0,0,0,289,116.5Z"/><path class="cls-4" d="M289.45,119.84l-.4-.09a5,5,0,0,1-3.13-2.29l-.21-.35.3-.27a6.8,6.8,0,0,0,1.15-1.38l.22-.35.39.16a6.59,6.59,0,0,1,1.54.83,6.79,6.79,0,0,1,1.27,1.21l.26.32-.26.32a6.75,6.75,0,0,0-1,1.52ZM287,117.27a4,4,0,0,0,1.9,1.4,8.91,8.91,0,0,1,.64-1,6.16,6.16,0,0,0-.82-.74,6.09,6.09,0,0,0-1-.55A8.34,8.34,0,0,1,287,117.27Z"/><path class="cls-7" d="M292.8,115.73a6.58,6.58,0,0,0-1.43.77,6.32,6.32,0,0,0-1.18,1.13,7.38,7.38,0,0,1,1,1.63A4.45,4.45,0,0,0,294,117.2,7.17,7.17,0,0,1,292.8,115.73Z"/><path class="cls-4" d="M290.93,119.84l-.17-.37a6.39,6.39,0,0,0-.95-1.52l-.27-.32.27-.32a6.5,6.5,0,0,1,1.27-1.21,6.59,6.59,0,0,1,1.54-.83l.38-.16.23.35a6.75,6.75,0,0,0,1.14,1.38l.3.27-.21.35a5,5,0,0,1-3.13,2.29Zm-.09-2.2a7.72,7.72,0,0,1,.64,1,4,4,0,0,0,1.91-1.4,7.36,7.36,0,0,1-.77-.92,5.18,5.18,0,0,0-1.78,1.29Z"/><path class="cls-7" d="M292.1,114.26a6.41,6.41,0,0,0,.7,1.47,7.26,7.26,0,0,1,1.86-.47c0-.12,0-.24,0-.37a4.49,4.49,0,0,0-1.11-2.94,7.05,7.05,0,0,1-1.77.71A6.26,6.26,0,0,0,292.1,114.26Z"/><path class="cls-4" d="M292.6,116.35l-.22-.35a7.55,7.55,0,0,1-.76-1.58,6.84,6.84,0,0,1-.31-1.72l0-.42.4-.1a6.86,6.86,0,0,0,1.65-.66l.36-.2.26.3a5,5,0,0,1,1.24,3.27c0,.1,0,.2,0,.3l-.05.52-.41.05a7,7,0,0,0-1.72.43Zm-.26-3.32a5.55,5.55,0,0,0,.23,1.08,6.28,6.28,0,0,0,.45,1,7.72,7.72,0,0,1,1.17-.3,3.86,3.86,0,0,0-.75-2.23A9.34,9.34,0,0,1,292.34,113Z"/><path class="cls-7" d="M289.17,119.26a4.11,4.11,0,0,0,2.05,0,7.38,7.38,0,0,0-1-1.63A7,7,0,0,0,289.17,119.26Z"/><path class="cls-6" d="M290.19,119.89a5.29,5.29,0,0,1-1.14-.14l-.59-.14.25-.56a8.15,8.15,0,0,1,1.1-1.74l.38-.46.39.46a7.74,7.74,0,0,1,1.09,1.74l.26.56-.6.14A5.22,5.22,0,0,1,290.19,119.89Zm-.26-1a4.69,4.69,0,0,0,.53,0,4.32,4.32,0,0,0-.27-.42A4.28,4.28,0,0,0,289.93,118.88Z"/><path class="cls-7" d="M288.45,110.74a4.58,4.58,0,0,0-1.64,1.21,7.05,7.05,0,0,0,1.77.71A7.37,7.37,0,0,0,288.45,110.74Z"/><path class="cls-6" d="M289,113.29l-.58-.14a7.88,7.88,0,0,1-1.89-.76l-.54-.3.4-.47a5.09,5.09,0,0,1,1.82-1.34l.57-.24.12.6a8,8,0,0,1,.14,2.06Zm-1.39-1.47.44.17a3.87,3.87,0,0,0,0-.48A2.94,2.94,0,0,0,287.65,111.82Z"/><path class="cls-7" d="M287.58,115.73a7.08,7.08,0,0,0-1.85-.47,4.39,4.39,0,0,0,.62,1.94A6.87,6.87,0,0,0,287.58,115.73Z"/><path class="cls-6" d="M286.24,118l-.32-.53a5,5,0,0,1-.69-2.16l-.05-.61.61.08a7.67,7.67,0,0,1,2,.5l.56.22L288,116a7.54,7.54,0,0,1-1.32,1.57Zm.09-2.12c.05.17.1.33.16.48q.17-.18.3-.36A3.45,3.45,0,0,0,286.33,115.87Z"/><path class="cls-7" d="M291.94,110.74a7,7,0,0,0-.13,1.92,7.05,7.05,0,0,0,1.77-.71A4.58,4.58,0,0,0,291.94,110.74Z"/><path class="cls-6" d="M291.35,113.29l0-.59a7.61,7.61,0,0,1,.14-2.06l.12-.6.56.24a5,5,0,0,1,1.83,1.34l.4.47-.54.3a8,8,0,0,1-1.89.76Zm1-1.78c0,.16,0,.32,0,.48l.44-.17A2.87,2.87,0,0,0,292.33,111.51Z"/><path class="cls-7" d="M294,117.2a4.41,4.41,0,0,0,.63-1.94,7.26,7.26,0,0,0-1.86.47A7.17,7.17,0,0,0,294,117.2Z"/><path class="cls-6" d="M294.15,118l-.45-.42a8.09,8.09,0,0,1-1.32-1.57l-.32-.51.56-.22a7.57,7.57,0,0,1,2-.5l.6-.08-.05.61a4.78,4.78,0,0,1-.69,2.16Zm-.56-2,.31.36a3.37,3.37,0,0,0,.15-.48A3.9,3.9,0,0,0,293.59,116Z"/><path class="cls-8" d="M70.45,109.74a4.4,4.4,0,0,1,1.74-.35,4.45,4.45,0,0,1,1.75.35c.67-3.37,3.59-6.76,7.86-9.08a23.65,23.65,0,0,0,.39-4.28c0-8.56-4.47-15.5-10-15.5s-10,6.94-10,15.5a23.64,23.64,0,0,0,.4,4.28C66.86,103,69.78,106.37,70.45,109.74Z"/><path class="cls-4" d="M74.68,111.14l-1.13-.48a3.54,3.54,0,0,0-2.71,0l-1.13.48-.24-1.2c-.62-3.1-3.37-6.23-7.36-8.4l-.42-.23-.09-.47a24.75,24.75,0,0,1-.41-4.46c0-9.1,4.94-16.5,11-16.5s11,7.4,11,16.5a24.75,24.75,0,0,1-.41,4.46l-.08.47-.42.23c-4,2.17-6.74,5.3-7.36,8.4Zm-2.49-2.75a5.1,5.1,0,0,1,1,.1c1-3.19,3.81-6.27,7.67-8.47a23.5,23.5,0,0,0,.29-3.64c0-8-4-14.5-9-14.5s-9,6.51-9,14.5a22.35,22.35,0,0,0,.3,3.64c3.85,2.2,6.63,5.28,7.66,8.47A5.16,5.16,0,0,1,72.19,108.39Z"/><path class="cls-8" d="M67.73,114.26c0-.12,0-.24,0-.37A4.45,4.45,0,0,1,68.81,111c-3-1.67-5.34-5.5-6.22-10.29a23.86,23.86,0,0,0-4-1.7c-8.14-2.64-16.13-.53-17.83,4.72s3.51,11.66,11.65,14.3a23.33,23.33,0,0,0,4.19,1C60.18,115.58,64.32,113.86,67.73,114.26Z"/><path class="cls-4" d="M57,120l-.48-.07a23.85,23.85,0,0,1-4.37-1,21.42,21.42,0,0,1-10-6.5c-2.43-3-3.25-6.19-2.31-9.06s3.49-5,7.19-6A21.43,21.43,0,0,1,59,98a25.32,25.32,0,0,1,4.12,1.77l.41.23.09.47c.83,4.47,3,8.06,5.73,9.6l1.07.6-.81.93a3.49,3.49,0,0,0-.87,2.28c0,.16,0,.23,0,.29l.09,1.22-1.21-.14c-3.14-.39-7,1.27-10.27,4.4ZM51.69,98.82a16.09,16.09,0,0,0-4.12.51c-3,.8-5.09,2.46-5.81,4.66s0,4.76,2,7.19A19.42,19.42,0,0,0,52.77,117a22.39,22.39,0,0,0,3.55.85c3.28-3,7.07-4.67,10.41-4.67h0a5.5,5.5,0,0,1,.65-2c-2.71-2-4.79-5.56-5.69-9.91a22.4,22.4,0,0,0-3.37-1.4A21.57,21.57,0,0,0,51.69,98.82Z"/><path class="cls-8" d="M71.17,118.26a4.47,4.47,0,0,1-2.82-2.06c-2.52,2.33-6.88,3.37-11.7,2.73a23.46,23.46,0,0,0-2.83,3.23c-5,6.93-5.49,15.17-1,18.42s12.17.26,17.2-6.66a23.17,23.17,0,0,0,2.19-3.7C70.1,125.84,69.74,121.38,71.17,118.26Z"/><path class="cls-4" d="M57,142.87a8,8,0,0,1-4.83-1.48c-4.91-3.57-4.55-12.46.8-19.82a24.73,24.73,0,0,1,3-3.36l.35-.33.47.06c4.51.59,8.58-.33,10.89-2.47l.91-.83.63,1a3.5,3.5,0,0,0,2.19,1.6l1.19.28-.51,1.11c-1.32,2.86-.94,7,1,11.11l.2.43-.2.43a25.32,25.32,0,0,1-2.29,3.86C67,139.79,61.59,142.87,57,142.87ZM57,120a23.28,23.28,0,0,0-2.39,2.77c-4.69,6.47-5.25,14.1-1.24,17s11.11,0,15.81-6.44a23,23,0,0,0,1.9-3.12c-1.83-4-2.26-8.17-1.23-11.35a5.48,5.48,0,0,1-1.67-1.23C65.48,119.6,61.42,120.47,57,120Z"/><path class="cls-8" d="M76,116.2a4.45,4.45,0,0,1-2.81,2.06c1.43,3.12,1.07,7.58-1,12a24,24,0,0,0,2.2,3.7c5,6.92,12.73,9.91,17.2,6.66s4-11.49-1-18.42a22.86,22.86,0,0,0-2.84-3.23C82.91,119.57,78.56,118.53,76,116.2Z"/><path class="cls-4" d="M87.31,142.9a12.49,12.49,0,0,1-4.47-.9,21.49,21.49,0,0,1-9.26-7.49,25.32,25.32,0,0,1-2.29-3.86l-.21-.43.21-.43c1.95-4.09,2.33-8.25,1-11.11l-.51-1.11,1.19-.28a3.52,3.52,0,0,0,2.19-1.6l.63-1,.9.83c2.32,2.14,6.4,3.06,10.89,2.47l.48-.06.34.33a24.14,24.14,0,0,1,3,3.36c5.35,7.36,5.7,16.25.8,19.82A8.16,8.16,0,0,1,87.31,142.9Zm-14-12.69a23,23,0,0,0,1.9,3.12,19.38,19.38,0,0,0,8.36,6.8c2.92,1.13,5.56,1,7.44-.36,4-2.92,3.46-10.55-1.24-17A22.32,22.32,0,0,0,87.38,120c-4.41.49-8.47-.38-11.18-2.35a5.65,5.65,0,0,1-1.68,1.23C75.56,122,75.12,126.17,73.3,130.21Z"/><path class="cls-8" d="M103.58,103.68c-1.71-5.25-9.69-7.36-17.83-4.72a23.15,23.15,0,0,0-4,1.7c-.89,4.79-3.22,8.62-6.22,10.29a4.49,4.49,0,0,1,1.11,2.94c0,.13,0,.25,0,.37,3.41-.4,7.54,1.32,11.07,4.67a23.43,23.43,0,0,0,4.2-1C100.07,115.34,105.28,108.94,103.58,103.68Z"/><path class="cls-4" d="M87.39,120l-.34-.33c-3.3-3.13-7.14-4.77-10.28-4.4l-1.22.14.13-1.41a3.47,3.47,0,0,0-.86-2.38l-.81-.93,1.08-.6c2.76-1.54,4.9-5.13,5.73-9.6l.08-.47.42-.23A25.32,25.32,0,0,1,85.44,98a21.4,21.4,0,0,1,11.89-.61c3.71,1,6.26,3.1,7.2,6s.11,6.09-2.31,9.06a21.47,21.47,0,0,1-10,6.5,24.22,24.22,0,0,1-4.37,1Zm-9.74-6.78c3.35,0,7.14,1.68,10.42,4.67a22.65,22.65,0,0,0,3.55-.85,19.47,19.47,0,0,0,9-5.85c2-2.43,2.67-5,2-7.19s-2.78-3.86-5.81-4.66a19.35,19.35,0,0,0-10.76.59,22.4,22.4,0,0,0-3.37,1.4c-.9,4.35-3,8-5.7,9.91a5.33,5.33,0,0,1,.66,2Z"/><path class="cls-9" d="M68.81,111a4.58,4.58,0,0,1,1.64-1.21c-.67-3.37-3.59-6.76-7.86-9.08C63.47,105.45,65.81,109.28,68.81,111Z"/><path class="cls-4" d="M69,112.22l-.71-.39c-3.27-1.83-5.78-5.94-6.72-11l-.38-2.06,1.84,1c4.51,2.45,7.64,6.1,8.37,9.76l.16.8-.75.32a3.6,3.6,0,0,0-1.28,1Zm-4.89-9.42a12.9,12.9,0,0,0,4.53,6.88,5.52,5.52,0,0,1,.62-.46A13,13,0,0,0,64.14,102.8Z"/><path class="cls-9" d="M68.35,116.2a4.39,4.39,0,0,1-.62-1.94c-3.41-.4-7.55,1.32-11.08,4.67C61.47,119.57,65.83,118.53,68.35,116.2Z"/><path class="cls-4" d="M59.38,120.11a21.68,21.68,0,0,1-2.86-.19l-2.08-.27L56,118.21c3.73-3.54,8.16-5.38,11.89-4.94l.81.1.07.81a3.24,3.24,0,0,0,.48,1.5l.42.7-.6.56C66.81,119,63.33,120.11,59.38,120.11Zm-.22-2a13.11,13.11,0,0,0,8-2.18,4.79,4.79,0,0,1-.24-.73A13.13,13.13,0,0,0,59.16,118.12Z"/><path class="cls-9" d="M73.22,118.26a4.11,4.11,0,0,1-2,0c-1.43,3.12-1.07,7.58,1,12C74.29,125.84,74.65,121.38,73.22,118.26Z"/><path class="cls-4" d="M72.19,132.55l-.9-1.9c-2.21-4.62-2.59-9.41-1-12.81l.34-.74.8.19a3.29,3.29,0,0,0,1.59,0l.8-.19.34.74c1.56,3.4,1.17,8.19-1,12.81Zm-.39-13.18a13,13,0,0,0,.39,8.21,13,13,0,0,0,.4-8.21A3.48,3.48,0,0,1,71.8,119.37Z"/><path class="cls-9" d="M73.94,109.74A4.58,4.58,0,0,1,75.58,111c3-1.67,5.33-5.5,6.22-10.29C77.53,103,74.61,106.37,73.94,109.74Z"/><path class="cls-4" d="M75.35,112.22l-.53-.61a3.48,3.48,0,0,0-1.27-1l-.75-.32.16-.8c.73-3.66,3.86-7.31,8.36-9.76l1.84-1-.38,2.06c-.93,5-3.44,9.16-6.72,11Zm-.25-3a6.62,6.62,0,0,1,.62.46,13,13,0,0,0,4.53-6.88A12.91,12.91,0,0,0,75.1,109.22Z"/><path class="cls-9" d="M76.66,114.26A4.41,4.41,0,0,1,76,116.2c2.53,2.33,6.88,3.37,11.7,2.73C84.2,115.58,80.07,113.86,76.66,114.26Z"/><path class="cls-4" d="M85,120.11c-3.94,0-7.42-1.12-9.64-3.17l-.6-.56.42-.69a3.58,3.58,0,0,0,.48-1.51l.07-.81.81-.1c3.7-.44,8.16,1.4,11.88,4.94l1.52,1.44-2.07.27A21.83,21.83,0,0,1,85,120.11Zm-7.72-4.17a13.12,13.12,0,0,0,7.94,2.18,13,13,0,0,0-7.71-2.91A6.18,6.18,0,0,1,77.28,115.94Z"/><path class="cls-6" d="M70.58,111.66a6.73,6.73,0,0,1-.29,1.6,6.44,6.44,0,0,1-.71,1.47,6.65,6.65,0,0,1,1.44.77,6.26,6.26,0,0,1,1.17,1.13,6.32,6.32,0,0,1,1.18-1.13,6.58,6.58,0,0,1,1.43-.77,6.41,6.41,0,0,1-.7-1.47,6.26,6.26,0,0,1-.29-1.6,6.33,6.33,0,0,1-1.62.22A6.25,6.25,0,0,1,70.58,111.66Z"/><path class="cls-6" d="M72.19,117.41l-.38-.46a5.91,5.91,0,0,0-1.09-1,5.64,5.64,0,0,0-1.32-.7l-.56-.23.32-.51a6.43,6.43,0,0,0,.66-1.35,6.32,6.32,0,0,0,.26-1.48l0-.6.58.15a5.58,5.58,0,0,0,3,0l.58-.15,0,.6a6.3,6.3,0,0,0,.27,1.48,6,6,0,0,0,.66,1.35l.31.51-.55.23A5.26,5.26,0,0,0,72.58,117ZM70.3,114.5a6.57,6.57,0,0,1,1,.6,6.22,6.22,0,0,1,.88.77,6.28,6.28,0,0,1,.89-.77,6.12,6.12,0,0,1,1-.6,7.08,7.08,0,0,1-.47-1.08,6.67,6.67,0,0,1-.26-1.15,6.14,6.14,0,0,1-2.34,0,6.68,6.68,0,0,1-.25,1.15A7.08,7.08,0,0,1,70.3,114.5Z"/><path class="cls-7" d="M70.58,111.66a6.25,6.25,0,0,0,1.61.22,6.33,6.33,0,0,0,1.62-.22,7,7,0,0,1,.13-1.92,4.45,4.45,0,0,0-1.75-.35,4.4,4.4,0,0,0-1.74.35A7.37,7.37,0,0,1,70.58,111.66Z"/><path class="cls-4" d="M72.19,112.38a7.36,7.36,0,0,1-1.73-.23l-.41-.11,0-.41a6.78,6.78,0,0,0-.12-1.79l-.08-.4.37-.16a5,5,0,0,1,3.88,0l.38.16-.08.4a7.31,7.31,0,0,0-.13,1.79l0,.41-.4.11A7.51,7.51,0,0,1,72.19,112.38Zm-1.09-1.11a5.39,5.39,0,0,0,2.19,0,8.06,8.06,0,0,1,.08-1.2,4,4,0,0,0-2.36,0A8.08,8.08,0,0,1,71.1,111.27Z"/><path class="cls-7" d="M70.29,113.26a6.73,6.73,0,0,0,.29-1.6,7.05,7.05,0,0,1-1.77-.71,4.45,4.45,0,0,0-1.12,2.94c0,.13,0,.25,0,.37a7.08,7.08,0,0,1,1.85.47A6.44,6.44,0,0,0,70.29,113.26Z"/><path class="cls-4" d="M69.79,115.35l-.39-.16a7,7,0,0,0-1.73-.43l-.41-.05,0-.53a2.58,2.58,0,0,1,0-.29,5,5,0,0,1,1.24-3.27l.27-.3.35.2a7,7,0,0,0,1.65.66l.41.1,0,.42a7.32,7.32,0,0,1-.31,1.72A7.55,7.55,0,0,1,70,115Zm-1.6-1.53a7.55,7.55,0,0,1,1.18.3,6.28,6.28,0,0,0,.45-1A5.57,5.57,0,0,0,70,112a9.34,9.34,0,0,1-1.1-.44A3.93,3.93,0,0,0,68.19,113.82Z"/><path class="cls-7" d="M71,115.5a6.65,6.65,0,0,0-1.44-.77,6.87,6.87,0,0,1-1.23,1.47,4.47,4.47,0,0,0,2.82,2.06,7,7,0,0,1,1-1.63A6.26,6.26,0,0,0,71,115.5Z"/><path class="cls-4" d="M71.45,118.84l-.4-.09a5,5,0,0,1-3.13-2.29l-.21-.35.3-.27a6.8,6.8,0,0,0,1.15-1.38l.22-.35.39.16a6.59,6.59,0,0,1,1.54.83,6.79,6.79,0,0,1,1.27,1.21l.26.32-.26.32a6.75,6.75,0,0,0-1,1.52ZM69,116.27a4,4,0,0,0,1.9,1.4,8.91,8.91,0,0,1,.64-1,6.16,6.16,0,0,0-.82-.74,6.09,6.09,0,0,0-1-.55A8.34,8.34,0,0,1,69,116.27Z"/><path class="cls-7" d="M74.8,114.73a6.58,6.58,0,0,0-1.43.77,6.32,6.32,0,0,0-1.18,1.13,7.38,7.38,0,0,1,1,1.63A4.45,4.45,0,0,0,76,116.2,7.17,7.17,0,0,1,74.8,114.73Z"/><path class="cls-4" d="M72.93,118.84l-.17-.37a6.39,6.39,0,0,0-1-1.52l-.27-.32.27-.32a6.5,6.5,0,0,1,1.27-1.21,6.59,6.59,0,0,1,1.54-.83l.38-.16.23.35a6.75,6.75,0,0,0,1.14,1.38l.3.27-.21.35a5,5,0,0,1-3.13,2.29Zm-.09-2.2a7.72,7.72,0,0,1,.64,1,4,4,0,0,0,1.91-1.4,7.36,7.36,0,0,1-.77-.92,5.18,5.18,0,0,0-1.78,1.29Z"/><path class="cls-7" d="M74.1,113.26a6.41,6.41,0,0,0,.7,1.47,7.26,7.26,0,0,1,1.86-.47c0-.12,0-.24,0-.37A4.49,4.49,0,0,0,75.58,111a7.05,7.05,0,0,1-1.77.71A6.26,6.26,0,0,0,74.1,113.26Z"/><path class="cls-4" d="M74.6,115.35l-.22-.35a7.55,7.55,0,0,1-.76-1.58,6.84,6.84,0,0,1-.31-1.72l0-.42.4-.1a6.86,6.86,0,0,0,1.65-.66l.36-.2.26.3a5,5,0,0,1,1.24,3.27c0,.1,0,.2,0,.3l0,.52-.41.05a7,7,0,0,0-1.72.43ZM74.34,112a5.55,5.55,0,0,0,.23,1.08,6.28,6.28,0,0,0,.45,1,7.72,7.72,0,0,1,1.17-.3,3.86,3.86,0,0,0-.75-2.23A9.34,9.34,0,0,1,74.34,112Z"/><path class="cls-7" d="M71.17,118.26a4.11,4.11,0,0,0,2,0,7.38,7.38,0,0,0-1-1.63A7,7,0,0,0,71.17,118.26Z"/><path class="cls-6" d="M72.19,118.89a5.29,5.29,0,0,1-1.14-.14l-.59-.14.25-.56a8.15,8.15,0,0,1,1.1-1.74l.38-.46.39.46a7.74,7.74,0,0,1,1.09,1.74l.26.56-.6.14A5.22,5.22,0,0,1,72.19,118.89Zm-.26-1a4.69,4.69,0,0,0,.53,0,4.32,4.32,0,0,0-.27-.42A4.28,4.28,0,0,0,71.93,117.88Z"/><path class="cls-7" d="M70.45,109.74A4.58,4.58,0,0,0,68.81,111a7.05,7.05,0,0,0,1.77.71A7.37,7.37,0,0,0,70.45,109.74Z"/><path class="cls-6" d="M71,112.29l-.58-.14a7.88,7.88,0,0,1-1.89-.76l-.54-.3.4-.47a5.09,5.09,0,0,1,1.82-1.34l.57-.24.12.6a8,8,0,0,1,.14,2.06Zm-1.39-1.47.44.17a3.87,3.87,0,0,0,0-.48A2.94,2.94,0,0,0,69.65,110.82Z"/><path class="cls-7" d="M69.58,114.73a7.08,7.08,0,0,0-1.85-.47,4.39,4.39,0,0,0,.62,1.94A6.87,6.87,0,0,0,69.58,114.73Z"/><path class="cls-6" d="M68.24,117l-.32-.53a5,5,0,0,1-.69-2.16l0-.61.61.08a7.67,7.67,0,0,1,2,.5l.56.22L70,115a7.54,7.54,0,0,1-1.32,1.57Zm.09-2.12c0,.17.1.33.16.48q.17-.18.3-.36A3.45,3.45,0,0,0,68.33,114.87Z"/><path class="cls-7" d="M73.94,109.74a7,7,0,0,0-.13,1.92,7.05,7.05,0,0,0,1.77-.71A4.58,4.58,0,0,0,73.94,109.74Z"/><path class="cls-6" d="M73.35,112.29l0-.59a7.61,7.61,0,0,1,.14-2.06l.12-.6.56.24A5,5,0,0,1,76,110.62l.4.47-.54.3a8,8,0,0,1-1.89.76Zm1-1.78c0,.16,0,.32,0,.48l.44-.17A2.87,2.87,0,0,0,74.33,110.51Z"/><path class="cls-7" d="M76,116.2a4.41,4.41,0,0,0,.63-1.94,7.26,7.26,0,0,0-1.86.47A7.17,7.17,0,0,0,76,116.2Z"/><path class="cls-6" d="M76.15,117l-.45-.42A8.09,8.09,0,0,1,74.38,115l-.32-.51.56-.22a7.57,7.57,0,0,1,2-.5l.6-.08,0,.61a4.78,4.78,0,0,1-.69,2.16Zm-.56-2,.31.36a3.37,3.37,0,0,0,.15-.48A3.9,3.9,0,0,0,75.59,115Z"/></svg>