<svg id="Layer_1" data-name="Layer 1" xmlns="http://www.w3.org/2000/svg" viewBox="0 0 470.39 360.76"><defs><style>.cls-1{fill:#ced5cb;}.cls-2{fill:#f2f2f2;}</style></defs><title>Artboard 1</title><path class="cls-1" d="M223,190.16v-5.74H239.2v5.74a5.56,5.56,0,0,0,5.54,5.53h1.38a5.56,5.56,0,0,0,5.54-5.53v-5.74h16.19v5.74a5.57,5.57,0,0,0,5.55,5.53h1.38a5.56,5.56,0,0,0,5.54-5.53v-5.74h3.3l10.55,10.34V211.3h11.08V190.12l-17.1-16.76h-7.83v-5.61a5.56,5.56,0,0,0-5.54-5.53H273.4a5.57,5.57,0,0,0-5.55,5.53v5.61H251.66v-5.61a5.56,5.56,0,0,0-5.54-5.53h-1.38a5.56,5.56,0,0,0-5.54,5.53v5.61H223v-5.61a5.56,5.56,0,0,0-5.54-5.53h-1.39a5.56,5.56,0,0,0-5.54,5.53v5.61H194.35v-5.61a5.56,5.56,0,0,0-5.54-5.53h-1.39a5.56,5.56,0,0,0-5.54,5.53v5.61H155.66V339.22H204.6l2.77-11.06H166.74V184.42h15.14v5.74a5.56,5.56,0,0,0,5.54,5.53h1.39a5.56,5.56,0,0,0,5.54-5.53v-5.74h16.19v5.74a5.56,5.56,0,0,0,5.54,5.53h1.39A5.56,5.56,0,0,0,223,190.16Z"/><path class="cls-1" d="M329.37,246.31l-17.73-17.7a11,11,0,0,0-15.51-.19v0h0L231.45,293l-1.3,1.29L219,338.9l44.64-11.18,4.17-4.24h0l61.78-61.69h0a0,0,0,0,0,0,0A11,11,0,0,0,329.37,246.31Zm-94.64,52.47,24.41,24.36-22.92,5.73-7.15-7.52Zm28.89,9.29-13.84-13.82L296.12,248,310,261.81Z"/><path class="cls-2" d="M45.73,137.53a1.47,1.47,0,0,1,2-1.11L63,141a1.47,1.47,0,0,1,1.1,2l-2,6.58a1.52,1.52,0,0,1-2,1.18c-7.1-1.32-10.4-.2-12.14,5.66l-2.51,8.45a1.46,1.46,0,0,0,1.1,2l22.16,6.59c3.38,1,4.33.24,5.21-2.72l1.53-5.13a1.46,1.46,0,0,1,2-1.1l4.1,1.22a1.46,1.46,0,0,1,1.1,2L71.31,206.2a1.47,1.47,0,0,1-2,1.1l-4.11-1.22a1.47,1.47,0,0,1-1.1-2l1.53-5.13c.88-3,.5-4.12-2.88-5.13l-22.16-6.59a1.45,1.45,0,0,0-2,1.1L36,196.74c-1.76,5.92.4,8.6,7.07,11.37a1.55,1.55,0,0,1,1,2.08l-2,6.59a1.46,1.46,0,0,1-2,1.1l-15.22-4.53a1.46,1.46,0,0,1-1.1-2Z"/><path class="cls-2" d="M136.81,85.58a1.4,1.4,0,0,1,2.19,0l3.18,2.87a1.47,1.47,0,0,1,.12,2.32L115.94,120a1.46,1.46,0,0,1-2.31.12l-3.18-2.87a1.46,1.46,0,0,1-.12-2.31l3.33-3.7c1.77-2,1.15-3.62-1-3.82l-1.48-.24a2.37,2.37,0,0,0-2.1.83L89.42,129.79a2.3,2.3,0,0,0-.6,2.18l.3,1.54c.47,2.12,2.27,2.47,4,.51l3.46-3.84a1.46,1.46,0,0,1,2.31-.12l3.19,2.87a1.47,1.47,0,0,1,.12,2.31L83,156.58a1.47,1.47,0,0,1-2.31.12l-3.18-2.87c-.8-.72-.88-1.47-.29-2.13l.42-.46c2.62-2.91,3.45-5,2.65-9.15l-5-25.84c-.49-2.56-2.27-3.22-4-1.31l-1.77,2a1.46,1.46,0,0,1-2.31.12l-3.19-2.87a1.46,1.46,0,0,1-.11-2.31l22.9-25.41A2.32,2.32,0,0,1,89,85.62l38.66,4c4,.46,6.12-.59,8.87-3.63ZM99,107.93c.93-1,.57-2-.82-2.1L85,104.42c-1.17-.12-1.76.54-1.52,1.69l2.73,13.06c.3,1.37,1.25,1.63,2.13.65Z"/><path class="cls-2" d="M187.11,43.26a2.17,2.17,0,0,1-2.23-.36c-5.42-3.6-15.17-1.22-23.11,1.81-7.12,2.72-14.22,6.38-12.9,9.85.72,1.88,3.3,2.11,8,.65l19.83-6.16c15.78-4.94,25.35-5,28.63,3.63C209.7,64.1,196.5,74.2,180,80.49c-9.42,3.6-19.51,5.77-26,5.13a1.43,1.43,0,0,0-1.86,1.32L152,88.08a2,2,0,0,1-1.42,1.76l-5.94,2.27a1.48,1.48,0,0,1-2.12-1l-4-10.47a1.48,1.48,0,0,1,.95-2.12L148,75.31a2,2,0,0,1,2.19.45c5.49,4.31,16.84,1.53,25.2-1.67,6.76-2.58,13.88-6.38,12.55-9.85-.72-1.88-3.4-2.21-7.81-.86L161.41,69.2c-15.88,5-26.14,4.65-29.36-3.77-4.63-12.12,11.95-22,25-27,9.94-3.79,18.86-5.17,24.11-4.48,1,.07,1.68-.38,1.78-1.36l.17-1.14a2.06,2.06,0,0,1,1.42-1.76l5.94-2.27a1.48,1.48,0,0,1,2.12,1L196.29,38a1.45,1.45,0,0,1-.94,2.11Z"/><path class="cls-2" d="M301.63,74a1.46,1.46,0,0,1-1.81,1.44l-40.38-4.53A1.48,1.48,0,0,1,258,69.09l.48-4.25a1.47,1.47,0,0,1,1.81-1.45l2.51.28c2.44.28,3-1.24,1.48-3l-8.57-9.52a1.92,1.92,0,0,0-2.22-.57l-9.86,3.14c-.92.28-1.35.74-1.43,1.43L242,57.09c-.39,3.5.53,4.31,3.6,4.65l5,.56A1.46,1.46,0,0,1,252,64.11l-.48,4.25a1.46,1.46,0,0,1-1.81,1.45l-39.44-4.43a1.46,1.46,0,0,1-1.44-1.81l.48-4.26a1.47,1.47,0,0,1,1.81-1.45l5.32.6c3.07.35,4.15-.23,4.54-3.73l2.29-20.41c.4-3.51-.53-4.31-3.6-4.66l-5.32-.59a1.46,1.46,0,0,1-1.44-1.81l.48-4.26a1.47,1.47,0,0,1,1.81-1.45L254.6,26A1.46,1.46,0,0,1,256,27.8l-.48,4.25a1.46,1.46,0,0,1-1.81,1.45l-4.94-.56c-3.07-.34-4.15.23-4.54,3.74l-.79,7c-.14,1.25.55,1.84,1.74,1.46l23.06-7.23c2.62-.78,2.13-2.55.06-2.78l-4.38-.5a1.46,1.46,0,0,1-1.45-1.81l.48-4.25a1.47,1.47,0,0,1,1.81-1.45l37.63,4.23a1.46,1.46,0,0,1,1.44,1.81l-.48,4.26a1.46,1.46,0,0,1-1.81,1.44l-2.69-.3a24.65,24.65,0,0,0-10.76,1l-12.82,4.07c-1.18.37-1.41,1.3-.56,2.22L290.47,63.3c2.87,3.24,6.06,4.17,9.88,4.59l.19,0c1.19.14,1.69.77,1.57,1.83Z"/><path class="cls-2" d="M386.81,85.2a1.47,1.47,0,0,1,.4,2.28l-9.14,13a1.46,1.46,0,0,1-2.28.4l-5.62-4a1.53,1.53,0,0,1-.48-2.27c3.51-6.31,3.49-9.79-1.51-13.3L361,76.27a1.47,1.47,0,0,0-2.28.4l-13.3,18.92c-2,2.88-1.61,4,.92,5.81l4.38,3.07a1.47,1.47,0,0,1,.4,2.29l-2.47,3.5a1.46,1.46,0,0,1-2.28.4l-32.78-23a1.47,1.47,0,0,1-.4-2.28l2.47-3.5a1.46,1.46,0,0,1,2.28-.4l4.38,3.08c2.53,1.78,3.75,1.79,5.78-1.1l13.3-18.91a1.47,1.47,0,0,0-.4-2.29l-7.22-5.07c-5.05-3.55-8.27-2.35-13,3.09a1.57,1.57,0,0,1-2.3.31l-5.62-3.95a1.47,1.47,0,0,1-.4-2.29l9.13-13a1.47,1.47,0,0,1,2.29-.4Z"/><path class="cls-2" d="M387.56,144c-2.93,2-2.94,3.2-1.2,5.76l3,4.43a1.47,1.47,0,0,1-.44,2.28l-3.55,2.4a1.46,1.46,0,0,1-2.27-.44l-22.47-33.18a1.46,1.46,0,0,1,.44-2.27l3.55-2.41a1.46,1.46,0,0,1,2.27.44l3,4.44c1.73,2.55,2.87,3,5.79,1l17-11.51c2.92-2,2.93-3.2,1.2-5.76l-3-4.44a1.46,1.46,0,0,1,.44-2.27l3.54-2.4a1.47,1.47,0,0,1,2.28.44l22.46,33.17a1.47,1.47,0,0,1-.43,2.28l-3.55,2.4a1.46,1.46,0,0,1-2.27-.44l-3-4.43c-1.73-2.56-2.87-3-5.79-1Z"/><path class="cls-2" d="M428.54,212.47a2,2,0,0,1,.69-2.13c5.34-4.54,6.71-11.65,4.3-21.12-3.34-13.12-10.53-18.63-20.85-16s-14,10.91-10.6,24.22c2.49,9.76,7.13,15.47,14,16.57a2,2,0,0,1,1.77,1.57l2.19,8.6c.3,1.16-.29,1.9-1.44,1.74-9.69-1-19.31-8.67-24.62-29.48C388.3,174,390.41,155.23,407,151s27.47,11.39,33,33c2.37,9.28,2.52,16.78.87,22.27a1.46,1.46,0,0,0,1.11,2.06l1.33.38a2.08,2.08,0,0,1,1.6,1.67l1.72,6.77a1.47,1.47,0,0,1-1.18,2l-12.7,3.23a1.46,1.46,0,0,1-2-1.18Z"/></svg>